<svg width="46" height="58" viewBox="0 0 46 58" fill="none" xmlns="http://www.w3.org/2000/svg">
<path opacity="0.959" fill-rule="evenodd" clip-rule="evenodd" d="M21.6067 0.845666C24.7347 0.535678 27.3785 1.50443 29.5384 3.75192C32.3437 7.28382 35.149 10.8157 37.9544 14.3476C38.8424 14.3879 39.7305 14.4284 40.6184 14.4687C43.2207 15.4561 44.0886 17.2926 43.222 19.9785C42.5534 21.2919 41.4838 22.0184 40.013 22.1582C40.4972 23.5903 41.0421 25.0031 41.6477 26.3965C42.8544 29.7688 43.0563 33.1997 42.2532 36.6894C42.0071 38.9255 42.2493 41.1052 42.9798 43.2285C43.519 44.5494 44.1245 45.841 44.7962 47.1035C45.9801 51.13 44.7894 54.2179 41.2239 56.3672C40.601 56.642 39.9551 56.8439 39.2864 56.9726C28.388 57.0534 17.4895 57.0534 6.5911 56.9726C3.31468 56.1988 1.357 54.1605 0.718059 50.8574C0.625798 49.9232 0.666158 48.9948 0.839153 48.0722C1.63947 46.2698 2.4064 44.4533 3.13993 42.623C3.6371 40.9207 3.83892 39.185 3.7454 37.416C3.6102 36.2818 3.44875 35.1517 3.26103 34.0254C3.04936 31.806 3.25118 29.6263 3.8665 27.4863C4.54571 25.7107 5.21173 23.9346 5.86454 22.1582C4.38429 22.0293 3.31465 21.3028 2.65556 19.9785C1.8061 17.3942 2.61339 15.5778 5.07743 14.5293C6.02172 14.434 6.97025 14.3734 7.92314 14.3476C10.9619 10.5312 14.0295 6.7369 17.1263 2.96481C18.4406 1.86345 19.9341 1.15707 21.6067 0.845666ZM21.7278 2.90426C23.9389 2.62895 25.8764 3.21424 27.5403 4.66012C30.1063 7.85168 32.6493 11.0607 35.1692 14.2871C27.0156 14.4485 18.8619 14.4485 10.7083 14.2871C13.1676 11.1212 15.65 7.9728 18.1556 4.84176C19.1726 3.85925 20.3633 3.21341 21.7278 2.90426ZM6.47001 16.3457C17.4492 16.3254 28.4284 16.3457 39.4075 16.4062C41.0839 16.7921 41.5884 17.7811 40.9212 19.373C40.5259 19.8431 40.0214 20.1055 39.4075 20.1601C28.4283 20.2409 17.4492 20.2409 6.47001 20.1601C4.79359 19.7742 4.28911 18.7852 4.95634 17.1933C5.37581 16.732 5.88041 16.4493 6.47001 16.3457ZM8.16532 22.1582C18.0144 22.1379 27.8633 22.1582 37.7122 22.2187C38.4417 23.9628 39.1481 25.7187 39.8313 27.4863C40.3819 29.0539 40.6847 30.6685 40.7395 32.33C40.4581 34.3414 40.2563 36.3596 40.1341 38.3847C40.1109 40.4258 40.4541 42.4037 41.1634 44.3183C41.8758 45.7429 42.5216 47.196 43.1009 48.6777C43.4742 51.4636 42.4046 53.4616 39.8919 54.6718C39.3046 54.8816 38.6991 55.0027 38.0755 55.0351C27.9844 55.1159 17.8931 55.1159 7.80204 55.0351C5.14016 54.8249 3.46501 53.4323 2.77665 50.8574C2.69592 50.1308 2.69592 49.4043 2.77665 48.6777C3.35598 47.196 4.00182 45.7429 4.71415 44.3183C5.64306 41.7711 5.96602 39.1474 5.6829 36.4472C4.93091 33.4267 5.052 30.4398 6.04618 27.4863C6.78764 25.7214 7.4941 23.9453 8.16532 22.1582Z" fill="#69BD44"/>
<path opacity="0.94" fill-rule="evenodd" clip-rule="evenodd" d="M24.2725 26.2754C25.4417 26.1733 25.9059 26.698 25.665 27.8496C25.1735 28.2802 24.7497 28.7646 24.3935 29.3028C25.7137 30.3687 26.5008 31.7411 26.7549 33.4199C26.876 33.2988 26.9971 33.1778 27.1182 33.0567C27.5097 28.7508 29.871 26.7528 34.2021 27.0625C34.6087 27.3886 34.7702 27.8125 34.6865 28.334C34.5365 32.0925 32.599 34.1309 28.874 34.4492C28.6175 34.4807 28.4158 34.6018 28.2685 34.8125C29.9517 35.099 31.3039 35.9266 32.3252 37.2949C32.749 36.8711 33.1728 36.4473 33.5967 36.0235C34.8691 35.8021 35.3333 36.3066 34.9892 37.5371C34.2425 38.2839 33.4958 39.0306 32.749 39.7774C30.871 40.8964 28.893 41.1386 26.8154 40.5039C25.8501 40.0512 25.063 39.3851 24.4541 38.5059C24.0303 38.9297 23.6064 39.3535 23.1826 39.7774C25.3681 40.2663 27.0029 41.4975 28.0869 43.4707C28.3127 44.2532 28.0503 44.7982 27.2998 45.1055C25.6764 45.8932 23.9811 46.0949 22.2139 45.711C21.11 45.2506 20.2018 44.5442 19.4892 43.5918C19.0654 44.0156 18.6416 44.4395 18.2178 44.8633C20.4539 45.364 22.0886 46.6355 23.1221 48.6778C23.2186 49.1145 23.1177 49.498 22.8193 49.8281C20.6515 51.1764 18.4314 51.2975 16.1592 50.1914C15.576 49.7093 15.011 49.2048 14.4639 48.6778C14.0015 49.0795 13.5575 49.5034 13.1318 49.9492C12.0182 50.481 11.4329 50.1378 11.376 48.9199C11.8121 48.2614 12.3166 47.656 12.8896 47.1035C10.4672 44.7796 10.0433 42.1156 11.6182 39.1113C11.8114 38.6555 12.1545 38.4134 12.6475 38.3848C14.9624 39.3076 16.3147 41.003 16.7041 43.4707C17.15 43.0451 17.5738 42.601 17.9756 42.1387C17.5335 41.6359 17.0693 41.1515 16.583 40.6856C15.3337 38.3516 15.4143 36.0508 16.8252 33.7832C17.1464 33.457 17.53 33.3561 17.9756 33.4805C20.089 34.5045 21.3202 36.1797 21.6689 38.5059C22.1331 38.0417 22.5974 37.5775 23.0615 37.1133C20.6905 35.2413 20.0649 32.88 21.1846 30.0293C21.3864 29.6257 21.5882 29.222 21.79 28.8184C22.6453 27.9834 23.4729 27.1358 24.2725 26.2754ZM32.0225 29.0606C31.3281 29.2875 30.7025 29.6508 30.1455 30.1504C29.711 30.7772 29.4083 31.4634 29.2373 32.209C31.177 32.0865 32.2668 31.0371 32.5068 29.0606C32.3454 29.0606 32.1839 29.0606 32.0225 29.0606ZM22.9404 31.1192C22.3431 32.8708 22.7669 34.3239 24.2119 35.4785C24.8684 34.0797 24.7068 32.7881 23.7275 31.6035C23.5373 31.3101 23.275 31.1487 22.9404 31.1192ZM17.9756 35.9629C17.3014 37.7894 17.7253 39.2828 19.2471 40.4434C19.9624 38.6147 19.5385 37.1213 17.9756 35.9629ZM26.9365 37.0528C26.7057 37.1717 26.4635 37.2928 26.21 37.416C27.3251 38.8153 28.7379 39.219 30.4482 38.627C30.4663 38.4996 30.4462 38.3785 30.3877 38.2637C29.4687 37.224 28.3183 36.8203 26.9365 37.0528ZM13.0107 41.0488C12.3319 42.7731 12.7153 44.2262 14.1611 45.4082C14.972 43.6248 14.5885 42.1716 13.0107 41.0488ZM21.8506 42.0176C21.6354 42.1508 21.3932 42.2518 21.124 42.3203C22.2917 43.914 23.7852 44.3177 25.6045 43.5313C24.6538 42.2892 23.4025 41.7846 21.8506 42.0176ZM17.249 46.9824C16.8943 47.1081 16.531 47.2493 16.1592 47.4063C17.351 48.8748 18.8041 49.2381 20.5185 48.4961C19.7081 47.4049 18.6182 46.9003 17.249 46.9824Z" fill="#69BD44"/>
</svg>
