<svg width="57" height="58" viewBox="0 0 57 58" fill="none" xmlns="http://www.w3.org/2000/svg">
<path opacity="0.942" fill-rule="evenodd" clip-rule="evenodd" d="M28.2475 0.904376C30.0455 0.730223 31.7772 0.980884 33.4428 1.65633C35.6868 2.80832 37.7831 4.17551 39.7319 5.75789C40.582 6.16019 41.4478 6.52476 42.3295 6.85164C44.0538 7.1153 45.7856 7.34317 47.5248 7.53523C49.5481 7.86391 51.371 8.63869 52.9936 9.85945C53.7438 10.5623 54.2678 11.4055 54.5659 12.3887C54.657 16.3991 54.657 20.4096 54.5659 24.42C54.3474 25.7227 53.8005 26.8621 52.9252 27.838C53.0723 31.2312 53.2319 34.6263 53.4037 38.0235C53.4292 40.3518 53.1102 42.6305 52.4467 44.8595C53.6068 46.4759 54.7689 48.0937 55.933 49.713C58.0367 53.5948 56.9202 55.9419 52.5834 56.754C50.1453 57.1994 47.7754 56.9716 45.4741 56.0704C44.8436 55.9365 44.2057 55.8682 43.56 55.8653C38.6808 56.4974 33.7817 56.862 28.8627 56.9591C23.8837 56.7674 18.9163 56.4029 13.9604 55.8653C12.1467 56.0731 10.3465 56.3693 8.55999 56.754C1.98777 57.9309 -0.313659 55.356 1.65569 49.0294C2.73667 47.0269 3.76206 44.9989 4.73187 42.9454C4.12865 42.1264 3.65013 41.2378 3.29632 40.2794C3.27353 39.8464 3.25075 39.4135 3.22796 38.9805C3.6371 35.5708 3.95611 32.1528 4.18499 28.7266C4.1622 28.0659 4.13942 27.405 4.11663 26.7442C3.70728 26.0174 3.43384 25.2428 3.29632 24.42C3.20517 21.0932 3.20517 17.7663 3.29632 14.4395C3.8334 12.0666 5.1778 10.312 7.32952 9.17586C9.79046 8.49227 12.2514 7.80867 14.7123 7.12508C15.1848 6.65325 15.7317 6.28866 16.353 6.03133C17.7337 5.81729 19.1009 5.54386 20.4545 5.21102C21.601 4.29229 22.786 3.4264 24.0092 2.61336C25.3462 1.80654 26.7589 1.23688 28.2475 0.904376ZM12.1147 10.4747C11.6526 11.0962 11.0829 11.5974 10.4057 11.9786C9.95302 13.0324 10.272 13.716 11.3627 14.0294C12.4756 13.6991 13.3871 13.061 14.0971 12.1153C14.936 10.9163 15.8247 9.75418 16.7631 8.62898C18.4069 8.24836 20.0475 7.8382 21.685 7.39852C22.7332 6.62377 23.7813 5.84904 24.8295 5.0743C26.6822 3.77946 28.733 3.23259 30.9819 3.43367C31.9535 3.64604 32.865 4.01063 33.7162 4.52742C35.3835 5.56609 36.9786 6.70542 38.5014 7.94539C40.4155 8.7657 42.3295 9.58602 44.2436 10.4063C44.9668 11.4198 45.6733 12.4452 46.3627 13.4825C47.1147 14.3705 48.0489 14.9857 49.1655 15.3282C49.8216 15.7728 50.095 16.3654 49.9858 17.1055C48.2135 17.9703 46.345 18.5172 44.3803 18.7462C34.317 20.0974 24.291 19.8696 14.3022 18.0626C12.654 17.7258 11.0589 17.2245 9.51702 16.5587C8.51474 16.3976 7.96786 16.8306 7.8764 17.8575C7.95159 18.305 8.1795 18.6468 8.55999 18.8829C12.4912 20.3072 16.5471 21.1731 20.728 21.4805C22.7299 21.6661 24.7351 21.8028 26.7436 21.8907C32.0794 21.9987 37.4115 21.9532 42.7397 21.754C44.1529 22.3494 44.9506 23.4203 45.1323 24.9669C45.3125 26.6201 44.9935 28.1695 44.1752 29.6153C41.6038 30.3059 38.9835 30.7389 36.3139 30.9141C29.5879 31.455 22.8887 31.2271 16.2162 30.2305C13.5735 29.8205 11.067 29.0002 8.69671 27.7696C7.19893 26.9112 6.21912 25.6578 5.75726 24.0098C5.66611 20.9565 5.66611 17.903 5.75726 14.8497C6.05317 13.4609 6.80512 12.39 8.01312 11.6368C9.35692 11.1642 10.7241 10.7768 12.1147 10.4747ZM47.1147 10.0645C48.569 10.1771 49.8905 10.6556 51.0795 11.5001C52.099 12.3712 52.3953 13.4422 51.9682 14.713C51.2521 13.5454 50.2267 12.7934 48.892 12.4571C48.1645 11.7534 47.572 10.9559 47.1147 10.0645ZM52.0366 18.6778C53.4229 23.4159 51.8735 26.7428 47.3881 28.6583C47.3426 28.6128 47.2969 28.5671 47.2514 28.5216C47.8206 26.5994 47.7979 24.6854 47.183 22.7794C46.9488 22.1815 46.607 21.6573 46.1576 21.2071C47.3993 20.854 48.6298 20.4438 49.8491 19.9766C50.6546 19.6435 51.3839 19.2105 52.0366 18.6778ZM6.64593 29.4786C9.22841 31.0007 12.0084 32.0261 14.9858 32.5548C24.0468 34.0364 33.1158 34.082 42.1928 32.6915C45.1116 32.2199 47.8688 31.2856 50.4643 29.8887C50.6768 32.5973 50.8363 35.3088 50.9428 38.0235C50.9752 41.4412 50.2004 44.6541 48.6186 47.6622C49.4364 49.2545 50.3479 49.3002 51.353 47.7989C52.5654 49.1717 53.5908 50.6756 54.4291 52.3106C54.6014 53.0371 54.3507 53.5612 53.6772 53.8829C51.0473 54.7735 48.4496 54.6823 45.8842 53.6095C45.0364 53.4815 44.1934 53.3676 43.3549 53.2677C37.5405 54.1986 31.6843 54.586 25.7866 54.4298C21.8444 54.088 17.9023 53.7462 13.9604 53.4044C11.6954 53.6751 9.4395 54.0169 7.1928 54.4298C6.17917 54.5514 5.17657 54.5059 4.18499 54.293C3.7526 54.0907 3.50194 53.7489 3.43304 53.2677C3.34189 52.6296 3.34189 51.9917 3.43304 51.3536C4.46666 49.0899 5.56041 46.8569 6.71429 44.6544C8.02966 45.6958 9.41968 46.63 10.8842 47.4571C12.3489 47.6512 12.8729 47.036 12.4565 45.6114C12.3426 45.4975 12.2286 45.3835 12.1147 45.2696C9.94441 44.103 8.00751 42.6218 6.30413 40.8262C5.72101 40.0057 5.53872 39.0942 5.75726 38.0919C6.15486 35.2302 6.45109 32.3591 6.64593 29.4786Z" fill="#69BD44"/>
<path opacity="0.864" fill-rule="evenodd" clip-rule="evenodd" d="M24.9663 7.87684C26.2866 7.76172 26.8106 8.35413 26.5386 9.65418C26.1745 10.2318 25.6504 10.4369 24.9663 10.2694C23.8836 9.47276 23.8836 8.67528 24.9663 7.87684Z" fill="#69BD44"/>
<path opacity="0.868" fill-rule="evenodd" clip-rule="evenodd" d="M17.9944 10.2012C19.3222 10.0931 19.8462 10.6856 19.5666 11.9786C19.1909 12.5417 18.6669 12.7468 17.9944 12.5938C16.9081 11.7967 16.9081 10.9991 17.9944 10.2012Z" fill="#69BD44"/>
<path opacity="0.871" fill-rule="evenodd" clip-rule="evenodd" d="M29.6144 12.5254C31.0152 12.4591 31.5393 13.0971 31.1867 14.4395C30.7697 14.9358 30.2456 15.0953 29.6144 14.918C28.978 14.5219 28.7729 13.9524 28.9992 13.209C29.1393 12.91 29.3444 12.6821 29.6144 12.5254Z" fill="#69BD44"/>
<path opacity="0.867" fill-rule="evenodd" clip-rule="evenodd" d="M17.9946 14.8496C19.2758 14.7859 19.8 15.3783 19.5669 16.627C19.2195 17.2516 18.6953 17.4567 17.9946 17.2422C16.9263 16.4507 16.9263 15.6532 17.9946 14.8496Z" fill="#69BD44"/>
<path opacity="0.874" fill-rule="evenodd" clip-rule="evenodd" d="M25.1032 14.8497C26.3601 14.8107 26.8386 15.4031 26.5388 16.627C26.1914 17.2517 25.6672 17.4568 24.9665 17.2423C24.1329 16.7463 23.9734 16.0854 24.488 15.2599C24.6806 15.0847 24.8857 14.948 25.1032 14.8497Z" fill="#69BD44"/>
</svg>
