<svg width="61" height="61" viewBox="0 0 61 61" fill="none" xmlns="http://www.w3.org/2000/svg">
<g clip-path="url(#clip0_203_965)">
<path opacity="0.942" fill-rule="evenodd" clip-rule="evenodd" d="M31.394 2.91895C34.8302 3.00928 37.6895 4.31982 39.9722 6.85059C43.7771 2.83699 48.1854 1.98316 53.1968 4.28906C57.2885 6.98984 58.7381 10.7428 57.5454 15.5479C56.4884 18.7751 54.8204 21.6345 52.5415 24.126C49.0117 27.8571 45.0998 31.0938 40.8061 33.8359C40.3389 34.1132 39.8623 34.1528 39.3765 33.9551C35.1187 31.2089 31.2069 28.0119 27.6411 24.3643C25.431 22.0112 23.7631 19.3108 22.6372 16.2627C21.1235 11.4322 22.3745 7.52041 26.3901 4.52734C27.9411 3.58446 29.6091 3.04833 31.394 2.91895ZM31.2749 5.4209C34.6802 5.56997 37.3013 7.07909 39.1382 9.94824C39.6792 10.3734 40.2352 10.3932 40.8061 10.0078C42.5081 7.22043 44.9901 5.69147 48.2524 5.4209C51.4739 5.66647 53.7375 7.25501 55.0434 10.1865C55.6322 12.4345 55.4336 14.6187 54.4477 16.7393C53.4172 18.8803 52.1066 20.8263 50.5161 22.5771C47.331 25.9036 43.8163 28.8027 39.9722 31.2744C36.2078 28.8825 32.7726 26.0628 29.6665 22.8154C27.8099 20.8118 26.3406 18.5482 25.2583 16.0244C24.3074 13.637 24.3868 11.2938 25.4966 8.99512C26.9123 6.96731 28.8385 5.7759 31.2749 5.4209Z" fill="#69BD44"/>
<path opacity="0.965" fill-rule="evenodd" clip-rule="evenodd" d="M39.376 12.5692C40.088 12.4172 40.6638 12.6157 41.1035 13.1649C41.1631 14.5543 41.183 15.9444 41.1631 17.3348C42.5536 17.315 43.9436 17.3348 45.333 17.3944C45.9016 17.8351 46.0803 18.411 45.8692 19.122C45.7301 19.3403 45.5514 19.5191 45.333 19.6581C43.9505 19.8263 42.5605 19.8859 41.1631 19.8368C41.183 21.1876 41.1631 22.538 41.1035 23.8876C40.349 24.8407 39.5944 24.8407 38.8399 23.8876C38.7803 22.538 38.7604 21.1876 38.7803 19.8368C37.3829 19.8859 35.9929 19.8263 34.6104 19.6581C34.0415 19.2226 33.8628 18.6468 34.0742 17.9306C34.253 17.7518 34.4317 17.5731 34.6104 17.3944C35.9998 17.3348 37.3898 17.315 38.7803 17.3348C38.7604 15.9444 38.7803 14.5543 38.8399 13.1649C39.0432 12.9818 39.222 12.7832 39.376 12.5692Z" fill="#69BD44"/>
<path opacity="0.957" fill-rule="evenodd" clip-rule="evenodd" d="M60.9414 43.665C60.9414 44.3799 60.9414 45.0947 60.9414 45.8096C60.6065 46.8934 60.0108 47.8266 59.1543 48.6094C56.8805 49.8756 54.5176 50.9281 52.0654 51.7666C51.1277 51.6815 50.7306 51.1653 50.874 50.2178C50.9684 49.9691 51.1074 49.7506 51.291 49.5625C52.2441 49.1256 53.1973 48.6888 54.1504 48.2519C53.3099 46.7149 53.7467 45.9604 55.4609 45.9883C55.924 46.2724 56.2815 46.6497 56.5332 47.1201C58.482 46.3215 58.9387 45.011 57.9033 43.1885C57.2183 42.5195 56.4042 42.3011 55.4609 42.5332C50.2702 44.4734 45.0677 46.3797 39.8535 48.2519C35.4091 48.4452 30.9612 48.4849 26.5098 48.3711C25.6086 48.1385 25.2711 47.5627 25.4971 46.6435C25.6361 46.3457 25.8545 46.1273 26.1523 45.9883C30.6058 45.9853 35.0537 45.9059 39.4961 45.75C40.7638 45.1806 41.2602 44.2076 40.9854 42.831C40.7272 42.0963 40.2308 41.6 39.4961 41.3418C36.3551 41.334 33.2176 41.2546 30.084 41.1035C27.5668 39.7853 25.0648 38.435 22.5781 37.0527C20.9891 36.3594 19.361 36.2403 17.6934 36.6953C15.9819 37.353 14.2743 38.0082 12.5703 38.6611C12.5703 42.6722 12.5703 46.6832 12.5703 50.6943C14.3867 50.7456 16.1738 51.0036 17.9316 51.4687C20.5879 52.3276 23.209 53.2808 25.7949 54.3281C29.6178 55.5971 33.4701 55.7162 37.3516 54.6855C38.9314 54.1919 40.52 53.7353 42.1172 53.3154C43.1499 53.4716 43.5272 54.0673 43.249 55.1025C43.1936 55.273 43.0943 55.4119 42.9512 55.5195C39.6613 56.8583 36.2459 57.6724 32.7051 57.9619C30.6537 57.909 28.6283 57.6508 26.6289 57.1875C23.704 56.2258 20.805 55.1932 17.9316 54.0898C16.1828 53.56 14.3957 53.2622 12.5703 53.1963C12.5901 53.7537 12.5702 54.3097 12.5107 54.8642C12.2664 55.228 11.9287 55.4464 11.498 55.5195C8.00326 55.599 4.50846 55.599 1.01367 55.5195C0.578124 55.4212 0.220702 55.2028 -0.0585938 54.8642C-0.0585938 48.9072 -0.0585938 42.9502 -0.0585938 36.9932C0.155365 36.8391 0.353933 36.6604 0.537109 36.457C4.19076 36.4174 7.8444 36.3776 11.498 36.3379C13.2954 35.6976 15.0825 35.0226 16.8594 34.3125C19.0836 33.6824 21.2678 33.8015 23.4121 34.6699C25.9368 35.9917 28.4388 37.3419 30.918 38.7207C33.8965 38.7604 36.875 38.8002 39.8535 38.8398C42.499 39.6617 43.75 41.4686 43.6064 44.2607C47.4185 42.8046 51.2509 41.3948 55.1035 40.0312C58.0519 39.6767 59.9978 40.888 60.9414 43.665ZM2.32422 38.8994C4.94531 38.8994 7.56641 38.8994 10.1875 38.8994C10.1875 43.6254 10.1875 48.3512 10.1875 53.0771C7.56641 53.0771 4.94531 53.0771 2.32422 53.0771C2.32422 48.3512 2.32422 43.6254 2.32422 38.8994Z" fill="#69BD44"/>
<path opacity="0.908" fill-rule="evenodd" clip-rule="evenodd" d="M46.5235 51.4093C47.8921 51.2489 48.4681 51.8446 48.251 53.1964C47.4965 54.1495 46.7418 54.1495 45.9873 53.1964C45.9079 52.7993 45.9079 52.4021 45.9873 52.005C46.1907 51.8219 46.3694 51.6233 46.5235 51.4093Z" fill="#69BD44"/>
</g>
<defs>
<clipPath id="clip0_203_965">
<rect width="61" height="61" fill="white"/>
</clipPath>
</defs>
</svg>
