<svg width="62" height="62" viewBox="0 0 62 62" fill="none" xmlns="http://www.w3.org/2000/svg">
<path opacity="0.928" fill-rule="evenodd" clip-rule="evenodd" d="M15.924 0.666032C16.2094 0.646256 16.492 0.666438 16.7717 0.726579C19.9332 3.45132 21.1846 6.86213 20.5256 10.959C22.5405 9.90696 24.6797 9.52351 26.9436 9.80861C27.1655 9.86916 27.3068 10.0104 27.3674 10.2324C27.6965 13.2571 26.9094 15.9414 25.0061 18.2852C25.6518 18.3255 26.2978 18.3659 26.9436 18.4063C27.1311 18.5533 27.2723 18.7349 27.3674 18.9512C27.6896 22.0042 26.8622 24.6884 24.885 27.0039C25.6126 26.889 26.3392 26.9293 27.0646 27.125C27.8038 30.3034 27.0772 33.1288 24.885 35.6016C25.6115 35.6419 26.3381 35.6823 27.0646 35.7227C27.9078 40.2527 26.3739 43.7644 22.4631 46.2578C20.7583 47.1519 18.9419 47.5757 17.0139 47.5293C17.0341 49.2654 17.0139 51.0012 16.9533 52.7363C16.5093 53.0593 16.0653 53.0593 15.6213 52.7363C15.5607 51.0012 15.5405 49.2654 15.5607 47.5293C9.82382 47.3419 6.41301 44.4356 5.32832 38.8106C5.24759 37.8821 5.24759 36.9538 5.32832 36.0254C5.42923 35.9245 5.53015 35.8235 5.63106 35.7227C6.32078 35.7021 7.00697 35.6415 7.68965 35.541C5.7422 33.1887 4.95509 30.4843 5.32832 27.4277C5.48803 27.1871 5.71005 27.0458 5.99434 27.0039C6.60909 26.9371 7.21456 26.9371 7.81074 27.0039C5.77685 24.664 4.94938 21.9394 5.32832 18.8301C5.38887 18.6081 5.53015 18.4668 5.75215 18.4063C6.39798 18.3659 7.04382 18.3255 7.68965 18.2852C5.57049 15.7831 4.8843 12.9577 5.63106 9.80861C7.457 9.59522 9.23305 9.79704 10.9592 10.4141C11.427 10.5571 11.8508 10.7791 12.2307 11.0801C11.5024 6.90728 12.7334 3.43592 15.924 0.666032ZM16.1662 2.60353C16.5575 2.8118 16.9005 3.09435 17.1955 3.45119C19.5996 6.78369 19.6804 10.1743 17.4377 13.6231C17.1192 14.0629 16.7559 14.4665 16.3479 14.834C13.6358 12.132 12.9496 8.98365 14.2893 5.38869C14.7962 4.37317 15.4218 3.44479 16.1662 2.60353ZM6.84199 11.3223C11.3503 11.4073 14.196 13.6273 15.3791 17.9824C15.4886 18.6648 15.5491 19.351 15.5607 20.041C11.1139 19.9473 8.26821 17.7676 7.02363 13.502C6.88291 12.7821 6.82236 12.0555 6.84199 11.3223ZM24.2795 11.3223C24.8042 11.3223 25.329 11.3223 25.8537 11.3223C25.8441 14.916 24.2699 17.5598 21.1311 19.2539C19.8607 19.8246 18.5286 20.087 17.135 20.041C17.1459 16.0174 19.0026 13.2524 22.7053 11.7461C23.2404 11.5823 23.7651 11.4411 24.2795 11.3223ZM6.84199 19.9199C11.3827 20.0596 14.2285 22.32 15.3791 26.7012C15.4974 27.3421 15.558 27.9879 15.5607 28.6387C11.0814 28.5781 8.23573 26.3985 7.02363 22.0996C6.88291 21.3797 6.82236 20.6532 6.84199 19.9199ZM24.5217 19.9199C24.9657 19.9199 25.4097 19.9199 25.8537 19.9199C25.752 24.3024 23.6126 27.1481 19.4357 28.457C18.6755 28.6009 17.9085 28.6615 17.135 28.6387C17.339 23.7945 19.8012 20.8882 24.5217 19.9199ZM14.7131 21.7363C14.9682 21.6191 15.2509 21.5787 15.5607 21.6152C15.5807 21.9807 15.5605 22.344 15.5002 22.7051C15.2543 22.3594 14.992 22.0364 14.7131 21.7363ZM17.0139 21.6152C17.3392 21.5954 17.6622 21.6156 17.9826 21.6758C17.6329 22.066 17.3302 22.4898 17.0744 22.9473C17.014 22.505 16.9939 22.0611 17.0139 21.6152ZM6.84199 28.5176C12.2913 28.881 15.1976 31.7872 15.5607 37.2363C10.7108 37.1617 7.82473 34.7399 6.90254 29.9707C6.84214 29.488 6.82195 29.0037 6.84199 28.5176ZM24.885 28.5176C25.2079 28.5176 25.5308 28.5176 25.8537 28.5176C25.8612 32.1984 24.2467 34.8825 21.01 36.5703C19.7746 37.112 18.4829 37.3341 17.135 37.2363C17.3808 32.2285 19.9642 29.3223 24.885 28.5176ZM14.592 30.334C14.8884 30.2162 15.2114 30.1758 15.5607 30.2129C15.5807 30.6186 15.5605 31.0222 15.5002 31.4238C15.3051 30.9667 15.0024 30.6034 14.592 30.334ZM17.0139 30.2129C17.3465 30.175 17.6695 30.2153 17.9826 30.334C17.6505 30.7159 17.3477 31.1197 17.0744 31.5449C17.014 31.1027 16.9939 30.6588 17.0139 30.2129ZM6.84199 37.2363C11.375 37.3104 14.2207 39.5305 15.3791 43.8965C15.4886 44.5789 15.5491 45.2651 15.5607 45.9551C11.9682 45.946 9.32433 44.3718 7.6291 41.2324C7.05414 39.9624 6.79176 38.6304 6.84199 37.2363ZM24.1584 37.2363C24.7235 37.2363 25.2886 37.2363 25.8537 37.2363C25.7134 41.779 23.453 44.6248 19.0725 45.7734C18.4315 45.8918 17.7857 45.9523 17.135 45.9551C17.1466 42.1145 18.8823 39.3899 22.342 37.7813C22.9517 37.5574 23.5572 37.3757 24.1584 37.2363ZM14.592 38.9317C14.8884 38.8138 15.2114 38.7735 15.5607 38.8106C15.5807 39.2162 15.5605 39.6198 15.5002 40.0215C15.2529 39.6049 14.9502 39.2417 14.592 38.9317ZM17.0139 38.8106C17.3793 38.7906 17.7426 38.8108 18.1037 38.8711C17.7461 39.2838 17.4029 39.7076 17.0744 40.1426C17.014 39.7004 16.9939 39.2564 17.0139 38.8106Z" fill="#69BD44"/>
<path opacity="0.923" fill-rule="evenodd" clip-rule="evenodd" d="M48.499 11.4434C48.8746 11.4015 49.2177 11.4822 49.5283 11.6855C51.6809 15.2544 51.7819 18.867 49.831 22.5234C52.1005 22.2424 54.2802 22.5653 56.3701 23.4922C56.5176 23.6663 56.5984 23.8682 56.6123 24.0976C55.9802 27.1077 54.3656 29.4085 51.7685 31C52.374 31.2019 52.9795 31.4036 53.585 31.6055C53.785 31.7835 53.9061 32.0054 53.9482 32.2715C53.3043 35.2773 51.6897 37.5983 49.1045 39.2344C49.8233 39.3794 50.4893 39.6418 51.1025 40.0215C50.789 43.2516 49.235 45.6937 46.4404 47.3476C47.129 47.6039 47.795 47.9066 48.4385 48.2558C47.9772 51.8676 46.1003 54.4711 42.8076 56.0664C40.2834 57.0204 37.7404 57.1011 35.1787 56.3086C34.6668 57.6826 34.2027 59.0752 33.7861 60.4863C33.604 61.1592 33.1802 61.3812 32.5146 61.1523C32.297 60.9593 32.1759 60.7171 32.1514 60.4258C32.6732 58.8403 33.1575 57.246 33.6045 55.6426C29.619 54.3808 27.298 51.6764 26.6416 47.5293C26.4114 45.4663 26.7545 43.5087 27.6709 41.6562C27.8372 41.5503 28.0188 41.4897 28.2158 41.4746C28.7996 41.6491 29.3849 41.8105 29.9717 41.959C28.887 39.0364 29.0485 36.1907 30.456 33.4219C30.5903 33.3446 30.7315 33.2841 30.8799 33.2402C31.4639 33.4148 32.0492 33.5763 32.6357 33.7246C31.5977 30.8064 31.7591 27.9607 33.1201 25.1875C33.8842 25.1119 34.6108 25.2532 35.2998 25.6113C35.3401 25.571 35.3806 25.5305 35.4209 25.4902C34.4099 22.7271 34.4704 19.9823 35.6025 17.2559C35.7545 17.0023 35.9765 16.8812 36.2685 16.8926C38.5142 17.3591 40.4316 18.4087 42.0205 20.041C42.5987 15.9727 44.7582 13.1068 48.499 11.4434ZM48.2568 13.3809C48.3991 13.3543 48.5202 13.3947 48.6201 13.5019C50.4414 17.4575 49.7552 20.9086 46.5615 23.8555C46.0379 24.2971 45.4527 24.6401 44.8057 24.8848C44.2113 24.0574 43.848 23.1291 43.7158 22.0996C43.349 18.1906 44.8627 15.2843 48.2568 13.3809ZM36.7529 18.709C39.7694 19.5658 41.7271 21.5033 42.626 24.5215C43.1197 26.2853 42.9581 27.9806 42.1416 29.6074C37.976 28.0191 36.0385 24.9918 36.3291 20.5254C36.4337 19.9094 36.5749 19.3039 36.7529 18.709ZM50.7998 24.0371C52.1643 23.9534 53.4963 24.1148 54.7959 24.5215C53.8735 27.684 51.8149 29.682 48.6201 30.5156C46.9978 30.8542 45.4236 30.713 43.8975 30.0918C44.9977 26.69 47.2985 24.6718 50.7998 24.0371ZM34.0889 26.9434C37.1586 27.8133 39.1163 29.7911 39.9619 32.8769C40.3302 34.5892 40.1687 36.2442 39.4775 37.8418C35.7678 36.4995 33.7698 33.8556 33.4834 29.9101C33.5542 28.8897 33.7561 27.9007 34.0889 26.9434ZM40.9912 31.0605C41.2103 30.9648 41.4524 30.9648 41.7178 31.0605C41.6546 31.4321 41.5537 31.7953 41.415 32.1504C41.306 31.7607 41.1647 31.3974 40.9912 31.0605ZM42.9287 32.7558C43.0095 32.3926 43.0901 32.0293 43.1709 31.666C43.5424 31.7292 43.9057 31.8301 44.2607 31.9687C43.81 32.2339 43.366 32.4962 42.9287 32.7558ZM47.8935 32.2715C48.7422 32.2514 49.5898 32.2715 50.4365 32.332C51.0304 32.429 51.5955 32.6107 52.1318 32.8769C50.1194 37.8793 46.4866 39.7362 41.2334 38.4473C42.2524 35.0869 44.4725 33.0283 47.8935 32.2715ZM31.4248 35.0566C35.912 36.6836 37.8698 39.8724 37.2978 44.623C37.1872 45.12 36.9853 45.5639 36.6924 45.9551C32.3789 44.272 30.4818 41.1235 31.001 36.5098C31.1055 36.0102 31.2468 35.5259 31.4248 35.0566ZM38.3271 39.0527C38.5671 39.1727 38.8093 39.2938 39.0537 39.416C38.9408 39.6939 38.84 39.9765 38.751 40.2637C38.573 39.8708 38.4316 39.4672 38.3271 39.0527ZM40.5068 39.7793C40.8454 39.8854 41.1684 40.0267 41.4756 40.2031C41.0181 40.4589 40.5943 40.7616 40.2041 41.1113C40.2884 40.6737 40.3894 40.2296 40.5068 39.7793ZM45.835 40.3848C47.0917 40.3702 48.3026 40.5922 49.4678 41.0508C47.8265 45.4237 44.678 47.4015 40.0225 46.9844C39.4795 46.8789 38.9548 46.7175 38.4482 46.5C39.6947 42.9733 42.1569 40.9348 45.835 40.3848ZM28.6396 43.291C32.8536 44.6508 34.892 47.557 34.7549 52.0097C34.6099 52.7471 34.4283 53.4737 34.21 54.1894C29.9483 52.7329 27.9503 49.746 28.2158 45.2285C28.3451 44.5787 28.4863 43.9329 28.6396 43.291ZM35.6631 47.2871C36.3196 47.4474 36.4407 47.8107 36.0264 48.3769C35.8692 48.0231 35.7481 47.6598 35.6631 47.2871ZM37.8428 48.0137C38.1506 48.1498 38.4734 48.2508 38.8115 48.3164C38.377 48.6042 37.9532 48.907 37.54 49.2246C37.5999 48.8206 37.7008 48.417 37.8428 48.0137ZM42.8076 48.6191C44.127 48.57 45.4186 48.7315 46.6826 49.1035C45.8472 52.018 43.9905 53.9756 41.1123 54.9765C39.2979 55.455 37.5219 55.3541 35.7842 54.6738C36.9717 51.3058 39.313 49.2876 42.8076 48.6191Z" fill="#69BD44"/>
</svg>
