<svg width="59" height="59" viewBox="0 0 59 59" fill="none" xmlns="http://www.w3.org/2000/svg">
<path opacity="0.942" fill-rule="evenodd" clip-rule="evenodd" d="M25.293 1.78625C26.5995 1.76706 27.9056 1.78626 29.211 1.84386C29.9395 1.99693 30.5925 2.30421 31.17 2.76574C31.8806 3.47635 32.5911 4.18696 33.3018 4.89757C34.2558 6.40642 34.2942 7.94287 33.417 9.50695C31.8339 11.1962 30.0478 11.4459 28.0586 10.256C26.9892 9.30252 26.0481 8.2462 25.2354 7.08703C25.0969 6.70981 24.9816 6.32568 24.8897 5.93468C24.8128 4.74393 24.8128 3.55317 24.8897 2.36242C25.0046 2.15233 25.139 1.96028 25.293 1.78625ZM26.791 3.63C27.9616 3.5138 29.0371 3.76347 30.0176 4.37902C30.7752 5.05933 31.4474 5.80835 32.0342 6.62609C32.2265 8.50824 31.4007 9.25726 29.5567 8.87316C28.8112 8.24309 28.1006 7.5709 27.4248 6.85656C27.172 6.50459 26.9799 6.12046 26.8487 5.70421C26.7912 5.01387 26.7719 4.32246 26.791 3.63Z" fill="#69BD44"/>
<path opacity="0.932" fill-rule="evenodd" clip-rule="evenodd" d="M18.9568 3.62982C21.9312 3.43525 23.2948 4.81807 23.0476 7.77825C22.9164 8.1945 22.7243 8.57863 22.4715 8.9306C21.6456 9.75645 20.8198 10.5823 19.9939 11.4081C18.6094 12.2483 17.2266 12.2483 15.8455 11.4081C14.4493 9.97306 14.2765 8.41739 15.3269 6.74114C16.1528 5.91529 16.9786 5.08946 17.8045 4.2636C18.1809 4.01819 18.565 3.80693 18.9568 3.62982ZM19.4177 5.5888C21.0832 5.65482 21.5249 6.42305 20.7429 7.89349C20.0243 8.68937 19.2369 9.39998 18.3806 10.0253C17.1323 10.1598 16.5753 9.6028 16.7097 8.35443C17.4813 7.29487 18.384 6.37299 19.4177 5.5888Z" fill="#69BD44"/>
<path opacity="0.934" fill-rule="evenodd" clip-rule="evenodd" d="M38.1992 8.23933C38.6 8.20293 38.9842 8.26055 39.3516 8.41218C44.6985 11.9806 47.2145 16.9933 46.8994 23.4503C46.0735 27.1954 43.7881 29.4808 40.043 30.3067C35.4153 30.7502 32.2847 28.8105 30.6514 24.4874C30.209 22.1235 30.3051 19.7804 30.9395 17.4581C30.4402 17.4581 29.9407 17.4581 29.4414 17.4581C29.1616 19.6769 27.9709 21.1558 25.8691 21.8946C24.9807 22.0232 24.0972 22.1768 23.2188 22.3555C22.2598 22.7767 21.626 23.4874 21.3174 24.4874C21.1767 28.6362 19.0449 30.576 14.9219 30.3067C12.8659 29.7871 11.579 28.5004 11.0615 26.4464C10.7214 23.2551 11.4704 20.3549 13.3086 17.7462C12.074 17.8926 10.9792 18.3728 10.0244 19.1866C9.64031 18.7257 9.25618 18.2647 8.87207 17.8038C8.79525 17.7269 8.79525 17.6502 8.87207 17.5733C10.7212 16.1632 12.8146 15.491 15.1523 15.5567C18.3944 12.4914 22.1971 11.4158 26.5606 12.3301C27.8929 13.0483 28.8148 14.1239 29.3262 15.5567C30.1356 15.6525 30.9422 15.6332 31.7461 15.4991C32.7936 13.2803 34.2533 11.3789 36.125 9.79499C36.8449 9.30209 37.5363 8.78353 38.1992 8.23933ZM38.5449 10.4288C43.1225 13.438 45.2543 17.7017 44.9404 23.2198C44.3067 26.0047 42.5974 27.7139 39.8125 28.3477C36.8712 28.7301 34.6241 27.6737 33.0713 25.1788C32.3577 23.6426 32.1272 22.0293 32.3799 20.3389C33.0516 16.1571 35.1067 12.8537 38.5449 10.4288ZM24.2559 13.7706C26.6239 14.0837 27.6802 15.428 27.4248 17.8038C27.1162 18.8038 26.4824 19.5144 25.5234 19.9356C24.6072 20.1194 23.6853 20.2731 22.7578 20.3965C21.1253 20.9535 20.0306 22.0482 19.4736 23.6807C19.3502 24.6083 19.1965 25.5301 19.0127 26.4464C17.8925 28.4585 16.2984 28.9385 14.2305 27.8868C13.0086 26.7407 12.6053 25.3387 13.0205 23.6807C13.9193 18.9819 16.6273 15.8514 21.1445 14.2891C22.1819 14.0138 23.219 13.841 24.2559 13.7706Z" fill="#69BD44"/>
<path fill-rule="evenodd" clip-rule="evenodd" d="M37.7383 12.8486C38.3528 12.8486 38.9675 12.8486 39.582 12.8486C39.582 17.458 39.582 22.0674 39.582 26.6768C38.9675 26.6768 38.3528 26.6768 37.7383 26.6768C37.7383 22.0674 37.7383 17.458 37.7383 12.8486Z" fill="#69BD44"/>
<path opacity="0.948" fill-rule="evenodd" clip-rule="evenodd" d="M48.3407 16.5361C51.0806 17.9926 52.7515 20.2589 53.3534 23.335C53.9016 32.0995 51.3856 39.8393 45.8055 46.5547C46.3659 46.6479 46.9037 46.5711 47.4188 46.3242C48.0283 45.9071 48.6045 45.4461 49.1473 44.9414C51.1916 43.8806 53.1891 43.9573 55.1395 45.1719C56.9984 46.8642 57.5554 48.9192 56.8104 51.3369C56.2806 52.444 55.5315 53.3851 54.5633 54.1602C54.454 54.2313 54.358 54.2121 54.2753 54.1025C53.9244 53.6121 53.5594 53.1319 53.1805 52.6621C55.1378 51.3618 55.618 49.6525 54.621 47.5342C52.8178 45.585 50.9933 45.6041 49.1473 47.5918C47.0731 48.8978 44.9989 48.8978 42.9247 47.5918C41.2717 45.7744 39.524 45.64 37.6815 47.1885C36.4839 49.1101 36.7336 50.8194 38.4305 52.3164C42.6926 55.6738 47.2251 56.0771 52.0282 53.5264C52.3739 54.0642 52.7196 54.6019 53.0653 55.1397C49.9136 57.0542 46.5335 57.6111 42.9247 56.8106C40.1593 56.1294 37.8355 54.7273 35.953 52.6045C34.9751 51.1175 34.7063 49.5042 35.1464 47.7647C36.2436 45.0356 38.2602 43.864 41.1962 44.25C42.2148 44.4903 43.0983 44.9705 43.8465 45.6904C47.5901 41.5449 49.9524 36.705 50.9335 31.1709C49.5105 32.6988 47.7629 33.6399 45.6903 33.9941C40.1974 34.0325 34.7047 34.071 29.2118 34.1094C27.9381 35.025 26.5553 35.217 25.0633 34.6856C24.7254 34.5391 24.4181 34.347 24.1415 34.1094C20.2958 34.1053 16.4546 34.0285 12.618 33.8789C10.7707 33.4646 9.21503 32.562 7.95104 31.1709C9.06304 37.2557 11.7711 42.4989 16.0751 46.9004C21.7598 46.958 27.4448 46.9773 33.1297 46.958C33.1297 47.5726 33.1297 48.1872 33.1297 48.8018C27.1374 48.821 21.1453 48.8018 15.1532 48.7441C9.7693 43.4882 6.60035 37.0927 5.64635 29.5576C5.47183 27.4865 5.43341 25.4123 5.53112 23.335C5.80538 21.7307 6.43917 20.2902 7.43248 19.0137C7.50931 18.9368 7.58612 18.9368 7.66295 19.0137C8.14388 19.3989 8.60482 19.8022 9.04576 20.2236C7.5309 22.131 7.05076 24.282 7.60533 26.6768C8.51465 29.5835 10.4544 31.3697 13.4247 32.0352C16.6099 32.1974 19.7981 32.255 22.9891 32.208C22.9699 30.3639 22.9891 28.5202 23.0467 26.6768C23.7201 24.5254 25.1605 23.6612 27.368 24.084C28.3895 25.0669 29.369 26.0848 30.3065 27.1377C30.3641 28.8274 30.3834 30.5175 30.3641 32.208C35.3985 32.2586 40.4303 32.201 45.4598 32.0352C49.2356 31.1076 51.233 28.707 51.452 24.833C51.473 23.1098 50.9544 21.5733 49.8964 20.2236C49.1587 19.4822 48.3713 18.8101 47.534 18.207C47.8494 17.6722 48.1184 17.1152 48.3407 16.5361ZM26.1005 25.8701C26.9352 26.5313 27.7226 27.2612 28.4628 28.0596C28.564 29.3329 28.5257 30.6005 28.3475 31.8623C27.7374 33.0403 26.8347 33.3284 25.6395 32.7266C25.1922 32.3504 24.9425 31.8704 24.8905 31.2861C24.7875 29.8593 24.8258 28.4381 25.0057 27.0225C25.2387 26.5016 25.6037 26.1175 26.1005 25.8701Z" fill="#69BD44"/>
<path fill-rule="evenodd" clip-rule="evenodd" d="M34.0508 17.458C34.6653 17.458 35.28 17.458 35.8945 17.458C35.8945 19.6091 35.8945 21.7601 35.8945 23.9111C35.28 23.9111 34.6653 23.9111 34.0508 23.9111C34.0508 21.7601 34.0508 19.6091 34.0508 17.458Z" fill="#69BD44"/>
<path fill-rule="evenodd" clip-rule="evenodd" d="M41.4258 17.458C42.0403 17.458 42.655 17.458 43.2695 17.458C43.2695 19.6091 43.2695 21.7601 43.2695 23.9111C42.655 23.9111 42.0403 23.9111 41.4258 23.9111C41.4258 21.7601 41.4258 19.6091 41.4258 17.458Z" fill="#69BD44"/>
<path opacity="0.947" fill-rule="evenodd" clip-rule="evenodd" d="M5.01309 47.8798C6.70364 47.8605 8.39374 47.8798 10.0834 47.9374C11.2139 48.2423 12.0397 48.9146 12.5609 49.954C13.2623 51.8814 12.8205 53.4754 11.2358 54.7362C10.87 54.935 10.4859 55.0886 10.0834 55.1972C8.23966 55.274 6.39591 55.274 4.55216 55.1972C2.54467 54.5713 1.64199 53.2077 1.84415 51.1063C2.84661 49.9696 3.90293 48.894 5.01309 47.8798ZM5.93497 49.7235C7.01118 49.7044 8.0867 49.7235 9.16153 49.7811C10.7568 50.1484 11.237 51.0895 10.602 52.6044C10.2259 53.0517 9.74574 53.3014 9.16153 53.3534C7.93236 53.4303 6.7032 53.4303 5.47403 53.3534C4.61463 53.2815 4.03845 52.8397 3.74552 52.0282C4.47782 51.2576 5.20763 50.4894 5.93497 49.7235Z" fill="#69BD44"/>
<path opacity="0.946" fill-rule="evenodd" clip-rule="evenodd" d="M16.997 50.6454C18.5339 50.6262 20.0705 50.6454 21.6064 50.703C23.4792 51.4323 24.2282 52.7959 23.8535 54.7938C23.4885 55.9269 22.7395 56.676 21.6064 57.0409C20.07 57.1178 18.5335 57.1178 16.997 57.0409C15.1243 56.3116 14.3752 54.948 14.75 52.9501C15.1361 51.815 15.8851 51.0468 16.997 50.6454ZM17.9189 52.4892C19.0021 52.4447 20.0777 52.5023 21.1455 52.662C21.8488 53.0123 22.0984 53.5694 21.8945 54.3329C21.6512 54.845 21.2479 55.1331 20.6845 55.1972C19.6019 55.2993 18.5264 55.2609 17.458 55.0819C16.7547 54.7316 16.5051 54.1746 16.709 53.411C16.9707 52.8975 17.374 52.5903 17.9189 52.4892Z" fill="#69BD44"/>
</svg>
