<svg width="47" height="61" viewBox="0 0 47 61" fill="none" xmlns="http://www.w3.org/2000/svg">
<path opacity="0.961" fill-rule="evenodd" clip-rule="evenodd" d="M34.9173 0C35.0347 0 35.152 0 35.2694 0C37.802 3.35392 40.364 6.68985 42.9555 10.0078C44.2198 11.6606 45.2759 13.4476 46.1238 15.3691C47.7536 20.7294 46.4824 25.2368 42.3101 28.8916C41.2606 29.6783 40.1262 30.3138 38.9071 30.7979C41.9298 36.4344 42.3014 42.2524 40.0219 48.252C36.776 55.5693 31.2413 59.8187 23.4175 61C21.9311 61 20.4448 61 18.9584 61C11.3555 59.8523 5.89896 55.7619 2.58878 48.7285C0.0934693 42.6395 0.36727 36.6824 3.41019 30.8574C4.28045 29.368 5.1801 27.8986 6.10913 26.4492C11.0518 19.8667 16.0781 13.3538 21.188 6.91016C22.6817 8.71041 24.1485 10.5372 25.5884 12.3906C26.1361 11.5964 26.6836 10.8021 27.2312 10.0078C29.8227 6.68985 32.3847 3.35392 34.9173 0ZM35.0347 5.95703C37.3559 8.76182 39.5659 11.6609 41.6647 14.6543C44.2368 19.132 43.5523 23.004 39.6112 26.2705C36.5993 28.0973 33.5875 28.0973 30.5756 26.2705C26.6338 22.9988 25.9494 19.1267 28.522 14.6543C30.6371 11.7088 32.808 8.80975 35.0347 5.95703ZM21.188 12.8672C22.111 13.9442 22.9716 15.0761 23.7696 16.2627C22.665 20.9995 23.8384 25.0503 27.2899 28.415C29.5463 30.3175 32.1475 31.3302 35.0934 31.4531C38.7634 37.5715 38.7634 43.6873 35.0934 49.8008C31.0006 55.5406 25.4658 57.983 18.489 57.1279C12.5951 55.9487 8.3902 52.5928 5.87444 47.0605C3.85967 42.0825 4.13347 37.2374 6.69586 32.5254C7.87001 30.4581 9.16081 28.4723 10.5682 26.5684C14.1333 22.0161 17.6733 17.4491 21.188 12.8672Z" fill="#69BD44"/>
<path d="M10.839 40.9272C11.0826 44.7122 13.8388 52.0954 22.915 51.3478" stroke="#69BD44" stroke-width="2" stroke-linecap="round"/>
</svg>
