<svg width="61" height="60" viewBox="0 0 61 60" fill="none" xmlns="http://www.w3.org/2000/svg">
<path opacity="0.94" fill-rule="evenodd" clip-rule="evenodd" d="M16.7526 0.878988C19.8599 0.502212 22.0431 1.73268 23.302 4.57039C25.2102 4.511 26.7695 5.21413 27.9801 6.67977C29.7554 7.28669 31.0029 8.45857 31.7227 10.1954C34.7797 10.2518 36.7094 11.7557 37.5119 14.7071C37.8068 16.3149 37.5144 17.7993 36.6347 19.1602C37.4278 20.5031 37.7982 21.9484 37.7458 23.4962C38.3418 23.0217 39.0045 22.6701 39.734 22.4415C39.5505 20.5343 39.4725 18.6202 39.5001 16.6993C40.3039 14.4696 41.8828 13.5907 44.2367 14.0626C45.5817 14.4727 46.4588 15.3516 46.8681 16.6993C46.9366 18.5042 46.8391 20.3012 46.5758 22.0899C46.6147 22.2071 46.6538 22.3243 46.6927 22.4415C47.4045 22.6614 48.0672 22.974 48.6809 23.379C49.1961 22.9646 49.7809 22.6716 50.4352 22.5001C51.9381 22.2082 53.2635 22.5597 54.4117 23.5548C56.9733 25.7778 58.5132 28.5707 59.0313 31.9337C59.6183 35.6203 59.0335 39.0969 57.277 42.3634C56.9515 42.885 56.5811 43.3732 56.166 43.8282C58.6678 45.3084 59.584 47.4764 58.9144 50.3321C58.2521 52.1676 56.9851 53.3589 55.1134 53.9063C44.7844 55.5206 34.4535 57.1222 24.1207 58.711C19.0049 59.842 14.8921 58.338 11.7821 54.1993C10.3225 54.5405 8.86058 54.8725 7.3963 55.1954C5.78403 55.5498 4.63398 54.9833 3.94617 53.4962C3.88776 52.8332 3.86826 52.1691 3.88769 51.504C1.72117 51.2646 0.805029 50.0537 1.13928 47.8712C1.58325 46.5467 2.49938 45.8827 3.88769 45.879C3.52055 44.1739 4.10532 42.9434 5.64199 42.1876C6.22676 42.1094 6.81153 42.1094 7.3963 42.1876C8.86058 42.5104 10.3225 42.8424 11.7821 43.1837C12.5896 42.1201 13.5057 41.1436 14.5305 40.254C13.8447 38.427 13.182 36.5911 12.5423 34.7462C8.92403 33.8009 7.32566 31.4768 7.74716 27.7735C5.8011 25.9699 5.25531 23.8019 6.10981 21.2696C2.70108 18.347 2.01885 14.8705 4.06312 10.8399C5.02778 9.48341 6.27528 8.46778 7.80563 7.79305C8.63362 5.27741 10.3684 3.89069 13.0101 3.63289C13.9123 2.22575 15.1597 1.30778 16.7526 0.878988ZM16.9865 2.87118C19.8502 2.66491 21.4097 3.99303 21.6646 6.85555C22.5541 6.63283 23.4506 6.59378 24.3546 6.73836C23.1124 7.25993 22.1378 8.09978 21.4307 9.25789C18.7891 9.51569 17.0543 10.9024 16.2263 13.418C12.2313 15.3698 10.7109 18.5339 11.6651 22.9102C12.2357 24.517 13.1909 25.8451 14.5305 26.8946C13.676 29.4269 14.2217 31.5949 16.1678 33.3985C15.7386 35.4475 16.2454 37.2249 17.6882 38.7305C17.2342 38.9146 16.7859 39.11 16.3432 39.3165C15.5405 37.177 14.7609 35.0286 14.0042 32.8712C12.6518 32.8456 11.4823 32.3769 10.4956 31.4649C9.49103 30.0713 9.35458 28.5869 10.0862 27.0118C9.58491 26.647 9.0976 26.2564 8.62431 25.8399C7.74319 24.7212 7.50929 23.4713 7.92259 22.0899C8.22457 21.5236 8.55595 20.9766 8.91669 20.4493C7.77405 19.9102 6.77994 19.1681 5.93438 18.2227C4.57597 15.9675 4.61495 13.7409 6.05133 11.543C7.00433 10.4897 8.15437 9.74753 9.50146 9.31649C9.98742 6.66387 11.5858 5.4334 14.2966 5.62508C14.7469 4.25596 15.6436 3.33798 16.9865 2.87118ZM25.4072 8.49617C28.2709 8.28991 29.8303 9.61803 30.0853 12.4805C31.1347 12.2156 32.1873 12.1961 33.2431 12.422C35.5628 13.6502 36.1671 15.4666 35.0558 17.8712C34.7073 18.3181 34.337 18.7479 33.9448 19.1602C34.5463 19.741 35.0336 20.405 35.4067 21.1524C35.5363 21.5727 35.5948 22.0024 35.5821 22.4415C34.2059 22.2828 32.9973 22.6538 31.9566 23.5548C30.5776 24.7791 29.4665 26.205 28.6234 27.8321C28.3346 26.9248 28.0227 26.0265 27.6878 25.1368C27.7024 23.9843 27.9753 22.8905 28.5064 21.8555C29.2732 20.3177 30.2673 18.9506 31.4887 17.754C31.6154 17.6526 31.6348 17.5354 31.5472 17.4024C31.2242 16.8357 30.8149 16.3865 30.3192 16.0548C28.5934 17.6574 27.2874 19.5519 26.4013 21.7384C25.5845 20.1014 24.7658 18.4607 23.9452 16.8165C23.4677 15.9765 22.961 15.1562 22.4248 14.3555C21.8847 14.7134 21.3585 15.0845 20.846 15.4688C21.8942 17.2762 22.8688 19.1316 23.7698 21.0352C23.7309 21.0743 23.6918 21.1134 23.6529 21.1524C21.7845 20.5824 19.8742 20.3675 17.9221 20.5079C17.837 21.1433 17.837 21.7878 17.9221 22.4415C20.1259 22.2807 22.231 22.6518 24.2376 23.5548C24.5795 23.7944 24.9109 24.0484 25.2317 24.3165C25.8826 25.9606 26.4869 27.6208 27.0445 29.297C26.0227 28.9328 24.9701 28.6204 23.8868 28.3595C22.8452 28.1398 21.7926 28.0421 20.729 28.0665C20.6931 28.7219 20.7322 29.3664 20.846 30.0001C22.4534 30.0721 24.0127 30.3847 25.5241 30.9376C26.1374 31.1957 26.7028 31.5277 27.2199 31.9337C27.2589 33.7305 27.2979 35.5275 27.3369 37.3243C27.4143 37.9471 27.5508 38.5527 27.7462 39.1407C25.4061 38.8727 23.067 38.5603 20.729 38.2032C18.1634 37.102 17.4226 35.2466 18.5069 32.6368C18.0055 32.272 17.5183 31.8814 17.045 31.4649C16.1638 30.3462 15.9299 29.0963 16.3432 27.7149C16.6452 27.1486 16.9766 26.6016 17.3374 26.0743C13.8985 24.5345 12.7094 21.9563 13.7703 18.3399C14.6466 16.5828 16.0305 15.45 17.9221 14.9415C18.4081 12.2888 20.0065 11.0584 22.7172 11.2501C23.1676 9.88096 24.0643 8.96298 25.4072 8.49617ZM43.0672 15.879C43.9162 15.9032 44.5204 16.2938 44.8799 17.0509C44.7429 20.4561 44.4895 23.8545 44.1197 27.2462C44.653 27.3397 45.1599 27.5155 45.6401 27.7735C45.8164 27.8716 45.8749 28.0084 45.8156 28.1837C45.03 28.737 44.1528 28.9714 43.1841 28.8868C42.2154 28.9714 41.3382 28.737 40.5527 28.1837C40.4934 28.0084 40.5518 27.8716 40.7281 27.7735C41.2083 27.5155 41.7152 27.3397 42.2485 27.2462C41.8787 23.8545 41.6254 20.4561 41.4883 17.0509C41.8017 16.3582 42.328 15.9675 43.0672 15.879ZM34.8804 24.3165C35.4192 24.3716 35.887 24.5864 36.2838 24.961C33.6332 27.9684 32.5026 31.484 32.8922 35.5079C32.9117 36.6602 32.9311 37.8126 32.9507 38.9649C32.9822 39.2841 33.0407 39.5967 33.1261 39.9024C33.0091 39.9414 32.8922 39.9806 32.7752 40.0196C31.8786 39.8828 30.982 39.7462 30.0853 39.6094C29.698 38.8596 29.4445 38.0588 29.3251 37.2071C29.039 34.9579 29.156 32.7314 29.676 30.5274C30.3894 28.2177 31.6953 26.3232 33.5939 24.8438C34.0008 24.585 34.4297 24.4092 34.8804 24.3165ZM51.3709 24.3165C51.8769 24.3879 52.3447 24.5636 52.7743 24.8438C55.8505 27.3576 57.332 30.6194 57.2185 34.629C57.2895 37.1179 56.6854 39.4227 55.4058 41.543C54.9779 42.2055 54.4712 42.7914 53.8854 43.3009C53.3501 43.2215 52.8238 43.1043 52.3065 42.9493C52.8542 41.7131 53.2245 40.424 53.4176 39.0821C53.4956 36.7384 53.4956 34.3946 53.4176 32.0509C53.0401 29.3424 51.9681 26.9596 50.2013 24.9024C50.5358 24.5786 50.9256 24.3833 51.3709 24.3165ZM39.9094 24.4337C39.9948 24.8475 40.0727 25.2771 40.1433 25.7227C39.6461 26.0443 39.1977 26.435 38.7983 26.8946C38.2144 28.1368 38.4678 29.1719 39.5585 30.0001C39.9527 30.1578 40.3035 30.3726 40.6111 30.6446C40.5258 30.9503 40.4673 31.2629 40.4357 31.5821C40.3141 34.7912 40.3725 37.9944 40.6111 41.1915C38.8476 40.9726 37.0933 40.6991 35.3482 40.3712C34.9854 39.3928 34.81 38.3771 34.8219 37.3243C34.7389 35.6419 34.7778 33.9623 34.9389 32.2852C35.4903 28.9447 37.1471 26.3275 39.9094 24.4337ZM46.3419 24.4337C47.3268 24.8913 48.165 25.5553 48.8564 26.4259C50.929 29.1048 51.8451 32.1516 51.6048 35.5665C51.689 37.617 51.3966 39.6092 50.7276 41.543C50.5429 41.9525 50.3285 42.3431 50.0844 42.7149C47.6308 42.3117 45.1748 41.9211 42.7163 41.543C42.1977 37.9996 42.1197 34.445 42.4824 30.879C44.0237 31.0584 45.4662 30.7654 46.8097 30.0001C47.9004 29.1719 48.1538 28.1368 47.5699 26.8946C47.209 26.4543 46.7802 26.1028 46.2834 25.8399C46.3247 25.3814 46.3442 24.9126 46.3419 24.4337ZM20.6121 40.254C32.0072 41.903 43.3906 43.6413 54.7625 45.4688C56.8929 46.4 57.5753 47.982 56.8092 50.2149C56.2352 51.1798 55.397 51.7853 54.2947 52.0313C43.1303 53.7745 31.9612 55.4737 20.7875 57.129C16.3393 56.7732 13.5714 54.4294 12.4838 50.0977C12.0827 45.8023 13.8176 42.7359 17.6882 40.8985C18.6481 40.5385 19.6227 40.3237 20.6121 40.254ZM6.22676 44.1212C7.86766 44.3093 9.46603 44.6608 11.0219 45.1759C10.9439 45.3712 10.8659 45.5664 10.788 45.7618C9.38613 45.8984 7.98269 45.918 6.57762 45.8204C6.04593 45.7757 5.77303 45.4828 5.75895 44.9415C5.82908 44.6076 5.98503 44.3342 6.22676 44.1212ZM3.88769 47.754C6.07083 47.754 8.25395 47.754 10.4371 47.754C10.4371 48.3789 10.4371 49.004 10.4371 49.629C8.25361 49.6485 6.07048 49.629 3.88769 49.5704C3.08692 49.3517 2.8725 48.8635 3.24444 48.1055C3.46386 47.9756 3.67828 47.8584 3.88769 47.754ZM6.57762 51.504C7.98323 51.4651 9.38667 51.5041 10.788 51.6212C10.8659 51.8165 10.9439 52.0118 11.0219 52.2071C9.91722 52.5657 8.78667 52.8587 7.6302 53.086C7.16837 53.2248 6.70055 53.2639 6.22676 53.2032C5.78974 52.8271 5.69227 52.378 5.93438 51.8555C6.13541 51.6951 6.34982 51.5779 6.57762 51.504Z" fill="#69BD44"/>
<path fill-rule="evenodd" clip-rule="evenodd" d="M19.793 44.0039C20.4167 44.0039 21.0405 44.0039 21.6642 44.0039C21.6642 47.1289 21.6642 50.2539 21.6642 53.3789C21.0405 53.3789 20.4167 53.3789 19.793 53.3789C19.793 50.2539 19.793 47.1289 19.793 44.0039Z" fill="#69BD44"/>
<path fill-rule="evenodd" clip-rule="evenodd" d="M27.2773 44.0039C27.9011 44.0039 28.5249 44.0039 29.1486 44.0039C29.1486 47.1289 29.1486 50.2539 29.1486 53.3789C28.5249 53.3789 27.9011 53.3789 27.2773 53.3789C27.2773 50.2539 27.2773 47.1289 27.2773 44.0039Z" fill="#69BD44"/>
<path fill-rule="evenodd" clip-rule="evenodd" d="M34.7637 44.0039C35.3874 44.0039 36.0112 44.0039 36.6349 44.0039C36.6349 47.1289 36.6349 50.2539 36.6349 53.3789C36.0112 53.3789 35.3874 53.3789 34.7637 53.3789C34.7637 50.2539 34.7637 47.1289 34.7637 44.0039Z" fill="#69BD44"/>
<path fill-rule="evenodd" clip-rule="evenodd" d="M42.248 45.8789C42.8718 45.8789 43.4956 45.8789 44.1193 45.8789C44.1193 47.7539 44.1193 49.6289 44.1193 51.5039C43.4956 51.5039 42.8718 51.5039 42.248 51.5039C42.248 49.6289 42.248 47.7539 42.248 45.8789Z" fill="#69BD44"/>
<path fill-rule="evenodd" clip-rule="evenodd" d="M49.7324 46.8164C50.3561 46.8164 50.98 46.8164 51.6037 46.8164C51.6037 48.0664 51.6037 49.3164 51.6037 50.5664C50.98 50.5664 50.3561 50.5664 49.7324 50.5664C49.7324 49.3164 49.7324 48.0664 49.7324 46.8164Z" fill="#69BD44"/>
</svg>
