<svg width="55" height="66" viewBox="0 0 55 66" fill="none" xmlns="http://www.w3.org/2000/svg">
<path opacity="0.972" fill-rule="evenodd" clip-rule="evenodd" d="M16.9458 0.0225229C20.2981 -0.0400504 23.6432 0.0277576 26.9814 0.225947C29.1621 0.892988 30.7895 2.22654 31.8636 4.22662C38.5535 4.33963 45.2438 4.40744 51.9347 4.43005C54.004 5.29202 54.7047 6.80639 54.0368 8.97318C53.5874 9.87486 52.8866 10.4851 51.9347 10.804C45.2438 10.8266 38.5535 10.8944 31.8636 11.0074C30.3881 13.7574 28.0826 15.1589 24.9471 15.2115C24.9471 17.3814 24.9471 19.5512 24.9471 21.7211C28.4852 21.6557 32.0112 21.7235 35.5252 21.9245C35.6101 22.0262 35.6779 22.1393 35.7286 22.2636C35.7738 24.0717 35.8191 25.88 35.8642 27.6882C42.2692 32.3908 44.5747 38.6292 42.7806 46.4032C40.5164 52.5191 38.1205 58.5767 35.593 64.5758C35.3306 64.793 35.0368 64.9513 34.7115 65.0504C26.0321 65.1409 17.3526 65.1409 8.6732 65.0504C7.94413 64.8394 7.46947 64.3648 7.24923 63.6265C5.28673 58.5076 3.29779 53.3994 1.28212 48.3019C-0.221845 44.4319 -0.402662 40.499 0.73966 36.5033C0.909451 35.8995 1.18068 35.357 1.55336 34.8759C2.22127 35.176 2.87683 35.4924 3.51979 35.8252C3.41062 36.1527 3.275 36.4692 3.11294 36.7745C3.83618 36.9553 4.55956 36.9553 5.2828 36.7745C5.68056 35.9318 6.17787 35.1632 6.77458 34.469C7.3622 34.921 7.94996 35.3732 8.53759 35.8252C8.33809 36.1827 8.11216 36.5217 7.8595 36.8423C10.8941 36.9706 13.9228 36.9253 16.9458 36.7067C17.5561 36.4581 17.9856 36.0286 18.2341 35.4183C18.4262 33.3909 18.494 31.3566 18.4376 29.3156C16.2677 29.3156 14.0978 29.3156 11.928 29.3156C11.928 28.5924 11.928 27.869 11.928 27.1457C14.0978 27.1457 16.2677 27.1457 18.4376 27.1457C18.4376 26.0608 18.4376 24.9759 18.4376 23.891C15.5445 23.891 12.6512 23.891 9.75813 23.891C9.82065 25.6222 9.75284 27.3401 9.55471 29.0444C7.88731 30.3051 6.35037 31.7064 4.94376 33.2485C4.31816 32.8715 3.75305 32.4194 3.24856 31.8923C3.81069 31.1718 4.39845 30.471 5.01157 29.7903C5.86039 29.1057 6.69673 28.4051 7.52046 27.6882C7.56562 25.88 7.61092 24.0717 7.65608 22.2636C7.7068 22.1393 7.77461 22.0262 7.8595 21.9245C11.3735 21.7235 14.8995 21.6557 18.4376 21.7211C18.4376 19.5512 18.4376 17.3814 18.4376 15.2115C14.4499 14.9983 11.941 12.9641 10.9109 9.1088C10.4777 4.41787 12.4893 1.38911 16.9458 0.0225229ZM18.4376 2.19238C19.1608 2.19238 19.8842 2.19238 20.6074 2.19238C20.6074 4.36224 20.6074 6.53209 20.6074 8.70195C19.8842 8.70195 19.1608 8.70195 18.4376 8.70195C18.4376 6.53209 18.4376 4.36224 18.4376 2.19238ZM22.7773 2.19238C23.5005 2.19238 24.2239 2.19238 24.9471 2.19238C24.9471 4.36224 24.9471 6.53209 24.9471 8.70195C24.2239 8.70195 23.5005 8.70195 22.7773 8.70195C22.7773 6.53209 22.7773 4.36224 22.7773 2.19238ZM16.1321 2.73484C16.2672 4.69999 16.3123 6.68903 16.2677 8.70195C15.2279 8.70195 14.1883 8.70195 13.1485 8.70195C12.8507 6.04268 13.8453 4.05364 16.1321 2.73484ZM27.117 2.73484C28.5396 3.4118 29.5116 4.49673 30.0327 5.98963C30.191 6.14785 30.3491 6.30606 30.5074 6.46429C37.3334 6.50949 44.1595 6.5547 50.9854 6.5999C51.914 6.85291 52.1626 7.41798 51.7313 8.2951C51.5078 8.46015 51.2592 8.57316 50.9854 8.63414C43.0294 8.70195 35.0733 8.72456 27.117 8.70195C27.117 6.71291 27.117 4.72389 27.117 2.73484ZM14.2335 11.0074C19.1832 10.8495 24.1557 10.8269 29.1512 10.9396C27.5728 12.5906 25.629 13.314 23.3197 13.1095C23.1955 13.1602 23.0824 13.228 22.9807 13.3129C22.7804 16.1032 22.7126 18.9058 22.7773 21.7211C22.054 21.7211 21.3307 21.7211 20.6074 21.7211C20.6721 18.9058 20.6043 16.1032 20.404 13.3129C20.3023 13.228 20.1892 13.1602 20.065 13.1095C17.7771 13.2969 15.8333 12.5962 14.2335 11.0074ZM20.6074 23.891C21.3307 23.891 22.054 23.891 22.7773 23.891C22.7773 24.9759 22.7773 26.0608 22.7773 27.1457C22.054 27.1457 21.3307 27.1457 20.6074 27.1457C20.6074 26.0608 20.6074 24.9759 20.6074 23.891ZM24.9471 23.891C27.8402 23.891 30.7335 23.891 33.6266 23.891C33.6266 24.9759 33.6266 26.0608 33.6266 27.1457C30.7335 27.1457 27.8402 27.1457 24.9471 27.1457C24.9471 26.0608 24.9471 24.9759 24.9471 23.891ZM20.6074 29.3156C21.3307 29.3156 22.054 29.3156 22.7773 29.3156C22.7546 31.4859 22.7773 33.6557 22.8451 35.8252C23.2746 37.5204 24.3369 38.5827 26.0321 39.0121C31.0044 39.08 35.9771 39.1026 40.9498 39.08C41.2139 41.227 41.1008 43.3517 40.6108 45.4539C38.4396 51.2668 36.2019 57.0532 33.8978 62.8128C25.7608 62.9935 17.6239 62.9935 9.4869 62.8128C7.18278 57.0532 4.94512 51.2668 2.7739 45.4539C2.28392 43.3517 2.17082 41.227 2.43486 39.08C3.11294 39.08 3.79102 39.08 4.4691 39.08C4.2688 40.8019 4.29145 42.5197 4.53691 44.2334C5.3148 46.6122 6.1738 48.963 7.11362 51.2854C7.1897 51.3562 7.28015 51.4014 7.38485 51.421C8.06144 51.1883 8.71687 50.9171 9.35128 50.6073C8.47452 48.3613 7.63818 46.1009 6.84238 43.8265C6.56112 42.2386 6.58376 40.6565 6.91019 39.08C10.3913 39.1026 13.872 39.08 17.3526 39.0121C19.0478 38.5827 20.1101 37.5204 20.5396 35.8252C20.6074 33.6557 20.6301 31.4859 20.6074 29.3156ZM24.9471 29.3156C28.0666 29.293 31.1857 29.3156 34.3046 29.3834C36.0956 30.7674 37.6552 32.3722 38.9834 34.1978C39.4844 35.0188 39.9139 35.8778 40.2718 36.7745C38.0792 36.8196 35.8869 36.8649 33.6944 36.9101C31.2702 36.928 28.8518 36.8602 26.4389 36.7067C25.8286 36.4581 25.3991 36.0286 25.1506 35.4183C24.9585 33.3909 24.8907 31.3566 24.9471 29.3156Z" fill="#69BD44"/>
</svg>
