<svg width="33" height="33" viewBox="0 0 33 33" fill="none" xmlns="http://www.w3.org/2000/svg">
<path opacity="0.959" fill-rule="evenodd" clip-rule="evenodd" d="M15.759 1.51462C17.4239 1.34962 18.8311 1.86525 19.9807 3.06149C21.4739 4.94138 22.967 6.82124 24.4602 8.70114C24.9328 8.7226 25.4055 8.74413 25.8782 8.7656C27.2633 9.29115 27.7252 10.2686 27.2639 11.6982C26.9081 12.3973 26.3387 12.784 25.5559 12.8584C25.8136 13.6207 26.1037 14.3726 26.426 15.1142C27.0683 16.9092 27.1757 18.7353 26.7483 20.5927C26.6173 21.7829 26.7462 22.9431 27.135 24.0732C27.422 24.7763 27.7443 25.4637 28.1018 26.1357C28.7319 28.2788 28.0982 29.9224 26.2004 31.0664C25.8689 31.2127 25.5251 31.3201 25.1692 31.3886C19.3684 31.4316 13.5676 31.4316 7.76683 31.3886C6.02293 30.9768 4.98094 29.8918 4.64086 28.1338C4.59175 27.6365 4.61323 27.1424 4.70531 26.6513C5.13129 25.692 5.53949 24.7252 5.92992 23.7509C6.19454 22.8449 6.30196 21.9211 6.25218 20.9795C6.18022 20.3758 6.09429 19.7743 5.99437 19.1748C5.88171 17.9935 5.98913 16.8333 6.31664 15.6943C6.67815 14.7492 7.03265 13.8039 7.38011 12.8584C6.59224 12.7898 6.02291 12.4031 5.67211 11.6982C5.21997 10.3227 5.64966 9.35592 6.96117 8.79782C7.46377 8.7471 7.96863 8.71487 8.47582 8.70114C10.0932 6.66984 11.726 4.65027 13.3743 2.64255C14.0738 2.05634 14.8687 1.68036 15.759 1.51462ZM15.8235 2.61032C17.0003 2.46379 18.0316 2.77531 18.9172 3.54489C20.283 5.24362 21.6365 6.95163 22.9778 8.66892C18.6379 8.75483 14.2981 8.75483 9.95824 8.66892C11.2672 6.98385 12.5885 5.30809 13.9221 3.64157C14.4634 3.11862 15.0972 2.77487 15.8235 2.61032ZM7.70238 9.76462C13.5461 9.75385 19.3899 9.76462 25.2336 9.79684C26.1259 10.0023 26.3944 10.5286 26.0393 11.3759C25.8289 11.6262 25.5604 11.7658 25.2336 11.7949C19.3899 11.8379 13.5461 11.8379 7.70238 11.7949C6.81009 11.5895 6.54158 11.0631 6.89671 10.2158C7.11998 9.97022 7.38856 9.81979 7.70238 9.76462ZM8.60472 12.8584C13.847 12.8476 19.0891 12.8584 24.3313 12.8906C24.7195 13.8189 25.0956 14.7535 25.4592 15.6943C25.7523 16.5287 25.9134 17.3881 25.9426 18.2724C25.7928 19.343 25.6854 20.4172 25.6203 21.4951C25.608 22.5814 25.7907 23.6342 26.1682 24.6533C26.5474 25.4115 26.8911 26.185 27.1994 26.9736C27.3982 28.4564 26.8288 29.5199 25.4914 30.164C25.1788 30.2757 24.8566 30.3401 24.5246 30.3574C19.1536 30.4004 13.7824 30.4004 8.41136 30.3574C6.99455 30.2455 6.10294 29.5043 5.73656 28.1338C5.69359 27.747 5.69359 27.3603 5.73656 26.9736C6.04491 26.185 6.38866 25.4115 6.76781 24.6533C7.26223 23.2975 7.43413 21.901 7.28343 20.4638C6.88318 18.8561 6.94763 17.2663 7.47679 15.6943C7.87144 14.7549 8.24746 13.8096 8.60472 12.8584Z" fill="#071600"/>
<path opacity="0.94" fill-rule="evenodd" clip-rule="evenodd" d="M17.176 15.0498C17.7984 14.9955 18.0454 15.2748 17.9172 15.8877C17.6556 16.1169 17.43 16.3747 17.2405 16.6612C17.9431 17.2286 18.3621 17.959 18.4973 18.8526C18.5618 18.7881 18.6262 18.7237 18.6907 18.6592C18.899 16.3674 20.1559 15.3039 22.4612 15.4688C22.6775 15.6424 22.7635 15.868 22.719 16.1456C22.6391 18.146 21.6079 19.231 19.6252 19.4004C19.4887 19.4172 19.3813 19.4816 19.303 19.5938C20.1989 19.7463 20.9185 20.1868 21.4621 20.9151C21.6877 20.6895 21.9133 20.4639 22.1389 20.2383C22.8162 20.1205 23.0632 20.389 22.8801 21.044C22.4826 21.4415 22.0852 21.8389 21.6877 22.2364C20.6881 22.832 19.6354 22.9609 18.5295 22.6231C18.0157 22.3821 17.5968 22.0276 17.2727 21.5596C17.0471 21.7852 16.8215 22.0108 16.5959 22.2364C17.7592 22.4966 18.6293 23.1519 19.2063 24.2022C19.3265 24.6187 19.1868 24.9087 18.7873 25.0723C17.9233 25.4916 17.0209 25.599 16.0803 25.3946C15.4928 25.1495 15.0094 24.7736 14.6301 24.2666C14.4045 24.4922 14.1789 24.7178 13.9534 24.9434C15.1435 25.2099 16.0137 25.8867 16.5637 26.9737C16.6151 27.2062 16.5614 27.4103 16.4026 27.586C15.2487 28.3036 14.0671 28.3681 12.8577 27.7793C12.5472 27.5228 12.2465 27.2542 11.9553 26.9737C11.7092 27.1875 11.4729 27.4131 11.2463 27.6504C10.6536 27.9335 10.342 27.7508 10.3118 27.1026C10.5439 26.7521 10.8124 26.4298 11.1174 26.1358C9.82803 24.8989 9.60245 23.4809 10.4407 21.8819C10.5435 21.6393 10.7261 21.5104 10.9885 21.4952C12.2207 21.9864 12.9404 22.8887 13.1477 24.2022C13.385 23.9756 13.6106 23.7393 13.8245 23.4932C13.5891 23.2256 13.3421 22.9678 13.0832 22.7198C12.4183 21.4775 12.4612 20.2529 13.2121 19.0459C13.3831 18.8723 13.5873 18.8186 13.8245 18.8848C14.9494 19.4298 15.6046 20.3215 15.7903 21.5596C16.0373 21.3126 16.2844 21.0655 16.5315 20.8184C15.2695 19.822 14.9365 18.5652 15.5325 17.0479C15.6399 16.8331 15.7473 16.6182 15.8547 16.4034C16.31 15.959 16.7504 15.5078 17.176 15.0498ZM21.301 16.5323C20.9314 16.6531 20.5985 16.8464 20.302 17.1124C20.0707 17.446 19.9096 17.8112 19.8186 18.2081C20.851 18.1428 21.4311 17.5843 21.5588 16.5323C21.4729 16.5323 21.3869 16.5323 21.301 16.5323ZM16.467 17.628C16.1491 18.5603 16.3747 19.3337 17.1438 19.9483C17.4932 19.2037 17.4072 18.5163 16.886 17.8858C16.7847 17.7296 16.6451 17.6437 16.467 17.628ZM13.8245 20.2061C13.4656 21.1782 13.6912 21.9731 14.5012 22.5909C14.8819 21.6176 14.6563 20.8227 13.8245 20.2061ZM18.594 20.7862C18.4711 20.8495 18.3422 20.9139 18.2073 20.9795C18.8008 21.7243 19.5528 21.9392 20.4631 21.6241C20.4727 21.5563 20.462 21.4918 20.4309 21.4307C19.9418 20.8773 19.3295 20.6624 18.594 20.7862ZM11.1819 22.9131C10.8205 23.8309 11.0246 24.6043 11.7942 25.2334C12.2258 24.2842 12.0216 23.5107 11.1819 22.9131ZM15.887 23.4288C15.7724 23.4997 15.6435 23.5534 15.5002 23.5899C16.1218 24.4382 16.9167 24.653 17.885 24.2344C17.379 23.5733 16.713 23.3047 15.887 23.4288ZM13.4377 26.0713C13.2489 26.1382 13.0556 26.2134 12.8577 26.2969C13.492 27.0785 14.2654 27.2719 15.178 26.877C14.7466 26.2962 14.1665 26.0276 13.4377 26.0713Z" fill="#071600"/>
</svg>
