<svg width="38" height="38" viewBox="0 0 38 38" fill="none" xmlns="http://www.w3.org/2000/svg">
<path opacity="0.942" fill-rule="evenodd" clip-rule="evenodd" d="M18.5924 3.74806C19.5684 3.65352 20.5085 3.78959 21.4127 4.15626C22.6309 4.78163 23.7689 5.52382 24.8268 6.38283C25.2883 6.60122 25.7583 6.79913 26.2369 6.97658C27.173 7.11971 28.1131 7.24341 29.0572 7.34767C30.1556 7.52609 31.1452 7.94669 32.026 8.60939C32.4332 8.99095 32.7177 9.44866 32.8795 9.98244C32.929 12.1595 32.929 14.3366 32.8795 16.5137C32.7609 17.2208 32.464 17.8394 31.9889 18.3692C32.0687 20.2112 32.1553 22.0543 32.2486 23.8985C32.2624 25.1624 32.0893 26.3994 31.7291 27.6094C32.3589 28.4869 32.9897 29.3651 33.6217 30.2442C34.7637 32.3514 34.1575 33.6256 31.8033 34.0664C30.4798 34.3082 29.1933 34.1846 27.944 33.6953C27.6017 33.6227 27.2554 33.5856 26.9049 33.584C24.2562 33.9271 21.5967 34.1251 18.9264 34.1777C16.2235 34.0737 13.5269 33.8758 10.8365 33.584C9.85194 33.6968 8.8747 33.8576 7.90489 34.0664C4.33711 34.7053 3.08776 33.3075 4.15684 29.8731C4.74366 28.786 5.3003 27.6851 5.82676 26.5703C5.4993 26.1258 5.23954 25.6433 5.04747 25.1231C5.03509 24.888 5.02273 24.653 5.01036 24.418C5.23246 22.567 5.40564 20.7115 5.52989 18.8516C5.51752 18.4929 5.50515 18.1341 5.49278 17.7754C5.27056 17.3809 5.12212 16.9603 5.04747 16.5137C4.99798 14.7077 4.99798 12.9017 5.04747 11.0957C5.33903 9.80758 6.06884 8.85505 7.23692 8.2383C8.57286 7.8672 9.90879 7.49611 11.2447 7.12501C11.5012 6.86888 11.7981 6.67096 12.1354 6.53126C12.8849 6.41508 13.6271 6.26664 14.3619 6.08595C14.9843 5.58722 15.6276 5.11716 16.2916 4.6758C17.0174 4.23781 17.7843 3.92856 18.5924 3.74806ZM9.83458 8.94337C9.58372 9.28077 9.27445 9.55286 8.90684 9.75978C8.6611 10.3319 8.83426 10.703 9.42637 10.8731C10.0305 10.6937 10.5253 10.3474 10.9107 9.834C11.3662 9.1831 11.8486 8.55224 12.358 7.94142C13.2503 7.7348 14.141 7.51214 15.0299 7.27345C15.5989 6.85288 16.1679 6.43231 16.7369 6.01173C17.7427 5.30882 18.8559 5.01195 20.0768 5.12111C20.6042 5.23639 21.0991 5.43431 21.5611 5.71486C22.4662 6.27871 23.3321 6.8972 24.1588 7.57033C25.1979 8.01564 26.2369 8.46095 27.276 8.90626C27.6686 9.45645 28.0521 10.0131 28.4264 10.5762C28.8346 11.0582 29.3417 11.3922 29.9479 11.5781C30.304 11.8195 30.4525 12.1412 30.3932 12.543C29.4311 13.0124 28.4167 13.3093 27.3502 13.4336C21.8873 14.1671 16.4446 14.0435 11.0221 13.0625C10.1274 12.8797 9.26146 12.6076 8.42442 12.2461C7.88032 12.1587 7.58345 12.3937 7.53379 12.9512C7.57461 13.1941 7.69834 13.3797 7.90489 13.5078C10.039 14.281 12.2407 14.7511 14.5104 14.918C15.5971 15.0187 16.6856 15.0929 17.776 15.1406C20.6726 15.1993 23.5671 15.1746 26.4596 15.0664C27.2268 15.3896 27.6598 15.971 27.7584 16.8106C27.8562 17.708 27.6831 18.5491 27.2389 19.334C25.843 19.7089 24.4205 19.9439 22.9713 20.0391C19.32 20.3327 15.6833 20.209 12.0611 19.668C10.6265 19.4454 9.26584 19.0001 7.97911 18.332C7.16603 17.866 6.63413 17.1857 6.3834 16.291C6.33392 14.6335 6.33392 12.9759 6.3834 11.3184C6.54404 10.5645 6.95225 9.9831 7.60801 9.57423C8.33751 9.31766 9.0797 9.1074 9.83458 8.94337ZM28.8346 8.72072C29.624 8.7818 30.3414 9.04156 30.9869 9.50001C31.5404 9.97294 31.7012 10.5543 31.4693 11.2442C31.0806 10.6103 30.5239 10.2021 29.7994 10.0195C29.4045 9.63754 29.0828 9.20462 28.8346 8.72072ZM31.5065 13.3965C32.259 15.9686 31.4179 17.7747 28.983 18.8145C28.9583 18.7898 28.9335 18.765 28.9088 18.7402C29.2178 17.6968 29.2054 16.6577 28.8717 15.6231C28.7445 15.2985 28.559 15.0139 28.315 14.7695C28.9891 14.5778 29.6571 14.3552 30.319 14.1016C30.7562 13.9207 31.1521 13.6857 31.5065 13.3965ZM6.86583 19.2598C8.26774 20.0861 9.77691 20.6427 11.3932 20.9297C16.312 21.734 21.2352 21.7588 26.1627 21.0039C27.7472 20.7479 29.244 20.2407 30.6529 19.4824C30.7683 20.9528 30.8549 22.4248 30.9127 23.8985C30.9303 25.7538 30.5097 27.4979 29.651 29.1309C30.095 29.9953 30.5898 30.0201 31.1354 29.2051C31.7935 29.9503 32.3502 30.7667 32.8053 31.6543C32.8988 32.0487 32.7627 32.3332 32.3971 32.5078C30.9694 32.9913 29.5592 32.9418 28.1666 32.3594C27.7064 32.2899 27.2487 32.2281 26.7936 32.1738C23.6372 32.6792 20.4581 32.8895 17.2565 32.8047C15.1164 32.6192 12.9764 32.4336 10.8365 32.2481C9.60695 32.395 8.38234 32.5806 7.1627 32.8047C6.61244 32.8708 6.06817 32.846 5.52989 32.7305C5.29516 32.6206 5.15909 32.4351 5.12168 32.1738C5.0722 31.8275 5.0722 31.4812 5.12168 31.1348C5.68279 29.9059 6.27654 28.6937 6.90293 27.4981C7.61699 28.0634 8.37158 28.5705 9.16661 29.0195C9.96171 29.1249 10.2462 28.791 10.0201 28.0176C9.9583 27.9558 9.8964 27.8939 9.83458 27.832C8.65643 27.1987 7.60497 26.3946 6.68028 25.4199C6.36373 24.9745 6.26477 24.4797 6.3834 23.9356C6.59925 22.3821 6.76006 20.8235 6.86583 19.2598Z" fill="black"/>
<path opacity="0.864" fill-rule="evenodd" clip-rule="evenodd" d="M16.8099 7.53326C17.5267 7.47077 17.8112 7.79236 17.6635 8.4981C17.4658 8.81168 17.1813 8.92301 16.8099 8.83209C16.2222 8.39962 16.2222 7.9667 16.8099 7.53326Z" fill="black"/>
<path opacity="0.868" fill-rule="evenodd" clip-rule="evenodd" d="M13.0262 8.79488C13.747 8.73617 14.0315 9.05784 13.8797 9.75973C13.6758 10.0654 13.3913 10.1768 13.0262 10.0937C12.4366 9.66101 12.4366 9.22802 13.0262 8.79488Z" fill="black"/>
<path opacity="0.871" fill-rule="evenodd" clip-rule="evenodd" d="M19.3335 10.0567C20.0939 10.0207 20.3784 10.367 20.187 11.0958C19.9606 11.3652 19.6761 11.4518 19.3335 11.3556C18.988 11.1406 18.8767 10.8314 18.9995 10.4278C19.0756 10.2655 19.1869 10.1418 19.3335 10.0567Z" fill="black"/>
<path opacity="0.867" fill-rule="evenodd" clip-rule="evenodd" d="M13.0248 11.3184C13.7203 11.2839 14.0049 11.6054 13.8783 12.2833C13.6897 12.6224 13.4052 12.7337 13.0248 12.6173C12.4449 12.1876 12.4449 11.7547 13.0248 11.3184Z" fill="black"/>
<path opacity="0.874" fill-rule="evenodd" clip-rule="evenodd" d="M16.8845 11.3184C17.5668 11.2972 17.8266 11.6188 17.6638 12.2832C17.4753 12.6223 17.1907 12.7336 16.8103 12.6172C16.3578 12.3479 16.2712 11.9892 16.5506 11.541C16.6551 11.4459 16.7665 11.3717 16.8845 11.3184Z" fill="black"/>
</svg>
