<svg width="32" height="32" viewBox="0 0 32 32" fill="none" xmlns="http://www.w3.org/2000/svg">
<g clip-path="url(#clip0_192_302)">
<path opacity="0.942" fill-rule="evenodd" clip-rule="evenodd" d="M16.4686 1.53125C18.2712 1.57864 19.7712 2.26614 20.9686 3.59375C22.9647 1.48826 25.2772 1.04034 27.9061 2.25C30.0526 3.6668 30.8131 5.63555 30.1874 8.15625C29.6329 9.84925 28.7579 11.3492 27.5624 12.6562C25.7107 14.6136 23.6586 16.3115 21.4061 17.75C21.161 17.8954 20.911 17.9163 20.6561 17.8125C18.4226 16.3719 16.3705 14.6947 14.4999 12.7812C13.3405 11.5469 12.4655 10.1302 11.8749 8.53125C11.0808 5.99721 11.7371 3.94513 13.8436 2.375C14.6573 1.88037 15.5323 1.59912 16.4686 1.53125ZM16.4061 2.84375C18.1925 2.92195 19.5675 3.71362 20.5311 5.21875C20.815 5.44178 21.1066 5.45219 21.4061 5.25C22.299 3.78777 23.601 2.98569 25.3124 2.84375C27.0023 2.97257 28.1898 3.80591 28.8749 5.34375C29.1838 6.523 29.0796 7.66881 28.5624 8.78125C28.0218 9.90444 27.3343 10.9253 26.4999 11.8438C24.829 13.5887 22.9853 15.1096 20.9686 16.4062C18.9939 15.1515 17.1918 13.6723 15.5624 11.9688C14.5885 10.9177 13.8176 9.73019 13.2499 8.40625C12.7511 7.15381 12.7927 5.92464 13.3749 4.71875C14.1176 3.65498 15.128 3.02998 16.4061 2.84375Z" fill="black"/>
<path opacity="0.965" fill-rule="evenodd" clip-rule="evenodd" d="M20.6564 6.59381C21.0299 6.51406 21.332 6.61819 21.5627 6.90631C21.5939 7.63519 21.6044 8.36437 21.5939 9.09381C22.3234 9.08337 23.0525 9.09381 23.7814 9.12506C24.0797 9.35625 24.1734 9.65837 24.0627 10.0313C23.9897 10.1459 23.896 10.2396 23.7814 10.3126C23.0562 10.4008 22.327 10.4321 21.5939 10.4063C21.6044 11.1149 21.5939 11.8233 21.5627 12.5313C21.1669 13.0313 20.771 13.0313 20.3752 12.5313C20.3439 11.8233 20.3335 11.1149 20.3439 10.4063C19.6109 10.4321 18.8817 10.4008 18.1564 10.3126C17.858 10.0841 17.7642 9.78206 17.8752 9.40631C17.9689 9.31256 18.0627 9.21881 18.1564 9.12506C18.8853 9.09381 19.6145 9.08337 20.3439 9.09381C20.3335 8.36437 20.3439 7.63519 20.3752 6.90631C20.4819 6.81025 20.5756 6.70606 20.6564 6.59381Z" fill="black"/>
<path opacity="0.957" fill-rule="evenodd" clip-rule="evenodd" d="M31.9688 22.9063C31.9688 23.2813 31.9688 23.6563 31.9688 24.0313C31.7931 24.5998 31.4806 25.0894 31.0312 25.5C29.8384 26.1643 28.5989 26.7164 27.3125 27.1563C26.8206 27.1116 26.6122 26.8408 26.6875 26.3438C26.737 26.2133 26.8099 26.0987 26.9062 26C27.4062 25.7708 27.9062 25.5417 28.4062 25.3125C27.9653 24.5062 28.1945 24.1104 29.0938 24.125C29.3367 24.2741 29.5242 24.472 29.6562 24.7188C30.6786 24.2998 30.9181 23.6123 30.375 22.6563C30.0156 22.3053 29.5886 22.1908 29.0938 22.3125C26.3708 23.3303 23.6416 24.3303 20.9062 25.3125C18.5747 25.4139 16.2414 25.4347 13.9062 25.375C13.4335 25.253 13.2564 24.9509 13.375 24.4688C13.4479 24.3125 13.5625 24.1979 13.7188 24.125C16.055 24.1234 18.3883 24.0818 20.7188 24C21.3838 23.7013 21.6442 23.1909 21.5 22.4688C21.3646 22.0833 21.1042 21.8229 20.7188 21.6875C19.071 21.6834 17.4251 21.6418 15.7812 21.5625C14.4607 20.871 13.1482 20.1626 11.8438 19.4375C11.0102 19.0738 10.1561 19.0113 9.28125 19.25C8.38344 19.595 7.48763 19.9388 6.59375 20.2813C6.59375 22.3854 6.59375 24.4896 6.59375 26.5938C7.54663 26.6206 8.48413 26.756 9.40625 27C10.7997 27.4506 12.1747 27.9506 13.5312 28.5C15.5367 29.1657 17.5576 29.2282 19.5938 28.6875C20.4225 28.4286 21.2559 28.189 22.0938 27.9688C22.6355 28.0507 22.8334 28.3632 22.6875 28.9063C22.6584 28.9957 22.6063 29.0686 22.5312 29.125C20.8054 29.8273 19.0138 30.2544 17.1562 30.4063C16.0801 30.3785 15.0176 30.2431 13.9688 30C12.4344 29.4955 10.9136 28.9538 9.40625 28.375C8.48881 28.0971 7.55131 27.9408 6.59375 27.9063C6.60413 28.1987 6.59369 28.4903 6.5625 28.7813C6.43431 28.9721 6.25719 29.0866 6.03125 29.125C4.19792 29.1667 2.36458 29.1667 0.53125 29.125C0.302766 29.0734 0.115266 28.9589 -0.03125 28.7813C-0.03125 25.6563 -0.03125 22.5313 -0.03125 19.4063C0.0809906 19.3254 0.185158 19.2317 0.28125 19.125C2.19792 19.1042 4.11458 19.0833 6.03125 19.0625C6.97412 18.7266 7.91162 18.3725 8.84375 18C10.0106 17.6694 11.1564 17.7319 12.2812 18.1875C13.6057 18.8809 14.9182 19.5892 16.2188 20.3125C17.7812 20.3333 19.3438 20.3542 20.9062 20.375C22.2941 20.8061 22.9503 21.754 22.875 23.2188C24.8748 22.4549 26.8852 21.7153 28.9062 21C30.4529 20.814 31.4737 21.4494 31.9688 22.9063ZM1.21875 20.4063C2.59375 20.4063 3.96875 20.4063 5.34375 20.4063C5.34375 22.8854 5.34375 25.3646 5.34375 27.8438C3.96875 27.8438 2.59375 27.8438 1.21875 27.8438C1.21875 25.3646 1.21875 22.8854 1.21875 20.4063Z" fill="black"/>
<path opacity="0.908" fill-rule="evenodd" clip-rule="evenodd" d="M24.4063 26.9687C25.1243 26.8846 25.4264 27.1971 25.3125 27.9062C24.9167 28.4062 24.5208 28.4062 24.125 27.9062C24.0833 27.6979 24.0833 27.4895 24.125 27.2812C24.2317 27.1851 24.3255 27.081 24.4063 26.9687Z" fill="black"/>
</g>
<defs>
<clipPath id="clip0_192_302">
<rect width="32" height="32" fill="white"/>
</clipPath>
</defs>
</svg>
