<svg width="34" height="34" viewBox="0 0 34 34" fill="none" xmlns="http://www.w3.org/2000/svg">
<path opacity="0.928" fill-rule="evenodd" clip-rule="evenodd" d="M8.73297 0.365354C8.88949 0.354509 9.04442 0.365576 9.19781 0.398557C10.9315 1.89277 11.6178 3.76321 11.2564 6.00988C12.3613 5.43296 13.5345 5.22268 14.7759 5.37902C14.8977 5.41223 14.9752 5.4897 15.0084 5.61145C15.1889 7.27014 14.7572 8.74217 13.7134 10.0275C14.0676 10.0496 14.4218 10.0718 14.7759 10.0939C14.8788 10.1745 14.9562 10.2741 15.0084 10.3927C15.1851 12.0669 14.7313 13.5389 13.647 14.8087C14.0461 14.7457 14.4445 14.7678 14.8423 14.8751C15.2477 16.6181 14.8493 18.1675 13.647 19.5236C14.0455 19.5457 14.4439 19.5678 14.8423 19.59C15.3047 22.0742 14.4636 23.9999 12.3189 25.3673C11.384 25.8576 10.3879 26.09 9.33063 26.0646C9.34172 27.0166 9.33063 27.9685 9.29742 28.92C9.05391 29.0971 8.81047 29.0971 8.56696 28.92C8.53375 27.9685 8.52266 27.0166 8.53375 26.0646C5.3877 25.9618 3.51725 24.368 2.92242 21.2833C2.87815 20.7742 2.87815 20.2651 2.92242 19.756C2.97776 19.7007 3.0331 19.6453 3.08844 19.59C3.46668 19.5787 3.84297 19.5455 4.21735 19.4904C3.14939 18.2003 2.71775 16.7173 2.92242 15.0411C3.01001 14.9092 3.13176 14.8317 3.28766 14.8087C3.62478 14.7721 3.95681 14.7721 4.28375 14.8087C3.16839 13.5255 2.71462 12.0314 2.92242 10.3263C2.95563 10.2046 3.0331 10.1271 3.15485 10.0939C3.50901 10.0718 3.86318 10.0496 4.21735 10.0275C3.05522 8.65538 2.67893 7.10592 3.08844 5.37902C4.08977 5.262 5.06373 5.37268 6.01031 5.71106C6.26684 5.78949 6.49926 5.91123 6.70758 6.07629C6.30819 3.78797 6.9833 1.88432 8.73297 0.365354ZM8.86578 1.42785C9.08034 1.54207 9.26847 1.69701 9.43024 1.8927C10.7486 3.7202 10.7929 5.57957 9.56305 7.47082C9.3884 7.71201 9.18918 7.93334 8.96539 8.13488C7.47816 6.65316 7.10183 4.92663 7.83649 2.9552C8.11446 2.3983 8.45758 1.88919 8.86578 1.42785ZM3.7525 6.2091C6.22479 6.2557 7.78535 7.47315 8.43414 9.86145C8.49417 10.2356 8.52738 10.612 8.53375 10.9904C6.09517 10.939 4.53462 9.74364 3.85211 7.40442C3.77494 7.00963 3.74174 6.6112 3.7525 6.2091ZM13.315 6.2091C13.6027 6.2091 13.8905 6.2091 14.1783 6.2091C14.173 8.17984 13.3098 9.62969 11.5884 10.5587C10.8918 10.8717 10.1613 11.0156 9.39703 10.9904C9.40301 8.78387 10.4212 7.26755 12.4517 6.44152C12.7452 6.35172 13.0329 6.27425 13.315 6.2091ZM3.7525 10.9239C6.24259 11.0005 7.80315 12.2401 8.43414 14.6427C8.49902 14.9942 8.53222 15.3483 8.53375 15.7052C6.07736 15.672 4.51681 14.4767 3.85211 12.1193C3.77494 11.7245 3.74174 11.326 3.7525 10.9239ZM13.4478 10.9239C13.6913 10.9239 13.9348 10.9239 14.1783 10.9239C14.1225 13.3273 12.9493 14.8878 10.6588 15.6056C10.2419 15.6845 9.82124 15.7177 9.39703 15.7052C9.50893 13.0487 10.8592 11.4549 13.4478 10.9239ZM8.06891 11.92C8.20883 11.8558 8.36382 11.8336 8.53375 11.8536C8.54471 12.054 8.53362 12.2533 8.50055 12.4513C8.36568 12.2617 8.22184 12.0846 8.06891 11.92ZM9.33063 11.8536C9.50906 11.8427 9.68617 11.8538 9.86188 11.8868C9.6701 12.1008 9.50408 12.3332 9.36383 12.5841C9.33069 12.3416 9.31967 12.0981 9.33063 11.8536ZM3.7525 15.6388C6.74085 15.8381 8.3346 17.4318 8.53375 20.42C5.8741 20.3791 4.29142 19.051 3.78571 16.4357C3.75258 16.171 3.74151 15.9053 3.7525 15.6388ZM13.647 15.6388C13.8241 15.6388 14.0012 15.6388 14.1783 15.6388C14.1824 17.6573 13.297 19.1292 11.522 20.0548C10.8446 20.3518 10.1362 20.4736 9.39703 20.42C9.53184 17.6738 10.9485 16.0801 13.647 15.6388ZM8.0025 16.6349C8.16506 16.5703 8.34217 16.5482 8.53375 16.5685C8.54471 16.7909 8.53362 17.0123 8.50055 17.2325C8.39357 16.9819 8.22755 16.7826 8.0025 16.6349ZM9.33063 16.5685C9.51304 16.5477 9.69015 16.5698 9.86188 16.6349C9.67972 16.8443 9.51371 17.0657 9.36383 17.2989C9.33069 17.0564 9.31967 16.813 9.33063 16.5685ZM3.7525 20.42C6.23833 20.4607 7.7989 21.6781 8.43414 24.0724C8.49417 24.4466 8.52738 24.8229 8.53375 25.2013C6.56365 25.1963 5.11378 24.333 4.18414 22.6114C3.86884 21.915 3.72496 21.1845 3.7525 20.42ZM13.2486 20.42C13.5585 20.42 13.8684 20.42 14.1783 20.42C14.1013 22.9112 12.8618 24.4717 10.4595 25.1017C10.108 25.1666 9.7539 25.1998 9.39703 25.2013C9.40341 23.0951 10.3553 21.601 12.2525 20.7189C12.5869 20.5961 12.9189 20.4965 13.2486 20.42ZM8.0025 21.3497C8.16506 21.2851 8.34217 21.263 8.53375 21.2833C8.54471 21.5058 8.53362 21.7271 8.50055 21.9474C8.36495 21.7189 8.19893 21.5197 8.0025 21.3497ZM9.33063 21.2833C9.53104 21.2724 9.73026 21.2835 9.92828 21.3165C9.73219 21.5428 9.54399 21.7753 9.36383 22.0138C9.33069 21.7713 9.31967 21.5278 9.33063 21.2833Z" fill="#15230F"/>
<path opacity="0.923" fill-rule="evenodd" clip-rule="evenodd" d="M26.5966 6.27542C26.8026 6.25244 26.9907 6.29672 27.1611 6.40823C28.3415 8.36536 28.3969 10.3465 27.3271 12.3516C28.5716 12.1975 29.7669 12.3746 30.913 12.8828C30.9939 12.9783 31.0382 13.089 31.0458 13.2149C30.6992 14.8655 29.8138 16.1272 28.3896 17C28.7216 17.1107 29.0536 17.2214 29.3857 17.3321C29.4954 17.4297 29.5618 17.5514 29.5849 17.6973C29.2317 19.3456 28.3464 20.6184 26.9286 21.5157C27.3228 21.5952 27.6881 21.7391 28.0243 21.9473C27.8524 23.7187 27.0002 25.0579 25.4677 25.9649C25.8453 26.1054 26.2105 26.2714 26.5634 26.4629C26.3105 28.4435 25.2812 29.8713 23.4755 30.7461C22.0913 31.2693 20.6967 31.3136 19.2919 30.8789C19.0112 31.6324 18.7567 32.3961 18.5283 33.1699C18.4284 33.539 18.196 33.6607 17.831 33.5352C17.7117 33.4293 17.6452 33.2965 17.6318 33.1367C17.9179 32.2673 18.1835 31.393 18.4286 30.5137C16.2431 29.8217 14.9703 28.3387 14.6103 26.0645C14.484 24.9332 14.6722 23.8597 15.1747 22.8438C15.2659 22.7857 15.3655 22.7525 15.4736 22.7442C15.7937 22.8399 16.1147 22.9284 16.4365 23.0098C15.8417 21.4071 15.9302 19.8465 16.7021 18.3282C16.7757 18.2858 16.8532 18.2526 16.9345 18.2285C17.2548 18.3243 17.5757 18.4128 17.8974 18.4942C17.3282 16.8938 17.4167 15.3333 18.163 13.8125C18.582 13.7711 18.9805 13.8486 19.3583 14.0449C19.3804 14.0228 19.4026 14.0007 19.4247 13.9785C18.8703 12.4633 18.9035 10.9581 19.5243 9.46292C19.6077 9.32386 19.7294 9.25746 19.8896 9.2637C21.1211 9.51956 22.1726 10.0951 23.0439 10.9903C23.361 8.75928 24.5452 7.18764 26.5966 6.27542ZM26.4638 7.33792C26.5418 7.32338 26.6082 7.34549 26.663 7.40432C27.6618 9.57348 27.2855 11.4661 25.5341 13.0821C25.247 13.3242 24.926 13.5124 24.5712 13.6465C24.2453 13.1928 24.0461 12.6838 23.9736 12.1192C23.7724 9.97551 24.6025 8.38176 26.4638 7.33792ZM20.1552 10.2598C21.8094 10.7297 22.883 11.7922 23.3759 13.4473C23.6466 14.4146 23.5581 15.3443 23.1103 16.2364C20.8259 15.3654 19.7634 13.7052 19.9228 11.2559C19.9802 10.9181 20.0576 10.586 20.1552 10.2598ZM27.8583 13.1817C28.6066 13.1358 29.3371 13.2243 30.0497 13.4473C29.5439 15.1816 28.415 16.2773 26.663 16.7344C25.7734 16.9201 24.9101 16.8426 24.0732 16.502C24.6765 14.6365 25.9383 13.5297 27.8583 13.1817ZM18.6943 14.7754C20.3777 15.2525 21.4513 16.3371 21.915 18.0293C22.1169 18.9683 22.0284 19.8759 21.6493 20.752C19.615 20.0159 18.5193 18.566 18.3622 16.4024C18.4011 15.8428 18.5118 15.3004 18.6943 14.7754ZM22.4794 17.0332C22.5996 16.9807 22.7324 16.9807 22.8779 17.0332C22.8432 17.237 22.7879 17.4362 22.7118 17.6309C22.6521 17.4172 22.5746 17.218 22.4794 17.0332ZM23.5419 17.9629C23.5862 17.7637 23.6304 17.5645 23.6747 17.3653C23.8785 17.3999 24.0777 17.4552 24.2724 17.5313C24.0252 17.6767 23.7817 17.8205 23.5419 17.9629ZM26.2646 17.6973C26.73 17.6863 27.1948 17.6973 27.6591 17.7305C27.9848 17.7837 28.2947 17.8833 28.5888 18.0293C27.4852 20.7726 25.493 21.7908 22.6122 21.084C23.171 19.2412 24.3885 18.1123 26.2646 17.6973ZM17.2333 19.2246C19.6941 20.1169 20.7677 21.8655 20.454 24.4707C20.3933 24.7433 20.2826 24.9867 20.122 25.2012C17.7565 24.2782 16.7162 22.5517 17.0009 20.0215C17.0582 19.7476 17.1357 19.482 17.2333 19.2246ZM21.0185 21.416C21.1501 21.4818 21.2829 21.5483 21.4169 21.6153C21.355 21.7677 21.2997 21.9227 21.2509 22.0801C21.1533 21.8647 21.0758 21.6433 21.0185 21.416ZM22.2138 21.8145C22.3995 21.8727 22.5766 21.9501 22.7451 22.0469C22.4942 22.1872 22.2617 22.3532 22.0478 22.5449C22.094 22.305 22.1494 22.0614 22.2138 21.8145ZM25.1357 22.1465C25.8248 22.1385 26.4889 22.2603 27.1279 22.5117C26.2278 24.9098 24.5012 25.9944 21.9482 25.7656C21.6504 25.7078 21.3627 25.6193 21.0849 25.5C21.7684 23.566 23.1187 22.4481 25.1357 22.1465ZM15.706 23.7403C18.0169 24.4859 19.1347 26.0797 19.0595 28.5215C18.98 28.9259 18.8804 29.3243 18.7607 29.7168C16.4236 28.9181 15.3279 27.2801 15.4736 24.8028C15.5445 24.4464 15.6219 24.0923 15.706 23.7403ZM19.5575 25.9317C19.9176 26.0196 19.984 26.2188 19.7568 26.5293C19.6706 26.3353 19.6042 26.1361 19.5575 25.9317ZM20.7529 26.3301C20.9217 26.4047 21.0987 26.4601 21.2841 26.4961C21.0458 26.654 20.8134 26.82 20.5868 26.9942C20.6197 26.7726 20.675 26.5513 20.7529 26.3301ZM23.4755 26.6621C24.1991 26.6352 24.9074 26.7238 25.6005 26.9278C25.1424 28.526 24.1242 29.5995 22.5458 30.1485C21.5509 30.4108 20.5769 30.3555 19.624 29.9824C20.2752 28.1355 21.5591 27.0287 23.4755 26.6621Z" fill="#15230F"/>
</svg>
