<svg width="26" height="22" viewBox="0 0 26 22" fill="none" xmlns="http://www.w3.org/2000/svg">
<path d="M16.2771 3.65565L8.5431 10.513C8.2726 10.7823 8.2726 11.2177 8.5431 11.487L16.2771 18.3444C16.5476 18.6136 16.985 18.6136 17.2555 18.3444L17.6641 17.9376C17.9346 17.6683 17.9346 17.2329 17.6641 16.9636L11.8005 11.974H25.3094C25.6892 11.974 26 11.6646 26 11.2865V10.7135C26 10.3354 25.6892 10.026 25.3094 10.026H11.8005L17.6583 5.03638C17.9288 4.76711 17.9288 4.33169 17.6583 4.06242L17.2497 3.65565C16.985 3.38638 16.5476 3.38638 16.2771 3.65565ZM0 19.25V2.75C0 1.23177 1.23737 0 2.7625 0H10.3594C10.7392 0 11.05 0.309375 11.05 0.6875V1.14583C11.05 1.52396 10.7392 1.83333 10.3594 1.83333H2.7625C2.25604 1.83333 1.84167 2.24583 1.84167 2.75V19.25C1.84167 19.7542 2.25604 20.1667 2.7625 20.1667H10.3594C10.7392 20.1667 11.05 20.476 11.05 20.8542V21.3125C11.05 21.6906 10.7392 22 10.3594 22H2.7625C1.23737 22 0 20.7682 0 19.25Z" fill="white"/>
</svg>
