<svg width="33" height="33" viewBox="0 0 33 33" fill="none" xmlns="http://www.w3.org/2000/svg">
<path opacity="0.942" fill-rule="evenodd" clip-rule="evenodd" d="M14.1465 0.99914C14.8773 0.988409 15.6078 0.999147 16.3379 1.03137C16.7454 1.11698 17.1106 1.28885 17.4336 1.54699C17.8311 1.94445 18.2285 2.34191 18.626 2.73937C19.1596 3.5833 19.1811 4.44268 18.6904 5.3175C17.805 6.26234 16.806 6.40199 15.6934 5.73644C15.0953 5.20316 14.5689 4.61234 14.1143 3.96398C14.0368 3.753 13.9723 3.53815 13.9209 3.31945C13.8779 2.65344 13.8779 1.98742 13.9209 1.32141C13.9852 1.2039 14.0604 1.09648 14.1465 0.99914ZM14.9844 2.03039C15.6391 1.9654 16.2406 2.10505 16.7891 2.44934C17.2128 2.82985 17.5888 3.24879 17.917 3.70617C18.0246 4.7589 17.5626 5.17784 16.5313 4.96301C16.1143 4.6106 15.7168 4.23462 15.3389 3.83508C15.1975 3.63821 15.09 3.42336 15.0166 3.19055C14.9845 2.80442 14.9737 2.4177 14.9844 2.03039Z" fill="#071600"/>
<path opacity="0.932" fill-rule="evenodd" clip-rule="evenodd" d="M10.602 2.03033C12.2657 1.92151 13.0284 2.69495 12.8901 4.35064C12.8167 4.58346 12.7093 4.79831 12.5679 4.99518C12.1059 5.45709 11.644 5.919 11.1821 6.38092C10.4077 6.85085 9.63427 6.85085 8.8618 6.38092C8.08089 5.57824 7.98421 4.70813 8.57176 3.77057C9.0337 3.30865 9.49557 2.84674 9.9575 2.38482C10.1681 2.24756 10.3829 2.1294 10.602 2.03033ZM10.8598 3.12603C11.7914 3.16296 12.0384 3.59265 11.6011 4.4151C11.1991 4.86025 10.7587 5.25771 10.2798 5.60748C9.58155 5.68268 9.26998 5.37115 9.3452 4.67291C9.77678 4.08028 10.2816 3.56465 10.8598 3.12603Z" fill="#071600"/>
<path opacity="0.934" fill-rule="evenodd" clip-rule="evenodd" d="M21.3652 4.60845C21.5894 4.58809 21.8043 4.62032 22.0098 4.70513C25.0004 6.70105 26.4077 9.50476 26.2315 13.1163C25.7695 15.211 24.4912 16.4893 22.3965 16.9512C19.8081 17.1993 18.0571 16.1144 17.1436 13.6963C16.8961 12.3741 16.9499 11.0636 17.3047 9.7647C17.0254 9.7647 16.7461 9.7647 16.4668 9.7647C16.3103 11.0057 15.6443 11.8329 14.4688 12.2461C13.9718 12.3181 13.4777 12.404 12.9863 12.504C12.45 12.7395 12.0955 13.137 11.9229 13.6963C11.8442 16.0168 10.6518 17.1018 8.34571 16.9512C7.19573 16.6606 6.47598 15.9409 6.18653 14.792C5.99626 13.0071 6.41521 11.385 7.44336 9.92583C6.75281 10.0077 6.14049 10.2763 5.60645 10.7315C5.39161 10.4737 5.17676 10.2159 4.96192 9.95806C4.91894 9.91507 4.91894 9.87214 4.96192 9.82915C5.99616 9.04044 7.16705 8.66448 8.47461 8.70122C10.2879 6.9867 12.4149 6.38514 14.8555 6.89653C15.6007 7.29821 16.1163 7.89981 16.4023 8.70122C16.8551 8.75478 17.3062 8.74402 17.7559 8.66899C18.3417 7.42795 19.1582 6.36446 20.2051 5.47857C20.6077 5.20287 20.9944 4.91283 21.3652 4.60845ZM21.5586 5.83306C24.1189 7.51619 25.3113 9.90095 25.1357 12.9874C24.7813 14.545 23.8252 15.501 22.2676 15.8555C20.6224 16.0694 19.3656 15.4785 18.4971 14.0831C18.0979 13.2238 17.969 12.3215 18.1104 11.376C18.4861 9.03702 19.6355 7.18934 21.5586 5.83306ZM13.5664 7.7022C14.8909 7.87732 15.4817 8.62923 15.3389 9.95806C15.1663 10.5174 14.8118 10.9149 14.2754 11.1504C13.7629 11.2532 13.2473 11.3392 12.7285 11.4083C11.8154 11.7198 11.2031 12.3321 10.8916 13.2452C10.8226 13.7639 10.7366 14.2796 10.6338 14.792C10.0072 15.9175 9.1156 16.186 7.95899 15.5977C7.27559 14.9567 7.05 14.1725 7.28223 13.2452C7.78496 10.617 9.29961 8.86603 11.8262 7.99224C12.4064 7.83826 12.9865 7.74158 13.5664 7.7022Z" fill="#071600"/>
<path fill-rule="evenodd" clip-rule="evenodd" d="M21.1094 7.18652C21.4531 7.18652 21.7969 7.18652 22.1406 7.18652C22.1406 9.76465 22.1406 12.3428 22.1406 14.9209C21.7969 14.9209 21.4531 14.9209 21.1094 14.9209C21.1094 12.3428 21.1094 9.76465 21.1094 7.18652Z" fill="#071600"/>
<path opacity="0.948" fill-rule="evenodd" clip-rule="evenodd" d="M27.0382 9.24902C28.5707 10.0636 29.5053 11.3312 29.8419 13.0518C30.1485 17.9539 28.7413 22.283 25.6202 26.0391C25.9337 26.0912 26.2345 26.0482 26.5226 25.9102C26.8635 25.6768 27.1857 25.419 27.4894 25.1367C28.6328 24.5434 29.75 24.5863 30.8409 25.2656C31.8806 26.2122 32.1922 27.3616 31.7755 28.7139C31.4792 29.3331 31.0602 29.8595 30.5187 30.293C30.4575 30.3327 30.4038 30.322 30.3575 30.2607C30.1613 29.9864 29.9572 29.7179 29.7452 29.4551C30.84 28.7278 31.1086 27.7718 30.5509 26.5869C29.5423 25.4967 28.5219 25.5074 27.4894 26.6191C26.3292 27.3496 25.1691 27.3496 24.0089 26.6191C23.0844 25.6027 22.1068 25.5274 21.0763 26.3936C20.4064 27.4684 20.5461 28.4244 21.4952 29.2617C23.8791 31.1396 26.4142 31.3651 29.1007 29.9385C29.2941 30.2393 29.4874 30.54 29.6808 30.8408C27.918 31.9116 26.0274 32.2231 24.0089 31.7754C22.4622 31.3944 21.1624 30.6102 20.1095 29.4229C19.5625 28.5912 19.4122 27.6888 19.6583 26.7158C20.2721 25.1894 21.4 24.5341 23.0421 24.75C23.6119 24.8844 24.106 25.153 24.5245 25.5557C26.6184 23.237 27.9397 20.5299 28.4884 17.4346C27.6925 18.2892 26.715 18.8155 25.5558 19.0137C22.4835 19.0351 19.4113 19.0567 16.339 19.0781C15.6266 19.5903 14.8532 19.6976 14.0187 19.4004C13.8296 19.3185 13.6578 19.211 13.5031 19.0781C11.3521 19.0759 9.20364 19.0329 7.05774 18.9492C6.02449 18.7175 5.15437 18.2126 4.44739 17.4346C5.06936 20.838 6.58401 23.7706 8.99133 26.2324C12.1709 26.2647 15.3507 26.2754 18.5304 26.2647C18.5304 26.6084 18.5304 26.9522 18.5304 27.2959C15.1788 27.3067 11.8272 27.2959 8.47571 27.2637C5.46438 24.3239 3.69192 20.7468 3.15833 16.5322C3.06071 15.3738 3.03922 14.2137 3.09387 13.0518C3.24728 12.1544 3.60177 11.3488 4.15735 10.6348C4.20032 10.5918 4.24329 10.5918 4.28626 10.6348C4.55525 10.8502 4.81306 11.0758 5.05969 11.3115C4.2124 12.3784 3.94384 13.5814 4.25403 14.9209C4.76263 16.5467 5.84759 17.5458 7.50891 17.918C9.29046 18.0087 11.0737 18.0409 12.8585 18.0146C12.8478 16.9832 12.8585 15.952 12.8907 14.9209C13.2673 13.7176 14.073 13.2342 15.3077 13.4707C15.8791 14.0205 16.4269 14.5898 16.9513 15.1787C16.9835 16.1238 16.9943 17.0691 16.9835 18.0146C19.7994 18.0429 22.6138 18.0107 25.4269 17.918C27.5388 17.3992 28.6559 16.0564 28.7784 13.8896C28.7902 12.9258 28.5001 12.0664 27.9083 11.3115C27.4958 10.8968 27.0554 10.5209 26.587 10.1836C26.7634 9.88447 26.9139 9.5729 27.0382 9.24902ZM14.5988 14.4697C15.0657 14.8396 15.5061 15.2478 15.92 15.6943C15.9767 16.4065 15.9552 17.1155 15.8556 17.8213C15.5143 18.4802 15.0095 18.6413 14.3409 18.3047C14.0907 18.0943 13.9511 17.8258 13.922 17.499C13.8644 16.701 13.8858 15.9061 13.9865 15.1143C14.1168 14.8229 14.3209 14.6081 14.5988 14.4697Z" fill="#071600"/>
<path fill-rule="evenodd" clip-rule="evenodd" d="M19.0469 9.76465C19.3906 9.76465 19.7344 9.76465 20.0781 9.76465C20.0781 10.9678 20.0781 12.1709 20.0781 13.374C19.7344 13.374 19.3906 13.374 19.0469 13.374C19.0469 12.1709 19.0469 10.9678 19.0469 9.76465Z" fill="#071600"/>
<path fill-rule="evenodd" clip-rule="evenodd" d="M23.1719 9.76465C23.5156 9.76465 23.8594 9.76465 24.2031 9.76465C24.2031 10.9678 24.2031 12.1709 24.2031 13.374C23.8594 13.374 23.5156 13.374 23.1719 13.374C23.1719 12.1709 23.1719 10.9678 23.1719 9.76465Z" fill="#071600"/>
<path opacity="0.947" fill-rule="evenodd" clip-rule="evenodd" d="M2.8036 26.7802C3.74916 26.7694 4.69447 26.7802 5.63954 26.8124C6.27183 26.9829 6.73376 27.3589 7.02528 27.9403C7.41755 29.0184 7.17043 29.9099 6.28407 30.6151C6.0795 30.7263 5.86466 30.8122 5.63954 30.8729C4.60829 30.9159 3.57704 30.9159 2.54579 30.8729C1.42296 30.5229 0.918072 29.7602 1.03114 28.5848C1.59184 27.949 2.18266 27.3474 2.8036 26.7802ZM3.31923 27.8114C3.92118 27.8007 4.52274 27.8114 5.12392 27.8436C6.01619 28.049 6.28474 28.5754 5.92958 29.4227C5.71922 29.6729 5.45067 29.8126 5.12392 29.8417C4.43641 29.8847 3.74892 29.8847 3.06142 29.8417C2.58073 29.8015 2.25846 29.5543 2.09462 29.1005C2.50421 28.6695 2.91241 28.2398 3.31923 27.8114Z" fill="#071600"/>
<path opacity="0.946" fill-rule="evenodd" clip-rule="evenodd" d="M9.50652 28.327C10.3661 28.3163 11.2256 28.327 12.0846 28.3593C13.1321 28.7672 13.5511 29.5299 13.3415 30.6473C13.1374 31.2811 12.7184 31.7001 12.0846 31.9042C11.2253 31.9472 10.3659 31.9472 9.50652 31.9042C8.45903 31.4963 8.04009 30.7336 8.24969 29.6161C8.46567 28.9812 8.88462 28.5515 9.50652 28.327ZM10.0221 29.3583C10.628 29.3334 11.2296 29.3656 11.8268 29.455C12.2202 29.6509 12.3598 29.9625 12.2458 30.3895C12.1097 30.676 11.8841 30.8371 11.569 30.8729C10.9635 30.93 10.3619 30.9086 9.76434 30.8085C9.37098 30.6125 9.23137 30.301 9.34539 29.8739C9.49176 29.5867 9.71735 29.4149 10.0221 29.3583Z" fill="#071600"/>
</svg>
