<svg width="25" height="33" viewBox="0 0 25 33" fill="none" xmlns="http://www.w3.org/2000/svg">
<path opacity="0.961" fill-rule="evenodd" clip-rule="evenodd" d="M18.5819 0.293213C18.6453 0.293213 18.7086 0.293213 18.7719 0.293213C20.1388 2.07599 21.5214 3.8492 22.92 5.61286C23.6023 6.49138 24.1723 7.4413 24.6299 8.46267C25.5094 11.3119 24.8234 13.7078 22.5717 15.6505C22.0053 16.0687 21.3931 16.4065 20.7351 16.6638C22.3664 19.6599 22.567 22.7525 21.3368 25.9415C19.585 29.8311 16.598 32.0898 12.3757 32.7177C11.5735 32.7177 10.7714 32.7177 9.96917 32.7177C5.86601 32.1077 2.9212 29.9334 1.13475 26.1948C-0.211927 22.9582 -0.0641607 19.7918 1.57805 16.6955C2.04771 15.9038 2.53324 15.1227 3.03462 14.3523C5.70211 10.8534 8.41469 7.3914 11.1724 3.9663C11.9785 4.92323 12.7702 5.89427 13.5473 6.87945C13.8428 6.45725 14.1383 6.03506 14.4339 5.61286C15.8324 3.8492 17.2151 2.07599 18.5819 0.293213ZM18.6453 3.45967C19.898 4.95055 21.0907 6.49156 22.2234 8.0827C23.6115 10.4628 23.2421 12.521 21.1151 14.2573C19.4896 15.2283 17.8642 15.2283 16.2388 14.2573C14.1115 12.5182 13.7421 10.46 15.1305 8.0827C16.2719 6.51704 17.4435 4.97603 18.6453 3.45967ZM11.1724 7.13276C11.6706 7.70526 12.135 8.30688 12.5657 8.93764C11.9695 11.4555 12.6028 13.6087 14.4655 15.3972C15.6833 16.4085 17.0871 16.9468 18.6769 17.0121C20.6576 20.2643 20.6576 23.5152 18.6769 26.7648C16.4681 29.8158 13.4811 31.1141 9.71585 30.6595C6.53502 30.0327 4.26568 28.2489 2.90797 25.3082C1.82063 22.6621 1.9684 20.0867 3.35127 17.5821C3.98494 16.4832 4.68156 15.4277 5.44113 14.4156C7.36514 11.9959 9.27559 9.56828 11.1724 7.13276Z" fill="#071600"/>
<path d="M5.58656 22.048C5.71801 24.06 7.20548 27.9845 12.1037 27.5871" stroke="#101F09" stroke-width="2" stroke-linecap="round"/>
</svg>
