<svg width="30" height="30" viewBox="0 0 30 30" fill="none" xmlns="http://www.w3.org/2000/svg">
<path opacity="0.94" fill-rule="evenodd" clip-rule="evenodd" d="M8.29139 0.439372C9.84817 0.250984 10.9419 0.866216 11.5726 2.28507C12.5287 2.25538 13.3099 2.60694 13.9164 3.33976C14.8058 3.64323 15.4308 4.22916 15.7914 5.09757C17.323 5.1258 18.2898 5.87775 18.6918 7.35343C18.8396 8.15734 18.6931 8.89955 18.2523 9.57999C18.6497 10.2514 18.8352 10.9741 18.809 11.748C19.1076 11.5107 19.4396 11.3349 19.8051 11.2206C19.7131 10.267 19.674 9.31 19.6879 8.34953C20.0906 7.23466 20.8816 6.79521 22.0609 7.03117C22.7348 7.23625 23.1742 7.6757 23.3793 8.34953C23.4136 9.25199 23.3648 10.1505 23.2328 11.0448C23.2523 11.1034 23.2719 11.162 23.2914 11.2206C23.648 11.3306 23.98 11.4869 24.2875 11.6894C24.5456 11.4822 24.8386 11.3357 25.1664 11.2499C25.9193 11.104 26.5834 11.2797 27.1586 11.7773C28.442 12.8888 29.2135 14.2852 29.473 15.9667C29.7671 17.81 29.4741 19.5483 28.5941 21.1816C28.4311 21.4424 28.2455 21.6865 28.0375 21.914C29.2909 22.6541 29.75 23.7381 29.4144 25.1659C29.0826 26.0837 28.4479 26.6793 27.5101 26.953C22.3353 27.7602 17.1596 28.561 11.9828 29.3554C9.41979 29.9209 7.35928 29.1689 5.80115 27.0995C5.06991 27.2701 4.33749 27.4361 3.60389 27.5976C2.79614 27.7748 2.21997 27.4915 1.87537 26.748C1.84611 26.4165 1.83634 26.0844 1.84607 25.7519C0.760648 25.6322 0.301662 25.0267 0.46912 23.9355C0.691548 23.2732 1.15053 22.9412 1.84607 22.9394C1.66214 22.0868 1.9551 21.4716 2.72498 21.0937C3.01795 21.0546 3.31092 21.0546 3.60389 21.0937C4.33749 21.2551 5.06991 21.4211 5.80115 21.5917C6.20574 21.0599 6.66471 20.5717 7.17811 20.1269C6.83451 19.2134 6.50252 18.2954 6.18201 17.373C4.36928 16.9003 3.5685 15.7383 3.77967 13.8866C2.80469 12.9848 2.53125 11.9008 2.95936 10.6347C1.25158 9.17335 0.909786 7.43511 1.93396 5.41984C2.41726 4.74158 3.04226 4.23377 3.80896 3.8964C4.22379 2.63858 5.09293 1.94523 6.41639 1.81633C6.86838 1.11275 7.49334 0.653767 8.29139 0.439372ZM8.40858 1.43547C9.8433 1.33233 10.6246 1.9964 10.7523 3.42765C11.1979 3.3163 11.6471 3.29677 12.1 3.36906C11.4777 3.62984 10.9894 4.04977 10.6351 4.62882C9.31168 4.75772 8.44256 5.45108 8.02772 6.7089C6.02621 7.68478 5.2645 9.26681 5.74256 11.455C6.02844 12.2584 6.50697 12.9224 7.17811 13.4472C6.75002 14.7133 7.02342 15.7973 7.99842 16.6991C7.78338 17.7236 8.03727 18.6123 8.76014 19.3651C8.53268 19.4572 8.30809 19.5549 8.08631 19.6581C7.68412 18.5884 7.29354 17.5142 6.91443 16.4355C6.23691 16.4227 5.65099 16.1883 5.15662 15.7323C4.65335 15.0355 4.58499 14.2933 4.95154 13.5058C4.70038 13.3234 4.45624 13.1281 4.21912 12.9198C3.77768 12.3605 3.66049 11.7355 3.86756 11.0448C4.01885 10.7617 4.18487 10.4882 4.36561 10.2245C3.79314 9.95499 3.29509 9.58392 2.87146 9.11125C2.1909 7.98361 2.21043 6.87033 2.93006 5.7714C3.40751 5.24474 3.98368 4.87364 4.65857 4.65812C4.90204 3.33181 5.70282 2.71658 7.06092 2.81242C7.28656 2.12786 7.7358 1.66887 8.40858 1.43547ZM12.6273 4.24797C14.0621 4.14483 14.8433 4.80889 14.9711 6.24015C15.4968 6.10767 16.0242 6.09795 16.5531 6.21086C17.7153 6.82498 18.0181 7.73318 17.4613 8.93546C17.2867 9.15894 17.1012 9.3738 16.9047 9.57999C17.206 9.87039 17.4502 10.2024 17.6371 10.5761C17.702 10.7862 17.7313 11.0011 17.725 11.2206C17.0355 11.1413 16.43 11.3268 15.9086 11.7773C15.2177 12.3894 14.6611 13.1024 14.2387 13.9159C14.094 13.4623 13.9377 13.0131 13.7699 12.5683C13.7772 11.992 13.914 11.4452 14.1801 10.9277C14.5642 10.1587 15.0623 9.47517 15.6742 8.87687C15.7377 8.82619 15.7474 8.76759 15.7035 8.70109C15.5417 8.41773 15.3366 8.19314 15.0883 8.02726C14.2237 8.82859 13.5693 9.77582 13.1254 10.8691C12.7162 10.0506 12.306 9.23025 11.8949 8.40812C11.6557 7.98812 11.4018 7.57796 11.1332 7.17765C10.8626 7.3566 10.5989 7.54211 10.3422 7.73429C10.8673 8.63798 11.3556 9.5657 11.807 10.5175C11.7875 10.537 11.7679 10.5566 11.7484 10.5761C10.8124 10.2911 9.85531 10.1836 8.87733 10.2538C8.83467 10.5715 8.83467 10.8938 8.87733 11.2206C9.98141 11.1402 11.0361 11.3258 12.0414 11.7773C12.2127 11.8971 12.3787 12.0241 12.5394 12.1581C12.8655 12.9802 13.1683 13.8103 13.4476 14.6484C12.9357 14.4663 12.4084 14.3101 11.8656 14.1796C11.3438 14.0698 10.8164 14.0209 10.2836 14.0331C10.2656 14.3608 10.2852 14.6831 10.3422 14.9999C11.1475 15.036 11.9287 15.1922 12.6859 15.4687C12.9932 15.5977 13.2764 15.7637 13.5355 15.9667C13.555 16.8651 13.5746 17.7636 13.5941 18.662C13.6329 18.9735 13.7013 19.2762 13.7992 19.5702C12.6268 19.4362 11.4549 19.28 10.2836 19.1015C8.9982 18.5509 8.62707 17.6232 9.17029 16.3183C8.9191 16.1359 8.675 15.9406 8.43787 15.7323C7.99643 15.173 7.87924 14.548 8.08631 13.8573C8.2376 13.5742 8.4036 13.3007 8.58436 13.037C6.86147 12.2671 6.26574 10.978 6.79725 9.16984C7.23629 8.29128 7.92963 7.72486 8.87733 7.47062C9.12078 6.14429 9.92158 5.52908 11.2797 5.62492C11.5053 4.94036 11.9546 4.48137 12.6273 4.24797ZM21.475 7.93937C21.9004 7.9515 22.2031 8.14679 22.3832 8.52531C22.3145 10.2279 22.1876 11.9271 22.0023 13.623C22.2695 13.6697 22.5235 13.7576 22.764 13.8866C22.8524 13.9357 22.8816 14.0041 22.8519 14.0917C22.4584 14.3684 22.0189 14.4856 21.5336 14.4433C21.0482 14.4856 20.6088 14.3684 20.2152 14.0917C20.1855 14.0041 20.2148 13.9357 20.3031 13.8866C20.5437 13.7576 20.7976 13.6697 21.0648 13.623C20.8796 11.9271 20.7526 10.2279 20.684 8.52531C20.841 8.17896 21.1047 7.98361 21.475 7.93937ZM17.3734 12.1581C17.6434 12.1857 17.8777 12.2931 18.0765 12.4804C16.7486 13.9841 16.1822 15.7419 16.3773 17.7538C16.3871 18.33 16.3968 18.9062 16.4066 19.4823C16.4224 19.6419 16.4517 19.7982 16.4945 19.9511C16.4359 19.9706 16.3773 19.9902 16.3187 20.0097C15.8695 19.9413 15.4203 19.873 14.9711 19.8046C14.777 19.4297 14.65 19.0293 14.5902 18.6034C14.4469 17.4788 14.5055 16.3656 14.766 15.2636C15.1234 14.1087 15.7777 13.1615 16.7289 12.4218C16.9327 12.2924 17.1476 12.2045 17.3734 12.1581ZM25.6351 12.1581C25.8887 12.1938 26.1231 12.2817 26.3383 12.4218C27.8795 13.6787 28.6217 15.3096 28.5648 17.3144C28.6004 18.5588 28.2977 19.7112 27.6566 20.7714C27.4423 21.1026 27.1884 21.3956 26.8949 21.6503C26.6267 21.6106 26.3631 21.552 26.1039 21.4745C26.3783 20.8564 26.5638 20.2119 26.6605 19.5409C26.6996 18.3691 26.6996 17.1972 26.6605 16.0253C26.4715 14.6711 25.9344 13.4797 25.0492 12.4511C25.2168 12.2892 25.4121 12.1915 25.6351 12.1581ZM19.893 12.2167C19.9357 12.4236 19.9748 12.6384 20.0101 12.8612C19.7611 13.022 19.5364 13.2174 19.3363 13.4472C19.0438 14.0683 19.1707 14.5858 19.7172 14.9999C19.9146 15.0788 20.0904 15.1862 20.2445 15.3222C20.2017 15.4751 20.1724 15.6313 20.1566 15.7909C20.0957 17.3955 20.125 18.9971 20.2445 20.5956C19.361 20.4862 18.4821 20.3494 17.6078 20.1855C17.426 19.6963 17.3381 19.1884 17.3441 18.662C17.3025 17.8209 17.322 16.981 17.4027 16.1425C17.679 14.4722 18.509 13.1636 19.893 12.2167ZM23.1156 12.2167C23.6091 12.4455 24.029 12.7775 24.3754 13.2128C25.4138 14.5523 25.8727 16.0757 25.7523 17.7831C25.7945 18.8084 25.648 19.8045 25.3129 20.7714C25.2204 20.9761 25.1129 21.1714 24.9906 21.3573C23.7614 21.1557 22.5309 20.9604 21.2992 20.7714C21.0394 18.9997 21.0003 17.2224 21.182 15.4394C21.9542 15.5291 22.6769 15.3826 23.35 14.9999C23.8964 14.5858 24.0234 14.0683 23.7308 13.4472C23.55 13.227 23.3352 13.0513 23.0863 12.9198C23.107 12.6906 23.1168 12.4562 23.1156 12.2167ZM10.225 20.1269C15.9339 20.9514 21.6371 21.8205 27.3344 22.7343C28.4017 23.1999 28.7435 23.9909 28.3598 25.1073C28.0722 25.5898 27.6522 25.8926 27.1 26.0155C21.5066 26.8871 15.9109 27.7367 10.3129 28.5644C8.08432 28.3865 6.69764 27.2146 6.15272 25.0487C5.9518 22.901 6.82098 21.3678 8.76014 20.4491C9.24102 20.2691 9.72934 20.1617 10.225 20.1269ZM3.01795 22.0605C3.84004 22.1545 4.64082 22.3303 5.42029 22.5878C5.38123 22.6855 5.34217 22.7831 5.30311 22.8808C4.6008 22.9491 3.89767 22.9589 3.19373 22.9101C2.92735 22.8877 2.79063 22.7413 2.78357 22.4706C2.81871 22.3037 2.89684 22.167 3.01795 22.0605ZM1.84607 23.8769C2.93983 23.8769 4.03357 23.8769 5.12732 23.8769C5.12732 24.1893 5.12732 24.5019 5.12732 24.8144C4.0334 24.8242 2.93965 24.8144 1.84607 24.7851C1.44489 24.6757 1.33746 24.4316 1.52381 24.0526C1.63374 23.9877 1.74116 23.9291 1.84607 23.8769ZM3.19373 25.7519C3.89794 25.7324 4.60106 25.7519 5.30311 25.8105C5.34217 25.9081 5.38123 26.0058 5.42029 26.1034C4.86687 26.2827 4.30046 26.4292 3.72107 26.5429C3.48969 26.6123 3.25532 26.6318 3.01795 26.6015C2.799 26.4134 2.75017 26.1889 2.87146 25.9276C2.97218 25.8474 3.0796 25.7888 3.19373 25.7519Z" fill="black"/>
<path fill-rule="evenodd" clip-rule="evenodd" d="M9.81445 22.002C10.1269 22.002 10.4395 22.002 10.752 22.002C10.752 23.5645 10.752 25.1269 10.752 26.6895C10.4395 26.6895 10.1269 26.6895 9.81445 26.6895C9.81445 25.1269 9.81445 23.5645 9.81445 22.002Z" fill="black"/>
<path fill-rule="evenodd" clip-rule="evenodd" d="M13.5645 22.002C13.8769 22.002 14.1895 22.002 14.502 22.002C14.502 23.5645 14.502 25.1269 14.502 26.6895C14.1895 26.6895 13.8769 26.6895 13.5645 26.6895C13.5645 25.1269 13.5645 23.5645 13.5645 22.002Z" fill="black"/>
<path fill-rule="evenodd" clip-rule="evenodd" d="M17.3145 22.002C17.6269 22.002 17.9395 22.002 18.252 22.002C18.252 23.5645 18.252 25.1269 18.252 26.6895C17.9395 26.6895 17.6269 26.6895 17.3145 26.6895C17.3145 25.1269 17.3145 23.5645 17.3145 22.002Z" fill="black"/>
<path fill-rule="evenodd" clip-rule="evenodd" d="M21.0645 22.9395C21.3769 22.9395 21.6895 22.9395 22.002 22.9395C22.002 23.877 22.002 24.8145 22.002 25.752C21.6895 25.752 21.3769 25.752 21.0645 25.752C21.0645 24.8145 21.0645 23.877 21.0645 22.9395Z" fill="black"/>
<path fill-rule="evenodd" clip-rule="evenodd" d="M24.8145 23.4082C25.1269 23.4082 25.4395 23.4082 25.752 23.4082C25.752 24.0332 25.752 24.6582 25.752 25.2832C25.4395 25.2832 25.1269 25.2832 24.8145 25.2832C24.8145 24.6582 24.8145 24.0332 24.8145 23.4082Z" fill="black"/>
</svg>
