<svg xmlns="http://www.w3.org/2000/svg" width="28" height="29" viewBox="0 0 28 29">
  <g id="Profile" transform="translate(-0.339 1.779)">
    <rect id="Rectangle_4" data-name="Rectangle 4" width="28" height="29" transform="translate(0.339 -1.779)" fill="#feacac" opacity="0"/>
    <path id="Path_30" data-name="Path 30" d="M12.754.237a5.7,5.7,0,0,0-3.53,10.625A5.778,5.778,0,0,0,16.39,9.485a5.912,5.912,0,0,0,.565-6.354A5.89,5.89,0,0,0,12.754.237Zm-.212,1.624A4.147,4.147,0,0,0,8.2,4.473,4.027,4.027,0,0,0,9.859,9.309a4.112,4.112,0,0,0,4.659-.282,4.093,4.093,0,0,0,.6-5.683A4.638,4.638,0,0,0,12.542,1.861Z" transform="translate(2.631 0.86)" fill-rule="evenodd" opacity="0.949"/>
    <path id="Path_31" data-name="Path 31" d="M14.815,15.718q-4.2-.046-8.4.106A7.121,7.121,0,0,0,.378,22.143a18.347,18.347,0,0,0,.071,3.177.882.882,0,0,0,1.412,0Q2,23.844,2,22.354a5.7,5.7,0,0,1,4.271-4.836,8.127,8.127,0,0,1,1.059-.141q3.6-.071,7.2,0a5.6,5.6,0,0,1,5.189,4.2q.082.386.141.777.005,1.49.141,2.965a.929.929,0,0,0,1.165.247,1.258,1.258,0,0,0,.318-.388q.071-1.518,0-3.036A7.205,7.205,0,0,0,14.815,15.718Z" transform="translate(3.677 -1.842)" fill-rule="evenodd" opacity="0.951"/>
  </g>
</svg>
