<svg width="32" height="32" viewBox="0 0 32 32" fill="none" xmlns="http://www.w3.org/2000/svg">
<g clip-path="url(#clip0_185_155)">
<g opacity="0.97">
<mask id="path-1-outside-1_185_155" maskUnits="userSpaceOnUse" x="7.94336" y="4.45068" width="14" height="16" fill="black">
<rect fill="white" x="7.94336" y="4.45068" width="14" height="16"/>
<path fill-rule="evenodd" clip-rule="evenodd" d="M11.9689 5.46864C13.7465 5.33174 15.1527 5.97757 16.1876 7.40614C16.4816 8.28339 16.4608 9.15839 16.1251 10.0311C15.9824 10.4418 15.8053 10.8376 15.5939 11.2186L15.7501 11.2811C16.2487 11.1227 16.7591 11.0185 17.2814 10.9686C17.8975 10.982 18.46 11.159 18.9689 11.4999C19.4436 11.9197 19.9123 12.3468 20.3751 12.7811C20.9284 13.7037 21.1367 14.7037 21.0001 15.7811C20.9622 16.8058 20.5143 17.5871 19.6564 18.1249C18.8518 18.5898 18.0185 18.9856 17.1564 19.3124C16.1162 19.4449 15.2308 19.1428 14.5001 18.4061C14.3055 18.0721 14.1596 17.7179 14.0626 17.3436C13.8467 16.5839 13.68 15.8131 13.5626 15.0311C13.2798 14.5042 13.1236 13.9417 13.0939 13.3436C11.3596 13.6796 10.0992 13.0546 9.31264 11.4686C8.96989 10.301 8.86576 9.11345 9.00014 7.90614C9.20645 6.90808 9.77939 6.21016 10.7189 5.81239C11.1381 5.67652 11.5548 5.56194 11.9689 5.46864ZM15.3439 7.65614C13.608 6.49077 11.8372 6.42827 10.0314 7.46864C10.1588 7.16377 10.3672 6.92414 10.6564 6.74989C12.0796 6.02136 13.4546 6.10469 14.7814 6.99989C15.0067 7.19339 15.1941 7.41198 15.3436 7.65567M14.0314 13.0936L14.0315 13.0936C14.0315 13.1352 14.0107 13.156 13.969 13.156C13.9005 13.4006 13.8901 13.6506 13.9378 13.906C14.0505 14.2235 14.1755 14.536 14.3128 14.8435C14.4693 15.7715 14.6776 16.6882 14.9378 17.5935L15.1253 17.9685C15.6759 18.4996 16.3322 18.6975 17.094 18.5622C17.8178 18.242 18.5261 17.8878 19.219 17.4997C19.9012 17.0843 20.2554 16.4697 20.2815 15.656C20.1359 15.1664 19.8234 14.8226 19.344 14.6247C18.8479 14.5499 18.3479 14.5082 17.844 14.4997C17.594 14.2914 17.594 14.0831 17.844 13.8747C18.6446 13.684 19.3946 13.7986 20.094 14.2185C20.1803 14.004 20.1386 13.8165 19.969 13.656C19.9273 13.656 19.9065 13.6352 19.9065 13.5935L19.9063 13.5933C19.8705 13.4838 19.8184 13.3797 19.7501 13.2811C19.4451 12.9573 19.1222 12.6552 18.7814 12.3749C18.2311 11.8675 17.5853 11.68 16.8439 11.8124C16.2232 11.9755 15.5982 12.1213 14.9689 12.2499C14.5223 12.3949 14.2098 12.6761 14.0314 13.0936Z"/>
</mask>
<path fill-rule="evenodd" clip-rule="evenodd" d="M11.9689 5.46864C13.7465 5.33174 15.1527 5.97757 16.1876 7.40614C16.4816 8.28339 16.4608 9.15839 16.1251 10.0311C15.9824 10.4418 15.8053 10.8376 15.5939 11.2186L15.7501 11.2811C16.2487 11.1227 16.7591 11.0185 17.2814 10.9686C17.8975 10.982 18.46 11.159 18.9689 11.4999C19.4436 11.9197 19.9123 12.3468 20.3751 12.7811C20.9284 13.7037 21.1367 14.7037 21.0001 15.7811C20.9622 16.8058 20.5143 17.5871 19.6564 18.1249C18.8518 18.5898 18.0185 18.9856 17.1564 19.3124C16.1162 19.4449 15.2308 19.1428 14.5001 18.4061C14.3055 18.0721 14.1596 17.7179 14.0626 17.3436C13.8467 16.5839 13.68 15.8131 13.5626 15.0311C13.2798 14.5042 13.1236 13.9417 13.0939 13.3436C11.3596 13.6796 10.0992 13.0546 9.31264 11.4686C8.96989 10.301 8.86576 9.11345 9.00014 7.90614C9.20645 6.90808 9.77939 6.21016 10.7189 5.81239C11.1381 5.67652 11.5548 5.56194 11.9689 5.46864ZM15.3439 7.65614C13.608 6.49077 11.8372 6.42827 10.0314 7.46864C10.1588 7.16377 10.3672 6.92414 10.6564 6.74989C12.0796 6.02136 13.4546 6.10469 14.7814 6.99989C15.0067 7.19339 15.1941 7.41198 15.3436 7.65567M14.0314 13.0936L14.0315 13.0936C14.0315 13.1352 14.0107 13.156 13.969 13.156C13.9005 13.4006 13.8901 13.6506 13.9378 13.906C14.0505 14.2235 14.1755 14.536 14.3128 14.8435C14.4693 15.7715 14.6776 16.6882 14.9378 17.5935L15.1253 17.9685C15.6759 18.4996 16.3322 18.6975 17.094 18.5622C17.8178 18.242 18.5261 17.8878 19.219 17.4997C19.9012 17.0843 20.2554 16.4697 20.2815 15.656C20.1359 15.1664 19.8234 14.8226 19.344 14.6247C18.8479 14.5499 18.3479 14.5082 17.844 14.4997C17.594 14.2914 17.594 14.0831 17.844 13.8747C18.6446 13.684 19.3946 13.7986 20.094 14.2185C20.1803 14.004 20.1386 13.8165 19.969 13.656C19.9273 13.656 19.9065 13.6352 19.9065 13.5935L19.9063 13.5933C19.8705 13.4838 19.8184 13.3797 19.7501 13.2811C19.4451 12.9573 19.1222 12.6552 18.7814 12.3749C18.2311 11.8675 17.5853 11.68 16.8439 11.8124C16.2232 11.9755 15.5982 12.1213 14.9689 12.2499C14.5223 12.3949 14.2098 12.6761 14.0314 13.0936Z" fill="#16250F"/>
<path d="M15.2583 7.70793L15.2586 7.70841L15.4291 7.60388L15.4289 7.6034L15.2583 7.70793ZM16.1876 7.40614L16.3773 7.34259L16.3676 7.31358L16.3496 7.28881L16.1876 7.40614ZM11.9689 5.46864L11.9535 5.26923L11.9391 5.27035L11.9249 5.27353L11.9689 5.46864ZM16.1251 10.0311L15.9384 9.9593L15.9362 9.96547L16.1251 10.0311ZM15.5939 11.2186L15.419 11.1216L15.3089 11.3201L15.5196 11.4043L15.5939 11.2186ZM15.7501 11.2811L15.6759 11.4668L15.7424 11.4935L15.8107 11.4717L15.7501 11.2811ZM17.2814 10.9686L17.2857 10.7687L17.274 10.7684L17.2624 10.7695L17.2814 10.9686ZM18.9689 11.4999L19.1014 11.3501L19.0913 11.3412L19.0802 11.3337L18.9689 11.4999ZM20.3751 12.7811L20.5467 12.6783L20.5323 12.6544L20.512 12.6353L20.3751 12.7811ZM21.0001 15.7811L20.8017 15.756L20.8006 15.7648L20.8003 15.7737L21.0001 15.7811ZM19.6564 18.1249L19.7565 18.2982L19.7626 18.2943L19.6564 18.1249ZM17.1564 19.3124L17.1817 19.5108L17.2051 19.5078L17.2273 19.4994L17.1564 19.3124ZM14.5001 18.4061L14.3273 18.5069L14.3402 18.5289L14.3581 18.547L14.5001 18.4061ZM14.0626 17.3436L14.2563 17.2935L14.255 17.289L14.0626 17.3436ZM13.5626 15.0311L13.7604 15.0014L13.7553 14.9671L13.7389 14.9366L13.5626 15.0311ZM13.0939 13.3436L13.2936 13.3337L13.2822 13.1034L13.0558 13.1473L13.0939 13.3436ZM9.31264 11.4686L9.12073 11.525L9.12567 11.5418L9.13346 11.5575L9.31264 11.4686ZM9.00014 7.90614L8.80428 7.86566L8.8024 7.87477L8.80137 7.88402L9.00014 7.90614ZM10.7189 5.81239L10.6572 5.62213L10.6489 5.62482L10.6409 5.62822L10.7189 5.81239ZM10.0314 7.46864L9.84686 7.39151L9.61877 7.93718L10.1312 7.64194L10.0314 7.46864ZM10.6564 6.74989L10.565 6.57143L10.5532 6.57859L10.6564 6.74989ZM14.7814 6.99989L14.9117 6.84817L14.9029 6.8406L14.8933 6.8341L14.7814 6.99989ZM14.0315 13.0936L14.2315 13.0937L14.2317 12.7668L13.9406 12.9154L14.0315 13.0936ZM14.0314 13.0936L13.8475 13.015L13.6304 13.5229L14.1223 13.2718L14.0314 13.0936ZM13.969 13.156V12.956H13.8173L13.7764 13.1021L13.969 13.156ZM13.9378 13.906L13.7411 13.9427L13.744 13.9581L13.7493 13.9729L13.9378 13.906ZM14.3128 14.8435L14.51 14.8102L14.5057 14.7852L14.4954 14.762L14.3128 14.8435ZM14.9378 17.5935L14.7455 17.6487L14.7506 17.6664L14.7589 17.6829L14.9378 17.5935ZM15.1253 17.9685L14.9464 18.0579L14.9617 18.0886L14.9864 18.1124L15.1253 17.9685ZM17.094 18.5622L17.129 18.7592L17.1528 18.7549L17.1749 18.7451L17.094 18.5622ZM19.219 17.4997L19.3168 17.6744L19.323 17.6706L19.219 17.4997ZM20.2815 15.656L20.4814 15.6624L20.4824 15.63L20.4732 15.599L20.2815 15.656ZM19.344 14.6247L19.4203 14.4399L19.3978 14.4306L19.3738 14.427L19.344 14.6247ZM17.844 14.4997L17.716 14.6534L17.7701 14.6985L17.8406 14.6997L17.844 14.4997ZM17.844 13.8747L17.7976 13.6802L17.752 13.6911L17.716 13.7211L17.844 13.8747ZM20.094 14.2185L19.9911 14.39L20.1921 14.5107L20.2796 14.2931L20.094 14.2185ZM19.969 13.656L20.1065 13.5107L20.0486 13.456H19.969V13.656ZM19.9065 13.5935H20.1065V13.4947L20.0281 13.4347L19.9065 13.5935ZM19.9063 13.5933L19.7161 13.6554L19.7354 13.7144L19.7847 13.7521L19.9063 13.5933ZM19.7501 13.2811L19.9145 13.1672L19.906 13.1549L19.8957 13.144L19.7501 13.2811ZM18.7814 12.3749L18.6456 12.5222L18.6543 12.5294L18.7814 12.3749ZM16.8439 11.8124L16.8087 11.6155L16.8008 11.6169L16.7931 11.619L16.8439 11.8124ZM14.9689 12.2499L14.9289 12.0539L14.9178 12.0562L14.9071 12.0597L14.9689 12.2499ZM16.3496 7.28881C15.2733 5.80317 13.7995 5.12706 11.9535 5.26923L11.9842 5.66805C13.6934 5.53642 15.0321 6.15197 16.0257 7.52348L16.3496 7.28881ZM16.3118 10.1029C16.664 9.18729 16.6862 8.26444 16.3773 7.34259L15.998 7.4697C16.2771 8.30235 16.2577 9.12949 15.9385 9.95934L16.3118 10.1029ZM15.7688 11.3157C15.9857 10.9246 16.1675 10.5183 16.314 10.0968L15.9362 9.96547C15.7973 10.3652 15.6248 10.7505 15.419 11.1216L15.7688 11.3157ZM15.8244 11.0954L15.6682 11.0329L15.5196 11.4043L15.6759 11.4668L15.8244 11.0954ZM17.2624 10.7695C16.726 10.8208 16.2017 10.9278 15.6896 11.0905L15.8107 11.4717C16.2957 11.3176 16.7922 11.2163 17.3004 11.1677L17.2624 10.7695ZM19.0802 11.3337C18.5394 10.9715 17.9397 10.7828 17.2857 10.7687L17.2771 11.1686C17.8553 11.1811 18.3806 11.3466 18.8576 11.6661L19.0802 11.3337ZM20.512 12.6353C20.0478 12.1996 19.5775 11.7712 19.1014 11.3501L18.8364 11.6497C19.3096 12.0682 19.7769 12.4939 20.2383 12.927L20.512 12.6353ZM21.1986 15.8063C21.3407 14.6848 21.1232 13.6397 20.5467 12.6783L20.2036 12.884C20.7336 13.7677 20.9327 14.7226 20.8017 15.756L21.1986 15.8063ZM19.7626 18.2943C20.6775 17.7208 21.1597 16.8784 21.2 15.7885L20.8003 15.7737C20.7648 16.7332 20.3511 17.4533 19.5502 17.9554L19.7626 18.2943ZM17.2273 19.4994C18.0995 19.1687 18.9426 18.7683 19.7564 18.2981L19.5563 17.9517C18.761 18.4112 17.9374 18.8024 17.0855 19.1254L17.2273 19.4994ZM14.3581 18.547C15.1331 19.3283 16.0806 19.651 17.1817 19.5108L17.1311 19.114C16.1518 19.2387 15.3284 18.9572 14.6421 18.2653L14.3581 18.547ZM13.869 17.3938C13.9706 17.7858 14.1234 18.157 14.3273 18.5069L14.6729 18.3054C14.4875 17.9873 14.3487 17.6501 14.2562 17.2935L13.869 17.3938ZM13.3649 15.0608C13.4835 15.8512 13.652 16.6304 13.8703 17.3983L14.255 17.289C14.0414 16.5374 13.8765 15.775 13.7604 15.0014L13.3649 15.0608ZM12.8941 13.3536C12.9253 13.9812 13.0896 14.5726 13.3864 15.1257L13.7389 14.9366C13.4701 14.4358 13.3219 13.9022 13.2936 13.3337L12.8941 13.3536ZM9.13346 11.5575C9.54108 12.3794 10.0805 12.9696 10.759 13.3061C11.4376 13.6426 12.2329 13.7142 13.1319 13.54L13.0558 13.1473C12.2206 13.3091 11.5186 13.2362 10.9367 12.9477C10.3548 12.6592 9.87076 12.1439 9.49181 11.3798L9.13346 11.5575ZM8.80137 7.88402C8.66405 9.11772 8.77053 10.3319 9.12073 11.525L9.50454 11.4123C9.16925 10.27 9.06747 9.10919 9.19891 7.92827L8.80137 7.88402ZM10.6409 5.62822C9.64098 6.05157 9.02391 6.80315 8.80428 7.86566L9.196 7.94663C9.38899 7.013 9.9178 6.36875 10.7969 5.99657L10.6409 5.62822ZM11.9249 5.27353C11.5047 5.36822 11.0821 5.48445 10.6572 5.62213L10.7805 6.00265C11.1942 5.8686 11.605 5.75565 12.0128 5.66375L11.9249 5.27353ZM10.1312 7.64194C11.0075 7.1371 11.865 6.9054 12.7068 6.93511C13.5487 6.96483 14.3898 7.25651 15.2324 7.82219L15.4554 7.49009C14.5621 6.8904 13.6499 6.56815 12.7209 6.53536C11.7919 6.50257 10.8611 6.75981 9.93155 7.29535L10.1312 7.64194ZM10.5532 6.57859C10.2284 6.77427 9.99108 7.04649 9.84686 7.39151L10.2159 7.54577C10.3266 7.28105 10.506 7.07401 10.7596 6.9212L10.5532 6.57859ZM14.8933 6.8341C14.2051 6.36978 13.4958 6.11051 12.7672 6.06635C12.0386 6.0222 11.3036 6.19394 10.5653 6.57186L10.7475 6.92792C11.4325 6.57731 12.0966 6.42645 12.743 6.46562C13.3894 6.5048 14.0309 6.7348 14.6695 7.16568L14.8933 6.8341ZM15.5141 7.55107C15.3533 7.28901 15.1521 7.05467 14.9117 6.84817L14.6511 7.15161C14.8612 7.33211 15.0349 7.53495 15.1731 7.76026L15.5141 7.55107ZM13.9406 12.9154L13.9405 12.9155L14.1223 13.2718L14.1224 13.2717L13.9406 12.9154ZM13.969 13.356C14.0206 13.356 14.096 13.343 14.1572 13.2819C14.2184 13.2208 14.2315 13.1453 14.2315 13.0937L13.8315 13.0934C13.8315 13.0835 13.8342 13.0392 13.8745 12.9989C13.9149 12.9586 13.9591 12.956 13.969 12.956V13.356ZM14.1344 13.8693C14.0922 13.6433 14.1016 13.4243 14.1616 13.2099L13.7764 13.1021C13.6995 13.3768 13.688 13.6579 13.7411 13.9427L14.1344 13.8693ZM14.4954 14.762C14.3603 14.4593 14.2372 14.1516 14.1262 13.8391L13.7493 13.9729C13.8638 14.2954 13.9907 14.6127 14.1301 14.925L14.4954 14.762ZM15.13 17.5383C14.8719 16.6402 14.6652 15.7308 14.51 14.8102L14.1155 14.8768C14.2733 15.8122 14.4833 16.7362 14.7455 17.6487L15.13 17.5383ZM15.3041 17.879L15.1166 17.504L14.7589 17.6829L14.9464 18.0579L15.3041 17.879ZM17.059 18.3653C16.3594 18.4895 15.768 18.3106 15.2641 17.8245L14.9864 18.1124C15.5838 18.6886 16.3049 18.9055 17.129 18.7592L17.059 18.3653ZM19.1213 17.3252C18.4338 17.7103 17.7311 18.0616 17.0131 18.3793L17.1749 18.7451C17.9045 18.4223 18.6184 18.0653 19.3167 17.6742L19.1213 17.3252ZM20.0816 15.6496C20.0576 16.3974 19.7382 16.9494 19.115 17.3289L19.323 17.6706C20.0642 17.2192 20.4532 16.5421 20.4814 15.6624L20.0816 15.6496ZM19.2677 14.8096C19.6923 14.9849 19.9617 15.2822 20.0898 15.713L20.4732 15.599C20.3101 15.0505 19.9545 14.6604 19.4203 14.4399L19.2677 14.8096ZM17.8406 14.6997C18.3357 14.7081 18.8268 14.749 19.3142 14.8225L19.3738 14.427C18.8689 14.3508 18.3601 14.3084 17.8474 14.2998L17.8406 14.6997ZM17.716 13.7211C17.571 13.8419 17.4565 13.9969 17.4565 14.1872C17.4565 14.3776 17.571 14.5326 17.716 14.6534L17.972 14.3461C17.867 14.2586 17.8565 14.2053 17.8565 14.1872C17.8565 14.1692 17.867 14.1159 17.972 14.0284L17.716 13.7211ZM20.1969 14.047C19.4523 13.6 18.6486 13.4774 17.7976 13.6802L17.8904 14.0693C18.6406 13.8906 19.337 13.9973 19.9911 14.39L20.1969 14.047ZM19.8315 13.8012C19.8936 13.8601 19.9217 13.9133 19.9322 13.9604C19.9426 14.0073 19.9396 14.0663 19.9084 14.1439L20.2796 14.2931C20.3346 14.1562 20.3539 14.0142 20.3227 13.8736C20.2915 13.7332 20.2139 13.6124 20.1065 13.5107L19.8315 13.8012ZM19.7065 13.5935C19.7065 13.6451 19.7195 13.7206 19.7807 13.7818C19.8419 13.843 19.9174 13.856 19.969 13.856V13.456C19.9789 13.456 20.0232 13.4586 20.0635 13.499C20.1039 13.5393 20.1065 13.5836 20.1065 13.5935H19.7065ZM19.7847 13.7521L19.7849 13.7523L20.0281 13.4347L20.0279 13.4345L19.7847 13.7521ZM19.5858 13.3951C19.6435 13.4783 19.6867 13.565 19.7161 13.6554L20.0964 13.5313C20.0544 13.4025 19.9934 13.281 19.9145 13.1672L19.5858 13.3951ZM18.6543 12.5294C18.9885 12.8042 19.3052 13.1006 19.6046 13.4183L19.8957 13.144C19.5849 12.8141 19.2559 12.5062 18.9084 12.2204L18.6543 12.5294ZM16.8791 12.0093C17.5593 11.8878 18.1419 12.0572 18.6458 12.5219L18.917 12.2279C18.3204 11.6777 17.6112 11.4721 16.8087 11.6155L16.8791 12.0093ZM15.0089 12.4458C15.6418 12.3165 16.2705 12.1699 16.8947 12.0058L16.7931 11.619C16.176 11.7811 15.5546 11.9261 14.9289 12.0539L15.0089 12.4458ZM14.2153 13.1722C14.3702 12.8099 14.6369 12.568 15.0307 12.4401L14.9071 12.0597C14.4078 12.2218 14.0495 12.5424 13.8475 13.015L14.2153 13.1722Z" fill="#071600" mask="url(#path-1-outside-1_185_155)"/>
</g>
<path d="M12.2676 6.86967L12.2675 6.86894L12.2557 6.87206C11.7935 6.99446 11.3744 7.20949 10.9992 7.51632L10.9989 7.51593L10.9918 7.52302C10.9601 7.55474 10.9312 7.5995 10.9312 7.65623C10.9312 7.71296 10.9601 7.75773 10.9918 7.78944L10.9918 7.78948L10.994 7.79155C11.1262 7.91597 11.2643 8.03281 11.4083 8.14213L11.4538 8.17671L11.5067 8.15499C11.7457 8.05692 11.9932 7.95384 12.2493 7.84563C12.6986 7.7464 13.0972 7.76321 13.4487 7.89015C13.8024 8.01786 14.116 8.25981 14.3888 8.62259L14.415 8.65736L14.4583 8.66193C14.6663 8.68389 14.8468 8.65277 14.9576 8.52713C15.0678 8.40221 15.0789 8.21796 15.0354 8.0107L15.0306 7.98795L15.0163 7.96963C14.3213 7.08091 13.4004 6.71307 12.2676 6.86967Z" fill="#1B2A14" stroke="#071600" stroke-width="0.2"/>
<g opacity="0.966">
<mask id="path-4-outside-2_185_155" maskUnits="userSpaceOnUse" x="-1.03125" y="7.37769" width="10" height="10" fill="black">
<rect fill="white" x="-1.03125" y="7.37769" width="10" height="10"/>
<path fill-rule="evenodd" clip-rule="evenodd" d="M-0.03125 10.6564V11.4064C0.0470256 12.4857 0.349109 13.5066 0.875 14.4689C1.58928 15.7073 2.66219 16.4261 4.09375 16.6251C4.86725 16.7991 5.61725 16.7366 6.34375 16.4376C7.10775 15.8597 7.59731 15.0993 7.8125 14.1564C8.11556 13.163 8.33431 12.1526 8.46875 11.1251C8.49625 10.5759 8.28794 10.1384 7.84375 9.81262C7.24025 9.36493 6.61525 8.94824 5.96875 8.56262C4.80819 8.23712 3.68319 8.34131 2.59375 8.87512C1.60062 9.31987 0.725619 9.91362 -0.03125 10.6564ZM6.61747 10.3028C6.40441 10.1767 6.18817 10.055 5.96875 9.93762C4.95769 9.62993 3.95769 9.67162 2.96875 10.0626C2.20306 10.3621 1.47389 10.7267 0.78125 11.1564C0.703194 11.0108 0.744856 10.8962 0.90625 10.8126C1.8177 10.1277 2.8177 9.60687 3.90625 9.25012C4.59844 9.07624 5.26511 9.13874 5.90625 9.43762C6.47587 9.81974 7.028 10.226 7.5625 10.6564C7.62556 10.7517 7.65681 10.8559 7.65625 10.9688C7.65633 10.9689 7.65642 10.969 7.6565 10.969C7.72763 11.1443 7.73806 11.3318 7.68775 11.5315C7.4905 12.2998 7.303 13.0706 7.12525 13.844C6.9675 14.5661 6.62375 15.1807 6.094 15.6878C5.56516 15.9606 5.00266 16.044 4.4065 15.9378C3.37955 15.8255 2.5358 15.3775 1.87525 14.594C1.13484 13.5705 0.770259 12.4247 0.781502 11.1565C1.47415 10.7268 2.20331 10.3623 2.969 10.0628C3.95794 9.67177 4.95794 9.63008 5.969 9.93777C6.18834 10.0551 6.40449 10.1768 6.61747 10.3028Z"/>
</mask>
<path fill-rule="evenodd" clip-rule="evenodd" d="M-0.03125 10.6564V11.4064C0.0470256 12.4857 0.349109 13.5066 0.875 14.4689C1.58928 15.7073 2.66219 16.4261 4.09375 16.6251C4.86725 16.7991 5.61725 16.7366 6.34375 16.4376C7.10775 15.8597 7.59731 15.0993 7.8125 14.1564C8.11556 13.163 8.33431 12.1526 8.46875 11.1251C8.49625 10.5759 8.28794 10.1384 7.84375 9.81262C7.24025 9.36493 6.61525 8.94824 5.96875 8.56262C4.80819 8.23712 3.68319 8.34131 2.59375 8.87512C1.60062 9.31987 0.725619 9.91362 -0.03125 10.6564ZM6.61747 10.3028C6.40441 10.1767 6.18817 10.055 5.96875 9.93762C4.95769 9.62993 3.95769 9.67162 2.96875 10.0626C2.20306 10.3621 1.47389 10.7267 0.78125 11.1564C0.703194 11.0108 0.744856 10.8962 0.90625 10.8126C1.8177 10.1277 2.8177 9.60687 3.90625 9.25012C4.59844 9.07624 5.26511 9.13874 5.90625 9.43762C6.47587 9.81974 7.028 10.226 7.5625 10.6564C7.62556 10.7517 7.65681 10.8559 7.65625 10.9688C7.65633 10.9689 7.65642 10.969 7.6565 10.969C7.72763 11.1443 7.73806 11.3318 7.68775 11.5315C7.4905 12.2998 7.303 13.0706 7.12525 13.844C6.9675 14.5661 6.62375 15.1807 6.094 15.6878C5.56516 15.9606 5.00266 16.044 4.4065 15.9378C3.37955 15.8255 2.5358 15.3775 1.87525 14.594C1.13484 13.5705 0.770259 12.4247 0.781502 11.1565C1.47415 10.7268 2.20331 10.3623 2.969 10.0628C3.95794 9.67177 4.95794 9.63008 5.969 9.93777C6.18834 10.0551 6.40449 10.1768 6.61747 10.3028Z" fill="#16250F"/>
<path d="M-0.03125 11.4064H-0.23125V11.4136L-0.230726 11.4208L-0.03125 11.4064ZM-0.03125 10.6564L-0.171334 10.5136L-0.23125 10.5724V10.6564H-0.03125ZM0.875 14.4689L0.699451 14.5648L0.70175 14.5688L0.875 14.4689ZM4.09375 16.6251L4.13763 16.43L4.12952 16.4282L4.1213 16.427L4.09375 16.6251ZM6.34375 16.4376L6.41985 16.6226L6.44377 16.6127L6.4644 16.5971L6.34375 16.4376ZM7.8125 14.1564L7.6212 14.098L7.61911 14.1049L7.61751 14.1119L7.8125 14.1564ZM8.46875 11.1251L8.66706 11.1511L8.6681 11.1431L8.6685 11.1351L8.46875 11.1251ZM7.84375 9.81262L7.72459 9.97325L7.72546 9.97389L7.84375 9.81262ZM5.96875 8.56262L6.0712 8.39086L6.04837 8.37723L6.02276 8.37005L5.96875 8.56262ZM2.59375 8.87512L2.67554 9.05776L2.68175 9.05472L2.59375 8.87512ZM6.61747 10.3028L6.51565 10.4749L6.7193 10.1306L6.61747 10.3028ZM5.96875 9.93762L6.0631 9.76127L6.04578 9.752L6.02698 9.74628L5.96875 9.93762ZM2.96875 10.0626L3.04161 10.2489L3.04229 10.2486L2.96875 10.0626ZM0.78125 11.1564L0.604993 11.2509L0.705663 11.4386L0.886682 11.3263L0.78125 11.1564ZM0.90625 10.8126L0.998261 10.9902L1.01307 10.9825L1.0264 10.9725L0.90625 10.8126ZM3.90625 9.25012L3.8574 9.05566L3.84396 9.06007L3.90625 9.25012ZM5.90625 9.43762L6.01767 9.27153L6.0048 9.2629L5.99075 9.25635L5.90625 9.43762ZM7.5625 10.6564L7.7293 10.546L7.71214 10.5201L7.68793 10.5006L7.5625 10.6564ZM7.65625 10.9688L7.45625 10.9679L7.45573 11.0732L7.54231 11.1332L7.65625 10.9688ZM7.6565 10.969L7.84182 10.8938L7.81941 10.8386L7.77044 10.8046L7.6565 10.969ZM7.68775 11.5315L7.88147 11.5813L7.88169 11.5804L7.68775 11.5315ZM7.12525 13.844L6.93032 13.7992L6.92986 13.8013L7.12525 13.844ZM6.094 15.6878L6.18571 15.8655L6.21141 15.8522L6.2323 15.8322L6.094 15.6878ZM4.4065 15.9378L4.44165 15.7404L4.42825 15.739L4.4065 15.9378ZM1.87525 14.594L1.71321 14.7112L1.71756 14.7173L1.72234 14.7229L1.87525 14.594ZM0.781502 11.1565L0.67607 10.9866L0.582487 11.0446L0.58151 11.1547L0.781502 11.1565ZM2.969 10.0628L3.04186 10.249L3.04254 10.2488L2.969 10.0628ZM5.969 9.93777L6.06335 9.76142L6.04603 9.75215L6.02723 9.74643L5.969 9.93777ZM0.16875 11.4064V10.6564H-0.23125V11.4064H0.16875ZM1.0505 14.373C0.53815 13.4354 0.244403 12.4423 0.168226 11.3919L-0.230726 11.4208C-0.150352 12.5292 0.160068 13.5777 0.699497 14.5648L1.0505 14.373ZM4.1213 16.427C2.75006 16.2363 1.73131 15.5532 1.04825 14.3689L0.70175 14.5688C1.44725 15.8614 2.57432 16.6158 4.0662 16.8232L4.1213 16.427ZM6.26765 16.2527C5.57952 16.5358 4.87143 16.595 4.13763 16.43L4.04987 16.8202C4.86307 17.0031 5.65498 16.9373 6.41985 16.6226L6.26765 16.2527ZM7.61751 14.1119C7.41269 15.0094 6.94916 15.7289 6.2231 16.2781L6.4644 16.5971C7.26634 15.9906 7.78194 15.1892 8.00749 14.2009L7.61751 14.1119ZM8.27044 11.0992C8.13744 12.1157 7.92104 13.1152 7.6212 14.098L8.0038 14.2147C8.31008 13.2108 8.53118 12.1896 8.66706 11.1511L8.27044 11.0992ZM7.72546 9.97389C8.11554 10.26 8.29313 10.6332 8.269 11.1151L8.6685 11.1351C8.69937 10.5186 8.46033 10.0168 7.96204 9.65135L7.72546 9.97389ZM5.8663 8.73438C6.50705 9.11658 7.12648 9.52955 7.72459 9.97325L7.96291 9.65199C7.35402 9.20031 6.72345 8.77991 6.0712 8.39086L5.8663 8.73438ZM2.68175 9.05472C3.72738 8.54237 4.80185 8.44306 5.91474 8.75519L6.02276 8.37005C4.81454 8.03118 3.63901 8.14024 2.50575 8.69552L2.68175 9.05472ZM0.108834 10.7991C0.848324 10.0734 1.70344 9.49296 2.67549 9.05765L2.51201 8.69259C1.4978 9.14678 0.602913 9.75382 -0.171334 10.5136L0.108834 10.7991ZM6.7193 10.1306C6.50376 10.0031 6.28503 9.88001 6.0631 9.76127L5.8744 10.114C6.09131 10.23 6.30506 10.3503 6.51565 10.4749L6.7193 10.1306ZM6.02698 9.74628C4.97236 9.42534 3.92592 9.46912 2.89521 9.87663L3.04229 10.2486C3.98946 9.87412 4.94302 9.83452 5.91052 10.129L6.02698 9.74628ZM2.89589 9.87636C2.11898 10.1803 1.3789 10.5503 0.675818 10.9864L0.886682 11.3263C1.56889 10.9031 2.28715 10.544 3.04161 10.2489L2.89589 9.87636ZM0.957507 11.0619C0.946395 11.0411 0.943784 11.0293 0.943226 11.0253C0.942846 11.0226 0.943519 11.0252 0.941914 11.0296C0.938836 11.0381 0.940709 11.02 0.998261 10.9902L0.814239 10.635C0.710397 10.6888 0.610742 10.7699 0.565998 10.8929C0.519511 11.0208 0.54905 11.1466 0.604993 11.2509L0.957507 11.0619ZM1.0264 10.9725C1.92026 10.3008 2.90069 9.79014 3.96854 9.44017L3.84396 9.06007C2.73471 9.4236 1.71514 9.95457 0.786099 10.6527L1.0264 10.9725ZM3.95498 9.44409C4.60305 9.2813 5.22264 9.33961 5.82175 9.61889L5.99075 9.25635C5.30757 8.93788 4.59383 8.87119 3.85752 9.05615L3.95498 9.44409ZM5.79483 9.60371C6.35964 9.9826 6.90709 10.3854 7.43707 10.8121L7.68793 10.5006C7.14891 10.0666 6.59211 9.65688 6.01767 9.27153L5.79483 9.60371ZM7.3957 10.7667C7.43718 10.8294 7.45661 10.8949 7.45625 10.9679L7.85625 10.9698C7.857 10.8168 7.81394 10.6739 7.7293 10.546L7.3957 10.7667ZM7.54231 11.1332C7.54231 11.1332 7.54231 11.1332 7.54231 11.1332C7.54231 11.1332 7.54231 11.1332 7.54231 11.1332C7.54231 11.1332 7.54231 11.1332 7.54231 11.1332C7.54231 11.1332 7.54231 11.1332 7.54231 11.1332C7.54231 11.1332 7.54231 11.1332 7.54231 11.1332C7.54231 11.1332 7.54231 11.1332 7.54231 11.1332C7.54231 11.1332 7.54231 11.1332 7.54231 11.1332C7.54231 11.1332 7.54231 11.1332 7.54232 11.1332C7.54232 11.1332 7.54232 11.1332 7.54232 11.1332C7.54232 11.1332 7.54232 11.1332 7.54232 11.1332C7.54232 11.1332 7.54232 11.1332 7.54232 11.1332C7.54232 11.1332 7.54232 11.1332 7.54232 11.1332C7.54232 11.1332 7.54232 11.1332 7.54232 11.1332C7.54232 11.1332 7.54232 11.1332 7.54232 11.1332L7.54232 11.1332C7.54232 11.1332 7.54232 11.1332 7.54232 11.1332C7.54232 11.1332 7.54232 11.1332 7.54232 11.1332L7.54232 11.1332C7.54232 11.1332 7.54232 11.1332 7.54232 11.1332L7.54232 11.1332C7.54232 11.1332 7.54232 11.1332 7.54232 11.1332L7.54232 11.1332C7.54232 11.1332 7.54232 11.1332 7.54232 11.1332C7.54232 11.1332 7.54232 11.1332 7.54232 11.1332L7.54232 11.1332C7.54232 11.1332 7.54232 11.1332 7.54232 11.1332C7.54232 11.1332 7.54232 11.1332 7.54232 11.1332C7.54232 11.1332 7.54232 11.1332 7.54232 11.1332C7.54233 11.1332 7.54233 11.1332 7.54233 11.1332C7.54233 11.1332 7.54233 11.1332 7.54233 11.1332C7.54233 11.1332 7.54233 11.1332 7.54233 11.1332C7.54233 11.1332 7.54233 11.1332 7.54233 11.1332C7.54233 11.1332 7.54233 11.1332 7.54233 11.1332C7.54233 11.1332 7.54233 11.1332 7.54233 11.1332C7.54233 11.1332 7.54233 11.1332 7.54233 11.1332C7.54233 11.1332 7.54233 11.1332 7.54233 11.1332C7.54233 11.1332 7.54233 11.1332 7.54233 11.1332C7.54233 11.1332 7.54233 11.1332 7.54233 11.1332C7.54233 11.1332 7.54233 11.1332 7.54233 11.1332C7.54233 11.1332 7.54233 11.1332 7.54233 11.1332C7.54233 11.1332 7.54233 11.1332 7.54233 11.1332C7.54233 11.1332 7.54233 11.1332 7.54233 11.1332C7.54233 11.1332 7.54233 11.1332 7.54233 11.1332C7.54233 11.1332 7.54233 11.1332 7.54233 11.1332C7.54233 11.1332 7.54233 11.1332 7.54233 11.1332C7.54233 11.1332 7.54233 11.1332 7.54233 11.1332C7.54233 11.1332 7.54233 11.1332 7.54233 11.1332L7.54233 11.1332C7.54233 11.1332 7.54234 11.1332 7.54234 11.1332L7.54234 11.1332C7.54234 11.1332 7.54234 11.1332 7.54234 11.1332L7.54234 11.1332L7.54234 11.1332C7.54234 11.1332 7.54234 11.1332 7.54234 11.1332L7.54234 11.1332C7.54234 11.1332 7.54234 11.1332 7.54234 11.1332L7.54234 11.1332C7.54234 11.1332 7.54234 11.1332 7.54234 11.1332C7.54234 11.1332 7.54234 11.1332 7.54234 11.1332C7.54234 11.1332 7.54234 11.1332 7.54234 11.1332C7.54234 11.1332 7.54234 11.1332 7.54234 11.1332C7.54234 11.1332 7.54234 11.1332 7.54234 11.1332C7.54234 11.1332 7.54234 11.1332 7.54234 11.1332C7.54234 11.1332 7.54234 11.1332 7.54234 11.1332C7.54234 11.1332 7.54234 11.1332 7.54234 11.1332C7.54234 11.1332 7.54234 11.1332 7.54234 11.1332C7.54234 11.1332 7.54234 11.1332 7.54234 11.1332C7.54234 11.1332 7.54234 11.1332 7.54234 11.1332C7.54234 11.1332 7.54234 11.1332 7.54235 11.1332C7.54235 11.1332 7.54235 11.1332 7.54235 11.1332C7.54235 11.1332 7.54235 11.1332 7.54235 11.1332C7.54235 11.1332 7.54235 11.1332 7.54235 11.1332C7.54235 11.1332 7.54235 11.1332 7.54235 11.1332C7.54235 11.1332 7.54235 11.1332 7.54235 11.1332C7.54235 11.1332 7.54235 11.1332 7.54235 11.1332C7.54235 11.1332 7.54235 11.1332 7.54235 11.1332C7.54235 11.1332 7.54235 11.1332 7.54235 11.1332C7.54235 11.1332 7.54235 11.1332 7.54235 11.1332C7.54235 11.1332 7.54235 11.1332 7.54235 11.1332L7.54235 11.1332C7.54235 11.1332 7.54235 11.1332 7.54235 11.1332C7.54235 11.1332 7.54235 11.1332 7.54235 11.1332L7.54235 11.1332C7.54235 11.1332 7.54235 11.1332 7.54235 11.1332L7.54235 11.1332C7.54235 11.1332 7.54235 11.1332 7.54235 11.1332L7.54235 11.1332C7.54235 11.1332 7.54235 11.1332 7.54235 11.1332C7.54235 11.1332 7.54235 11.1332 7.54235 11.1332C7.54236 11.1332 7.54236 11.1332 7.54236 11.1332C7.54236 11.1332 7.54236 11.1332 7.54236 11.1332C7.54236 11.1332 7.54236 11.1332 7.54236 11.1332C7.54236 11.1332 7.54236 11.1332 7.54236 11.1332C7.54236 11.1332 7.54236 11.1332 7.54236 11.1332C7.54236 11.1332 7.54236 11.1332 7.54236 11.1332C7.54236 11.1332 7.54236 11.1332 7.54236 11.1332C7.54236 11.1332 7.54236 11.1332 7.54236 11.1332C7.54236 11.1332 7.54236 11.1332 7.54236 11.1332C7.54236 11.1332 7.54236 11.1332 7.54236 11.1332C7.54236 11.1332 7.54236 11.1332 7.54236 11.1332C7.54236 11.1332 7.54236 11.1332 7.54236 11.1332C7.54236 11.1333 7.54236 11.1333 7.54236 11.1333C7.54236 11.1333 7.54236 11.1333 7.54236 11.1333C7.54236 11.1333 7.54236 11.1333 7.54236 11.1333C7.54236 11.1333 7.54236 11.1333 7.54236 11.1333C7.54236 11.1333 7.54236 11.1333 7.54236 11.1333C7.54236 11.1333 7.54236 11.1333 7.54236 11.1333C7.54236 11.1333 7.54236 11.1333 7.54236 11.1333C7.54236 11.1333 7.54236 11.1333 7.54236 11.1333C7.54236 11.1333 7.54236 11.1333 7.54237 11.1333L7.54237 11.1333C7.54237 11.1333 7.54237 11.1333 7.54237 11.1333L7.54237 11.1333C7.54237 11.1333 7.54237 11.1333 7.54237 11.1333L7.54237 11.1333C7.54237 11.1333 7.54237 11.1333 7.54237 11.1333C7.54237 11.1333 7.54237 11.1333 7.54237 11.1333L7.54237 11.1333C7.54237 11.1333 7.54237 11.1333 7.54237 11.1333L7.54237 11.1333C7.54237 11.1333 7.54237 11.1333 7.54237 11.1333C7.54237 11.1333 7.54237 11.1333 7.54237 11.1333C7.54237 11.1333 7.54237 11.1333 7.54237 11.1333C7.54237 11.1333 7.54237 11.1333 7.54237 11.1333C7.54237 11.1333 7.54237 11.1333 7.54237 11.1333C7.54237 11.1333 7.54237 11.1333 7.54237 11.1333C7.54237 11.1333 7.54237 11.1333 7.54237 11.1333C7.54237 11.1333 7.54237 11.1333 7.54237 11.1333C7.54237 11.1333 7.54237 11.1333 7.54237 11.1333C7.54237 11.1333 7.54237 11.1333 7.54237 11.1333C7.54238 11.1333 7.54238 11.1333 7.54238 11.1333C7.54238 11.1333 7.54238 11.1333 7.54238 11.1333C7.54238 11.1333 7.54238 11.1333 7.54238 11.1333C7.54238 11.1333 7.54238 11.1333 7.54238 11.1333C7.54238 11.1333 7.54238 11.1333 7.54238 11.1333C7.54238 11.1333 7.54238 11.1333 7.54238 11.1333C7.54238 11.1333 7.54238 11.1333 7.54238 11.1333C7.54238 11.1333 7.54238 11.1333 7.54238 11.1333C7.54238 11.1333 7.54238 11.1333 7.54238 11.1333C7.54238 11.1333 7.54238 11.1333 7.54238 11.1333C7.54238 11.1333 7.54238 11.1333 7.54238 11.1333C7.54238 11.1333 7.54238 11.1333 7.54238 11.1333L7.54238 11.1333C7.54238 11.1333 7.54238 11.1333 7.54238 11.1333C7.54238 11.1333 7.54238 11.1333 7.54238 11.1333L7.54238 11.1333C7.54238 11.1333 7.54238 11.1333 7.54238 11.1333L7.54238 11.1333C7.54238 11.1333 7.54238 11.1333 7.54238 11.1333L7.54238 11.1333C7.54238 11.1333 7.54239 11.1333 7.54239 11.1333C7.54239 11.1333 7.54239 11.1333 7.54239 11.1333L7.54239 11.1333C7.54239 11.1333 7.54239 11.1333 7.54239 11.1333C7.54239 11.1333 7.54239 11.1333 7.54239 11.1333C7.54239 11.1333 7.54239 11.1333 7.54239 11.1333C7.54239 11.1333 7.54239 11.1333 7.54239 11.1333C7.54239 11.1333 7.54239 11.1333 7.54239 11.1333C7.54239 11.1333 7.54239 11.1333 7.54239 11.1333C7.54239 11.1333 7.54239 11.1333 7.54239 11.1333C7.54239 11.1333 7.54239 11.1333 7.54239 11.1333C7.54239 11.1333 7.54239 11.1333 7.54239 11.1333C7.54239 11.1333 7.54239 11.1333 7.54239 11.1333C7.54239 11.1333 7.54239 11.1333 7.54239 11.1333C7.54239 11.1333 7.54239 11.1333 7.54239 11.1333C7.54239 11.1333 7.54239 11.1333 7.54239 11.1333C7.54239 11.1333 7.54239 11.1333 7.54239 11.1333C7.54239 11.1333 7.54239 11.1333 7.54239 11.1333C7.54239 11.1333 7.54239 11.1333 7.54239 11.1333C7.54239 11.1333 7.54239 11.1333 7.54239 11.1333C7.54239 11.1333 7.54239 11.1333 7.5424 11.1333C7.5424 11.1333 7.5424 11.1333 7.5424 11.1333C7.5424 11.1333 7.5424 11.1333 7.5424 11.1333C7.5424 11.1333 7.5424 11.1333 7.5424 11.1333C7.5424 11.1333 7.5424 11.1333 7.5424 11.1333L7.5424 11.1333C7.5424 11.1333 7.5424 11.1333 7.5424 11.1333L7.5424 11.1333C7.5424 11.1333 7.5424 11.1333 7.5424 11.1333L7.5424 11.1333L7.5424 11.1333C7.5424 11.1333 7.5424 11.1333 7.5424 11.1333L7.5424 11.1333C7.5424 11.1333 7.5424 11.1333 7.5424 11.1333L7.5424 11.1333C7.5424 11.1333 7.5424 11.1333 7.5424 11.1333C7.5424 11.1333 7.5424 11.1333 7.5424 11.1333C7.5424 11.1333 7.5424 11.1333 7.5424 11.1333C7.5424 11.1333 7.5424 11.1333 7.5424 11.1333C7.5424 11.1333 7.5424 11.1333 7.5424 11.1333C7.5424 11.1333 7.5424 11.1333 7.5424 11.1333C7.54241 11.1333 7.54241 11.1333 7.54241 11.1333C7.54241 11.1333 7.54241 11.1333 7.54241 11.1333C7.54241 11.1333 7.54241 11.1333 7.54241 11.1333C7.54241 11.1333 7.54241 11.1333 7.54241 11.1333C7.54241 11.1333 7.54241 11.1333 7.54241 11.1333C7.54241 11.1333 7.54241 11.1333 7.54241 11.1333C7.54241 11.1333 7.54241 11.1333 7.54241 11.1333C7.54241 11.1333 7.54241 11.1333 7.54241 11.1333C7.54241 11.1333 7.54241 11.1333 7.54241 11.1333C7.54241 11.1333 7.54241 11.1333 7.54241 11.1333C7.54241 11.1333 7.54241 11.1333 7.54241 11.1333C7.54241 11.1333 7.54241 11.1333 7.54241 11.1333C7.54241 11.1333 7.54241 11.1333 7.54241 11.1333C7.54241 11.1333 7.54241 11.1333 7.54241 11.1333C7.54241 11.1333 7.54241 11.1333 7.54241 11.1333C7.54241 11.1333 7.54241 11.1333 7.54241 11.1333L7.54241 11.1333C7.54241 11.1333 7.54241 11.1333 7.54241 11.1333C7.54241 11.1333 7.54241 11.1333 7.54241 11.1333L7.54241 11.1333C7.54241 11.1333 7.54242 11.1333 7.54242 11.1333L7.54242 11.1333C7.54242 11.1333 7.54242 11.1333 7.54242 11.1333L7.54242 11.1333C7.54242 11.1333 7.54242 11.1333 7.54242 11.1333C7.54242 11.1333 7.54242 11.1333 7.54242 11.1333C7.54242 11.1333 7.54242 11.1333 7.54242 11.1333C7.54242 11.1333 7.54242 11.1333 7.54242 11.1333C7.54242 11.1333 7.54242 11.1333 7.54242 11.1333C7.54242 11.1333 7.54242 11.1333 7.54242 11.1333C7.54242 11.1333 7.54242 11.1333 7.54242 11.1333C7.54242 11.1333 7.54242 11.1333 7.54242 11.1333C7.54242 11.1333 7.54242 11.1333 7.54242 11.1333C7.54242 11.1333 7.54242 11.1333 7.54242 11.1333C7.54242 11.1333 7.54242 11.1333 7.54242 11.1333C7.54242 11.1333 7.54242 11.1333 7.54242 11.1333C7.54242 11.1333 7.54242 11.1333 7.54242 11.1333C7.54242 11.1333 7.54242 11.1333 7.54242 11.1333C7.54242 11.1333 7.54242 11.1333 7.54242 11.1333C7.54242 11.1333 7.54242 11.1333 7.54242 11.1333C7.54242 11.1333 7.54242 11.1333 7.54243 11.1333C7.54243 11.1333 7.54243 11.1333 7.54243 11.1333C7.54243 11.1333 7.54243 11.1333 7.54243 11.1333C7.54243 11.1333 7.54243 11.1333 7.54243 11.1333C7.54243 11.1333 7.54243 11.1333 7.54243 11.1333C7.54243 11.1333 7.54243 11.1333 7.54243 11.1333C7.54243 11.1333 7.54243 11.1333 7.54243 11.1333L7.54243 11.1333C7.54243 11.1333 7.54243 11.1333 7.54243 11.1333L7.54243 11.1333C7.54243 11.1333 7.54243 11.1333 7.54243 11.1333L7.54243 11.1333C7.54243 11.1333 7.54243 11.1333 7.54243 11.1333C7.54243 11.1333 7.54243 11.1333 7.54243 11.1333L7.54243 11.1333C7.54243 11.1333 7.54243 11.1333 7.54243 11.1333L7.54243 11.1333C7.54243 11.1333 7.54243 11.1333 7.54243 11.1333C7.54243 11.1333 7.54243 11.1333 7.54243 11.1333C7.54243 11.1333 7.54243 11.1333 7.54243 11.1333C7.54243 11.1333 7.54243 11.1333 7.54243 11.1333C7.54244 11.1333 7.54244 11.1333 7.54244 11.1333C7.54244 11.1333 7.54244 11.1333 7.54244 11.1333C7.54244 11.1333 7.54244 11.1333 7.54244 11.1333C7.54244 11.1333 7.54244 11.1333 7.54244 11.1333C7.54244 11.1333 7.54244 11.1333 7.54244 11.1333C7.54244 11.1333 7.54244 11.1333 7.54244 11.1333C7.54244 11.1333 7.54244 11.1333 7.54244 11.1333C7.54244 11.1333 7.54244 11.1333 7.54244 11.1333C7.54244 11.1333 7.54244 11.1333 7.54244 11.1333C7.54244 11.1333 7.54244 11.1333 7.54244 11.1333C7.54244 11.1333 7.54244 11.1333 7.54244 11.1333C7.54244 11.1333 7.54244 11.1333 7.54244 11.1333C7.54244 11.1333 7.54244 11.1333 7.54244 11.1333C7.54244 11.1333 7.54244 11.1333 7.54244 11.1333C7.54244 11.1333 7.54244 11.1333 7.54244 11.1333C7.54244 11.1333 7.54244 11.1333 7.54244 11.1333C7.54244 11.1333 7.54244 11.1333 7.54244 11.1333C7.54244 11.1333 7.54244 11.1333 7.54244 11.1333L7.54244 11.1333C7.54244 11.1333 7.54244 11.1333 7.54244 11.1333C7.54244 11.1333 7.54245 11.1333 7.54245 11.1333L7.54245 11.1333C7.54245 11.1333 7.54245 11.1333 7.54245 11.1333L7.54245 11.1333C7.54245 11.1333 7.54245 11.1333 7.54245 11.1333L7.54245 11.1333C7.54245 11.1333 7.54245 11.1333 7.54245 11.1333C7.54245 11.1333 7.54245 11.1333 7.54245 11.1333L7.54245 11.1333C7.54245 11.1333 7.54245 11.1333 7.54245 11.1333C7.54245 11.1333 7.54245 11.1333 7.54245 11.1333C7.54245 11.1333 7.54245 11.1333 7.54245 11.1333C7.54245 11.1333 7.54245 11.1333 7.54245 11.1333C7.54245 11.1333 7.54245 11.1333 7.54245 11.1333C7.54245 11.1333 7.54245 11.1333 7.54245 11.1333C7.54245 11.1333 7.54245 11.1333 7.54245 11.1333C7.54245 11.1333 7.54245 11.1333 7.54245 11.1333C7.54245 11.1333 7.54245 11.1333 7.54245 11.1333C7.54245 11.1333 7.54245 11.1333 7.54245 11.1333C7.54245 11.1333 7.54245 11.1333 7.54245 11.1333C7.54245 11.1333 7.54245 11.1333 7.54246 11.1333C7.54246 11.1333 7.54246 11.1333 7.54246 11.1333C7.54246 11.1333 7.54246 11.1333 7.54246 11.1333C7.54246 11.1333 7.54246 11.1333 7.54246 11.1333C7.54246 11.1333 7.54246 11.1333 7.54246 11.1333C7.54246 11.1333 7.54246 11.1333 7.54246 11.1333C7.54246 11.1333 7.54246 11.1333 7.54246 11.1333C7.54246 11.1333 7.54246 11.1333 7.54246 11.1333C7.54246 11.1333 7.54246 11.1333 7.54246 11.1333C7.54246 11.1333 7.54246 11.1333 7.54246 11.1333C7.54246 11.1333 7.54246 11.1333 7.54246 11.1333L7.54246 11.1333C7.54246 11.1333 7.54246 11.1333 7.54246 11.1333L7.54246 11.1333C7.54246 11.1333 7.54246 11.1333 7.54246 11.1333L7.54246 11.1333L7.54246 11.1333C7.54246 11.1333 7.54246 11.1333 7.54246 11.1333L7.54246 11.1333C7.54246 11.1333 7.54246 11.1333 7.54246 11.1333L7.54246 11.1333C7.54247 11.1333 7.54247 11.1333 7.54247 11.1333C7.54247 11.1333 7.54247 11.1333 7.54247 11.1333C7.54247 11.1333 7.54247 11.1333 7.54247 11.1333C7.54247 11.1333 7.54247 11.1333 7.54247 11.1333C7.54247 11.1333 7.54247 11.1333 7.54247 11.1333C7.54247 11.1333 7.54247 11.1333 7.54247 11.1333C7.54247 11.1333 7.54247 11.1333 7.54247 11.1333C7.54247 11.1333 7.54247 11.1333 7.54247 11.1333C7.54247 11.1333 7.54247 11.1333 7.54247 11.1333C7.54247 11.1333 7.54247 11.1333 7.54247 11.1333C7.54247 11.1333 7.54247 11.1333 7.54247 11.1333C7.54247 11.1333 7.54247 11.1333 7.54247 11.1333C7.54247 11.1333 7.54247 11.1333 7.54247 11.1333C7.54247 11.1333 7.54247 11.1333 7.54247 11.1333C7.54247 11.1333 7.54247 11.1333 7.54247 11.1333C7.54247 11.1333 7.54247 11.1333 7.54247 11.1333C7.54247 11.1333 7.54247 11.1333 7.54247 11.1333C7.54247 11.1333 7.54247 11.1333 7.54247 11.1333C7.54247 11.1333 7.54247 11.1333 7.54247 11.1333C7.54247 11.1333 7.54247 11.1333 7.54247 11.1333C7.54247 11.1333 7.54247 11.1333 7.54248 11.1333C7.54248 11.1333 7.54248 11.1333 7.54248 11.1333L7.54248 11.1333C7.54248 11.1333 7.54248 11.1333 7.54248 11.1333C7.54248 11.1333 7.54248 11.1333 7.54248 11.1333L7.54248 11.1333C7.54248 11.1333 7.54248 11.1333 7.54248 11.1333L7.54248 11.1333C7.54248 11.1333 7.54248 11.1333 7.54248 11.1333L7.54248 11.1333C7.54248 11.1333 7.54248 11.1333 7.54248 11.1333C7.54248 11.1333 7.54248 11.1333 7.54248 11.1333C7.54248 11.1333 7.54248 11.1333 7.54248 11.1333C7.54248 11.1333 7.54248 11.1333 7.54248 11.1333C7.54248 11.1333 7.54248 11.1333 7.54248 11.1333C7.54248 11.1333 7.54248 11.1333 7.54248 11.1333C7.54248 11.1333 7.54248 11.1333 7.54248 11.1333C7.54248 11.1333 7.54248 11.1333 7.54248 11.1333C7.54248 11.1333 7.54248 11.1333 7.54248 11.1333C7.54248 11.1333 7.54248 11.1333 7.54248 11.1333C7.54248 11.1333 7.54248 11.1333 7.54248 11.1333C7.54249 11.1333 7.54249 11.1333 7.54249 11.1333C7.54249 11.1333 7.54249 11.1333 7.54249 11.1333C7.54249 11.1333 7.54249 11.1333 7.54249 11.1333C7.54249 11.1333 7.54249 11.1333 7.54249 11.1333C7.54249 11.1333 7.54249 11.1333 7.54249 11.1333C7.54249 11.1333 7.54249 11.1333 7.54249 11.1333C7.54249 11.1333 7.54249 11.1333 7.54249 11.1333C7.54249 11.1333 7.54249 11.1333 7.54249 11.1333C7.54249 11.1333 7.54249 11.1333 7.54249 11.1333C7.54249 11.1333 7.54249 11.1333 7.54249 11.1333C7.54249 11.1333 7.54249 11.1333 7.54249 11.1333C7.54249 11.1333 7.54249 11.1333 7.54249 11.1333L7.54249 11.1333C7.54249 11.1333 7.54249 11.1333 7.54249 11.1333L7.54249 11.1333C7.54249 11.1333 7.54249 11.1333 7.54249 11.1333L7.54249 11.1333C7.54249 11.1333 7.54249 11.1333 7.54249 11.1333C7.54249 11.1333 7.54249 11.1333 7.54249 11.1333L7.54249 11.1333C7.54249 11.1333 7.5425 11.1333 7.5425 11.1333L7.5425 11.1333C7.5425 11.1333 7.5425 11.1333 7.5425 11.1333C7.5425 11.1333 7.5425 11.1333 7.5425 11.1333C7.5425 11.1333 7.5425 11.1333 7.5425 11.1333C7.5425 11.1333 7.5425 11.1333 7.5425 11.1333C7.5425 11.1333 7.5425 11.1333 7.5425 11.1333C7.5425 11.1333 7.5425 11.1333 7.5425 11.1333C7.5425 11.1333 7.5425 11.1333 7.5425 11.1333C7.5425 11.1333 7.5425 11.1333 7.5425 11.1333C7.5425 11.1333 7.5425 11.1333 7.5425 11.1333C7.5425 11.1333 7.5425 11.1333 7.5425 11.1333C7.5425 11.1333 7.5425 11.1333 7.5425 11.1333C7.5425 11.1333 7.5425 11.1333 7.5425 11.1333C7.5425 11.1333 7.5425 11.1333 7.5425 11.1333C7.5425 11.1333 7.5425 11.1333 7.5425 11.1333C7.5425 11.1333 7.5425 11.1333 7.5425 11.1333C7.5425 11.1333 7.5425 11.1333 7.5425 11.1333C7.5425 11.1333 7.5425 11.1333 7.5425 11.1333C7.5425 11.1333 7.5425 11.1333 7.5425 11.1333C7.5425 11.1333 7.5425 11.1334 7.54251 11.1334C7.54251 11.1334 7.54251 11.1334 7.54251 11.1334C7.54251 11.1334 7.54251 11.1334 7.54251 11.1334C7.54251 11.1334 7.54251 11.1334 7.54251 11.1334L7.54251 11.1334C7.54251 11.1334 7.54251 11.1334 7.54251 11.1334C7.54251 11.1334 7.54251 11.1334 7.54251 11.1334L7.54251 11.1334C7.54251 11.1334 7.54251 11.1334 7.54251 11.1334L7.54251 11.1334C7.54251 11.1334 7.54251 11.1334 7.54251 11.1334L7.54251 11.1334C7.54251 11.1334 7.54251 11.1334 7.54251 11.1334C7.54251 11.1334 7.54251 11.1334 7.54251 11.1334L7.54251 11.1334C7.54251 11.1334 7.54251 11.1334 7.54251 11.1334C7.54251 11.1334 7.54251 11.1334 7.54251 11.1334C7.54251 11.1334 7.54251 11.1334 7.54251 11.1334C7.54251 11.1334 7.54251 11.1334 7.54251 11.1334C7.54251 11.1334 7.54251 11.1334 7.54251 11.1334C7.54251 11.1334 7.54251 11.1334 7.54251 11.1334C7.54252 11.1334 7.54252 11.1334 7.54252 11.1334C7.54252 11.1334 7.54252 11.1334 7.54252 11.1334C7.54252 11.1334 7.54252 11.1334 7.54252 11.1334C7.54252 11.1334 7.54252 11.1334 7.54252 11.1334C7.54252 11.1334 7.54252 11.1334 7.54252 11.1334C7.54252 11.1334 7.54252 11.1334 7.54252 11.1334C7.54252 11.1334 7.54252 11.1334 7.54252 11.1334C7.54252 11.1334 7.54252 11.1334 7.54252 11.1334C7.54252 11.1334 7.54252 11.1334 7.54252 11.1334C7.54252 11.1334 7.54252 11.1334 7.54252 11.1334C7.54252 11.1334 7.54252 11.1334 7.54252 11.1334C7.54252 11.1334 7.54252 11.1334 7.54252 11.1334C7.54252 11.1334 7.54252 11.1334 7.54252 11.1334C7.54252 11.1334 7.54252 11.1334 7.54252 11.1334C7.54252 11.1334 7.54252 11.1334 7.54252 11.1334C7.54252 11.1334 7.54252 11.1334 7.54252 11.1334L7.54252 11.1334C7.54252 11.1334 7.54252 11.1334 7.54252 11.1334L7.54252 11.1334C7.54252 11.1334 7.54252 11.1334 7.54252 11.1334L7.54253 11.1334L7.54253 11.1334C7.54253 11.1334 7.54253 11.1334 7.54253 11.1334L7.54253 11.1334C7.54253 11.1334 7.54253 11.1334 7.54253 11.1334L7.54253 11.1334C7.54253 11.1334 7.54253 11.1334 7.54253 11.1334C7.54253 11.1334 7.54253 11.1334 7.54253 11.1334C7.54253 11.1334 7.54253 11.1334 7.54253 11.1334C7.54253 11.1334 7.54253 11.1334 7.54253 11.1334C7.54253 11.1334 7.54253 11.1334 7.54253 11.1334C7.54253 11.1334 7.54253 11.1334 7.54253 11.1334C7.54253 11.1334 7.54253 11.1334 7.54253 11.1334C7.54253 11.1334 7.54253 11.1334 7.54253 11.1334C7.54253 11.1334 7.54253 11.1334 7.54253 11.1334C7.54253 11.1334 7.54253 11.1334 7.54253 11.1334C7.54253 11.1334 7.54253 11.1334 7.54253 11.1334C7.54253 11.1334 7.54253 11.1334 7.54253 11.1334C7.54253 11.1334 7.54253 11.1334 7.54253 11.1334C7.54253 11.1334 7.54253 11.1334 7.54253 11.1334C7.54253 11.1334 7.54253 11.1334 7.54254 11.1334C7.54254 11.1334 7.54254 11.1334 7.54254 11.1334C7.54254 11.1334 7.54254 11.1334 7.54254 11.1334C7.54254 11.1334 7.54254 11.1334 7.54254 11.1334C7.54254 11.1334 7.54254 11.1334 7.54254 11.1334C7.54254 11.1334 7.54254 11.1334 7.54254 11.1334C7.54254 11.1334 7.54254 11.1334 7.54254 11.1334C7.54254 11.1334 7.54254 11.1334 7.54254 11.1334L7.54254 11.1334C7.54254 11.1334 7.54254 11.1334 7.54254 11.1334C7.54254 11.1334 7.54254 11.1334 7.54254 11.1334L7.54254 11.1334C7.54254 11.1334 7.54254 11.1334 7.54254 11.1334L7.54254 11.1334C7.54254 11.1334 7.54254 11.1334 7.54254 11.1334L7.54254 11.1334C7.54254 11.1334 7.54254 11.1334 7.54254 11.1334C7.54254 11.1334 7.54254 11.1334 7.54254 11.1334C7.54254 11.1334 7.54254 11.1334 7.54254 11.1334C7.54254 11.1334 7.54254 11.1334 7.54254 11.1334C7.54254 11.1334 7.54254 11.1334 7.54254 11.1334C7.54255 11.1334 7.54255 11.1334 7.54255 11.1334C7.54255 11.1334 7.54255 11.1334 7.54255 11.1334C7.54255 11.1334 7.54255 11.1334 7.54255 11.1334C7.54255 11.1334 7.54255 11.1334 7.54255 11.1334C7.54255 11.1334 7.54255 11.1334 7.54255 11.1334C7.54255 11.1334 7.54255 11.1334 7.54255 11.1334C7.54255 11.1334 7.54255 11.1334 7.54255 11.1334C7.54255 11.1334 7.54255 11.1334 7.54255 11.1334C7.54255 11.1334 7.54255 11.1334 7.54255 11.1334C7.54255 11.1334 7.54255 11.1334 7.54255 11.1334C7.54255 11.1334 7.54255 11.1334 7.54255 11.1334C7.54255 11.1334 7.54255 11.1334 7.54255 11.1334C7.54255 11.1334 7.54255 11.1334 7.54255 11.1334C7.54255 11.1334 7.54255 11.1334 7.54255 11.1334C7.54255 11.1334 7.54255 11.1334 7.54255 11.1334C7.54255 11.1334 7.54255 11.1334 7.54255 11.1334C7.54255 11.1334 7.54255 11.1334 7.54255 11.1334C7.54255 11.1334 7.54255 11.1334 7.54255 11.1334L7.54255 11.1334C7.54255 11.1334 7.54255 11.1334 7.54255 11.1334L7.54256 11.1334C7.54256 11.1334 7.54256 11.1334 7.54256 11.1334L7.54256 11.1334C7.54256 11.1334 7.54256 11.1334 7.54256 11.1334C7.54256 11.1334 7.54256 11.1334 7.54256 11.1334L7.54256 11.1334C7.54256 11.1334 7.54256 11.1334 7.54256 11.1334L7.54256 11.1334C7.54256 11.1334 7.54256 11.1334 7.54256 11.1334C7.54256 11.1334 7.54256 11.1334 7.54256 11.1334C7.54256 11.1334 7.54256 11.1334 7.54256 11.1334C7.54256 11.1334 7.54256 11.1334 7.54256 11.1334C7.54256 11.1334 7.54256 11.1334 7.54256 11.1334C7.54256 11.1334 7.54256 11.1334 7.54256 11.1334C7.54256 11.1334 7.54256 11.1334 7.54256 11.1334C7.54256 11.1334 7.54256 11.1334 7.54256 11.1334L7.77044 10.8046C7.77044 10.8046 7.77044 10.8046 7.77044 10.8046C7.77044 10.8046 7.77044 10.8046 7.77044 10.8046C7.77044 10.8046 7.77044 10.8046 7.77044 10.8046C7.77044 10.8046 7.77044 10.8046 7.77044 10.8046C7.77044 10.8046 7.77044 10.8046 7.77044 10.8046C7.77044 10.8046 7.77044 10.8046 7.77044 10.8046C7.77044 10.8046 7.77044 10.8046 7.77044 10.8046C7.77044 10.8046 7.77044 10.8046 7.77044 10.8046C7.77044 10.8046 7.77044 10.8046 7.77044 10.8046C7.77044 10.8046 7.77044 10.8046 7.77044 10.8046C7.77044 10.8046 7.77044 10.8046 7.77044 10.8046C7.77044 10.8046 7.77044 10.8046 7.77043 10.8046C7.77043 10.8046 7.77043 10.8046 7.77043 10.8046C7.77043 10.8046 7.77043 10.8046 7.77043 10.8046L7.77043 10.8046C7.77043 10.8046 7.77043 10.8046 7.77043 10.8046C7.77043 10.8046 7.77043 10.8046 7.77043 10.8046L7.77043 10.8046C7.77043 10.8046 7.77043 10.8046 7.77043 10.8046L7.77043 10.8046C7.77043 10.8046 7.77043 10.8046 7.77043 10.8046L7.77043 10.8046C7.77043 10.8046 7.77043 10.8046 7.77043 10.8046C7.77043 10.8046 7.77043 10.8046 7.77043 10.8046L7.77043 10.8046C7.77043 10.8046 7.77043 10.8046 7.77043 10.8046C7.77043 10.8046 7.77043 10.8046 7.77043 10.8046C7.77043 10.8046 7.77043 10.8046 7.77043 10.8046C7.77043 10.8046 7.77043 10.8046 7.77043 10.8046C7.77043 10.8046 7.77043 10.8046 7.77043 10.8046C7.77043 10.8046 7.77043 10.8046 7.77043 10.8046C7.77043 10.8046 7.77043 10.8046 7.77043 10.8046C7.77042 10.8046 7.77042 10.8046 7.77042 10.8046C7.77042 10.8046 7.77042 10.8046 7.77042 10.8046C7.77042 10.8046 7.77042 10.8046 7.77042 10.8046C7.77042 10.8046 7.77042 10.8046 7.77042 10.8046C7.77042 10.8046 7.77042 10.8046 7.77042 10.8046C7.77042 10.8046 7.77042 10.8046 7.77042 10.8046C7.77042 10.8046 7.77042 10.8046 7.77042 10.8046C7.77042 10.8046 7.77042 10.8046 7.77042 10.8046C7.77042 10.8046 7.77042 10.8046 7.77042 10.8046C7.77042 10.8046 7.77042 10.8046 7.77042 10.8046C7.77042 10.8046 7.77042 10.8046 7.77042 10.8046C7.77042 10.8046 7.77042 10.8046 7.77042 10.8046C7.77042 10.8046 7.77042 10.8046 7.77042 10.8046C7.77042 10.8046 7.77042 10.8046 7.77042 10.8046C7.77042 10.8046 7.77042 10.8046 7.77042 10.8046L7.77042 10.8046C7.77042 10.8046 7.77042 10.8046 7.77042 10.8046L7.77042 10.8046C7.77042 10.8046 7.77042 10.8046 7.77042 10.8046L7.77042 10.8046L7.77041 10.8046C7.77041 10.8046 7.77041 10.8046 7.77041 10.8046L7.77041 10.8046C7.77041 10.8046 7.77041 10.8046 7.77041 10.8046L7.77041 10.8046C7.77041 10.8046 7.77041 10.8046 7.77041 10.8046C7.77041 10.8046 7.77041 10.8046 7.77041 10.8046C7.77041 10.8046 7.77041 10.8046 7.77041 10.8046C7.77041 10.8046 7.77041 10.8046 7.77041 10.8046C7.77041 10.8046 7.77041 10.8046 7.77041 10.8046C7.77041 10.8046 7.77041 10.8046 7.77041 10.8046C7.77041 10.8046 7.77041 10.8046 7.77041 10.8046C7.77041 10.8046 7.77041 10.8046 7.77041 10.8046C7.77041 10.8046 7.77041 10.8046 7.77041 10.8046C7.77041 10.8046 7.77041 10.8046 7.77041 10.8046C7.77041 10.8046 7.77041 10.8046 7.77041 10.8046C7.77041 10.8046 7.77041 10.8046 7.77041 10.8046C7.77041 10.8046 7.77041 10.8046 7.77041 10.8046C7.77041 10.8046 7.77041 10.8046 7.77041 10.8046C7.77041 10.8046 7.77041 10.8046 7.77041 10.8046C7.77041 10.8046 7.77041 10.8046 7.7704 10.8046C7.7704 10.8046 7.7704 10.8046 7.7704 10.8046C7.7704 10.8046 7.7704 10.8046 7.7704 10.8046C7.7704 10.8046 7.7704 10.8046 7.7704 10.8046C7.7704 10.8046 7.7704 10.8046 7.7704 10.8046C7.7704 10.8046 7.7704 10.8046 7.7704 10.8046C7.7704 10.8046 7.7704 10.8046 7.7704 10.8046L7.7704 10.8046L7.7704 10.8046C7.7704 10.8046 7.7704 10.8046 7.7704 10.8046L7.7704 10.8046C7.7704 10.8046 7.7704 10.8046 7.7704 10.8046L7.7704 10.8046C7.7704 10.8046 7.7704 10.8046 7.7704 10.8046L7.7704 10.8046C7.7704 10.8046 7.7704 10.8046 7.7704 10.8046C7.7704 10.8046 7.7704 10.8046 7.7704 10.8046C7.7704 10.8046 7.7704 10.8046 7.7704 10.8046C7.7704 10.8046 7.7704 10.8046 7.7704 10.8046C7.7704 10.8046 7.7704 10.8046 7.7704 10.8046C7.7704 10.8046 7.7704 10.8046 7.7704 10.8046C7.77039 10.8046 7.77039 10.8046 7.77039 10.8046C7.77039 10.8046 7.77039 10.8046 7.77039 10.8046C7.77039 10.8046 7.77039 10.8046 7.77039 10.8046C7.77039 10.8046 7.77039 10.8046 7.77039 10.8046C7.77039 10.8046 7.77039 10.8046 7.77039 10.8046C7.77039 10.8046 7.77039 10.8046 7.77039 10.8046C7.77039 10.8046 7.77039 10.8046 7.77039 10.8046C7.77039 10.8046 7.77039 10.8046 7.77039 10.8046C7.77039 10.8046 7.77039 10.8046 7.77039 10.8046C7.77039 10.8046 7.77039 10.8046 7.77039 10.8046C7.77039 10.8046 7.77039 10.8046 7.77039 10.8046C7.77039 10.8046 7.77039 10.8046 7.77039 10.8046C7.77039 10.8046 7.77039 10.8046 7.77039 10.8046C7.77039 10.8046 7.77039 10.8046 7.77039 10.8046C7.77039 10.8046 7.77039 10.8046 7.77039 10.8046C7.77039 10.8046 7.77039 10.8046 7.77039 10.8046C7.77039 10.8046 7.77039 10.8046 7.77039 10.8046L7.77039 10.8046C7.77039 10.8046 7.77039 10.8046 7.77039 10.8046L7.77039 10.8046C7.77039 10.8046 7.77038 10.8046 7.77038 10.8046L7.77038 10.8046C7.77038 10.8046 7.77038 10.8046 7.77038 10.8046C7.77038 10.8046 7.77038 10.8046 7.77038 10.8046L7.77038 10.8046C7.77038 10.8046 7.77038 10.8046 7.77038 10.8046L7.77038 10.8046C7.77038 10.8046 7.77038 10.8046 7.77038 10.8046C7.77038 10.8046 7.77038 10.8046 7.77038 10.8046C7.77038 10.8046 7.77038 10.8046 7.77038 10.8046C7.77038 10.8046 7.77038 10.8046 7.77038 10.8046C7.77038 10.8046 7.77038 10.8046 7.77038 10.8046C7.77038 10.8046 7.77038 10.8046 7.77038 10.8046C7.77038 10.8046 7.77038 10.8046 7.77038 10.8046C7.77038 10.8046 7.77038 10.8046 7.77038 10.8046C7.77038 10.8046 7.77038 10.8046 7.77038 10.8046C7.77038 10.8046 7.77038 10.8046 7.77038 10.8046C7.77038 10.8046 7.77038 10.8046 7.77038 10.8046C7.77038 10.8046 7.77038 10.8046 7.77038 10.8046C7.77038 10.8046 7.77038 10.8046 7.77038 10.8046C7.77038 10.8046 7.77038 10.8046 7.77037 10.8046C7.77037 10.8046 7.77037 10.8046 7.77037 10.8046C7.77037 10.8046 7.77037 10.8046 7.77037 10.8046C7.77037 10.8046 7.77037 10.8046 7.77037 10.8046C7.77037 10.8046 7.77037 10.8046 7.77037 10.8046C7.77037 10.8046 7.77037 10.8046 7.77037 10.8046C7.77037 10.8046 7.77037 10.8046 7.77037 10.8046C7.77037 10.8046 7.77037 10.8046 7.77037 10.8046C7.77037 10.8046 7.77037 10.8046 7.77037 10.8046L7.77037 10.8046C7.77037 10.8046 7.77037 10.8046 7.77037 10.8046C7.77037 10.8046 7.77037 10.8046 7.77037 10.8046L7.77037 10.8046C7.77037 10.8046 7.77037 10.8046 7.77037 10.8046L7.77037 10.8046C7.77037 10.8046 7.77037 10.8046 7.77037 10.8046L7.77037 10.8046C7.77037 10.8046 7.77037 10.8046 7.77037 10.8046C7.77037 10.8046 7.77037 10.8046 7.77037 10.8046L7.77037 10.8046C7.77037 10.8046 7.77037 10.8046 7.77037 10.8046C7.77036 10.8046 7.77036 10.8046 7.77036 10.8046C7.77036 10.8046 7.77036 10.8046 7.77036 10.8046C7.77036 10.8046 7.77036 10.8046 7.77036 10.8046C7.77036 10.8046 7.77036 10.8046 7.77036 10.8046C7.77036 10.8046 7.77036 10.8046 7.77036 10.8046C7.77036 10.8046 7.77036 10.8046 7.77036 10.8046C7.77036 10.8046 7.77036 10.8046 7.77036 10.8046C7.77036 10.8046 7.77036 10.8046 7.77036 10.8046C7.77036 10.8046 7.77036 10.8046 7.77036 10.8046C7.77036 10.8046 7.77036 10.8046 7.77036 10.8046C7.77036 10.8046 7.77036 10.8046 7.77036 10.8046C7.77036 10.8046 7.77036 10.8046 7.77036 10.8046C7.77036 10.8046 7.77036 10.8046 7.77036 10.8046C7.77036 10.8046 7.77036 10.8046 7.77036 10.8046C7.77036 10.8046 7.77036 10.8046 7.77036 10.8046C7.77036 10.8046 7.77036 10.8046 7.77036 10.8046C7.77036 10.8046 7.77036 10.8046 7.77036 10.8046C7.77036 10.8046 7.77036 10.8046 7.77036 10.8046C7.77036 10.8046 7.77036 10.8046 7.77036 10.8046C7.77036 10.8046 7.77036 10.8046 7.77036 10.8046C7.77036 10.8046 7.77035 10.8046 7.77035 10.8046L7.77035 10.8046C7.77035 10.8046 7.77035 10.8046 7.77035 10.8046L7.77035 10.8046C7.77035 10.8046 7.77035 10.8046 7.77035 10.8046L7.77035 10.8046L7.77035 10.8046C7.77035 10.8046 7.77035 10.8046 7.77035 10.8046L7.77035 10.8046C7.77035 10.8046 7.77035 10.8046 7.77035 10.8046L7.77035 10.8046C7.77035 10.8046 7.77035 10.8046 7.77035 10.8046C7.77035 10.8046 7.77035 10.8046 7.77035 10.8046C7.77035 10.8046 7.77035 10.8046 7.77035 10.8046C7.77035 10.8046 7.77035 10.8046 7.77035 10.8046C7.77035 10.8046 7.77035 10.8046 7.77035 10.8046C7.77035 10.8046 7.77035 10.8046 7.77035 10.8046C7.77035 10.8046 7.77035 10.8046 7.77035 10.8046C7.77035 10.8046 7.77035 10.8046 7.77035 10.8046C7.77035 10.8046 7.77035 10.8046 7.77035 10.8046C7.77035 10.8046 7.77035 10.8046 7.77035 10.8046C7.77034 10.8046 7.77034 10.8046 7.77034 10.8046C7.77034 10.8046 7.77034 10.8046 7.77034 10.8046C7.77034 10.8046 7.77034 10.8046 7.77034 10.8046C7.77034 10.8046 7.77034 10.8046 7.77034 10.8046C7.77034 10.8046 7.77034 10.8046 7.77034 10.8046C7.77034 10.8046 7.77034 10.8046 7.77034 10.8046C7.77034 10.8046 7.77034 10.8046 7.77034 10.8046C7.77034 10.8046 7.77034 10.8046 7.77034 10.8046C7.77034 10.8046 7.77034 10.8046 7.77034 10.8046C7.77034 10.8046 7.77034 10.8046 7.77034 10.8046C7.77034 10.8046 7.77034 10.8046 7.77034 10.8046C7.77034 10.8046 7.77034 10.8046 7.77034 10.8046L7.77034 10.8046L7.77034 10.8046C7.77034 10.8046 7.77034 10.8046 7.77034 10.8046L7.77034 10.8046C7.77034 10.8046 7.77034 10.8046 7.77034 10.8046L7.77034 10.8046C7.77034 10.8046 7.77034 10.8046 7.77034 10.8046L7.77034 10.8046C7.77034 10.8046 7.77033 10.8046 7.77033 10.8046C7.77033 10.8046 7.77033 10.8046 7.77033 10.8046C7.77033 10.8046 7.77033 10.8046 7.77033 10.8046C7.77033 10.8046 7.77033 10.8046 7.77033 10.8046C7.77033 10.8046 7.77033 10.8046 7.77033 10.8046C7.77033 10.8046 7.77033 10.8046 7.77033 10.8046C7.77033 10.8046 7.77033 10.8046 7.77033 10.8046C7.77033 10.8046 7.77033 10.8046 7.77033 10.8046C7.77033 10.8046 7.77033 10.8046 7.77033 10.8046C7.77033 10.8046 7.77033 10.8046 7.77033 10.8046C7.77033 10.8046 7.77033 10.8046 7.77033 10.8046C7.77033 10.8046 7.77033 10.8046 7.77033 10.8046C7.77033 10.8046 7.77033 10.8046 7.77033 10.8046C7.77033 10.8046 7.77033 10.8046 7.77033 10.8046C7.77033 10.8046 7.77033 10.8046 7.77033 10.8046C7.77033 10.8046 7.77033 10.8046 7.77033 10.8046C7.77033 10.8046 7.77033 10.8046 7.77033 10.8046C7.77033 10.8046 7.77033 10.8046 7.77033 10.8046C7.77033 10.8046 7.77033 10.8046 7.77033 10.8046C7.77033 10.8046 7.77033 10.8046 7.77033 10.8046C7.77033 10.8046 7.77033 10.8046 7.77032 10.8046C7.77032 10.8046 7.77032 10.8046 7.77032 10.8046C7.77032 10.8046 7.77032 10.8046 7.77032 10.8046L7.77032 10.8046C7.77032 10.8046 7.77032 10.8046 7.77032 10.8046L7.77032 10.8046C7.77032 10.8046 7.77032 10.8046 7.77032 10.8046L7.77032 10.8046C7.77032 10.8046 7.77032 10.8046 7.77032 10.8046C7.77032 10.8046 7.77032 10.8046 7.77032 10.8046L7.77032 10.8046C7.77032 10.8046 7.77032 10.8046 7.77032 10.8046L7.77032 10.8046C7.77032 10.8046 7.77032 10.8046 7.77032 10.8046C7.77032 10.8046 7.77032 10.8046 7.77032 10.8046C7.77032 10.8046 7.77032 10.8046 7.77032 10.8046C7.77032 10.8046 7.77032 10.8046 7.77032 10.8046C7.77032 10.8046 7.77032 10.8046 7.77032 10.8046C7.77032 10.8046 7.77032 10.8046 7.77032 10.8046C7.77032 10.8046 7.77032 10.8046 7.77032 10.8046C7.77032 10.8046 7.77032 10.8046 7.77032 10.8046C7.77031 10.8046 7.77031 10.8046 7.77031 10.8046C7.77031 10.8046 7.77031 10.8046 7.77031 10.8046C7.77031 10.8046 7.77031 10.8046 7.77031 10.8046C7.77031 10.8046 7.77031 10.8046 7.77031 10.8046C7.77031 10.8046 7.77031 10.8046 7.77031 10.8046C7.77031 10.8046 7.77031 10.8046 7.77031 10.8046C7.77031 10.8046 7.77031 10.8046 7.77031 10.8046C7.77031 10.8046 7.77031 10.8046 7.77031 10.8046C7.77031 10.8046 7.77031 10.8046 7.77031 10.8046C7.77031 10.8046 7.77031 10.8046 7.77031 10.8046C7.77031 10.8046 7.77031 10.8046 7.77031 10.8046C7.77031 10.8046 7.77031 10.8046 7.77031 10.8046C7.77031 10.8046 7.77031 10.8046 7.77031 10.8046C7.77031 10.8046 7.77031 10.8046 7.77031 10.8046L7.77031 10.8046C7.77031 10.8046 7.77031 10.8046 7.77031 10.8046C7.77031 10.8046 7.77031 10.8046 7.77031 10.8046L7.77031 10.8046C7.77031 10.8046 7.77031 10.8046 7.77031 10.8046L7.77031 10.8046C7.77031 10.8046 7.7703 10.8046 7.7703 10.8046L7.7703 10.8046C7.7703 10.8046 7.7703 10.8046 7.7703 10.8046C7.7703 10.8046 7.7703 10.8046 7.7703 10.8046L7.7703 10.8046C7.7703 10.8046 7.7703 10.8046 7.7703 10.8046C7.7703 10.8046 7.7703 10.8046 7.7703 10.8046C7.7703 10.8046 7.7703 10.8046 7.7703 10.8046C7.7703 10.8046 7.7703 10.8046 7.7703 10.8046C7.7703 10.8046 7.7703 10.8046 7.7703 10.8046C7.7703 10.8046 7.7703 10.8046 7.7703 10.8045C7.7703 10.8045 7.7703 10.8045 7.7703 10.8045C7.7703 10.8045 7.7703 10.8045 7.7703 10.8045C7.7703 10.8045 7.7703 10.8045 7.7703 10.8045C7.7703 10.8045 7.7703 10.8045 7.7703 10.8045C7.7703 10.8045 7.7703 10.8045 7.7703 10.8045C7.7703 10.8045 7.7703 10.8045 7.7703 10.8045C7.7703 10.8045 7.7703 10.8045 7.7703 10.8045C7.7703 10.8045 7.7703 10.8045 7.7703 10.8045C7.7703 10.8045 7.7703 10.8045 7.7703 10.8045C7.7703 10.8045 7.7703 10.8045 7.77029 10.8045C7.77029 10.8045 7.77029 10.8045 7.77029 10.8045C7.77029 10.8045 7.77029 10.8045 7.77029 10.8045C7.77029 10.8045 7.77029 10.8045 7.77029 10.8045C7.77029 10.8045 7.77029 10.8045 7.77029 10.8045C7.77029 10.8045 7.77029 10.8045 7.77029 10.8045C7.77029 10.8045 7.77029 10.8045 7.77029 10.8045L7.77029 10.8045C7.77029 10.8045 7.77029 10.8045 7.77029 10.8045L7.77029 10.8045C7.77029 10.8045 7.77029 10.8045 7.77029 10.8045L7.77029 10.8045L7.77029 10.8045C7.77029 10.8045 7.77029 10.8045 7.77029 10.8045L7.77029 10.8045C7.77029 10.8045 7.77029 10.8045 7.77029 10.8045L7.77029 10.8045C7.77029 10.8045 7.77029 10.8045 7.77029 10.8045C7.77029 10.8045 7.77029 10.8045 7.77029 10.8045C7.77029 10.8045 7.77029 10.8045 7.77029 10.8045C7.77029 10.8045 7.77029 10.8045 7.77029 10.8045C7.77028 10.8045 7.77028 10.8045 7.77028 10.8045C7.77028 10.8045 7.77028 10.8045 7.77028 10.8045C7.77028 10.8045 7.77028 10.8045 7.77028 10.8045C7.77028 10.8045 7.77028 10.8045 7.77028 10.8045C7.77028 10.8045 7.77028 10.8045 7.77028 10.8045C7.77028 10.8045 7.77028 10.8045 7.77028 10.8045C7.77028 10.8045 7.77028 10.8045 7.77028 10.8045C7.77028 10.8045 7.77028 10.8045 7.77028 10.8045C7.77028 10.8045 7.77028 10.8045 7.77028 10.8045C7.77028 10.8045 7.77028 10.8045 7.77028 10.8045C7.77028 10.8045 7.77028 10.8045 7.77028 10.8045C7.77028 10.8045 7.77028 10.8045 7.77028 10.8045C7.77028 10.8045 7.77028 10.8045 7.77028 10.8045C7.77028 10.8045 7.77028 10.8045 7.77028 10.8045C7.77028 10.8045 7.77028 10.8045 7.77028 10.8045C7.77028 10.8045 7.77028 10.8045 7.77028 10.8045C7.77028 10.8045 7.77028 10.8045 7.77028 10.8045C7.77028 10.8045 7.77028 10.8045 7.77028 10.8045L7.77028 10.8045L7.77028 10.8045C7.77028 10.8045 7.77027 10.8045 7.77027 10.8045L7.77027 10.8045C7.77027 10.8045 7.77027 10.8045 7.77027 10.8045L7.77027 10.8045C7.77027 10.8045 7.77027 10.8045 7.77027 10.8045L7.77027 10.8045C7.77027 10.8045 7.77027 10.8045 7.77027 10.8045C7.77027 10.8045 7.77027 10.8045 7.77027 10.8045C7.77027 10.8045 7.77027 10.8045 7.77027 10.8045C7.77027 10.8045 7.77027 10.8045 7.77027 10.8045C7.77027 10.8045 7.77027 10.8045 7.77027 10.8045C7.77027 10.8045 7.77027 10.8045 7.77027 10.8045C7.77027 10.8045 7.77027 10.8045 7.77027 10.8045C7.77027 10.8045 7.77027 10.8045 7.77027 10.8045C7.77027 10.8045 7.77027 10.8045 7.77027 10.8045C7.77027 10.8045 7.77027 10.8045 7.77027 10.8045C7.77027 10.8045 7.77027 10.8045 7.77027 10.8045C7.77027 10.8045 7.77027 10.8045 7.77027 10.8045C7.77027 10.8045 7.77027 10.8045 7.77027 10.8045C7.77027 10.8045 7.77027 10.8045 7.77027 10.8045C7.77027 10.8045 7.77027 10.8045 7.77026 10.8045C7.77026 10.8045 7.77026 10.8045 7.77026 10.8045C7.77026 10.8045 7.77026 10.8045 7.77026 10.8045C7.77026 10.8045 7.77026 10.8045 7.77026 10.8045C7.77026 10.8045 7.77026 10.8045 7.77026 10.8045C7.77026 10.8045 7.77026 10.8045 7.77026 10.8045C7.77026 10.8045 7.77026 10.8045 7.77026 10.8045C7.77026 10.8045 7.77026 10.8045 7.77026 10.8045C7.77026 10.8045 7.77026 10.8045 7.77026 10.8045L7.77026 10.8045C7.77026 10.8045 7.77026 10.8045 7.77026 10.8045L7.77026 10.8045C7.77026 10.8045 7.77026 10.8045 7.77026 10.8045L7.77026 10.8045C7.77026 10.8045 7.77026 10.8045 7.77026 10.8045C7.77026 10.8045 7.77026 10.8045 7.77026 10.8045L7.77026 10.8045C7.77026 10.8045 7.77026 10.8045 7.77026 10.8045L7.77026 10.8045C7.77026 10.8045 7.77026 10.8045 7.77026 10.8045C7.77026 10.8045 7.77026 10.8045 7.77026 10.8045C7.77025 10.8045 7.77025 10.8045 7.77025 10.8045C7.77025 10.8045 7.77025 10.8045 7.77025 10.8045C7.77025 10.8045 7.77025 10.8045 7.77025 10.8045C7.77025 10.8045 7.77025 10.8045 7.77025 10.8045C7.77025 10.8045 7.77025 10.8045 7.77025 10.8045C7.77025 10.8045 7.77025 10.8045 7.77025 10.8045C7.77025 10.8045 7.77025 10.8045 7.77025 10.8045C7.77025 10.8045 7.77025 10.8045 7.77025 10.8045C7.77025 10.8045 7.77025 10.8045 7.77025 10.8045C7.77025 10.8045 7.77025 10.8045 7.77025 10.8045C7.77025 10.8045 7.77025 10.8045 7.77025 10.8045C7.77025 10.8045 7.77025 10.8045 7.77025 10.8045C7.77025 10.8045 7.77025 10.8045 7.77025 10.8045C7.77025 10.8045 7.77025 10.8045 7.77025 10.8045C7.77025 10.8045 7.77025 10.8045 7.77025 10.8045C7.77025 10.8045 7.77025 10.8045 7.77025 10.8045C7.77025 10.8045 7.77025 10.8045 7.77025 10.8045C7.77025 10.8045 7.77025 10.8045 7.77025 10.8045C7.77025 10.8045 7.77025 10.8045 7.77025 10.8045C7.77025 10.8045 7.77025 10.8045 7.77025 10.8045L7.77024 10.8045C7.77024 10.8045 7.77024 10.8045 7.77024 10.8045C7.77024 10.8045 7.77024 10.8045 7.77024 10.8045L7.77024 10.8045C7.77024 10.8045 7.77024 10.8045 7.77024 10.8045L7.77024 10.8045C7.77024 10.8045 7.77024 10.8045 7.77024 10.8045L7.77024 10.8045C7.77024 10.8045 7.77024 10.8045 7.77024 10.8045C7.77024 10.8045 7.77024 10.8045 7.77024 10.8045L7.77024 10.8045C7.77024 10.8045 7.77024 10.8045 7.77024 10.8045C7.77024 10.8045 7.77024 10.8045 7.77024 10.8045C7.77024 10.8045 7.77024 10.8045 7.77024 10.8045C7.77024 10.8045 7.77024 10.8045 7.77024 10.8045C7.77024 10.8045 7.77024 10.8045 7.77024 10.8045C7.77024 10.8045 7.77024 10.8045 7.77024 10.8045C7.77024 10.8045 7.77024 10.8045 7.77024 10.8045C7.77024 10.8045 7.77024 10.8045 7.77024 10.8045C7.77024 10.8045 7.77024 10.8045 7.77024 10.8045C7.77024 10.8045 7.77024 10.8045 7.77024 10.8045C7.77023 10.8045 7.77023 10.8045 7.77023 10.8045C7.77023 10.8045 7.77023 10.8045 7.77023 10.8045C7.77023 10.8045 7.77023 10.8045 7.77023 10.8045C7.77023 10.8045 7.77023 10.8045 7.77023 10.8045C7.77023 10.8045 7.77023 10.8045 7.77023 10.8045C7.77023 10.8045 7.77023 10.8045 7.77023 10.8045C7.77023 10.8045 7.77023 10.8045 7.77023 10.8045C7.77023 10.8045 7.77023 10.8045 7.77023 10.8045C7.77023 10.8045 7.77023 10.8045 7.77023 10.8045C7.77023 10.8045 7.77023 10.8045 7.77023 10.8045C7.77023 10.8045 7.77023 10.8045 7.77023 10.8045C7.77023 10.8045 7.77023 10.8045 7.77023 10.8045L7.77023 10.8045C7.77023 10.8045 7.77023 10.8045 7.77023 10.8045L7.77023 10.8045C7.77023 10.8045 7.77023 10.8045 7.77023 10.8045L7.77023 10.8045L7.77023 10.8045C7.77023 10.8045 7.77023 10.8045 7.77023 10.8045L7.77023 10.8045C7.77023 10.8045 7.77022 10.8045 7.77022 10.8045L7.77022 10.8045C7.77022 10.8045 7.77022 10.8045 7.77022 10.8045C7.77022 10.8045 7.77022 10.8045 7.77022 10.8045C7.77022 10.8045 7.77022 10.8045 7.77022 10.8045C7.77022 10.8045 7.77022 10.8045 7.77022 10.8045C7.77022 10.8045 7.77022 10.8045 7.77022 10.8045C7.77022 10.8045 7.77022 10.8045 7.77022 10.8045C7.77022 10.8045 7.77022 10.8045 7.77022 10.8045C7.77022 10.8045 7.77022 10.8045 7.77022 10.8045C7.77022 10.8045 7.77022 10.8045 7.77022 10.8045C7.77022 10.8045 7.77022 10.8045 7.77022 10.8045C7.77022 10.8045 7.77022 10.8045 7.77022 10.8045C7.77022 10.8045 7.77022 10.8045 7.77022 10.8045C7.77022 10.8045 7.77022 10.8045 7.77022 10.8045C7.77022 10.8045 7.77022 10.8045 7.77022 10.8045C7.77022 10.8045 7.77022 10.8045 7.77022 10.8045C7.77022 10.8045 7.77022 10.8045 7.77022 10.8045C7.77022 10.8045 7.77022 10.8045 7.77022 10.8045C7.77022 10.8045 7.77022 10.8045 7.77022 10.8045C7.77022 10.8045 7.77022 10.8045 7.77021 10.8045C7.77021 10.8045 7.77021 10.8045 7.77021 10.8045C7.77021 10.8045 7.77021 10.8045 7.77021 10.8045C7.77021 10.8045 7.77021 10.8045 7.77021 10.8045L7.77021 10.8045L7.77021 10.8045C7.77021 10.8045 7.77021 10.8045 7.77021 10.8045L7.77021 10.8045C7.77021 10.8045 7.77021 10.8045 7.77021 10.8045L7.77021 10.8045C7.77021 10.8045 7.77021 10.8045 7.77021 10.8045L7.77021 10.8045C7.77021 10.8045 7.77021 10.8045 7.77021 10.8045C7.77021 10.8045 7.77021 10.8045 7.77021 10.8045C7.77021 10.8045 7.77021 10.8045 7.77021 10.8045C7.77021 10.8045 7.77021 10.8045 7.77021 10.8045C7.77021 10.8045 7.77021 10.8045 7.77021 10.8045C7.77021 10.8045 7.77021 10.8045 7.77021 10.8045C7.77021 10.8045 7.77021 10.8045 7.77021 10.8045C7.77021 10.8045 7.77021 10.8045 7.77021 10.8045C7.77021 10.8045 7.77021 10.8045 7.77021 10.8045C7.7702 10.8045 7.7702 10.8045 7.7702 10.8045C7.7702 10.8045 7.7702 10.8045 7.7702 10.8045C7.7702 10.8045 7.7702 10.8045 7.7702 10.8045C7.7702 10.8045 7.7702 10.8045 7.7702 10.8045C7.7702 10.8045 7.7702 10.8045 7.7702 10.8045C7.7702 10.8045 7.7702 10.8045 7.7702 10.8045C7.7702 10.8045 7.7702 10.8045 7.7702 10.8045C7.7702 10.8045 7.7702 10.8045 7.7702 10.8045C7.7702 10.8045 7.7702 10.8045 7.7702 10.8045C7.7702 10.8045 7.7702 10.8045 7.7702 10.8045C7.7702 10.8045 7.7702 10.8045 7.7702 10.8045C7.7702 10.8045 7.7702 10.8045 7.7702 10.8045C7.7702 10.8045 7.7702 10.8045 7.7702 10.8045C7.7702 10.8045 7.7702 10.8045 7.7702 10.8045L7.7702 10.8045C7.7702 10.8045 7.7702 10.8045 7.7702 10.8045L7.7702 10.8045C7.7702 10.8045 7.7702 10.8045 7.7702 10.8045L7.7702 10.8045C7.7702 10.8045 7.7702 10.8045 7.7702 10.8045C7.7702 10.8045 7.77019 10.8045 7.77019 10.8045L7.77019 10.8045C7.77019 10.8045 7.77019 10.8045 7.77019 10.8045L7.77019 10.8045C7.77019 10.8045 7.77019 10.8045 7.77019 10.8045C7.77019 10.8045 7.77019 10.8045 7.77019 10.8045C7.77019 10.8045 7.77019 10.8045 7.77019 10.8045C7.77019 10.8045 7.77019 10.8045 7.77019 10.8045C7.77019 10.8045 7.77019 10.8045 7.77019 10.8045C7.77019 10.8045 7.77019 10.8045 7.77019 10.8045C7.77019 10.8045 7.77019 10.8045 7.77019 10.8045C7.77019 10.8045 7.77019 10.8045 7.77019 10.8045L7.54231 11.1332ZM7.47118 11.0442C7.52489 11.1766 7.53471 11.3203 7.49381 11.4827L7.88169 11.5804C7.94142 11.3433 7.93036 11.112 7.84182 10.8938L7.47118 11.0442ZM7.49403 11.4818C7.29636 12.2517 7.10846 13.0241 6.93033 13.7992L7.32017 13.8888C7.49754 13.117 7.68464 12.3479 7.88147 11.5813L7.49403 11.4818ZM6.92986 13.8013C6.78053 14.4849 6.45649 15.064 5.95571 15.5433L6.2323 15.8322C6.79102 15.2975 7.15448 14.6474 7.32064 13.8867L6.92986 13.8013ZM6.00229 15.51C5.51321 15.7624 4.99535 15.8395 4.44157 15.7409L4.37143 16.1347C5.00998 16.2484 5.61712 16.1589 6.18571 15.8655L6.00229 15.51ZM4.42825 15.739C3.45192 15.6322 2.6553 15.209 2.02816 14.4651L1.72234 14.7229C2.41631 15.5461 3.30719 16.0187 4.38476 16.1366L4.42825 15.739ZM2.0373 14.4768C1.32202 13.488 0.970628 12.384 0.981494 11.1583L0.58151 11.1547C0.569889 12.4655 0.947661 13.653 1.71321 14.7112L2.0373 14.4768ZM0.886934 11.3265C1.56914 10.9033 2.2874 10.5441 3.04186 10.249L2.89615 9.87651C2.11923 10.1804 1.37915 10.5504 0.67607 10.9866L0.886934 11.3265ZM3.04254 10.2488C3.98971 9.87427 4.94327 9.83467 5.91077 10.1291L6.02723 9.74643C4.97261 9.42549 3.92617 9.46927 2.89547 9.87678L3.04254 10.2488ZM5.87465 10.1141C6.09148 10.2301 6.30515 10.3504 6.51565 10.4749L6.71929 10.1306C6.50384 10.0032 6.28519 9.88012 6.06335 9.76142L5.87465 10.1141Z" fill="#071600" mask="url(#path-4-outside-2_185_155)"/>
</g>
<g opacity="0.966">
<mask id="path-6-outside-3_185_155" maskUnits="userSpaceOnUse" x="22.6953" y="7.57812" width="10" height="10" fill="black">
<rect fill="white" x="22.6953" y="7.57812" width="10" height="10"/>
<path fill-rule="evenodd" clip-rule="evenodd" d="M31.9692 13.1564V11.9689C31.7343 11.3744 31.4323 10.8119 31.063 10.2814C30.1747 8.9573 28.935 8.40518 27.3442 8.62512C25.6152 8.8478 24.4589 9.77487 23.8755 11.4064C23.4918 12.7922 23.721 14.0631 24.563 15.2189C25.3551 16.3806 26.4488 16.891 27.8442 16.7501C28.7053 16.4932 29.497 16.0974 30.2192 15.5626C31.0621 14.9401 31.6455 14.138 31.9692 13.1564ZM30.7192 11.2813C30.7193 11.2814 30.7193 11.2815 30.7194 11.2816C30.7194 11.3233 30.7402 11.3441 30.7819 11.3441C30.7712 11.4061 30.7921 11.4477 30.8444 11.4691C31.3574 12.3131 31.3261 13.1464 30.7507 13.9691C29.9963 14.8311 29.0901 15.4873 28.0319 15.9378C27.222 16.1754 26.4928 16.0296 25.8444 15.5003C24.7585 14.5677 24.3105 13.3906 24.5007 11.9691C24.5403 11.714 24.634 11.4848 24.7819 11.2816C25.3594 10.7219 26.0469 10.3573 26.8444 10.1878C28.27 9.8101 29.4943 10.1069 30.5173 11.0781C29.4942 10.1067 28.2699 9.80986 26.8442 10.1876C26.0467 10.3571 25.3592 10.7217 24.7817 11.2814C25.1843 10.4106 25.851 9.83762 26.7817 9.56262C28.5953 9.01143 29.9078 9.58436 30.7192 11.2813Z"/>
</mask>
<path fill-rule="evenodd" clip-rule="evenodd" d="M31.9692 13.1564V11.9689C31.7343 11.3744 31.4323 10.8119 31.063 10.2814C30.1747 8.9573 28.935 8.40518 27.3442 8.62512C25.6152 8.8478 24.4589 9.77487 23.8755 11.4064C23.4918 12.7922 23.721 14.0631 24.563 15.2189C25.3551 16.3806 26.4488 16.891 27.8442 16.7501C28.7053 16.4932 29.497 16.0974 30.2192 15.5626C31.0621 14.9401 31.6455 14.138 31.9692 13.1564ZM30.7192 11.2813C30.7193 11.2814 30.7193 11.2815 30.7194 11.2816C30.7194 11.3233 30.7402 11.3441 30.7819 11.3441C30.7712 11.4061 30.7921 11.4477 30.8444 11.4691C31.3574 12.3131 31.3261 13.1464 30.7507 13.9691C29.9963 14.8311 29.0901 15.4873 28.0319 15.9378C27.222 16.1754 26.4928 16.0296 25.8444 15.5003C24.7585 14.5677 24.3105 13.3906 24.5007 11.9691C24.5403 11.714 24.634 11.4848 24.7819 11.2816C25.3594 10.7219 26.0469 10.3573 26.8444 10.1878C28.27 9.8101 29.4943 10.1069 30.5173 11.0781C29.4942 10.1067 28.2699 9.80986 26.8442 10.1876C26.0467 10.3571 25.3592 10.7217 24.7817 11.2814C25.1843 10.4106 25.851 9.83762 26.7817 9.56262C28.5953 9.01143 29.9078 9.58436 30.7192 11.2813Z" fill="#101F09"/>
<path d="M31.9692 11.9689H32.1692V11.9308L32.1552 11.8954L31.9692 11.9689ZM31.9692 13.1564L32.1591 13.219L32.1692 13.1885V13.1564H31.9692ZM31.063 10.2814L30.8969 10.3928L30.8988 10.3956L31.063 10.2814ZM27.3442 8.62512L27.3698 8.82349L27.3716 8.82323L27.3442 8.62512ZM23.8755 11.4064L23.6871 11.339L23.6847 11.3459L23.6827 11.353L23.8755 11.4064ZM24.563 15.2189L24.7283 15.1061L24.7246 15.1011L24.563 15.2189ZM27.8442 16.7501L27.8643 16.9491L27.8832 16.9472L27.9014 16.9418L27.8442 16.7501ZM30.2192 15.5626L30.1004 15.4017L30.1002 15.4019L30.2192 15.5626ZM30.7192 11.2813L30.5388 11.3676L30.5522 11.3957L30.5735 11.4183L30.7192 11.2813ZM30.7194 11.2816H30.9194V11.2023L30.8651 11.1446L30.7194 11.2816ZM30.7819 11.3441L30.979 11.3782L31.0196 11.1441H30.7819V11.3441ZM30.8444 11.4691L31.0153 11.3652L30.9811 11.3088L30.92 11.2839L30.8444 11.4691ZM30.7507 13.9691L30.9012 14.1008L30.9083 14.0926L30.9146 14.0837L30.7507 13.9691ZM28.0319 15.9378L28.0882 16.1297L28.0995 16.1264L28.1103 16.1218L28.0319 15.9378ZM25.8444 15.5003L25.7141 15.6521L25.7179 15.6553L25.8444 15.5003ZM24.5007 11.9691L24.303 11.9384L24.3024 11.9426L24.5007 11.9691ZM24.7819 11.2816L24.6427 11.138L24.6303 11.15L24.6202 11.1639L24.7819 11.2816ZM26.8444 10.1878L26.8861 10.3837L26.8956 10.3812L26.8444 10.1878ZM30.5588 11.118L30.4194 11.2614L30.6983 10.9747L30.5588 11.118ZM26.8442 10.1876L26.8858 10.3835L26.8954 10.3809L26.8442 10.1876ZM24.7817 11.2814L24.6002 11.1974L24.9209 11.425L24.7817 11.2814ZM26.7817 9.56262L26.8384 9.75442L26.8399 9.75397L26.7817 9.56262ZM31.7692 11.9689V13.1564H32.1692V11.9689H31.7692ZM30.8988 10.3956C31.2594 10.9136 31.5541 11.4625 31.7832 12.0424L32.1552 11.8954C31.9146 11.2864 31.6052 10.7102 31.2271 10.1671L30.8988 10.3956ZM27.3716 8.82323C28.1369 8.71743 28.8058 8.79867 29.3857 9.05694C29.9654 9.31516 30.47 9.75646 30.8969 10.3928L31.229 10.1699C30.7676 9.48221 30.2082 8.98541 29.5484 8.69154C28.8887 8.39771 28.1423 8.31287 27.3168 8.427L27.3716 8.82323ZM24.0638 11.4737C24.3452 10.6868 24.7607 10.0802 25.3053 9.64347C25.8501 9.2067 26.5352 8.93097 27.3698 8.82348L27.3187 8.42675C26.4242 8.54195 25.6666 8.84109 25.0551 9.3314C24.4435 9.82176 23.9892 10.4944 23.6871 11.339L24.0638 11.4737ZM24.7246 15.1011C23.9188 13.9949 23.7007 12.7871 24.0682 11.4597L23.6827 11.353C23.2829 12.7972 23.5232 14.1312 24.4013 15.3366L24.7246 15.1011ZM27.8241 16.5511C27.1564 16.6185 26.5712 16.5294 26.0619 16.2917C25.5527 16.0541 25.1074 15.6623 24.7282 15.1062L24.3977 15.3315C24.8106 15.9371 25.3083 16.3815 25.8928 16.6542C26.4773 16.927 27.1367 17.0226 27.8643 16.9491L27.8241 16.5511ZM30.1002 15.4019C29.3966 15.9228 28.6259 16.3082 27.787 16.5585L27.9014 16.9418C28.7848 16.6782 29.5973 16.2719 30.3382 15.7234L30.1002 15.4019ZM31.7793 13.0937C31.4687 14.0355 30.9105 14.8034 30.1004 15.4017L30.338 15.7235C31.2137 15.0767 31.8222 14.2405 32.1591 13.219L31.7793 13.0937ZM30.5735 11.4183L30.5737 11.4186L30.8651 11.1446L30.8649 11.1443L30.5735 11.4183ZM30.5194 11.2816C30.5194 11.3332 30.5324 11.4087 30.5936 11.4699C30.6548 11.5311 30.7303 11.5441 30.7819 11.5441V11.1441C30.7918 11.1441 30.8361 11.1467 30.8765 11.187C30.9168 11.2274 30.9194 11.2717 30.9194 11.2816H30.5194ZM30.5849 11.3099C30.5747 11.3685 30.5754 11.4409 30.6106 11.5113C30.6472 11.5844 30.7079 11.6294 30.7689 11.6542L30.92 11.2839C30.9286 11.2874 30.9527 11.3009 30.9684 11.3323C30.9828 11.3611 30.9784 11.3817 30.979 11.3782L30.5849 11.3099ZM30.6735 11.5729C30.9135 11.9677 31.0197 12.3488 31.0058 12.7196C30.9919 13.0906 30.857 13.4681 30.5868 13.8544L30.9146 14.0837C31.2198 13.6473 31.3882 13.1969 31.4056 12.7346C31.4229 12.272 31.2883 11.8144 31.0153 11.3652L30.6735 11.5729ZM30.6002 13.8374C29.8657 14.6766 28.9841 15.315 27.9536 15.7538L28.1103 16.1218C29.196 15.6596 30.1269 14.9855 30.9012 14.1008L30.6002 13.8374ZM27.9756 15.7459C27.2283 15.9652 26.5677 15.8326 25.9709 15.3454L25.7179 15.6553C26.4179 16.2267 27.2156 16.3857 28.0882 16.1297L27.9756 15.7459ZM25.9747 15.3486C24.9402 14.4602 24.5177 13.3502 24.6989 11.9956L24.3024 11.9426C24.1034 13.4311 24.5767 14.6752 25.7141 15.6521L25.9747 15.3486ZM24.6983 11.9998C24.7332 11.7753 24.815 11.5761 24.9436 11.3992L24.6202 11.1639C24.4531 11.3936 24.3474 11.6528 24.303 11.9384L24.6983 11.9998ZM24.9211 11.4252C25.4712 10.8921 26.1247 10.5453 26.886 10.3835L26.8028 9.9922C25.969 10.1694 25.2476 10.5517 24.6427 11.138L24.9211 11.4252ZM26.8956 10.3812C28.2759 10.0154 29.4408 10.3097 30.4194 11.2614L30.6983 10.9747C29.6142 9.92042 28.3028 9.59451 26.7932 9.9945L26.8956 10.3812ZM30.6983 10.9747C29.6142 9.92026 28.3027 9.59427 26.793 9.99429L26.8954 10.3809C28.2758 10.0152 29.4407 10.3096 30.4194 11.2614L30.6983 10.9747ZM26.8026 9.99199C25.9688 10.1692 25.2474 10.5515 24.6425 11.1378L24.9209 11.425C25.471 10.8919 26.1245 10.545 26.8858 10.3832L26.8026 9.99199ZM24.9633 11.3653C25.3414 10.5474 25.9622 10.0133 26.8384 9.75442L26.725 9.37081C25.7399 9.66191 25.0273 10.2737 24.6002 11.1974L24.9633 11.3653ZM26.8399 9.75397C27.716 9.48769 28.446 9.50023 29.0462 9.76221C29.6462 10.0241 30.1472 10.5487 30.5388 11.3676L30.8996 11.195C30.4798 10.317 29.9188 9.70665 29.2063 9.39562C28.494 9.08469 27.661 9.08636 26.7236 9.37126L26.8399 9.75397Z" fill="#071600" mask="url(#path-6-outside-3_185_155)"/>
</g>
<path d="M29.2121 11.619L29.1669 11.6217L29.139 11.6574C29.0517 11.7696 28.9785 11.8927 28.9194 12.0264C28.7054 12.1672 28.5185 12.3353 28.3592 12.5306L28.3475 12.545L28.3417 12.5627C28.3077 12.6662 28.3029 12.7684 28.3393 12.8629C28.3755 12.9572 28.4476 13.0305 28.5422 13.0862L28.564 13.0991L28.5893 13.1C28.8567 13.1098 29.0936 13.0566 29.2954 12.9355C29.497 12.8145 29.6566 12.6299 29.7763 12.3882L29.7767 12.3884L29.7801 12.3796C29.8675 12.1511 29.8884 11.9422 29.7772 11.7939C29.6667 11.6465 29.4593 11.6045 29.2121 11.619Z" fill="#1B2A14" stroke="#071600" stroke-width="0.2"/>
<path d="M2.335 12.6816L2.30141 12.6843L2.27629 12.7068C2.14627 12.8231 2.0655 12.9564 2.05867 13.1067C2.05197 13.254 2.11744 13.3956 2.23146 13.5289C2.67639 14.2162 3.21116 14.6839 3.838 14.9217C4.46666 15.1601 5.17706 15.1632 5.964 14.94L6.00055 14.9297L6.021 14.8977C6.10242 14.7702 6.1421 14.639 6.1215 14.5085C6.10085 14.3777 6.02259 14.2661 5.9056 14.1721L5.87818 14.1501L5.84299 14.1501C5.52803 14.15 5.21414 14.1809 4.90142 14.2427C4.36282 14.1782 3.8885 13.9698 3.47613 13.6164C3.23589 13.3403 3.01039 13.0531 2.79964 12.7549L2.77825 12.7246L2.74231 12.7156C2.60848 12.682 2.47257 12.6707 2.335 12.6816Z" fill="#1B2A14" stroke="#071600" stroke-width="0.2"/>
<path d="M15.1422 14.0571L15.0953 14.0638L15.0708 14.1042C14.9482 14.3061 14.8609 14.5246 14.8086 14.7594L14.8043 14.7788L14.8078 14.7984C14.8597 15.0947 14.957 15.3757 15.0994 15.6409L15.1032 15.6481L15.1082 15.6545C15.2444 15.8321 15.4043 15.9551 15.5891 16.0147C15.774 16.0743 15.9743 16.0674 16.1859 16.0016L16.2222 15.9904L16.2418 15.9579C16.3673 15.7504 16.4252 15.5502 16.3432 15.3862C16.2662 15.2323 16.0887 15.156 15.8657 15.1246C15.8204 15.0633 15.7944 15.0033 15.784 14.9446C15.772 14.8768 15.7798 14.8041 15.8116 14.7245L15.8325 14.6723L15.7988 14.6274L15.6112 14.3774L15.4238 14.1274L15.4098 14.1088L15.3891 14.0983C15.3115 14.0587 15.2283 14.0449 15.1422 14.0571Z" fill="#16250F" stroke="#071600" stroke-width="0.2"/>
<g opacity="0.966">
<mask id="path-11-outside-4_185_155" maskUnits="userSpaceOnUse" x="17.4102" y="16.9688" width="10" height="10" fill="black">
<rect fill="white" x="17.4102" y="16.9688" width="10" height="10"/>
<path fill-rule="evenodd" clip-rule="evenodd" d="M26.2495 23.2812C26.5933 20.1977 25.2288 18.4268 22.1557 17.9688C21.4898 18.0255 20.9168 18.2963 20.437 18.7812C19.8485 19.7709 19.2443 20.7501 18.6245 21.7188C18.2713 22.7362 18.3547 23.7154 18.8745 24.6562C19.6934 25.9563 20.8705 26.5501 22.4057 26.4375C23.0757 26.2628 23.7424 26.0753 24.4057 25.875C25.0265 25.7618 25.6515 25.6784 26.2807 25.625C26.684 25.5236 26.8923 25.2631 26.9057 24.8438C26.757 24.2961 26.5383 23.7752 26.2495 23.2812ZM25.2178 20.7804C25.2181 20.7806 25.2184 20.7809 25.2188 20.7812C25.2188 20.8229 25.2396 20.8437 25.2813 20.8437C25.2705 20.9057 25.2914 20.9474 25.3438 20.9687L25.5 21.2812C25.5046 21.9897 25.5046 22.6981 25.5 23.4062C25.736 23.8991 25.9548 24.3991 26.1563 24.9062C24.9456 24.9338 23.7789 25.1734 22.6563 25.625C20.8848 25.8544 19.7286 25.1149 19.1875 23.4062C19.1204 22.9364 19.1621 22.4781 19.3125 22.0312C19.7507 21.4047 20.1569 20.7589 20.5312 20.0937C20.5729 20.0937 20.5938 20.0729 20.5938 20.0312C20.9016 19.8253 21.2349 19.6691 21.5938 19.5625C21.731 19.5504 21.8664 19.5434 22.0001 19.5416C21.8663 19.5434 21.7306 19.5504 21.5932 19.5625C21.2343 19.6691 20.901 19.8253 20.5932 20.0312C21.2414 18.7381 22.2206 18.4359 23.5307 19.125C24.2917 19.48 24.8541 20.0317 25.2178 20.7804Z"/>
</mask>
<path fill-rule="evenodd" clip-rule="evenodd" d="M26.2495 23.2812C26.5933 20.1977 25.2288 18.4268 22.1557 17.9688C21.4898 18.0255 20.9168 18.2963 20.437 18.7812C19.8485 19.7709 19.2443 20.7501 18.6245 21.7188C18.2713 22.7362 18.3547 23.7154 18.8745 24.6562C19.6934 25.9563 20.8705 26.5501 22.4057 26.4375C23.0757 26.2628 23.7424 26.0753 24.4057 25.875C25.0265 25.7618 25.6515 25.6784 26.2807 25.625C26.684 25.5236 26.8923 25.2631 26.9057 24.8438C26.757 24.2961 26.5383 23.7752 26.2495 23.2812ZM25.2178 20.7804C25.2181 20.7806 25.2184 20.7809 25.2188 20.7812C25.2188 20.8229 25.2396 20.8437 25.2813 20.8437C25.2705 20.9057 25.2914 20.9474 25.3438 20.9687L25.5 21.2812C25.5046 21.9897 25.5046 22.6981 25.5 23.4062C25.736 23.8991 25.9548 24.3991 26.1563 24.9062C24.9456 24.9338 23.7789 25.1734 22.6563 25.625C20.8848 25.8544 19.7286 25.1149 19.1875 23.4062C19.1204 22.9364 19.1621 22.4781 19.3125 22.0312C19.7507 21.4047 20.1569 20.7589 20.5312 20.0937C20.5729 20.0937 20.5938 20.0729 20.5938 20.0312C20.9016 19.8253 21.2349 19.6691 21.5938 19.5625C21.731 19.5504 21.8664 19.5434 22.0001 19.5416C21.8663 19.5434 21.7306 19.5504 21.5932 19.5625C21.2343 19.6691 20.901 19.8253 20.5932 20.0312C21.2414 18.7381 22.2206 18.4359 23.5307 19.125C24.2917 19.48 24.8541 20.0317 25.2178 20.7804Z" fill="#101F09"/>
<path d="M22.1557 17.9688L22.1852 17.7709L22.1621 17.7675L22.1387 17.7695L22.1557 17.9688ZM26.2495 23.2812L26.0507 23.2591L26.0434 23.325L26.0768 23.3822L26.2495 23.2812ZM20.437 18.7812L20.2948 18.6406L20.2776 18.658L20.2651 18.679L20.437 18.7812ZM18.6245 21.7188L18.456 21.611L18.4433 21.6309L18.4355 21.6532L18.6245 21.7188ZM18.8745 24.6562L18.6991 24.7531L18.7052 24.7628L18.8745 24.6562ZM22.4057 26.4375L22.4203 26.637L22.4385 26.6356L22.4562 26.631L22.4057 26.4375ZM24.4057 25.875L24.3698 25.6782L24.3587 25.6803L24.3479 25.6835L24.4057 25.875ZM26.2807 25.625L26.2976 25.8243L26.3138 25.8229L26.3295 25.819L26.2807 25.625ZM26.9057 24.8438L27.1056 24.8502L27.1066 24.8202L27.0987 24.7914L26.9057 24.8438ZM25.2178 20.7804L25.0379 20.8678L25.0546 20.9022L25.083 20.9281L25.2178 20.7804ZM25.2188 20.7812H25.4188V20.693L25.3536 20.6336L25.2188 20.7812ZM25.2813 20.8437L25.4783 20.8779L25.5189 20.6437H25.2813V20.8437ZM25.3438 20.9687L25.5226 20.8793L25.489 20.812L25.4193 20.7836L25.3438 20.9687ZM25.5 21.2812L25.7 21.2799L25.6997 21.2334L25.6789 21.1918L25.5 21.2812ZM25.5 23.4062L25.3 23.4049L25.2997 23.451L25.3196 23.4926L25.5 23.4062ZM26.1563 24.9062L26.1608 25.1062L26.4483 25.0996L26.3421 24.8324L26.1563 24.9062ZM22.6563 25.625L22.6819 25.8233L22.7072 25.8201L22.7309 25.8105L22.6563 25.625ZM19.1875 23.4062L18.9895 23.4345L18.9918 23.4509L18.9968 23.4666L19.1875 23.4062ZM19.3125 22.0312L19.1486 21.9166L19.1321 21.9402L19.1229 21.9675L19.3125 22.0312ZM20.5312 20.0937V19.8937H20.4143L20.357 19.9957L20.5312 20.0937ZM20.5938 20.0312L20.4825 19.865L20.3937 19.9244V20.0312H20.5938ZM21.5938 19.5625L21.5762 19.3633L21.5561 19.365L21.5368 19.3708L21.5938 19.5625ZM22.0001 19.5416L22.0028 19.7416L21.9974 19.3416L22.0001 19.5416ZM21.5932 19.5625L21.5757 19.3633L21.5556 19.365L21.5363 19.3708L21.5932 19.5625ZM20.5932 20.0312L20.4144 19.9416L20.0752 20.6185L20.7044 20.1975L20.5932 20.0312ZM23.5307 19.125L23.4375 19.3022L23.4462 19.3063L23.5307 19.125ZM22.1262 18.1666C23.6318 18.391 24.6854 18.9318 25.3255 19.7625C25.9656 20.5932 26.2191 21.7486 26.0507 23.2591L26.4482 23.3034C26.6237 21.7304 26.3668 20.4585 25.6424 19.5184C24.9179 18.5782 23.7527 18.0046 22.1852 17.7709L22.1262 18.1666ZM20.5791 18.9219C21.0263 18.47 21.5552 18.2207 22.1727 18.168L22.1387 17.7695C21.4244 17.8303 20.8074 18.1226 20.2948 18.6406L20.5791 18.9219ZM18.7929 21.8265C19.4139 20.856 20.0193 19.875 20.6089 18.8835L20.2651 18.679C19.6777 19.6668 19.0746 20.6441 18.456 21.611L18.7929 21.8265ZM19.0495 24.5595C18.5572 23.6684 18.4788 22.7483 18.8134 21.7843L18.4355 21.6532C18.0638 22.7241 18.1521 23.7623 18.6994 24.753L19.0495 24.5595ZM22.3911 26.238C21.6535 26.2921 21.0126 26.176 20.4615 25.898C19.9105 25.6201 19.437 25.1741 19.0437 24.5497L18.7052 24.7628C19.1308 25.4385 19.6554 25.9394 20.2814 26.2552C20.9074 26.5709 21.6227 26.6954 22.4203 26.637L22.3911 26.238ZM24.3479 25.6835C23.687 25.8831 23.0228 26.0699 22.3553 26.244L22.4562 26.631C23.1286 26.4557 23.7978 26.2675 24.4635 26.0665L24.3479 25.6835ZM26.2638 25.4257C25.6282 25.4796 24.9968 25.5639 24.3698 25.6782L24.4416 26.0718C25.0561 25.9596 25.6747 25.8771 26.2976 25.8243L26.2638 25.4257ZM26.7058 24.8373C26.7001 25.0151 26.6541 25.1401 26.5832 25.2287C26.5125 25.3171 26.4018 25.3883 26.2319 25.431L26.3295 25.819C26.5629 25.7603 26.758 25.6505 26.8956 25.4785C27.033 25.3067 27.0979 25.0917 27.1056 24.8502L26.7058 24.8373ZM26.0768 23.3822C26.3568 23.8611 26.5687 24.3656 26.7127 24.8961L27.0987 24.7914C26.9454 24.2265 26.7198 23.6894 26.4221 23.1803L26.0768 23.3822ZM25.083 20.9281C25.0833 20.9284 25.0836 20.9286 25.0839 20.9289L25.3536 20.6336C25.3533 20.6333 25.3529 20.6329 25.3526 20.6326L25.083 20.9281ZM25.0188 20.7812C25.0188 20.8328 25.0318 20.9084 25.0929 20.9695C25.1541 21.0307 25.2297 21.0437 25.2813 21.0437V20.6437C25.2912 20.6437 25.3354 20.6463 25.3758 20.6867C25.4162 20.7271 25.4188 20.7713 25.4188 20.7812H25.0188ZM25.0842 20.8096C25.074 20.8682 25.0747 20.9406 25.11 21.011C25.1465 21.084 25.2072 21.129 25.2682 21.1539L25.4193 20.7836C25.4279 20.7871 25.452 20.8006 25.4677 20.832C25.4821 20.8607 25.4777 20.8813 25.4783 20.8779L25.0842 20.8096ZM25.1649 21.0582L25.3211 21.3707L25.6789 21.1918L25.5226 20.8793L25.1649 21.0582ZM25.3 21.2825C25.3046 21.9902 25.3046 22.6976 25.3 23.4049L25.7 23.4075C25.7046 22.6985 25.7046 21.9893 25.7 21.2799L25.3 21.2825ZM25.3196 23.4926C25.5537 23.9813 25.7706 24.4771 25.9704 24.9801L26.3421 24.8324C26.1389 24.321 25.9184 23.8168 25.6804 23.3199L25.3196 23.4926ZM26.1517 24.7063C24.917 24.7344 23.7266 24.9788 22.5816 25.4394L22.7309 25.8105C23.8312 25.3679 24.9741 25.1332 26.1608 25.1062L26.1517 24.7063ZM22.6306 25.4266C21.7772 25.5372 21.0961 25.4116 20.5683 25.0739C20.0403 24.7362 19.6389 24.1694 19.3782 23.3459L18.9968 23.4666C19.2771 24.3517 19.7245 25.009 20.3527 25.4109C20.9811 25.8128 21.7639 25.9422 22.6819 25.8233L22.6306 25.4266ZM19.3855 23.378C19.3228 22.9389 19.3617 22.5121 19.5021 22.095L19.1229 21.9675C18.9625 22.4441 18.9181 22.934 18.9895 23.4345L19.3855 23.378ZM19.4764 22.1459C19.9183 21.514 20.328 20.8626 20.7055 20.1918L20.357 19.9957C19.9858 20.6551 19.5831 21.2954 19.1486 21.9166L19.4764 22.1459ZM20.5312 20.2937C20.5828 20.2937 20.6584 20.2807 20.7196 20.2195C20.7807 20.1584 20.7938 20.0828 20.7938 20.0312H20.3937C20.3937 20.0213 20.3964 19.9771 20.4367 19.9367C20.4771 19.8963 20.5213 19.8937 20.5312 19.8937V20.2937ZM20.705 20.1975C20.9959 20.0028 21.3109 19.8551 21.6507 19.7542L21.5368 19.3708C21.1589 19.483 20.8072 19.6478 20.4825 19.865L20.705 20.1975ZM21.6113 19.7617C21.7438 19.75 21.8743 19.7433 22.0028 19.7416L21.9974 19.3416C21.8586 19.3435 21.7182 19.3507 21.5762 19.3633L21.6113 19.7617ZM21.9974 19.3416C21.8584 19.3435 21.7179 19.3507 21.5757 19.3633L21.6108 19.7617C21.7434 19.75 21.8741 19.7433 22.0028 19.7416L21.9974 19.3416ZM21.5363 19.3708C21.1583 19.483 20.8067 19.6478 20.482 19.865L20.7044 20.1975C20.9954 20.0028 21.3103 19.8551 21.6501 19.7542L21.5363 19.3708ZM20.772 20.1209C21.0819 19.5026 21.4536 19.1552 21.8727 19.0259C22.293 18.8962 22.8085 18.9711 23.4376 19.302L23.6238 18.948C22.9428 18.5898 22.3137 18.4712 21.7548 18.6437C21.1947 18.8165 20.7527 19.2667 20.4144 19.9416L20.772 20.1209ZM23.4462 19.3063C24.166 19.642 24.6944 20.1609 25.0379 20.8678L25.3977 20.693C25.0137 19.9026 24.4175 19.318 23.6153 18.9437L23.4462 19.3063Z" fill="#071600" mask="url(#path-11-outside-4_185_155)"/>
</g>
<g opacity="0.967">
<mask id="path-13-outside-5_185_155" maskUnits="userSpaceOnUse" x="5.57812" y="17.6992" width="10" height="9" fill="black">
<rect fill="white" x="5.57812" y="17.6992" width="10" height="9"/>
<path fill-rule="evenodd" clip-rule="evenodd" d="M13.5311 18.9999C12.5899 18.7485 11.6315 18.6548 10.6561 18.7186C9.76049 18.8801 9.00005 19.2968 8.37486 19.9686L6.74986 22.3436C6.40374 23.2663 6.5808 24.0684 7.28111 24.7499C7.84561 24.9902 8.34561 25.3235 8.78111 25.7499C9.99211 26.3102 11.2629 26.5185 12.5936 26.3749C13.5474 26.2946 14.2245 25.8259 14.6249 24.9686L14.9999 22.0936C15.0532 21.507 15.0323 20.9237 14.9374 20.3436C14.6935 19.6623 14.2248 19.2144 13.5311 18.9999ZM12.7186 20.0624C13.2402 20.1354 13.7194 20.3125 14.1561 20.5936C14.0255 20.2233 13.7755 19.9629 13.4061 19.8124C12.792 19.5833 12.1565 19.4686 11.4999 19.4686C10.2999 19.4491 9.37333 19.9275 8.72023 20.9037C8.71922 20.9045 8.71822 20.9053 8.71722 20.9061C8.71722 20.9478 8.69641 20.9686 8.65472 20.9686C8.65472 21.0103 8.63391 21.0311 8.59222 21.0311C8.59222 21.0728 8.57141 21.0936 8.52972 21.0936C8.14491 21.6543 7.75953 22.2168 7.37347 22.7811C7.29547 23.2008 7.35797 23.5966 7.56097 23.9686C7.94116 24.216 8.32653 24.4556 8.71722 24.6873C8.86541 24.8565 9.03203 25.0023 9.21722 25.1248C10.4435 25.6793 11.7144 25.8043 13.0297 25.4998C13.4276 25.3934 13.7088 25.1538 13.8735 24.7811C14.1066 23.437 14.2316 22.0828 14.2485 20.7186C14.2037 20.6846 14.1724 20.6429 14.1547 20.5936C13.718 20.3125 13.2388 20.1354 12.7172 20.0623C12.3828 19.9946 12.0528 19.957 11.7274 19.9493C12.0533 19.9569 12.3837 19.9946 12.7186 20.0624Z"/>
</mask>
<path fill-rule="evenodd" clip-rule="evenodd" d="M13.5311 18.9999C12.5899 18.7485 11.6315 18.6548 10.6561 18.7186C9.76049 18.8801 9.00005 19.2968 8.37486 19.9686L6.74986 22.3436C6.40374 23.2663 6.5808 24.0684 7.28111 24.7499C7.84561 24.9902 8.34561 25.3235 8.78111 25.7499C9.99211 26.3102 11.2629 26.5185 12.5936 26.3749C13.5474 26.2946 14.2245 25.8259 14.6249 24.9686L14.9999 22.0936C15.0532 21.507 15.0323 20.9237 14.9374 20.3436C14.6935 19.6623 14.2248 19.2144 13.5311 18.9999ZM12.7186 20.0624C13.2402 20.1354 13.7194 20.3125 14.1561 20.5936C14.0255 20.2233 13.7755 19.9629 13.4061 19.8124C12.792 19.5833 12.1565 19.4686 11.4999 19.4686C10.2999 19.4491 9.37333 19.9275 8.72023 20.9037C8.71922 20.9045 8.71822 20.9053 8.71722 20.9061C8.71722 20.9478 8.69641 20.9686 8.65472 20.9686C8.65472 21.0103 8.63391 21.0311 8.59222 21.0311C8.59222 21.0728 8.57141 21.0936 8.52972 21.0936C8.14491 21.6543 7.75953 22.2168 7.37347 22.7811C7.29547 23.2008 7.35797 23.5966 7.56097 23.9686C7.94116 24.216 8.32653 24.4556 8.71722 24.6873C8.86541 24.8565 9.03203 25.0023 9.21722 25.1248C10.4435 25.6793 11.7144 25.8043 13.0297 25.4998C13.4276 25.3934 13.7088 25.1538 13.8735 24.7811C14.1066 23.437 14.2316 22.0828 14.2485 20.7186C14.2037 20.6846 14.1724 20.6429 14.1547 20.5936C13.718 20.3125 13.2388 20.1354 12.7172 20.0623C12.3828 19.9946 12.0528 19.957 11.7274 19.9493C12.0533 19.9569 12.3837 19.9946 12.7186 20.0624Z" fill="#101F09"/>
<path d="M10.6561 18.7186L10.643 18.5191L10.6318 18.5198L10.6206 18.5218L10.6561 18.7186ZM13.5311 18.9999L13.5902 18.8087L13.5827 18.8067L13.5311 18.9999ZM8.37486 19.9686L8.22845 19.8324L8.21825 19.8433L8.2098 19.8557L8.37486 19.9686ZM6.74986 22.3436L6.5848 22.2307L6.57112 22.2507L6.5626 22.2734L6.74986 22.3436ZM7.28111 24.7499L7.14164 24.8932L7.16841 24.9193L7.20277 24.9339L7.28111 24.7499ZM8.78111 25.7499L8.6412 25.8928L8.66583 25.9169L8.69713 25.9314L8.78111 25.7499ZM12.5936 26.3749L12.5768 26.1755L12.5721 26.176L12.5936 26.3749ZM14.6249 24.9686L14.8061 25.0532L14.8192 25.0252L14.8232 24.9945L14.6249 24.9686ZM14.9999 22.0936L15.1983 22.1195L15.199 22.1117L14.9999 22.0936ZM14.9374 20.3436L15.1347 20.3113L15.1318 20.2934L15.1257 20.2762L14.9374 20.3436ZM14.1561 20.5936L14.0478 20.7618L14.5391 21.078L14.3447 20.5271L14.1561 20.5936ZM12.7186 20.0624L12.6789 20.2588L12.6909 20.2604L12.7186 20.0624ZM13.4061 19.8124L13.4816 19.6271L13.476 19.625L13.4061 19.8124ZM11.4999 19.4686L11.4966 19.6686H11.4999V19.4686ZM8.72023 20.9037L8.84443 21.0605L8.86901 21.041L8.88646 21.0149L8.72023 20.9037ZM8.71722 20.9061L8.593 20.7493L8.51722 20.8094V20.9061H8.71722ZM8.65472 20.9686V20.7686H8.45472V20.9686H8.65472ZM8.59222 21.0311V20.8311H8.39222V21.0311H8.59222ZM8.52972 21.0936V20.8936H8.42441L8.36482 20.9804L8.52972 21.0936ZM7.37347 22.7811L7.2084 22.6682L7.18455 22.703L7.17684 22.7446L7.37347 22.7811ZM7.56097 23.9686L7.38541 24.0644L7.40958 24.1087L7.45187 24.1362L7.56097 23.9686ZM8.71722 24.6873L8.86765 24.5555L8.84665 24.5316L8.81926 24.5153L8.71722 24.6873ZM9.21722 25.1248L9.10684 25.2916L9.12021 25.3005L9.13482 25.3071L9.21722 25.1248ZM13.0297 25.4998L13.0749 25.6948L13.0814 25.6931L13.0297 25.4998ZM13.8735 24.7811L14.0564 24.8619L14.0663 24.8395L14.0705 24.8153L13.8735 24.7811ZM14.2485 20.7186L14.4485 20.7211L14.4497 20.6202L14.3694 20.5593L14.2485 20.7186ZM14.1547 20.5936L14.343 20.5261L14.3201 20.4622L14.263 20.4254L14.1547 20.5936ZM12.7172 20.0623L12.6775 20.2587L12.6895 20.2604L12.7172 20.0623ZM11.7274 19.9493L11.7321 19.7494L11.7227 20.1493L11.7274 19.9493ZM10.6692 18.9182C11.6229 18.8557 12.5595 18.9474 13.4795 19.1931L13.5827 18.8067C12.6204 18.5496 11.6402 18.4538 10.643 18.5191L10.6692 18.9182ZM8.52127 20.1049C9.11727 19.4644 9.83891 19.0692 10.6916 18.9155L10.6206 18.5218C9.68206 18.691 8.88282 19.1292 8.22845 19.8324L8.52127 20.1049ZM6.91492 22.4566L8.53992 20.0816L8.2098 19.8557L6.5848 22.2307L6.91492 22.4566ZM7.42059 24.6065C7.09304 24.2878 6.897 23.9503 6.81837 23.5941C6.73971 23.2378 6.7749 22.8463 6.93712 22.4139L6.5626 22.2734C6.3787 22.7636 6.32936 23.2345 6.42778 23.6803C6.52622 24.1263 6.76888 24.5305 7.14164 24.8932L7.42059 24.6065ZM8.92103 25.607C8.46761 25.1631 7.94669 24.8159 7.35945 24.5659L7.20277 24.9339C7.74453 25.1645 8.22361 25.4839 8.6412 25.8928L8.92103 25.607ZM12.5721 26.176C11.2774 26.3158 10.0431 26.1134 8.86509 25.5684L8.69713 25.9314C9.94116 26.507 11.2484 26.7212 12.6151 26.5737L12.5721 26.176ZM14.4436 24.884C14.0741 25.6754 13.4603 26.1012 12.5768 26.1756L12.6104 26.5742C13.6345 26.488 14.375 25.9764 14.8061 25.0532L14.4436 24.884ZM14.8015 22.0678L14.4265 24.9428L14.8232 24.9945L15.1982 22.1195L14.8015 22.0678ZM14.74 20.3759C14.8322 20.9393 14.8525 21.5057 14.8007 22.0755L15.199 22.1117C15.2539 21.5083 15.2324 20.9081 15.1347 20.3113L14.74 20.3759ZM13.472 19.191C14.1058 19.3869 14.5265 19.7892 14.7491 20.411L15.1257 20.2762C14.8606 19.5354 14.3438 19.0418 13.5902 18.8088L13.472 19.191ZM14.2644 20.4255C13.803 20.1284 13.2962 19.9413 12.7464 19.8643L12.6909 20.2604C13.1842 20.3296 13.6359 20.4966 14.0478 20.7618L14.2644 20.4255ZM13.3306 19.9976C13.648 20.127 13.8562 20.3447 13.9675 20.6602L14.3447 20.5271C14.1947 20.1019 13.9029 19.7989 13.4816 19.6272L13.3306 19.9976ZM11.4999 19.6686C12.1327 19.6686 12.7445 19.779 13.3362 19.9998L13.476 19.625C12.8395 19.3875 12.1804 19.2686 11.4999 19.2686V19.6686ZM8.88646 21.0149C9.50081 20.0966 10.3628 19.6502 11.4966 19.6686L11.5031 19.2687C10.2371 19.2481 9.24584 19.7583 8.55399 20.7925L8.88646 21.0149ZM8.84144 21.0628C8.84245 21.062 8.84344 21.0613 8.84443 21.0605L8.59602 20.747C8.59501 20.7478 8.594 20.7486 8.593 20.7493L8.84144 21.0628ZM8.65472 21.1686C8.70632 21.1686 8.78184 21.1556 8.84302 21.0944C8.90421 21.0332 8.91722 20.9577 8.91722 20.9061H8.51722C8.51722 20.8962 8.51982 20.8519 8.56018 20.8116C8.60054 20.7712 8.64481 20.7686 8.65472 20.7686V21.1686ZM8.59222 21.2311C8.64382 21.2311 8.71934 21.2181 8.78052 21.1569C8.84171 21.0957 8.85472 21.0202 8.85472 20.9686H8.45472C8.45472 20.9587 8.45732 20.9144 8.49768 20.8741C8.53804 20.8337 8.58231 20.8311 8.59222 20.8311V21.2311ZM8.52972 21.2936C8.58132 21.2936 8.65684 21.2806 8.71802 21.2194C8.77921 21.1582 8.79222 21.0827 8.79222 21.0311H8.39222C8.39222 21.0212 8.39482 20.9769 8.43518 20.9366C8.47554 20.8962 8.51981 20.8936 8.52972 20.8936V21.2936ZM7.53854 22.894C7.92455 22.3298 8.30987 21.7674 8.69462 21.2068L8.36482 20.9804C7.97995 21.5412 7.59451 22.1038 7.2084 22.6682L7.53854 22.894ZM7.73653 23.8728C7.55574 23.5415 7.50044 23.1925 7.5701 22.8176L7.17684 22.7446C7.0905 23.2091 7.1602 23.6517 7.38541 24.0644L7.73653 23.8728ZM8.81926 24.5153C8.43095 24.285 8.04793 24.0469 7.67006 23.801L7.45187 24.1362C7.83439 24.3852 8.22211 24.6262 8.61518 24.8594L8.81926 24.5153ZM9.3276 24.9581C9.15745 24.8455 9.00426 24.7115 8.86765 24.5555L8.56679 24.8191C8.72656 25.0015 8.90661 25.1591 9.10684 25.2916L9.3276 24.9581ZM12.9846 25.305C11.7119 25.5996 10.4858 25.479 9.29962 24.9426L9.13482 25.3071C10.4012 25.8797 11.7169 26.0091 13.0748 25.6947L12.9846 25.305ZM13.6905 24.7003C13.5507 25.0169 13.3181 25.2157 12.978 25.3066L13.0814 25.6931C13.5371 25.5712 13.867 25.2908 14.0564 24.8619L13.6905 24.7003ZM14.0485 20.7161C14.0317 22.0697 13.9077 23.4133 13.6764 24.7469L14.0705 24.8153C14.3055 23.4607 14.4314 22.0959 14.4485 20.7211L14.0485 20.7161ZM13.9665 20.6611C13.9982 20.7496 14.0542 20.8223 14.1276 20.8779L14.3694 20.5593C14.3531 20.5469 14.3466 20.5362 14.343 20.5261L13.9665 20.6611ZM12.6895 20.2604C13.1828 20.3295 13.6345 20.4966 14.0465 20.7618L14.263 20.4254C13.8016 20.1284 13.2948 19.9413 12.745 19.8643L12.6895 20.2604ZM11.7227 20.1493C12.0358 20.1566 12.3541 20.1929 12.6775 20.2584L12.7569 19.8663C12.4115 19.7964 12.0699 19.7573 11.7322 19.7494L11.7227 20.1493ZM12.7583 19.8664C12.4124 19.7963 12.0703 19.7572 11.7321 19.7494L11.7228 20.1493C12.0363 20.1566 12.355 20.1928 12.6789 20.2584L12.7583 19.8664Z" fill="#071600" mask="url(#path-13-outside-5_185_155)"/>
</g>
<path d="M10.9618 20.3066L10.945 20.3078L10.9295 20.3144C10.2831 20.5906 9.67239 20.9381 9.09739 21.3568L9.0971 21.3564L9.08977 21.3629C8.96915 21.4702 8.89533 21.6057 8.86998 21.7657L8.86737 21.7822L8.87026 21.7987C8.89794 21.9562 8.96114 22.0857 9.07467 22.1637C9.18828 22.2419 9.33159 22.2543 9.48823 22.2232L9.51276 22.2183L9.53211 22.2025C9.97902 21.8364 10.4666 21.5308 10.995 21.2857C11.4363 21.2465 11.8776 21.2466 12.319 21.2858L12.5231 21.3733L12.7222 21.4586C12.8746 21.6211 13.044 21.7169 13.2301 21.7231C13.4215 21.7295 13.6073 21.6403 13.7854 21.4809L13.8392 21.4327L13.8105 21.3666C13.6381 20.9692 13.3473 20.6896 12.9426 20.5319L12.9427 20.5317L12.9353 20.5294C12.2924 20.3341 11.6344 20.2599 10.9618 20.3066Z" fill="#1B2A14" stroke="#071600" stroke-width="0.2"/>
<path d="M21.8376 21.4314L21.7926 21.4345L21.7651 21.4703C21.6647 21.6014 21.6112 21.7397 21.6247 21.882C21.6383 22.0242 21.7169 22.1506 21.84 22.2616L21.8466 22.2676L21.8541 22.2722C22.6819 22.7883 23.4927 23.3288 24.2865 23.8938L24.3006 23.9039L24.3172 23.9086C24.5017 23.961 24.6722 23.9212 24.8169 23.7936L24.8274 23.7843L24.835 23.7725C24.9165 23.645 24.9561 23.5138 24.9355 23.3833C24.9149 23.2525 24.8366 23.1409 24.7196 23.0469L24.7199 23.0466L24.712 23.0413L23.5245 22.2601L22.337 21.4788L22.3213 21.4686L22.303 21.4646C22.1495 21.4316 21.9942 21.4205 21.8376 21.4314Z" fill="#1B2A14" stroke="#071600" stroke-width="0.2"/>
</g>
<defs>
<clipPath id="clip0_185_155">
<rect width="32" height="32" fill="white"/>
</clipPath>
</defs>
</svg>
