<svg width="36" height="36" viewBox="0 0 36 36" fill="none" xmlns="http://www.w3.org/2000/svg">
<path opacity="0.972" fill-rule="evenodd" clip-rule="evenodd" d="M15.5046 1.0898C17.2426 1.05736 18.977 1.09252 20.7077 1.19527C21.8383 1.54111 22.6821 2.23251 23.239 3.26949C26.7075 3.32808 30.1762 3.36324 33.6452 3.37496C34.718 3.82186 35.0813 4.60702 34.7351 5.73043C34.502 6.19791 34.1387 6.51432 33.6452 6.67965C30.1762 6.69137 26.7075 6.72652 23.239 6.78511C22.474 8.21091 21.2786 8.93752 19.653 8.9648C19.653 10.0898 19.653 11.2148 19.653 12.3398C21.4874 12.3059 23.3155 12.3411 25.1374 12.4453C25.1814 12.498 25.2166 12.5566 25.2429 12.6211C25.2663 13.5585 25.2898 14.4961 25.3132 15.4336C28.634 17.8717 29.8293 21.1061 28.8991 25.1367C27.7252 28.3076 26.483 31.4482 25.1726 34.5585C25.0365 34.6712 24.8842 34.7532 24.7155 34.8046C20.2155 34.8515 15.7155 34.8515 11.2155 34.8046C10.8375 34.6952 10.5914 34.4491 10.4772 34.0664C9.45975 31.4124 8.42854 28.764 7.38349 26.121C6.60373 24.1146 6.50998 22.0756 7.10224 20.0039C7.19027 19.6908 7.3309 19.4096 7.52411 19.1601C7.8704 19.3157 8.21029 19.4798 8.54365 19.6523C8.48704 19.8221 8.41673 19.9862 8.33271 20.1445C8.70768 20.2382 9.08273 20.2382 9.45771 20.1445C9.66393 19.7076 9.92177 19.3091 10.2311 18.9492C10.5358 19.1835 10.8405 19.4179 11.1452 19.6523C11.0418 19.8376 10.9246 20.0134 10.7936 20.1796C12.367 20.2462 13.9372 20.2227 15.5046 20.1093C15.821 19.9804 16.0437 19.7578 16.1726 19.4414C16.2721 18.3902 16.3073 17.3355 16.278 16.2773C15.153 16.2773 14.028 16.2773 12.903 16.2773C12.903 15.9023 12.903 15.5273 12.903 15.1523C14.028 15.1523 15.153 15.1523 16.278 15.1523C16.278 14.5898 16.278 14.0273 16.278 13.4648C14.778 13.4648 13.278 13.4648 11.778 13.4648C11.8104 14.3624 11.7753 15.2531 11.6726 16.1367C10.8081 16.7903 10.0112 17.5168 9.28193 18.3164C8.95758 18.1209 8.66458 17.8865 8.40302 17.6132C8.69447 17.2397 8.9992 16.8764 9.31708 16.5234C9.75717 16.1685 10.1908 15.8052 10.6179 15.4336C10.6413 14.4961 10.6648 13.5585 10.6882 12.6211C10.7145 12.5566 10.7496 12.498 10.7936 12.4453C12.6155 12.3411 14.4436 12.3059 16.278 12.3398C16.278 11.2148 16.278 10.0898 16.278 8.9648C14.2106 8.85427 12.9098 7.79958 12.3757 5.80074C12.1511 3.36864 13.194 1.79833 15.5046 1.0898ZM16.278 2.2148C16.653 2.2148 17.028 2.2148 17.403 2.2148C17.403 3.3398 17.403 4.4648 17.403 5.5898C17.028 5.5898 16.653 5.5898 16.278 5.5898C16.278 4.4648 16.278 3.3398 16.278 2.2148ZM18.528 2.2148C18.903 2.2148 19.278 2.2148 19.653 2.2148C19.653 3.3398 19.653 4.4648 19.653 5.5898C19.278 5.5898 18.903 5.5898 18.528 5.5898C18.528 4.4648 18.528 3.3398 18.528 2.2148ZM15.0827 2.49605C15.1527 3.51492 15.1762 4.54617 15.153 5.5898C14.6139 5.5898 14.0749 5.5898 13.5358 5.5898C13.3814 4.21106 13.8971 3.17981 15.0827 2.49605ZM20.778 2.49605C21.5156 2.84703 22.0195 3.40953 22.2897 4.18355C22.3718 4.26559 22.4538 4.34761 22.5358 4.42965C26.0749 4.45308 29.614 4.47652 33.153 4.49996C33.6345 4.63113 33.7633 4.9241 33.5397 5.37886C33.4239 5.46443 33.295 5.52303 33.153 5.55465C29.0281 5.5898 24.9031 5.60152 20.778 5.5898C20.778 4.55855 20.778 3.5273 20.778 2.49605ZM14.0983 6.78511C16.6646 6.70324 19.2427 6.69152 21.8327 6.74996C21.0143 7.60594 20.0066 7.98099 18.8093 7.87496C18.7449 7.90125 18.6862 7.93641 18.6335 7.98043C18.5296 9.42711 18.4945 10.8802 18.528 12.3398C18.153 12.3398 17.778 12.3398 17.403 12.3398C17.4366 10.8802 17.4014 9.42711 17.2976 7.98043C17.2448 7.93641 17.1862 7.90125 17.1218 7.87496C15.9356 7.97213 14.9278 7.60883 14.0983 6.78511ZM17.403 13.4648C17.778 13.4648 18.153 13.4648 18.528 13.4648C18.528 14.0273 18.528 14.5898 18.528 15.1523C18.153 15.1523 17.778 15.1523 17.403 15.1523C17.403 14.5898 17.403 14.0273 17.403 13.4648ZM19.653 13.4648C21.153 13.4648 22.653 13.4648 24.153 13.4648C24.153 14.0273 24.153 14.5898 24.153 15.1523C22.653 15.1523 21.153 15.1523 19.653 15.1523C19.653 14.5898 19.653 14.0273 19.653 13.4648ZM17.403 16.2773C17.778 16.2773 18.153 16.2773 18.528 16.2773C18.5163 17.4025 18.528 18.5275 18.5632 19.6523C18.7859 20.5312 19.3366 21.082 20.2155 21.3046C22.7935 21.3398 25.3717 21.3515 27.9499 21.3398C28.0868 22.453 28.0282 23.5546 27.7741 24.6445C26.6484 27.6583 25.4883 30.6583 24.2936 33.6445C20.0749 33.7382 15.8561 33.7382 11.6374 33.6445C10.4428 30.6583 9.28263 27.6583 8.15693 24.6445C7.90289 23.5546 7.84425 22.453 7.98115 21.3398C8.33271 21.3398 8.68427 21.3398 9.03583 21.3398C8.93198 22.2326 8.94372 23.1232 9.07099 24.0117C9.4743 25.245 9.91966 26.4638 10.4069 27.6679C10.4464 27.7046 10.4933 27.728 10.5476 27.7382C10.8983 27.6176 11.2382 27.477 11.5671 27.3164C11.1125 26.1518 10.6789 24.9799 10.2663 23.8007C10.1205 22.9774 10.1322 22.1572 10.3015 21.3398C12.1063 21.3515 13.911 21.3398 15.7155 21.3046C16.5944 21.082 17.1452 20.5312 17.3679 19.6523C17.403 18.5275 17.4148 17.4025 17.403 16.2773ZM19.653 16.2773C21.2703 16.2656 22.8875 16.2773 24.5046 16.3125C25.4331 17.03 26.2417 17.8621 26.9304 18.8085C27.1901 19.2342 27.4128 19.6796 27.5983 20.1445C26.4616 20.1679 25.3249 20.1914 24.1882 20.2148C22.9313 20.2241 21.6775 20.1889 20.4265 20.1093C20.1101 19.9804 19.8874 19.7578 19.7585 19.4414C19.6589 18.3902 19.6238 17.3355 19.653 16.2773Z" fill="black"/>
<path opacity="0.85" fill-rule="evenodd" clip-rule="evenodd" d="M11.6367 17.4727C11.905 17.7529 12.1627 18.0458 12.4102 18.3516C12.1884 18.6671 11.9188 18.9366 11.6016 19.1602C11.3192 18.8896 11.0497 18.6083 10.793 18.3164C11.0542 18.0084 11.3354 17.7271 11.6367 17.4727Z" fill="black"/>
</svg>
