<svg width="23" height="23" viewBox="0 0 23 23" fill="none" xmlns="http://www.w3.org/2000/svg">
<path d="M20.4901 20.2592C16.968 22.9584 5.96198 22.9584 2.50915 20.2592C-1.01288 17.5599 -0.655113 6.01927 2.50915 2.98271C5.67342 -0.0538407 17.3245 -0.0544263 20.4901 2.98271C23.6556 6.01985 24.0139 17.5599 20.4901 20.2592Z" fill="#69BD44"/>
<g opacity="0.2">
<path opacity="0.6" d="M12.0438 15.4071C9.0582 17.61 5.42074 18.8734 1.64023 19.0205C-0.904904 15.1395 -0.380924 5.70768 2.61281 2.9616C5.30748 0.485507 13.7653 0.0169936 18.63 1.55606C19.8275 5.97239 17.3578 11.5934 12.0438 15.4071Z" fill="white"/>
</g>
<path d="M9.88352 17.2471C9.63872 17.254 9.39581 17.2046 9.17555 17.1031C8.95528 17.0016 8.76422 16.8511 8.61868 16.6644L4.68451 12.0015C4.55326 11.8505 4.45606 11.6755 4.3989 11.4875C4.34175 11.2994 4.32585 11.1022 4.3522 10.9082C4.37854 10.7141 4.44656 10.5271 4.55207 10.3589C4.65758 10.1907 4.79833 10.0448 4.96565 9.93011C5.3012 9.68499 5.72499 9.57475 6.14555 9.62318C6.56611 9.67161 6.94971 9.87482 7.21357 10.189L9.88352 13.3608L15.7851 6.30498C16.0489 5.99084 16.4326 5.78763 16.8531 5.7392C17.2737 5.69077 17.6975 5.80101 18.033 6.04613C18.2003 6.16079 18.3411 6.30673 18.4466 6.47495C18.5521 6.64316 18.6201 6.83008 18.6465 7.02418C18.6728 7.21827 18.6569 7.41542 18.5998 7.60347C18.5426 7.79152 18.4454 7.96648 18.3142 8.11754L11.1465 16.6626C10.8226 17.0068 10.3691 17.2167 9.88352 17.2471Z" fill="white"/>
</svg>
