<svg width="350" height="133" viewBox="0 0 350 133" fill="none" xmlns="http://www.w3.org/2000/svg">
<path d="M169.351 52.8979C169.351 52.2212 169.109 51.6938 168.626 51.3159C168.151 50.938 167.312 50.5469 166.108 50.1426C164.904 49.7383 163.919 49.3472 163.155 48.9692C160.667 47.7476 159.424 46.0688 159.424 43.9331C159.424 42.8696 159.731 41.9336 160.347 41.125C160.971 40.3076 161.85 39.6748 162.983 39.2266C164.117 38.7695 165.392 38.541 166.807 38.541C168.187 38.541 169.421 38.7871 170.511 39.2793C171.61 39.7715 172.462 40.4746 173.069 41.3887C173.675 42.2939 173.979 43.3311 173.979 44.5H169.364C169.364 43.7178 169.123 43.1113 168.639 42.6807C168.165 42.25 167.519 42.0347 166.701 42.0347C165.875 42.0347 165.22 42.2192 164.737 42.5884C164.262 42.9487 164.025 43.4102 164.025 43.9727C164.025 44.4648 164.289 44.9131 164.816 45.3174C165.343 45.7129 166.271 46.126 167.598 46.5566C168.925 46.9785 170.015 47.4355 170.867 47.9277C172.941 49.123 173.979 50.771 173.979 52.8716C173.979 54.5503 173.346 55.8687 172.08 56.8267C170.814 57.7847 169.079 58.2637 166.873 58.2637C165.317 58.2637 163.906 57.9868 162.641 57.4331C161.384 56.8706 160.435 56.106 159.793 55.1392C159.16 54.1636 158.844 53.043 158.844 51.7773H163.484C163.484 52.8057 163.748 53.5659 164.275 54.0581C164.812 54.5415 165.677 54.7832 166.873 54.7832C167.637 54.7832 168.239 54.6206 168.679 54.2954C169.127 53.9614 169.351 53.4956 169.351 52.8979ZM184.183 58C184.024 57.71 183.884 57.2837 183.761 56.7212C182.943 57.7495 181.801 58.2637 180.333 58.2637C178.988 58.2637 177.846 57.8594 176.905 57.0508C175.965 56.2334 175.495 55.2095 175.495 53.979C175.495 52.4321 176.066 51.2632 177.208 50.4722C178.351 49.6812 180.012 49.2856 182.192 49.2856H183.563V48.5342C183.563 47.2246 182.996 46.5698 181.862 46.5698C180.808 46.5698 180.28 47.0884 180.28 48.1255H175.837C175.837 46.7456 176.422 45.625 177.591 44.7637C178.769 43.9023 180.267 43.4717 182.086 43.4717C183.906 43.4717 185.343 43.9155 186.397 44.8032C187.452 45.6909 187.993 46.9082 188.019 48.4551V54.77C188.037 56.0796 188.239 57.0815 188.625 57.7759V58H184.183ZM181.401 55.0996C181.955 55.0996 182.412 54.981 182.772 54.7437C183.141 54.5063 183.405 54.2383 183.563 53.9395V51.6587H182.271C180.724 51.6587 179.951 52.353 179.951 53.7417C179.951 54.146 180.087 54.4756 180.359 54.7305C180.632 54.9766 180.979 55.0996 181.401 55.0996ZM194.835 45.2646C195.784 44.0693 196.997 43.4717 198.474 43.4717C200.047 43.4717 201.233 43.9375 202.033 44.8691C202.833 45.8008 203.242 47.1763 203.259 48.9956V58H198.803V49.1011C198.803 48.3452 198.649 47.7915 198.342 47.4399C198.034 47.0796 197.511 46.8994 196.773 46.8994C195.859 46.8994 195.213 47.1895 194.835 47.7695V58H190.392V37.75H194.835V45.2646ZM213.767 58C213.608 57.71 213.468 57.2837 213.345 56.7212C212.527 57.7495 211.385 58.2637 209.917 58.2637C208.572 58.2637 207.43 57.8594 206.489 57.0508C205.549 56.2334 205.079 55.2095 205.079 53.979C205.079 52.4321 205.65 51.2632 206.792 50.4722C207.935 49.6812 209.596 49.2856 211.776 49.2856H213.147V48.5342C213.147 47.2246 212.58 46.5698 211.446 46.5698C210.392 46.5698 209.864 47.0884 209.864 48.1255H205.421C205.421 46.7456 206.006 45.625 207.175 44.7637C208.353 43.9023 209.851 43.4717 211.67 43.4717C213.49 43.4717 214.927 43.9155 215.981 44.8032C217.036 45.6909 217.577 46.9082 217.603 48.4551V54.77C217.621 56.0796 217.823 57.0815 218.209 57.7759V58H213.767ZM210.985 55.0996C211.539 55.0996 211.996 54.981 212.356 54.7437C212.725 54.5063 212.989 54.2383 213.147 53.9395V51.6587H211.855C210.308 51.6587 209.535 52.353 209.535 53.7417C209.535 54.146 209.671 54.4756 209.943 54.7305C210.216 54.9766 210.563 55.0996 210.985 55.0996ZM224.854 43.7354V58.4878C224.845 60.1753 224.362 61.4761 223.404 62.3901C222.446 63.3042 221.11 63.7612 219.396 63.7612C218.658 63.7612 217.959 63.6865 217.3 63.5371V60.1753C217.81 60.2544 218.227 60.2939 218.552 60.2939C219.783 60.2939 220.398 59.6831 220.398 58.4614V43.7354H224.854ZM220.068 40.0571C220.068 39.4243 220.297 38.9058 220.754 38.5015C221.211 38.0972 221.804 37.895 222.534 37.895C223.263 37.895 223.856 38.0972 224.313 38.5015C224.771 38.9058 224.999 39.4243 224.999 40.0571C224.999 40.6899 224.771 41.2085 224.313 41.6128C223.856 42.0171 223.263 42.2192 222.534 42.2192C221.804 42.2192 221.211 42.0171 220.754 41.6128C220.297 41.2085 220.068 40.6899 220.068 40.0571ZM235.414 58C235.256 57.71 235.115 57.2837 234.992 56.7212C234.175 57.7495 233.032 58.2637 231.564 58.2637C230.22 58.2637 229.077 57.8594 228.137 57.0508C227.196 56.2334 226.726 55.2095 226.726 53.979C226.726 52.4321 227.297 51.2632 228.44 50.4722C229.583 49.6812 231.244 49.2856 233.423 49.2856H234.794V48.5342C234.794 47.2246 234.228 46.5698 233.094 46.5698C232.039 46.5698 231.512 47.0884 231.512 48.1255H227.069C227.069 46.7456 227.653 45.625 228.822 44.7637C230 43.9023 231.499 43.4717 233.318 43.4717C235.137 43.4717 236.574 43.9155 237.629 44.8032C238.684 45.6909 239.224 46.9082 239.25 48.4551V54.77C239.268 56.0796 239.47 57.0815 239.857 57.7759V58H235.414ZM232.632 55.0996C233.186 55.0996 233.643 54.981 234.003 54.7437C234.373 54.5063 234.636 54.2383 234.794 53.9395V51.6587H233.502C231.956 51.6587 231.182 52.353 231.182 53.7417C231.182 54.146 231.318 54.4756 231.591 54.7305C231.863 54.9766 232.21 55.0996 232.632 55.0996ZM259.553 54.4141H253.212L252.104 58H247.161L254.201 38.8047H258.551L265.644 58H260.674L259.553 54.4141ZM254.319 50.8413H258.446L256.376 44.1836L254.319 50.8413ZM271.194 45.2646C272.144 44.0693 273.356 43.4717 274.833 43.4717C276.406 43.4717 277.593 43.9375 278.393 44.8691C279.192 45.8008 279.601 47.1763 279.619 48.9956V58H275.163V49.1011C275.163 48.3452 275.009 47.7915 274.701 47.4399C274.394 47.0796 273.871 46.8994 273.132 46.8994C272.218 46.8994 271.572 47.1895 271.194 47.7695V58H266.751V37.75H271.194V45.2646ZM290.126 58C289.968 57.71 289.827 57.2837 289.704 56.7212C288.887 57.7495 287.744 58.2637 286.276 58.2637C284.932 58.2637 283.789 57.8594 282.849 57.0508C281.908 56.2334 281.438 55.2095 281.438 53.979C281.438 52.4321 282.009 51.2632 283.152 50.4722C284.294 49.6812 285.956 49.2856 288.135 49.2856H289.506V48.5342C289.506 47.2246 288.939 46.5698 287.806 46.5698C286.751 46.5698 286.224 47.0884 286.224 48.1255H281.781C281.781 46.7456 282.365 45.625 283.534 44.7637C284.712 43.9023 286.21 43.4717 288.03 43.4717C289.849 43.4717 291.286 43.9155 292.341 44.8032C293.396 45.6909 293.936 46.9082 293.962 48.4551V54.77C293.98 56.0796 294.182 57.0815 294.569 57.7759V58H290.126ZM287.344 55.0996C287.898 55.0996 288.355 54.981 288.715 54.7437C289.084 54.5063 289.348 54.2383 289.506 53.9395V51.6587H288.214C286.667 51.6587 285.894 52.353 285.894 53.7417C285.894 54.146 286.03 54.4756 286.303 54.7305C286.575 54.9766 286.922 55.0996 287.344 55.0996ZM305.063 47.7563L303.6 47.6509C302.202 47.6509 301.306 48.0903 300.91 48.9692V58H296.467V43.7354H300.633L300.778 45.5679C301.525 44.1704 302.567 43.4717 303.903 43.4717C304.377 43.4717 304.791 43.5244 305.142 43.6299L305.063 47.7563ZM314.305 58C314.146 57.71 314.006 57.2837 313.883 56.7212C313.065 57.7495 311.923 58.2637 310.455 58.2637C309.11 58.2637 307.968 57.8594 307.027 57.0508C306.087 56.2334 305.617 55.2095 305.617 53.979C305.617 52.4321 306.188 51.2632 307.331 50.4722C308.473 49.6812 310.134 49.2856 312.314 49.2856H313.685V48.5342C313.685 47.2246 313.118 46.5698 311.984 46.5698C310.93 46.5698 310.402 47.0884 310.402 48.1255H305.959C305.959 46.7456 306.544 45.625 307.713 44.7637C308.891 43.9023 310.389 43.4717 312.208 43.4717C314.028 43.4717 315.465 43.9155 316.52 44.8032C317.574 45.6909 318.115 46.9082 318.141 48.4551V54.77C318.159 56.0796 318.361 57.0815 318.748 57.7759V58H314.305ZM311.523 55.0996C312.077 55.0996 312.534 54.981 312.894 54.7437C313.263 54.5063 313.527 54.2383 313.685 53.9395V51.6587H312.393C310.846 51.6587 310.073 52.353 310.073 53.7417C310.073 54.146 310.209 54.4756 310.481 54.7305C310.754 54.9766 311.101 55.0996 311.523 55.0996ZM324.812 43.7354L324.957 45.4097C325.968 44.1177 327.326 43.4717 329.031 43.4717C330.833 43.4717 332.05 44.188 332.683 45.6206C333.649 44.188 335.047 43.4717 336.875 43.4717C339.767 43.4717 341.252 45.2207 341.331 48.7188V58H336.875V48.9956C336.875 48.2661 336.752 47.7344 336.506 47.4004C336.26 47.0664 335.812 46.8994 335.161 46.8994C334.282 46.8994 333.627 47.2905 333.197 48.0728L333.21 48.2573V58H328.754V49.022C328.754 48.2749 328.635 47.7344 328.398 47.4004C328.161 47.0664 327.708 46.8994 327.04 46.8994C326.188 46.8994 325.537 47.2905 325.089 48.0728V58H320.646V43.7354H324.812ZM175.706 82.7979C175.706 84.6699 175.358 86.3267 174.664 87.7681C173.97 89.2095 172.981 90.3213 171.698 91.1035C170.423 91.877 168.969 92.2637 167.334 92.2637C165.699 92.2637 164.249 91.8901 162.983 91.1431C161.718 90.3872 160.729 89.3105 160.017 87.9131C159.314 86.5156 158.945 84.9116 158.91 83.1011V82.02C158.91 80.1392 159.252 78.4824 159.938 77.0498C160.632 75.6084 161.621 74.4966 162.904 73.7144C164.196 72.9321 165.664 72.541 167.308 72.541C168.934 72.541 170.384 72.9277 171.658 73.7012C172.933 74.4746 173.921 75.5776 174.625 77.0103C175.336 78.4341 175.697 80.0688 175.706 81.9146V82.7979ZM170.999 81.9937C170.999 80.0864 170.678 78.6406 170.037 77.6562C169.404 76.6631 168.494 76.1665 167.308 76.1665C164.987 76.1665 163.761 77.9067 163.629 81.3872L163.616 82.7979C163.616 84.6787 163.928 86.1245 164.552 87.1353C165.176 88.146 166.104 88.6514 167.334 88.6514C168.503 88.6514 169.404 88.1548 170.037 87.1616C170.669 86.1685 170.99 84.7402 170.999 82.877V81.9937ZM186.516 81.7563L185.053 81.6509C183.655 81.6509 182.759 82.0903 182.363 82.9692V92H177.92V77.7354H182.086L182.231 79.5679C182.979 78.1704 184.02 77.4717 185.356 77.4717C185.831 77.4717 186.244 77.5244 186.595 77.6299L186.516 81.7563ZM187.333 84.7622C187.333 83.3208 187.571 82.0464 188.045 80.939C188.52 79.8315 189.201 78.979 190.089 78.3813C190.977 77.7749 192.009 77.4717 193.187 77.4717C194.672 77.4717 195.833 77.9727 196.667 78.9746L196.826 77.7354H200.86V91.4595C200.86 92.7163 200.565 93.8062 199.977 94.729C199.396 95.6606 198.553 96.3726 197.445 96.8647C196.338 97.3657 195.055 97.6162 193.596 97.6162C192.55 97.6162 191.535 97.4185 190.55 97.0229C189.575 96.6274 188.828 96.1133 188.309 95.4805L190.168 92.8701C190.994 93.8457 192.084 94.3335 193.438 94.3335C195.406 94.3335 196.391 93.3228 196.391 91.3013V90.853C195.538 91.7935 194.461 92.2637 193.161 92.2637C191.42 92.2637 190.014 91.6001 188.942 90.2729C187.87 88.937 187.333 87.1528 187.333 84.9204V84.7622ZM191.79 85.0391C191.79 86.208 192.009 87.1353 192.449 87.8208C192.888 88.4976 193.503 88.8359 194.294 88.8359C195.252 88.8359 195.951 88.5151 196.391 87.8735V81.875C195.96 81.2246 195.27 80.8994 194.321 80.8994C193.53 80.8994 192.91 81.2554 192.462 81.9673C192.014 82.6704 191.79 83.6943 191.79 85.0391ZM211.42 92C211.262 91.71 211.121 91.2837 210.998 90.7212C210.181 91.7495 209.038 92.2637 207.57 92.2637C206.226 92.2637 205.083 91.8594 204.143 91.0508C203.202 90.2334 202.732 89.2095 202.732 87.979C202.732 86.4321 203.303 85.2632 204.446 84.4722C205.588 83.6812 207.25 83.2856 209.429 83.2856H210.8V82.5342C210.8 81.2246 210.233 80.5698 209.1 80.5698C208.045 80.5698 207.518 81.0884 207.518 82.1255H203.075C203.075 80.7456 203.659 79.625 204.828 78.7637C206.006 77.9023 207.504 77.4717 209.324 77.4717C211.143 77.4717 212.58 77.9155 213.635 78.8032C214.689 79.6909 215.23 80.9082 215.256 82.4551V88.77C215.274 90.0796 215.476 91.0815 215.863 91.7759V92H211.42ZM208.638 89.0996C209.192 89.0996 209.649 88.981 210.009 88.7437C210.378 88.5063 210.642 88.2383 210.8 87.9395V85.6587H209.508C207.961 85.6587 207.188 86.353 207.188 87.7417C207.188 88.146 207.324 88.4756 207.597 88.7305C207.869 88.9766 208.216 89.0996 208.638 89.0996ZM221.809 77.7354L221.954 79.4097C222.938 78.1177 224.296 77.4717 226.027 77.4717C227.513 77.4717 228.62 77.9155 229.35 78.8032C230.088 79.6909 230.47 81.0269 230.497 82.811V92H226.041V82.9956C226.041 82.2749 225.896 81.7476 225.605 81.4136C225.315 81.0708 224.788 80.8994 224.023 80.8994C223.153 80.8994 222.507 81.2422 222.085 81.9277V92H217.643V77.7354H221.809ZM237.655 92H233.199V77.7354H237.655V92ZM232.936 74.0571C232.936 73.4243 233.164 72.9058 233.621 72.5015C234.078 72.0972 234.671 71.895 235.401 71.895C236.13 71.895 236.724 72.0972 237.181 72.5015C237.638 72.9058 237.866 73.4243 237.866 74.0571C237.866 74.6899 237.638 75.2085 237.181 75.6128C236.724 76.0171 236.13 76.2192 235.401 76.2192C234.671 76.2192 234.078 76.0171 233.621 75.6128C233.164 75.2085 232.936 74.6899 232.936 74.0571ZM246.436 88.8359C247.06 88.8359 247.543 88.6689 247.886 88.335C248.229 87.9922 248.396 87.5176 248.387 86.9111H252.553C252.553 88.4756 251.99 89.7588 250.865 90.7607C249.749 91.7627 248.308 92.2637 246.541 92.2637C244.467 92.2637 242.832 91.6133 241.637 90.3125C240.441 89.0117 239.844 87.21 239.844 84.9072V84.7227C239.844 83.2812 240.107 82.0112 240.635 80.9126C241.171 79.8052 241.94 78.957 242.942 78.3682C243.944 77.7705 245.13 77.4717 246.501 77.4717C248.356 77.4717 249.828 77.9858 250.918 79.0142C252.008 80.0425 252.553 81.4355 252.553 83.1934H248.387C248.387 82.4551 248.207 81.8882 247.846 81.4927C247.486 81.0972 247.002 80.8994 246.396 80.8994C245.245 80.8994 244.572 81.6333 244.379 83.1011C244.317 83.5669 244.287 84.2085 244.287 85.0259C244.287 86.4585 244.458 87.4517 244.801 88.0054C245.144 88.5591 245.688 88.8359 246.436 88.8359ZM271.26 86.8979C271.26 86.2212 271.019 85.6938 270.535 85.3159C270.061 84.938 269.221 84.5469 268.017 84.1426C266.813 83.7383 265.829 83.3472 265.064 82.9692C262.577 81.7476 261.333 80.0688 261.333 77.9331C261.333 76.8696 261.641 75.9336 262.256 75.125C262.88 74.3076 263.759 73.6748 264.893 73.2266C266.026 72.7695 267.301 72.541 268.716 72.541C270.096 72.541 271.331 72.7871 272.42 73.2793C273.519 73.7715 274.372 74.4746 274.978 75.3887C275.584 76.2939 275.888 77.3311 275.888 78.5H271.273C271.273 77.7178 271.032 77.1113 270.548 76.6807C270.074 76.25 269.428 76.0347 268.61 76.0347C267.784 76.0347 267.129 76.2192 266.646 76.5884C266.171 76.9487 265.934 77.4102 265.934 77.9727C265.934 78.4648 266.198 78.9131 266.725 79.3174C267.252 79.7129 268.18 80.126 269.507 80.5566C270.834 80.9785 271.924 81.4355 272.776 81.9277C274.851 83.123 275.888 84.771 275.888 86.8716C275.888 88.5503 275.255 89.8687 273.989 90.8267C272.724 91.7847 270.988 92.2637 268.782 92.2637C267.226 92.2637 265.815 91.9868 264.55 91.4331C263.293 90.8706 262.344 90.106 261.702 89.1392C261.069 88.1636 260.753 87.043 260.753 85.7773H265.394C265.394 86.8057 265.657 87.5659 266.185 88.0581C266.721 88.5415 267.586 88.7832 268.782 88.7832C269.546 88.7832 270.148 88.6206 270.588 88.2954C271.036 87.9614 271.26 87.4956 271.26 86.8979ZM283.231 74.189V77.7354H285.578V80.8203H283.231V87.3462C283.231 87.8823 283.328 88.2559 283.521 88.4668C283.714 88.6777 284.097 88.7832 284.668 88.7832C285.107 88.7832 285.477 88.7568 285.775 88.7041V91.8813C284.976 92.1362 284.141 92.2637 283.271 92.2637C281.741 92.2637 280.612 91.9033 279.882 91.1826C279.153 90.4619 278.788 89.3677 278.788 87.8999V80.8203H276.969V77.7354H278.788V74.189H283.231ZM286.382 84.7358C286.382 83.312 286.659 82.0464 287.212 80.939C287.766 79.8228 288.562 78.9658 289.599 78.3682C290.636 77.7705 291.853 77.4717 293.25 77.4717C295.386 77.4717 297.069 78.1353 298.3 79.4624C299.53 80.7808 300.146 82.5781 300.146 84.8545V85.0127C300.146 87.2363 299.526 89.0029 298.287 90.3125C297.056 91.6133 295.386 92.2637 293.277 92.2637C291.247 92.2637 289.616 91.6572 288.386 90.4443C287.155 89.2227 286.492 87.5703 286.395 85.4873L286.382 84.7358ZM290.825 85.0127C290.825 86.3311 291.031 87.2979 291.444 87.9131C291.857 88.5283 292.468 88.8359 293.277 88.8359C294.859 88.8359 295.667 87.6187 295.703 85.1841V84.7358C295.703 82.1782 294.885 80.8994 293.25 80.8994C291.765 80.8994 290.961 82.0024 290.838 84.2085L290.825 85.0127ZM310.732 81.7563L309.269 81.6509C307.871 81.6509 306.975 82.0903 306.579 82.9692V92H302.136V77.7354H306.302L306.447 79.5679C307.194 78.1704 308.236 77.4717 309.572 77.4717C310.046 77.4717 310.459 77.5244 310.811 77.6299L310.732 81.7563ZM318.972 92.2637C316.783 92.2637 315.012 91.6133 313.659 90.3125C312.305 89.0029 311.628 87.3022 311.628 85.2104V84.8413C311.628 83.3823 311.896 82.0947 312.433 80.9785C312.978 79.8623 313.769 79.001 314.806 78.3945C315.843 77.7793 317.073 77.4717 318.497 77.4717C320.501 77.4717 322.083 78.0957 323.243 79.3438C324.403 80.583 324.983 82.3145 324.983 84.5381V86.2651H316.15C316.309 87.0649 316.656 87.6934 317.192 88.1504C317.728 88.6074 318.422 88.8359 319.275 88.8359C320.681 88.8359 321.78 88.3438 322.571 87.3594L324.601 89.7588C324.047 90.5234 323.261 91.1343 322.241 91.5913C321.23 92.0396 320.141 92.2637 318.972 92.2637ZM318.471 80.8994C317.17 80.8994 316.396 81.7607 316.15 83.4834H320.633V83.1406C320.65 82.4287 320.47 81.8794 320.092 81.4927C319.714 81.0972 319.174 80.8994 318.471 80.8994ZM334.251 87.9922C334.251 87.6143 334.054 87.311 333.658 87.0825C333.263 86.854 332.511 86.6167 331.404 86.3706C330.296 86.1245 329.382 85.8037 328.662 85.4082C327.941 85.0039 327.392 84.5161 327.014 83.9448C326.636 83.3735 326.447 82.7188 326.447 81.9805C326.447 80.6709 326.987 79.5942 328.068 78.7505C329.149 77.8979 330.564 77.4717 332.313 77.4717C334.194 77.4717 335.706 77.8979 336.849 78.7505C337.991 79.603 338.562 80.7236 338.562 82.1123H334.106C334.106 80.9697 333.504 80.3984 332.3 80.3984C331.834 80.3984 331.443 80.5303 331.127 80.7939C330.811 81.0488 330.652 81.3696 330.652 81.7563C330.652 82.1519 330.846 82.4727 331.232 82.7188C331.619 82.9648 332.234 83.167 333.078 83.3252C333.931 83.4834 334.678 83.6724 335.319 83.8921C337.464 84.6304 338.536 85.9531 338.536 87.8604C338.536 89.1611 337.956 90.2202 336.796 91.0376C335.645 91.855 334.15 92.2637 332.313 92.2637C331.092 92.2637 330.002 92.0439 329.044 91.6045C328.086 91.165 327.339 90.5674 326.803 89.8115C326.267 89.0557 325.999 88.2603 325.999 87.4253H330.151C330.169 88.0845 330.389 88.5679 330.811 88.8755C331.232 89.1743 331.773 89.3237 332.432 89.3237C333.039 89.3237 333.491 89.2007 333.79 88.9546C334.098 88.7085 334.251 88.3877 334.251 87.9922Z" fill="#69BD44"/>
<g clip-path="url(#clip0_217_1866)">
<path opacity="0.982" fill-rule="evenodd" clip-rule="evenodd" d="M66.2621 -0.168358C70.5335 -0.168358 74.8046 -0.168358 79.0761 -0.168358C101.117 2.7828 118.034 13.6697 129.826 32.4924C130.55 33.8194 131.168 35.1662 131.681 36.5329C120.263 34.7362 108.855 34.6241 97.454 36.1962C95.6681 35.5554 94.0384 34.6015 92.5644 33.3342C80.4907 26.603 68.1262 26.0418 55.4714 31.6506C44.182 37.8171 37.2129 47.1887 34.5644 59.7658C23.741 59.8423 14.4115 63.5461 6.57606 70.8772C5.23899 47.7935 13.4444 28.8817 31.1923 14.1418C41.5147 6.04783 53.2047 1.2778 66.2621 -0.168358ZM74.3551 4.54557C76.6097 4.55472 78.8576 4.66695 81.0993 4.88228C81.0993 5.55569 81.0993 6.22911 81.0993 6.90253C78.8511 6.7903 76.6033 6.67804 74.3551 6.56582C74.3551 5.8924 74.3551 5.21898 74.3551 4.54557ZM74.3551 7.23924C76.5001 7.27382 78.6357 7.44217 80.7621 7.7443C80.9162 7.8837 81.0288 8.05205 81.0993 8.24936C80.8855 12.5109 80.6046 16.7759 80.2563 21.0443C79.9518 21.4488 79.5586 21.7294 79.0761 21.8861C77.2811 22.0542 75.4828 22.1103 73.6807 22.0544C73.6807 21.381 73.6807 20.7076 73.6807 20.0342C74.1265 20.0914 74.52 19.9792 74.8609 19.6975C74.9891 15.5302 74.8205 11.3775 74.3551 7.23924ZM65.2505 7.57595C67.5688 7.32658 69.6484 7.88777 71.4889 9.25949C72.3878 12.8997 72.8937 16.6034 73.0063 20.3709C71.7037 20.3581 70.4111 20.4703 69.1284 20.7076C68.368 20.6707 67.8059 20.334 67.4423 19.6975C66.8984 20.4641 66.1677 20.9691 65.2505 21.2127C63.7668 21.5419 62.3616 21.3735 61.0354 20.7076C60.3441 19.4275 60.0069 18.0807 60.0237 16.6671C61.8892 15.1746 63.9124 13.9399 66.0935 12.9633C66.2904 12.0351 66.1778 11.1372 65.7563 10.2696C65.299 9.97325 64.7932 9.86102 64.2388 9.93291C64.3629 11.1525 64.3629 12.331 64.2388 13.4684C62.5137 13.7026 60.8276 14.0955 59.1807 14.6468C58.9474 14.47 58.7788 14.2455 58.6749 13.9734C58.02 11.8219 58.6381 10.1945 60.5295 9.09114C62.076 8.37105 63.6497 7.86599 65.2505 7.57595ZM86.1575 9.5962C90.4275 9.31518 94.1928 10.5498 97.454 13.3C98.2289 14.5517 98.4538 15.8986 98.1284 17.3405C97.3619 19.8999 96.5189 22.4252 95.5993 24.9165C93.8549 24.6352 92.1689 24.074 90.5412 23.2329C90.4646 22.8506 90.3523 22.4578 90.204 22.0544C87.948 22.6504 85.9248 22.2015 84.1342 20.7076C83.2359 19.1327 83.2359 17.5614 84.1342 15.9937C86.5904 15.7244 89.0632 15.556 91.5528 15.4886C92.1756 14.6202 92.3442 13.6662 92.0586 12.6266C91.5548 12.2066 91.049 12.2066 90.5412 12.6266C90.3088 13.2811 90.1402 13.9546 90.0354 14.6468C89.7909 14.8349 89.51 14.9471 89.1923 14.9835C87.5006 14.4997 85.8145 13.9947 84.1342 13.4684C83.7818 11.647 84.4562 10.3563 86.1575 9.5962ZM44.6807 11.2797C45.0769 11.206 45.4141 11.3182 45.6923 11.6165C45.9844 12.6369 46.4902 13.5348 47.2098 14.3101C51.3517 9.71092 54.3866 10.2721 56.3144 15.9937C57.2067 18.3247 57.8811 20.6816 58.3377 23.0646C56.9673 23.5586 55.6184 24.1197 54.2912 24.7481C52.5495 21.7191 50.9761 18.5765 49.5702 15.3203C49.2165 14.9778 48.823 14.9217 48.39 15.1519C48.0272 15.7331 47.9709 16.3504 48.2214 17.0038C49.6266 19.8097 51.0314 22.6156 52.4365 25.4215C51.1457 26.625 49.6846 27.4668 48.0528 27.9468C45.2162 23.6552 42.5185 19.278 39.9598 14.8152C40.0471 14.3905 40.272 14.0538 40.6342 13.8051C42.0613 13.0392 43.4101 12.1974 44.6807 11.2797ZM37.2621 20.3709C38.1682 20.3156 39.0675 20.3718 39.9598 20.5392C42.385 23.3057 44.5205 26.28 46.3668 29.462C45.1326 30.6374 43.8397 31.7598 42.4888 32.8291C42.2639 32.6046 42.0393 32.3802 41.8144 32.1557C41.1505 34.5581 39.633 36.1295 37.2621 36.8696C34.8399 36.1854 33.8846 34.614 34.3958 32.1557C35.048 30.7215 35.835 29.3747 36.7563 28.1152C37.0905 27.4595 37.2031 26.7861 37.0935 26.0949C36.5314 25.5337 35.9696 24.9726 35.4075 24.4114C34.9016 24.692 34.5081 25.0848 34.2272 25.5899C34.7755 26.4746 35.4499 27.2603 36.2505 27.9468C34.9738 29.5035 33.6251 31.0187 32.204 32.4924C30.3851 31.4018 29.7669 29.8305 30.3493 27.7785C30.9949 26.1504 31.8941 24.6913 33.047 23.4013C34.325 22.1762 35.7302 21.1661 37.2621 20.3709ZM24.7854 31.1456C26.0309 31.2628 27.0425 31.824 27.8202 32.8291C26.5737 34.5793 25.3935 36.375 24.2795 38.2165C22.6037 36.8376 21.9855 37.2306 22.4249 39.3949C22.8745 39.6195 23.3241 39.6195 23.7737 39.3949C25.9207 37.6461 28.2812 36.243 30.8551 35.1861C34.9934 36.4592 36.0613 39.0407 34.0586 42.9304C32.931 45.621 31.3012 47.9217 29.1691 49.8329C27.6748 50.2073 26.4384 49.8147 25.4598 48.6544C26.2106 46.818 27.0537 45.0224 27.9888 43.2671C29.3978 44.7786 30.4656 44.6102 31.1923 42.762C30.5821 41.2347 29.5705 40.898 28.1575 41.7519C26.359 43.2109 24.5605 44.6702 22.7621 46.1291C19.239 46.6517 17.7215 45.1365 18.2098 41.5835C19.0508 37.2009 21.2426 33.7214 24.7854 31.1456Z" fill="#69BD44"/>
<path opacity="0.903" fill-rule="evenodd" clip-rule="evenodd" d="M66.5998 14.9835C67.0001 15.7378 67.225 16.5796 67.2742 17.5089C67.3326 19.0225 66.8267 19.3031 65.7568 18.3506C64.9535 16.9321 65.2348 15.8098 66.5998 14.9835Z" fill="#69BD44"/>
<path opacity="0.932" fill-rule="evenodd" clip-rule="evenodd" d="M89.8665 17.6772C90.4394 17.6233 91.0016 17.6794 91.5526 17.8456C91.2727 18.7889 90.9918 19.7429 90.7096 20.7076C89.6538 21.2684 89.1479 20.9317 89.1921 19.6975C89.2295 18.9519 89.4545 18.2785 89.8665 17.6772Z" fill="#69BD44"/>
<path opacity="0.931" fill-rule="evenodd" clip-rule="evenodd" d="M38.6109 28.4519C39.8586 29.2623 40.477 30.3846 40.4655 31.819C39.4994 32.001 38.825 31.5521 38.4423 30.4722C38.2137 29.7659 38.27 29.0925 38.6109 28.4519Z" fill="#69BD44"/>
<path opacity="0.987" fill-rule="evenodd" clip-rule="evenodd" d="M144.831 48.6544C144.831 48.9911 144.831 49.3279 144.831 49.6646C138.057 61.7224 127.66 67.6707 113.639 67.5101C108.338 67.3152 103.112 66.5855 97.959 65.3215C93.4525 65.1542 88.9562 65.3225 84.4706 65.8266C83.3467 65.7145 82.2224 65.602 81.0985 65.4899C85.1909 62.8279 89.2374 60.078 93.2381 57.2405C99.0431 53.6997 105.338 51.567 112.122 50.843C104.445 49.4029 97.2515 50.7498 90.5404 54.8835C86.4723 57.7099 82.3135 60.4036 78.0636 62.9646C75.4486 64.0033 72.7509 64.733 69.9706 65.1532C69.4648 65.169 69.1276 64.9447 68.959 64.4797C73.167 58.3139 78.3375 53.0949 84.4706 48.8228C90.5859 44.3109 97.3301 41.0559 104.703 39.0582C112.249 37.9942 119.668 38.5552 126.959 40.7418C131.374 42.7772 135.757 44.9099 140.11 47.1392C141.66 47.7457 143.233 48.2507 144.831 48.6544Z" fill="#69BD44"/>
<path opacity="0.981" fill-rule="evenodd" clip-rule="evenodd" d="M79.4127 132.832C74.6917 132.832 69.9708 132.832 65.2499 132.832C45.626 130.133 29.9457 120.818 18.2092 104.885C16.3405 102.22 14.5983 99.4705 12.9824 96.6354C13.1596 96.4024 13.3843 96.2341 13.6568 96.1304C22.0103 97.6924 30.4406 98.1974 38.9475 97.6456C42.0118 97.4614 45.0466 97.0688 48.0522 96.4671C59.8936 105.283 72.8202 107.248 86.8313 102.359C99.6493 96.4661 107.517 86.6453 110.436 72.8975C121.395 73.0497 130.78 69.3459 138.593 61.7861C139.703 87.6844 129.643 107.943 108.413 122.562C99.5049 128.164 89.8382 131.588 79.4127 132.832ZM114.82 84.6823C115.516 84.7452 116.19 84.9136 116.843 85.1873C120.215 87.0955 123.587 89.0033 126.959 90.9114C126.073 92.5124 125.23 94.1398 124.43 95.7937C124.241 95.9694 124.016 96.0816 123.756 96.1304C120.529 94.0418 117.325 91.9091 114.145 89.7329C113.267 90.3174 113.267 90.9346 114.145 91.5848C117.101 93.5377 119.967 95.6139 122.744 97.8139C122.206 99.7759 121.138 101.459 119.541 102.865C116.605 100.157 113.57 97.5755 110.436 95.1203C109.835 95.4058 109.666 95.8546 109.93 96.4671C112.856 99.1086 115.722 101.802 118.529 104.548C117.409 106.114 116.173 107.573 114.82 108.925C111.51 105.227 108.137 101.579 104.703 97.9823C105.477 96.8722 106.377 95.862 107.401 94.9519C107.834 94.7216 108.228 94.7778 108.581 95.1203C108.538 92.3791 109.831 90.8077 112.459 90.4063C111.862 87.8989 112.649 85.9907 114.82 84.6823ZM102.68 100.844C103.81 100.94 104.822 101.333 105.715 102.023C108.012 104.867 110.429 107.617 112.965 110.272C113.19 110.497 113.19 110.721 112.965 110.946C111.679 112.148 110.33 113.271 108.918 114.313C108.097 113.421 107.647 113.645 107.57 114.986C104.012 118.631 101.483 118.014 99.9824 113.134C101.031 111.132 102.155 109.167 103.355 107.242C103 105.766 102.101 104.868 100.657 104.548C100.891 105.858 101.453 107.036 102.343 108.084C101.145 109.167 99.8526 110.121 98.465 110.946C95.9086 107.115 96.6393 104.028 100.657 101.686C101.369 101.402 102.043 101.121 102.68 100.844ZM53.4475 105.895C55.575 106.566 57.7109 107.239 59.8545 107.915C60.2349 114.104 60.6281 120.277 61.0347 126.434C59.2826 126.067 57.5402 125.618 55.808 125.087C55.7804 124.133 55.7244 123.123 55.6394 122.057C54.2575 121.53 52.8524 121.081 51.4243 120.71C51.3103 121.503 51.1417 122.288 50.9185 123.067C50.7293 123.243 50.5044 123.355 50.2441 123.404C48.4788 122.831 46.849 122.045 45.3545 121.047C48.4899 116.245 51.1876 111.195 53.4475 105.895ZM93.5754 106.568C93.8708 106.524 94.0958 106.636 94.2499 106.905C94.7965 108.166 95.4709 109.344 96.2731 110.441C95.7673 110.946 95.2615 111.451 94.7557 111.956C94.5308 112.629 94.5308 113.303 94.7557 113.976C95.9791 116.363 97.1593 118.776 98.2964 121.215C96.6019 122.23 94.8036 122.96 92.901 123.404C91.3182 118.831 89.6321 114.286 87.8429 109.767C87.8918 109.507 88.0041 109.283 88.1801 109.094C89.3441 108.681 90.4681 108.176 91.5522 107.578C91.8894 108.027 92.2266 108.476 92.5638 108.925C92.7769 108.063 93.1141 107.277 93.5754 106.568ZM63.5638 108.589C64.9012 108.812 66.25 108.924 67.6103 108.925C67.5115 110.251 67.6238 111.542 67.9475 112.797C69.1355 112.433 70.3721 112.321 71.6568 112.461C72.3815 112.849 72.9996 113.354 73.5115 113.976C74.2625 118.105 74.8806 122.258 75.3661 126.434C75.2589 126.82 75.0343 127.101 74.6917 127.276C73.0094 127.444 71.3233 127.5 69.6336 127.444C69.5237 123.29 69.3551 119.137 69.1278 114.986C68.7869 114.704 68.3933 114.592 67.9475 114.649C67.6306 118.79 67.5183 122.942 67.6103 127.108C65.9121 127.078 64.2261 126.91 62.5522 126.603C62.2393 126.472 62.0143 126.247 61.8778 125.929C62.45 120.149 63.0121 114.369 63.5638 108.589ZM81.7731 110.946C83.7384 110.608 85.3681 111.169 86.6627 112.629C88.2013 116.341 89.6065 120.101 90.8778 123.909C90.7412 124.227 90.5163 124.452 90.2034 124.582C88.7982 124.975 87.3934 125.368 85.9882 125.761C85.5765 125.501 85.2393 125.164 84.9766 124.751C83.1641 126.662 81.0849 127.054 78.7382 125.929C77.7887 124.446 77.3955 122.818 77.558 121.047C77.7148 120.565 77.996 120.172 78.401 119.868C80.0038 119.041 81.5212 118.086 82.9534 117.006C83.0181 115.863 82.7372 114.797 82.1103 113.808C81.445 113.626 81.1078 113.907 81.0987 114.649C81.3779 115.652 81.6028 116.663 81.7731 117.68C80.225 117.781 78.7076 118.006 77.2208 118.353C75.8908 114.166 77.4083 111.696 81.7731 110.946Z" fill="#69BD44"/>
<path opacity="0.985" fill-rule="evenodd" clip-rule="evenodd" d="M-0.167969 84.0089C-0.167969 83.8967 -0.167969 83.7843 -0.167969 83.6721C4.43983 74.7564 11.6336 68.9761 21.4134 66.3316C26.3298 65.5394 31.2755 65.3151 36.2506 65.6582C40.6897 66.4064 45.1294 67.1357 49.5704 67.8468C53.391 67.5495 57.2126 67.2128 61.0355 66.8367C61.9645 66.8451 62.8639 66.9576 63.7332 67.1734C63.9652 67.4536 63.9089 67.6778 63.5646 67.8468C59.1768 70.2661 55.018 73.016 51.0878 76.0962C45.4153 79.331 39.3455 81.3512 32.8785 82.157C40.7557 83.5294 48.0621 82.0704 54.7971 77.7797C58.4147 75.1783 62.124 72.7092 65.925 70.3721C69.1403 68.8711 72.5124 68.0293 76.0413 67.8468C75.7243 68.929 75.2185 69.9391 74.5239 70.8772C66.65 80.3071 57.0396 87.4339 45.6925 92.2582C35.9681 95.2761 26.3014 95.0516 16.6925 91.5848C11.2702 88.5965 5.65004 86.0712 -0.167969 84.0089Z" fill="#69BD44"/>
<path opacity="0.926" fill-rule="evenodd" clip-rule="evenodd" d="M104.703 109.262C106.132 110.098 106.863 111.333 106.895 112.966C106.755 113.12 106.587 113.232 106.389 113.303C104.877 112.308 104.315 110.961 104.703 109.262Z" fill="#69BD44"/>
<path opacity="0.922" fill-rule="evenodd" clip-rule="evenodd" d="M55.809 110.609C56.1897 113.25 56.1897 115.944 55.809 118.69C54.7347 118.745 53.8353 118.408 53.1113 117.68C54.1466 115.364 55.0456 113.007 55.809 110.609Z" fill="#69BD44"/>
<path opacity="0.9" fill-rule="evenodd" clip-rule="evenodd" d="M83.4597 119.363C83.6678 119.401 83.8364 119.513 83.9655 119.7C84.2201 120.773 84.5013 121.84 84.8085 122.899C84.6069 123.337 84.2697 123.618 83.7969 123.741C82.6163 122.383 82.5041 120.924 83.4597 119.363Z" fill="#69BD44"/>
</g>
<defs>
<clipPath id="clip0_217_1866">
<rect width="145" height="133" fill="white"/>
</clipPath>
</defs>
</svg>
