<svg width="1646" height="377" viewBox="0 0 1646 377" fill="none" xmlns="http://www.w3.org/2000/svg">
<rect x="2" width="1641" height="377" fill="#FBF9F9"/>
<path d="M901 188.699C567 -34.9011 165.5 68.3654 2 198.199V365.699L1643.5 365.199V161.699C1538.17 245.365 1235 412.299 901 188.699Z" fill="#E3F3DB"/>
<path d="M864 218.721C530 -4.8795 165.5 68.3873 2 198.221V376.721L1643.5 375.221V258.699C1538.17 342.366 1198 442.32 864 218.721Z" fill="white"/>
<path d="M2 198.221C165.5 68.3873 530 -4.8795 864 218.721C1198 442.321 1538.17 342.366 1643.5 258.699" stroke="#69BD44" stroke-width="5"/>
<g filter="url(#filter0_d_386_17)">
<path opacity="0.987" fill-rule="evenodd" clip-rule="evenodd" d="M966.185 57.8709C967.362 56.8696 968.539 55.8682 969.716 54.8669C1031.98 42.6251 1083.65 61.1845 1124.72 110.544C1139.78 129.605 1152.75 149.998 1163.63 171.72C1176.43 187.929 1190.37 203.105 1205.45 217.244C1208.4 221.496 1211.35 225.75 1214.29 230.002C1192.83 223.651 1171.2 217.721 1149.41 212.211C1119.79 202.502 1093.64 186.899 1070.97 165.4C1088.73 196.446 1114.8 217.521 1149.18 228.625C1171.14 234.403 1192.9 240.892 1214.48 248.093C1225.87 254.121 1236.43 261.356 1246.16 269.8C1247.72 271.516 1247.93 273.359 1246.81 275.329C1212.76 278.994 1179.16 276.489 1146.02 267.811C1112.08 259.908 1080.68 246.075 1051.8 226.31C1025.68 203.167 1005.61 175.635 991.597 143.711C985.603 122.267 980.04 100.641 974.907 78.8358C972.426 71.6304 969.519 64.6428 966.185 57.8709Z" fill="#69BD44"/>
</g>
<g filter="url(#filter1_d_386_17)">
<path opacity="0.987" fill-rule="evenodd" clip-rule="evenodd" d="M1226.52 145.035C1227.06 144.941 1227.59 144.847 1228.12 144.752C1249.16 152.111 1261.52 166.917 1265.19 189.171C1266.36 197.623 1266.67 206.106 1266.1 214.622C1267.1 221.807 1268.63 228.882 1270.68 235.846C1270.82 237.658 1270.95 239.47 1271.09 241.282C1265.72 235.544 1260.22 229.903 1254.6 224.359C1247.35 216.154 1242.2 206.779 1239.15 196.236C1239.02 208.798 1243.17 219.817 1251.61 229.292C1257.23 234.945 1262.68 240.78 1267.93 246.796C1270.31 250.648 1272.23 254.717 1273.67 259.003C1273.84 259.8 1273.58 260.397 1272.89 260.794C1261.92 255.853 1252.19 249.122 1243.69 240.601C1234.81 232.176 1227.76 222.403 1222.52 211.282C1218.72 199.627 1217.53 187.719 1218.96 175.558C1220.96 167.995 1223.12 160.455 1225.44 152.937C1225.97 150.313 1226.33 147.679 1226.52 145.035Z" fill="#69BD44"/>
</g>
<g filter="url(#filter2_d_386_17)">
<path opacity="0.987" fill-rule="evenodd" clip-rule="evenodd" d="M1321.59 160.841C1321.14 160.747 1320.7 160.652 1320.26 160.558C1302.51 166.06 1291.78 178.024 1288.06 196.452C1286.83 203.456 1286.33 210.513 1286.54 217.622C1285.5 223.578 1284.02 229.425 1282.1 235.165C1281.93 236.67 1281.76 238.175 1281.59 239.68C1286.24 235.061 1290.99 230.526 1295.84 226.076C1302.12 219.458 1306.68 211.803 1309.54 203.111C1309.28 213.579 1305.49 222.633 1298.18 230.274C1293.32 234.815 1288.62 239.513 1284.06 244.367C1281.96 247.504 1280.25 250.836 1278.92 254.364C1278.75 255.023 1278.95 255.527 1279.52 255.879C1288.8 252.09 1297.11 246.773 1304.44 239.93C1312.08 233.177 1318.25 225.247 1322.94 216.14C1326.46 206.545 1327.8 196.662 1326.97 186.49C1325.53 180.131 1323.96 173.786 1322.25 167.455C1321.89 165.254 1321.67 163.049 1321.59 160.841Z" fill="#69BD44"/>
</g>
<g filter="url(#filter3_d_386_17)">
<path opacity="0.987" fill-rule="evenodd" clip-rule="evenodd" d="M1464.77 109.298C1463.93 108.742 1463.09 108.186 1462.25 107.629C1420.91 104.621 1388.88 120.744 1366.16 155.997C1357.9 169.547 1351.1 183.795 1345.77 198.741C1338.75 210.263 1330.92 221.205 1322.26 231.566C1320.69 234.556 1319.11 237.547 1317.54 240.537C1330.95 234.721 1344.5 229.164 1358.2 223.866C1376.63 215.227 1392.35 203.041 1405.35 187.308C1396.29 208.842 1381.06 224.57 1359.65 234.49C1345.87 239.975 1332.27 245.905 1318.85 252.281C1311.94 257.091 1305.66 262.618 1300.03 268.862C1299.15 270.098 1299.16 271.31 1300.04 272.499C1322.41 272.18 1343.99 267.896 1364.8 259.646C1386.17 251.836 1405.44 240.382 1422.6 225.282C1437.7 208.209 1448.54 188.77 1455.09 166.963C1457.28 152.585 1459.18 138.124 1460.78 123.581C1461.82 118.713 1463.15 113.952 1464.77 109.298Z" fill="#69BD44"/>
</g>
<defs>
<filter id="filter0_d_386_17" x="966.186" y="46.2178" width="286.33" height="230.744" filterUnits="userSpaceOnUse" color-interpolation-filters="sRGB">
<feFlood flood-opacity="0" result="BackgroundImageFix"/>
<feColorMatrix in="SourceAlpha" type="matrix" values="0 0 0 0 0 0 0 0 0 0 0 0 0 0 0 0 0 0 127 0" result="hardAlpha"/>
<feOffset dx="5" dy="-5"/>
<feComposite in2="hardAlpha" operator="out"/>
<feColorMatrix type="matrix" values="0 0 0 0 0.889031 0 0 0 0 0.954167 0 0 0 0 0.86034 0 0 0 0.7 0"/>
<feBlend mode="normal" in2="BackgroundImageFix" result="effect1_dropShadow_386_17"/>
<feBlend mode="normal" in="SourceGraphic" in2="effect1_dropShadow_386_17" result="shape"/>
</filter>
<filter id="filter1_d_386_17" x="1218.38" y="139.752" width="60.3457" height="121.042" filterUnits="userSpaceOnUse" color-interpolation-filters="sRGB">
<feFlood flood-opacity="0" result="BackgroundImageFix"/>
<feColorMatrix in="SourceAlpha" type="matrix" values="0 0 0 0 0 0 0 0 0 0 0 0 0 0 0 0 0 0 127 0" result="hardAlpha"/>
<feOffset dx="5" dy="-5"/>
<feComposite in2="hardAlpha" operator="out"/>
<feColorMatrix type="matrix" values="0 0 0 0 0.889031 0 0 0 0 0.954167 0 0 0 0 0.86034 0 0 0 0.7 0"/>
<feBlend mode="normal" in2="BackgroundImageFix" result="effect1_dropShadow_386_17"/>
<feBlend mode="normal" in="SourceGraphic" in2="effect1_dropShadow_386_17" result="shape"/>
</filter>
<filter id="filter2_d_386_17" x="1278.86" y="155.558" width="53.3477" height="100.321" filterUnits="userSpaceOnUse" color-interpolation-filters="sRGB">
<feFlood flood-opacity="0" result="BackgroundImageFix"/>
<feColorMatrix in="SourceAlpha" type="matrix" values="0 0 0 0 0 0 0 0 0 0 0 0 0 0 0 0 0 0 127 0" result="hardAlpha"/>
<feOffset dx="5" dy="-5"/>
<feComposite in2="hardAlpha" operator="out"/>
<feColorMatrix type="matrix" values="0 0 0 0 0.889031 0 0 0 0 0.954167 0 0 0 0 0.86034 0 0 0 0.7 0"/>
<feBlend mode="normal" in2="BackgroundImageFix" result="effect1_dropShadow_386_17"/>
<feBlend mode="normal" in="SourceGraphic" in2="effect1_dropShadow_386_17" result="shape"/>
</filter>
<filter id="filter3_d_386_17" x="1299.38" y="102.275" width="170.396" height="170.224" filterUnits="userSpaceOnUse" color-interpolation-filters="sRGB">
<feFlood flood-opacity="0" result="BackgroundImageFix"/>
<feColorMatrix in="SourceAlpha" type="matrix" values="0 0 0 0 0 0 0 0 0 0 0 0 0 0 0 0 0 0 127 0" result="hardAlpha"/>
<feOffset dx="5" dy="-5"/>
<feComposite in2="hardAlpha" operator="out"/>
<feColorMatrix type="matrix" values="0 0 0 0 0.889031 0 0 0 0 0.954167 0 0 0 0 0.86034 0 0 0 0.7 0"/>
<feBlend mode="normal" in2="BackgroundImageFix" result="effect1_dropShadow_386_17"/>
<feBlend mode="normal" in="SourceGraphic" in2="effect1_dropShadow_386_17" result="shape"/>
</filter>
</defs>
</svg>
