<svg width="46" height="45" viewBox="0 0 46 45" fill="none" xmlns="http://www.w3.org/2000/svg">
<path opacity="0.987" fill-rule="evenodd" clip-rule="evenodd" d="M8.95868 6.77664C9.1049 6.68677 9.25112 6.59691 9.39735 6.50704C16.4416 6.23051 21.7998 9.15811 25.4721 15.2898C26.8023 17.6439 27.8804 20.1084 28.7067 22.6834C29.8368 24.6851 31.11 26.5928 32.526 28.4062C32.7773 28.9242 33.0285 29.4424 33.2798 29.9604C31.0315 28.8937 28.7573 27.8704 26.4574 26.8903C23.3703 25.3144 20.7641 23.15 18.6391 20.3972C20.0626 24.1152 22.5675 26.8798 26.1538 28.6909C28.467 29.7032 30.7467 30.7903 32.9931 31.9524C34.1422 32.8108 35.1791 33.7876 36.1036 34.8828C36.2455 35.0982 36.2381 35.3045 36.0812 35.5019C32.2804 35.3201 28.634 34.4676 25.1418 32.9444C21.5503 31.493 18.3367 29.4329 15.5013 26.7642C13.0254 23.7713 11.289 20.3999 10.2925 16.6498C9.99809 14.1894 9.75426 11.7164 9.56068 9.2312C9.41048 8.39646 9.20987 7.57837 8.95868 6.77664Z" fill="#69BD44"/>
<path opacity="0.987" fill-rule="evenodd" clip-rule="evenodd" d="M38.5338 13.5354C38.6288 13.5544 38.7239 13.5734 38.8189 13.5924C41.8398 16.1843 42.932 19.4541 42.0958 23.402C41.7418 24.887 41.2411 26.3209 40.5937 27.7038C40.2923 28.9662 40.0862 30.2446 39.9754 31.539C39.8804 31.8498 39.7852 32.1608 39.6902 32.4716C39.1697 31.1665 38.6219 29.8694 38.0468 28.5803C37.3749 26.7423 37.1281 24.8455 37.3065 22.8901C36.467 24.9753 36.4414 27.0815 37.2294 29.2087C37.7976 30.5162 38.3232 31.8418 38.8063 33.1857C38.9519 33.9823 39.0057 34.7848 38.9675 35.5931C38.9434 35.7368 38.8611 35.8193 38.7203 35.8407C37.2176 34.3053 36.0363 32.5517 35.1766 30.5798C34.2482 28.5995 33.71 26.5125 33.5621 24.319C33.6874 22.1295 34.2642 20.0674 35.2926 18.133C36.116 17.0018 36.9652 15.885 37.8399 14.7823C38.0984 14.3792 38.3297 13.9637 38.5338 13.5354Z" fill="#69BD44"/>
</svg>
