<svg width="99" height="91" viewBox="0 0 99 91" fill="none" xmlns="http://www.w3.org/2000/svg">
<g clip-path="url(#clip0_200_457)">
<path opacity="0.982" fill-rule="evenodd" clip-rule="evenodd" d="M45.2416 -0.115234C48.158 -0.115234 51.0741 -0.115234 53.9905 -0.115234C69.0394 1.90398 80.5895 9.35291 88.6405 22.2316C89.1346 23.1395 89.5566 24.061 89.9067 24.9962C82.1115 23.7668 74.3221 23.6901 66.5381 24.7658C65.3188 24.3274 64.2061 23.6747 63.1998 22.8075C54.9563 18.202 46.5144 17.818 37.8742 21.6557C30.1662 25.8748 25.408 32.287 23.5998 40.8924C16.21 40.9447 9.8402 43.4788 4.49047 48.4949C3.57757 32.7007 9.17989 19.7611 21.2974 9.6759C28.3451 4.13794 36.3266 0.874242 45.2416 -0.115234ZM50.7672 3.11008C52.3065 3.11635 53.8413 3.19313 55.3719 3.34046C55.3719 3.80122 55.3719 4.26198 55.3719 4.72274C53.8369 4.64595 52.3022 4.56915 50.7672 4.49236C50.7672 4.0316 50.7672 3.57084 50.7672 3.11008ZM50.7672 4.95312C52.2317 4.97678 53.6898 5.09197 55.1416 5.29869C55.2468 5.39407 55.3237 5.50926 55.3719 5.64426C55.2259 8.56004 55.0341 11.4782 54.7963 14.3987C54.5884 14.6755 54.3199 14.8675 53.9905 14.9746C52.7649 15.0897 51.5371 15.1281 50.3067 15.0898C50.3067 14.6291 50.3067 14.1683 50.3067 13.7075C50.6111 13.7467 50.8798 13.6699 51.1126 13.4772C51.2001 10.6259 51.0849 7.78453 50.7672 4.95312ZM44.5509 5.1835C46.1338 5.01288 47.5536 5.39685 48.8102 6.3354C49.424 8.82603 49.7694 11.3602 49.8463 13.9379C48.9569 13.9292 48.0744 14.0059 47.1986 14.1683C46.6794 14.1431 46.2956 13.9127 46.0474 13.4772C45.6761 14.0017 45.1772 14.3473 44.5509 14.5139C43.5379 14.7391 42.5785 14.6239 41.673 14.1683C41.201 13.2925 40.9708 12.371 40.9823 11.4038C42.256 10.3825 43.6374 9.53781 45.1265 8.86958C45.261 8.23449 45.1841 7.62013 44.8963 7.02654C44.5841 6.82376 44.2387 6.74697 43.8602 6.79616C43.945 7.63064 43.945 8.43697 43.8602 9.21515C42.6824 9.37544 41.5312 9.64423 40.4067 10.0215C40.2474 9.90046 40.1323 9.74688 40.0614 9.56071C39.6143 8.08866 40.0363 6.97514 41.3277 6.22021C42.3835 5.72752 43.458 5.38195 44.5509 5.1835ZM58.8254 6.56578C61.7408 6.3735 64.3116 7.21824 66.5381 9.09995C67.0672 9.95641 67.2208 10.8779 66.9986 11.8645C66.4753 13.6157 65.8997 15.3435 65.2719 17.0481C64.0809 16.8556 62.9297 16.4716 61.8184 15.8962C61.7661 15.6346 61.6894 15.3658 61.5881 15.0898C60.0479 15.4976 58.6665 15.1904 57.444 14.1683C56.8306 13.0908 56.8306 12.0157 57.444 10.943C59.121 10.7587 60.8093 10.6435 62.5091 10.5974C62.9343 10.0033 63.0494 9.35052 62.8544 8.6392C62.5105 8.35187 62.1651 8.35187 61.8184 8.6392C61.6597 9.08705 61.5446 9.54781 61.473 10.0215C61.3061 10.1501 61.1143 10.2269 60.8974 10.2519C59.7424 9.92082 58.5912 9.57525 57.444 9.21515C57.2034 7.96893 57.6638 7.08581 58.8254 6.56578ZM30.5067 7.71768C30.7773 7.66722 31.0075 7.74401 31.1974 7.94806C31.3968 8.64627 31.7422 9.2606 32.2335 9.79109C35.0614 6.64427 37.1335 7.02824 38.4498 10.943C39.059 12.5379 39.5194 14.1505 39.8312 15.781C38.8955 16.119 37.9746 16.5029 37.0684 16.9329C35.8792 14.8604 34.805 12.7102 33.8451 10.4822C33.6036 10.2479 33.3349 10.2095 33.0393 10.367C32.7916 10.7647 32.7531 11.1871 32.9242 11.6341C33.8836 13.554 34.8427 15.4738 35.8021 17.3936C34.9208 18.2171 33.9232 18.793 32.8091 19.1215C30.8724 16.1851 29.0305 13.1902 27.2835 10.1367C27.3431 9.84609 27.4967 9.61571 27.744 9.44552C28.7183 8.9215 29.6392 8.34555 30.5067 7.71768ZM25.4416 13.9379C26.0603 13.9001 26.6743 13.9385 27.2835 14.0531C28.9393 15.946 30.3974 17.981 31.6579 20.1582C30.8153 20.9624 29.9325 21.7303 29.0102 22.462C28.8567 22.3084 28.7033 22.1548 28.5498 22.0012C28.0964 23.645 27.0604 24.7202 25.4416 25.2265C23.7879 24.7584 23.1356 23.6832 23.4847 22.0012C23.9299 21.0199 24.4673 20.0984 25.0963 19.2367C25.3244 18.788 25.4013 18.3273 25.3265 17.8544C24.9427 17.4704 24.5591 17.0865 24.1754 16.7025C23.83 16.8945 23.5613 17.1632 23.3695 17.5088C23.7439 18.1142 24.2044 18.6517 24.7509 19.1215C23.8793 20.1866 22.9584 21.2233 21.9881 22.2316C20.7463 21.4854 20.3242 20.4103 20.7219 19.0063C21.1626 17.8923 21.7766 16.894 22.5637 16.0113C23.4363 15.1731 24.3957 14.482 25.4416 13.9379ZM16.923 21.3101C17.7734 21.3903 18.4641 21.7743 18.9951 22.462C18.144 23.6595 17.3382 24.8881 16.5777 26.1481C15.4335 25.2047 15.0114 25.4735 15.3114 26.9544C15.6184 27.108 15.9254 27.108 16.2323 26.9544C17.6982 25.7578 19.3098 24.7978 21.0672 24.0746C23.8926 24.9457 24.6218 26.712 23.2544 29.3734C22.4845 31.2143 21.3717 32.7885 19.916 34.0962C18.8958 34.3523 18.0516 34.0837 17.3835 33.2898C17.8961 32.0333 18.4717 30.8047 19.1102 29.6038C20.0722 30.6379 20.8013 30.5227 21.2974 29.2582C20.8808 28.2132 20.1901 27.9828 19.2254 28.567C17.9975 29.5653 16.7695 30.5637 15.5416 31.562C13.1362 31.9195 12.1001 30.8828 12.4335 28.4519C13.0077 25.4532 14.5042 23.0725 16.923 21.3101Z" fill="white"/>
<path opacity="0.903" fill-rule="evenodd" clip-rule="evenodd" d="M45.4701 10.252C45.7434 10.768 45.8969 11.344 45.9306 11.9798C45.9704 13.0155 45.625 13.2074 44.8945 12.5557C44.3461 11.5852 44.5381 10.8173 45.4701 10.252Z" fill="white"/>
<path opacity="0.932" fill-rule="evenodd" clip-rule="evenodd" d="M61.3568 12.0949C61.748 12.058 62.1318 12.0964 62.508 12.2101C62.3169 12.8555 62.1251 13.5082 61.9324 14.1683C61.2115 14.552 60.8662 14.3216 60.8963 13.4771C60.9219 12.967 61.0755 12.5063 61.3568 12.0949Z" fill="white"/>
<path opacity="0.931" fill-rule="evenodd" clip-rule="evenodd" d="M26.3614 19.467C27.2133 20.0215 27.6355 20.7894 27.6277 21.7708C26.9681 21.8954 26.5076 21.5882 26.2463 20.8493C26.0902 20.3661 26.1286 19.9053 26.3614 19.467Z" fill="white"/>
<path opacity="0.987" fill-rule="evenodd" clip-rule="evenodd" d="M98.8844 33.2898C98.8844 33.5202 98.8844 33.7505 98.8844 33.9809C94.2595 42.231 87.1607 46.3009 77.5879 46.191C73.9686 46.0576 70.4 45.5584 66.882 44.6936C63.8052 44.5791 60.7353 44.6943 57.6727 45.0391C56.9054 44.9624 56.1378 44.8855 55.3704 44.8088C58.1645 42.9874 60.9273 41.1059 63.6588 39.1645C67.6222 36.7418 71.92 35.2826 76.5518 34.7872C71.3106 33.8019 66.399 34.7234 61.8169 37.5518C59.0394 39.4856 56.1999 41.3286 53.2983 43.0809C51.5129 43.7916 49.671 44.2909 47.7727 44.5784C47.4274 44.5892 47.1971 44.4358 47.082 44.1176C49.9551 39.8989 53.4853 36.328 57.6727 33.405C61.848 30.3179 66.4527 28.0908 71.4867 26.724C76.6386 25.996 81.7037 26.3798 86.682 27.8759C89.6962 29.2685 92.6893 30.7277 95.6611 32.2531C96.719 32.668 97.7933 33.0135 98.8844 33.2898Z" fill="white"/>
<path opacity="0.981" fill-rule="evenodd" clip-rule="evenodd" d="M54.2191 90.8848C50.9958 90.8848 47.7726 90.8848 44.5493 90.8848C31.1509 89.0385 20.4451 82.6646 12.4319 71.7633C11.1561 69.9403 9.96651 68.0588 8.86328 66.119C8.98422 65.9595 9.1377 65.8444 9.32375 65.7734C15.0272 66.8421 20.783 67.1877 26.5912 66.8101C28.6833 66.6841 30.7554 66.4155 32.8075 66.0038C40.8923 72.036 49.718 73.3799 59.2842 70.0354C68.0358 66.0031 73.4078 59.2836 75.4005 49.8772C82.8826 49.9813 89.2906 47.4471 94.6249 42.2747C95.3826 59.9946 88.5141 73.8558 74.0191 83.8582C67.9373 87.6913 61.3372 90.0335 54.2191 90.8848ZM78.3935 57.9405C78.8687 57.9836 79.3292 58.0988 79.7749 58.2861C82.0772 59.5916 84.3796 60.8969 86.6819 62.2025C86.0768 63.298 85.5012 64.4114 84.9551 65.543C84.826 65.6633 84.6724 65.74 84.4947 65.7734C82.2916 64.3444 80.1044 62.8851 77.933 61.3962C77.3333 61.7961 77.3333 62.2184 77.933 62.6633C79.951 63.9995 81.908 65.42 83.804 66.9253C83.4368 68.2677 82.7076 69.4196 81.6168 70.381C79.6124 68.5283 77.5403 66.7622 75.4005 65.0823C74.99 65.2776 74.8749 65.5847 75.0551 66.0038C77.0529 67.8111 79.0098 69.6541 80.9261 71.5329C80.1615 72.6046 79.3174 73.6029 78.3935 74.5278C76.1335 71.9973 73.8312 69.5016 71.4865 67.0405C72.0149 66.2809 72.6289 65.5898 73.3284 64.9671C73.624 64.8095 73.8927 64.848 74.1342 65.0823C74.105 63.2067 74.9874 62.1316 76.7819 61.8569C76.3741 60.1413 76.9113 58.8357 78.3935 57.9405ZM70.1051 68.9987C70.8769 69.0641 71.5676 69.3328 72.1772 69.805C73.7458 71.7513 75.3959 73.6328 77.1272 75.4494C77.2808 75.603 77.2808 75.7564 77.1272 75.9101C76.2489 76.733 75.328 77.5009 74.3644 78.2139C73.8034 77.6036 73.4965 77.7571 73.4435 78.6747C71.0148 81.1685 69.288 80.7462 68.2633 77.4076C68.9791 76.0375 69.7467 74.6935 70.5656 73.3759C70.3236 72.3659 69.7098 71.7515 68.7237 71.5329C68.8835 72.4291 69.2671 73.2354 69.8749 73.9519C69.0571 74.6935 68.1746 75.3461 67.2272 75.9101C65.4818 73.2891 65.9808 71.1772 68.7237 69.5747C69.2098 69.38 69.6702 69.1881 70.1051 68.9987ZM36.4912 72.4544C37.9437 72.9133 39.402 73.3741 40.8656 73.8367C41.1253 78.0708 41.3938 82.2946 41.6714 86.5076C40.4751 86.2562 39.2855 85.9491 38.1028 85.5861C38.0839 84.9334 38.0457 84.2423 37.9877 83.5126C37.0442 83.1519 36.0848 82.8448 35.1098 82.5911C35.032 83.1334 34.9169 83.6709 34.7644 84.2038C34.6353 84.324 34.4817 84.4008 34.304 84.4342C33.0987 84.0421 31.986 83.5046 30.9656 82.8215C33.1063 79.5363 34.9482 76.0806 36.4912 72.4544ZM63.8889 72.9152C64.0905 72.885 64.2441 72.9617 64.3493 73.1456C64.7225 74.0081 65.183 74.8144 65.7307 75.5645C65.3854 75.9101 65.04 76.2557 64.6947 76.6012C64.5411 77.062 64.5411 77.5228 64.6947 77.9835C65.53 79.6169 66.3358 81.2681 67.1121 82.9367C65.9552 83.6313 64.7274 84.1305 63.4284 84.4342C62.3477 81.3056 61.1965 78.1955 59.9749 75.1038C60.0083 74.9259 60.085 74.7723 60.2051 74.643C60.9999 74.3606 61.7673 74.015 62.5075 73.6063C62.7377 73.9134 62.9679 74.2207 63.1982 74.5278C63.3437 73.9378 63.5739 73.4001 63.8889 72.9152ZM43.3982 74.2975C44.3113 74.45 45.2322 74.5267 46.161 74.5278C46.0935 75.4348 46.1702 76.3179 46.3912 77.1772C47.2023 76.9279 48.0466 76.8512 48.9237 76.9468C49.4185 77.2122 49.8405 77.5578 50.19 77.9835C50.7028 80.8087 51.1248 83.6502 51.4563 86.5076C51.3831 86.7718 51.2298 86.964 50.9958 87.0835C49.8472 87.1985 48.696 87.237 47.5423 87.1987C47.4673 84.3563 47.3522 81.515 47.197 78.6747C46.9642 78.4818 46.6956 78.4051 46.3912 78.4443C46.1748 81.277 46.0981 84.1183 46.161 86.9683C45.0015 86.9481 43.8503 86.8329 42.7075 86.6228C42.4938 86.5334 42.3402 86.3797 42.247 86.162C42.6377 82.2073 43.0215 78.2526 43.3982 74.2975ZM55.8307 75.9101C57.1725 75.679 58.2852 76.0631 59.1691 77.062C60.2196 79.6015 61.179 82.1741 62.047 84.7797C61.9538 84.9974 61.8002 85.1511 61.5865 85.2405C60.6272 85.5093 59.668 85.778 58.7086 86.0468C58.4275 85.869 58.1973 85.6386 58.0179 85.3557C56.7804 86.6633 55.3608 86.9319 53.7586 86.162C53.1103 85.147 52.8418 84.0335 52.9528 82.8215C53.0599 82.4918 53.2519 82.2232 53.5284 82.0152C54.6227 81.4489 55.6587 80.796 56.6365 80.0569C56.6807 79.2748 56.489 78.5452 56.061 77.8683C55.6067 77.7444 55.3765 77.9365 55.3703 78.4443C55.5609 79.1306 55.7145 79.8217 55.8307 80.5177C54.7737 80.5873 53.7377 80.7409 52.7226 80.9785C51.8145 78.1132 52.8506 76.4236 55.8307 75.9101Z" fill="white"/>
<path opacity="0.985" fill-rule="evenodd" clip-rule="evenodd" d="M-0.115234 57.4798C-0.115234 57.4031 -0.115234 57.3261 -0.115234 57.2494C3.03078 51.1492 7.9424 47.1943 14.6196 45.3849C17.9763 44.8428 21.3531 44.6893 24.7499 44.9241C27.7807 45.436 30.8119 45.935 33.8441 46.4216C36.4526 46.2181 39.0618 45.9878 41.672 45.7304C42.3063 45.7362 42.9203 45.8131 43.5138 45.9608C43.6722 46.1525 43.6338 46.3059 43.3987 46.4216C40.4029 48.0768 37.5635 49.9583 34.8801 52.0659C31.0071 54.2791 26.863 55.6614 22.4476 56.2127C27.8258 57.1517 32.8142 56.1535 37.4127 53.2178C39.8826 51.4378 42.4152 49.7485 45.0103 48.1494C47.2056 47.1224 49.5079 46.5464 51.9173 46.4216C51.7009 47.162 51.3556 47.8531 50.8813 48.495C45.5053 54.947 38.9437 59.8232 31.1964 63.1241C24.5569 65.189 17.957 65.0353 11.3964 62.6633C7.69428 60.6187 3.85706 58.8909 -0.115234 57.4798Z" fill="white"/>
<path opacity="0.926" fill-rule="evenodd" clip-rule="evenodd" d="M71.4874 74.7583C72.4634 75.3303 72.9623 76.1751 72.9839 77.2925C72.8886 77.3978 72.7735 77.4747 72.6386 77.5229C71.6062 76.8426 71.2224 75.921 71.4874 74.7583Z" fill="white"/>
<path opacity="0.922" fill-rule="evenodd" clip-rule="evenodd" d="M38.1036 75.6797C38.3635 77.4868 38.3635 79.3298 38.1036 81.2088C37.3701 81.2464 36.756 81.016 36.2617 80.5177C36.9685 78.9329 37.5823 77.3202 38.1036 75.6797Z" fill="white"/>
<path opacity="0.9" fill-rule="evenodd" clip-rule="evenodd" d="M56.9828 81.6697C57.1249 81.6952 57.24 81.772 57.3282 81.9001C57.502 82.6345 57.694 83.3641 57.9037 84.0887C57.7661 84.3884 57.5358 84.5805 57.213 84.6646C56.407 83.736 56.3303 82.7377 56.9828 81.6697Z" fill="white"/>
</g>
<defs>
<clipPath id="clip0_200_457">
<rect width="99" height="91" fill="white"/>
</clipPath>
</defs>
</svg>
