<svg width="98" height="90" viewBox="0 0 98 90" fill="none" xmlns="http://www.w3.org/2000/svg">
<g clip-path="url(#clip0_183_12)">
<path opacity="0.982" fill-rule="evenodd" clip-rule="evenodd" d="M44.7841 -0.114014C47.671 -0.114014 50.5577 -0.114014 53.4446 -0.114014C68.3415 1.88301 79.7749 9.25009 87.7446 21.9873C88.2337 22.8852 88.6514 23.7966 88.9981 24.7214C81.2816 23.5056 73.5708 23.4298 65.8655 24.4936C64.6585 24.06 63.557 23.4145 62.5609 22.5569C54.4006 18.0019 46.044 17.6222 37.4911 21.4176C29.861 25.5904 25.1508 31.9321 23.3609 40.443C16.0457 40.4947 9.74027 43.001 4.44457 47.9619C3.5409 32.3414 9.08663 19.5439 21.0818 9.56953C28.0582 4.09243 35.9591 0.864589 44.7841 -0.114014ZM50.2539 3.07586C51.7777 3.08206 53.2969 3.158 54.812 3.30371C54.812 3.7594 54.812 4.2151 54.812 4.6708C53.2926 4.59485 51.7733 4.51889 50.2539 4.44295C50.2539 3.98725 50.2539 3.53156 50.2539 3.07586ZM50.2539 4.89864C51.7036 4.92204 53.1469 5.03597 54.5841 5.24042C54.6883 5.33475 54.7644 5.44867 54.812 5.58219C54.6675 8.46593 54.4777 11.352 54.2422 14.2404C54.0364 14.5142 53.7707 14.704 53.4446 14.81C52.2314 14.9238 51.016 14.9618 49.7981 14.924C49.7981 14.4683 49.7981 14.0126 49.7981 13.5569C50.0994 13.5956 50.3653 13.5196 50.5957 13.329C50.6823 10.5091 50.5684 7.69894 50.2539 4.89864ZM44.1004 5.12649C45.6672 4.95775 47.0728 5.3375 48.3167 6.26573C48.9243 8.729 49.2661 11.2353 49.3422 13.7847C48.4618 13.776 47.5883 13.852 46.7213 14.0126C46.2074 13.9876 45.8275 13.7598 45.5818 13.329C45.2142 13.8478 44.7203 14.1896 44.1004 14.3543C43.0976 14.5771 42.1479 14.4632 41.2516 14.0126C40.7843 13.1464 40.5564 12.235 40.5678 11.2784C41.8286 10.2684 43.1961 9.43296 44.6702 8.77206C44.8033 8.14395 44.7271 7.53635 44.4422 6.94928C44.1332 6.74873 43.7913 6.67278 43.4167 6.72143C43.5005 7.54674 43.5005 8.34421 43.4167 9.11384C42.2507 9.27237 41.1112 9.5382 39.9981 9.9113C39.8404 9.79161 39.7264 9.63973 39.6562 9.45561C39.2136 7.99973 39.6314 6.89845 40.9097 6.15181C41.9549 5.66453 43.0185 5.32276 44.1004 5.12649ZM58.2306 6.49358C61.1166 6.30342 63.6614 7.13887 65.8655 8.99991C66.3892 9.84696 66.5412 10.7584 66.3213 11.7341C65.8033 13.466 65.2335 15.1748 64.612 16.8607C63.4331 16.6703 62.2935 16.2906 61.1934 15.7214C61.1417 15.4628 61.0658 15.1969 60.9655 14.924C59.4408 15.3273 58.0734 15.0235 56.8632 14.0126C56.256 12.9469 56.256 11.8836 56.8632 10.8227C58.5233 10.6405 60.1945 10.5265 61.8771 10.4809C62.2981 9.89328 62.412 9.24772 62.219 8.54421C61.8785 8.26004 61.5366 8.26004 61.1934 8.54421C61.0364 8.98715 60.9224 9.44285 60.8516 9.9113C60.6863 10.0386 60.4965 10.1145 60.2818 10.1392C59.1384 9.81176 57.9988 9.46998 56.8632 9.11384C56.625 7.88131 57.0808 7.0079 58.2306 6.49358ZM30.1981 7.63282C30.4659 7.58292 30.6938 7.65886 30.8818 7.86067C31.0792 8.55121 31.421 9.15879 31.9074 9.68346C34.7067 6.57121 36.7579 6.95096 38.0609 10.8227C38.6639 12.4001 39.1197 13.995 39.4283 15.6075C38.5021 15.9418 37.5905 16.3215 36.6934 16.7467C35.5163 14.6971 34.4529 12.5705 33.5027 10.367C33.2636 10.1353 32.9977 10.0973 32.705 10.2531C32.4598 10.6464 32.4218 11.0641 32.5911 11.5062C33.5408 13.405 34.4902 15.3037 35.4399 17.2024C34.5675 18.0169 33.58 18.5865 32.4771 18.9113C30.56 16.0072 28.7367 13.0452 27.0074 10.0252C27.0664 9.73784 27.2184 9.50999 27.4632 9.34168C28.4277 8.82342 29.3393 8.2538 30.1981 7.63282ZM25.1841 13.7847C25.7965 13.7473 26.4043 13.7853 27.0074 13.8986C28.6465 15.7707 30.0898 17.7834 31.3376 19.9366C30.5035 20.732 29.6297 21.4915 28.7167 22.2151C28.5647 22.0632 28.4129 21.9113 28.2609 21.7594C27.8121 23.3851 26.7865 24.4485 25.1841 24.9493C23.5471 24.4863 22.9014 23.4229 23.2469 21.7594C23.6877 20.7889 24.2196 19.8775 24.8422 19.0252C25.0681 18.5815 25.1442 18.1258 25.0702 17.6581C24.6902 17.2784 24.3105 16.8987 23.9306 16.5189C23.5888 16.7088 23.3228 16.9746 23.1329 17.3164C23.5035 17.9151 23.9593 18.4467 24.5004 18.9113C23.6375 19.9647 22.726 20.99 21.7655 21.9873C20.5362 21.2493 20.1184 20.186 20.512 18.7974C20.9483 17.6957 21.5561 16.7083 22.3353 15.8354C23.199 15.0064 24.1487 14.3228 25.1841 13.7847ZM16.7516 21.0759C17.5933 21.1552 18.2771 21.535 18.8027 22.2151C17.9602 23.3995 17.1626 24.6146 16.4097 25.8607C15.277 24.9276 14.8592 25.1935 15.1562 26.6581C15.4601 26.8101 15.764 26.8101 16.0678 26.6581C17.5189 25.4747 19.1142 24.5253 20.8539 23.81C23.6508 24.6715 24.3725 26.4184 23.019 29.0505C22.2569 30.8713 21.1553 32.4282 19.7143 33.7214C18.7044 33.9748 17.8688 33.7091 17.2074 32.924C17.7148 31.6813 18.2846 30.4662 18.9167 29.2784C19.8689 30.3012 20.5906 30.1873 21.0818 28.9366C20.6693 27.9031 19.9856 27.6753 19.0306 28.2531C17.8151 29.2403 16.5996 30.2278 15.3841 31.2151C13.003 31.5687 11.9774 30.5434 12.3074 28.1392C12.8758 25.1735 14.3572 22.8189 16.7516 21.0759Z" fill="#69BD44"/>
<path opacity="0.903" fill-rule="evenodd" clip-rule="evenodd" d="M45.012 10.1392C45.2825 10.6496 45.4345 11.2192 45.4678 11.848C45.5072 12.8723 45.1654 13.0622 44.4422 12.4176C43.8993 11.4578 44.0894 10.6983 45.012 10.1392Z" fill="#69BD44"/>
<path opacity="0.932" fill-rule="evenodd" clip-rule="evenodd" d="M60.7369 11.9621C61.1241 11.9256 61.504 11.9636 61.8764 12.0761C61.6873 12.7144 61.4974 13.36 61.3067 14.0128C60.5931 14.3923 60.2512 14.1645 60.2811 13.3292C60.3064 12.8247 60.4584 12.369 60.7369 11.9621Z" fill="#69BD44"/>
<path opacity="0.931" fill-rule="evenodd" clip-rule="evenodd" d="M26.0956 19.2532C26.9389 19.8016 27.3569 20.561 27.3491 21.5317C26.6962 21.6548 26.2403 21.351 25.9817 20.6203C25.8272 20.1423 25.8652 19.6866 26.0956 19.2532Z" fill="#69BD44"/>
<path opacity="0.987" fill-rule="evenodd" clip-rule="evenodd" d="M97.8865 32.9241C97.8865 33.152 97.8865 33.3798 97.8865 33.6077C93.3083 41.7672 86.2812 45.7923 76.8051 45.6836C73.2224 45.5517 69.6898 45.058 66.2074 44.2026C63.1617 44.0894 60.1228 44.2033 57.0911 44.5444C56.3315 44.4685 55.5717 44.3924 54.8121 44.3165C57.578 42.5152 60.3128 40.6543 63.0167 38.7343C66.9401 36.3382 71.1945 34.895 75.7795 34.4052C70.5912 33.4306 65.7293 34.342 61.1935 37.1393C58.444 39.0519 55.6332 40.8747 52.7609 42.6077C50.9935 43.3106 49.1702 43.8043 47.2911 44.0887C46.9493 44.0994 46.7214 43.9477 46.6074 43.633C49.4515 39.4606 52.946 35.929 57.0911 33.0381C61.2242 29.9849 65.7824 27.7823 70.7656 26.4305C75.8654 25.7105 80.8794 26.0901 85.8074 27.5697C88.7912 28.9471 91.754 30.3902 94.6958 31.8988C95.743 32.3092 96.8064 32.651 97.8865 32.9241Z" fill="#69BD44"/>
<path opacity="0.981" fill-rule="evenodd" clip-rule="evenodd" d="M53.6731 89.886C50.4824 89.886 47.2917 89.886 44.101 89.886C30.8379 88.06 20.2403 81.7562 12.3079 70.9746C11.045 69.1717 9.86748 67.3108 8.77539 65.3923C8.89511 65.2347 9.04703 65.1207 9.2312 65.0506C14.877 66.1076 20.5747 66.4493 26.3242 66.0759C28.3952 65.9513 30.4464 65.6856 32.4777 65.2784C40.4809 71.2444 49.2175 72.5734 58.687 69.2658C67.3502 65.2777 72.668 58.6321 74.6405 49.329C82.047 49.432 88.3904 46.9257 93.6707 41.8101C94.4208 59.3352 87.6216 73.0442 73.2731 82.9366C67.2527 86.7276 60.7193 89.0441 53.6731 89.886ZM77.6033 57.3037C78.0737 57.3463 78.5295 57.4603 78.9707 57.6455C81.2498 58.9367 83.5289 60.2277 85.8079 61.5189C85.209 62.6023 84.6392 63.7035 84.0986 64.8227C83.9708 64.9417 83.8188 65.0175 83.6428 65.0506C81.462 63.6372 79.2969 62.194 77.1475 60.7215C76.5538 61.117 76.5538 61.5346 77.1475 61.9746C79.1451 63.2961 81.0823 64.701 82.9591 66.1898C82.5956 67.5175 81.8738 68.6567 80.794 69.6075C78.8098 67.7752 76.7587 66.0285 74.6405 64.367C74.2341 64.5602 74.1202 64.864 74.2986 65.2784C76.2762 67.0659 78.2134 68.8887 80.1103 70.7468C79.3534 71.8067 78.5179 72.794 77.6033 73.7088C75.3662 71.2061 73.0871 68.7378 70.7661 66.3037C71.2891 65.5525 71.897 64.869 72.5893 64.2531C72.882 64.0972 73.1479 64.1353 73.387 64.367C73.3581 62.5121 74.2316 61.4487 76.0079 61.1771C75.6043 59.4804 76.136 58.1891 77.6033 57.3037ZM69.3986 68.2404C70.1626 68.3051 70.8463 68.5708 71.4498 69.0379C73.0025 70.9628 74.6359 72.8236 76.3498 74.6202C76.5018 74.7722 76.5018 74.9239 76.3498 75.0759C75.4803 75.8898 74.5687 76.6492 73.6149 77.3544C73.0595 76.7508 72.7557 76.9025 72.7033 77.8101C70.2991 80.2765 68.5898 79.8589 67.5754 76.5569C68.284 75.2019 69.0438 73.8726 69.8545 72.5696C69.6149 71.5707 69.0073 70.963 68.0312 70.7468C68.1894 71.6331 68.5691 72.4306 69.1707 73.1392C68.3612 73.8726 67.4876 74.5181 66.5498 75.0759C64.822 72.4837 65.3159 70.395 68.0312 68.8101C68.5123 68.6175 68.9681 68.4277 69.3986 68.2404ZM36.1242 71.6582C37.5621 72.112 39.0057 72.5677 40.4545 73.0252C40.7115 77.2129 40.9773 81.3902 41.2521 85.5569C40.0679 85.3083 38.8903 85.0046 37.7196 84.6455C37.7009 84 37.6631 83.3165 37.6056 82.5949C36.6717 82.2381 35.722 81.9343 34.7568 81.6835C34.6798 82.2198 34.5658 82.7514 34.4149 83.2784C34.2871 83.3974 34.1351 83.4732 33.9591 83.5063C32.766 83.1185 31.6645 82.5869 30.6545 81.9113C32.7735 78.6622 34.5968 75.2445 36.1242 71.6582ZM63.2452 72.1139C63.4448 72.084 63.5968 72.1599 63.701 72.3417C64.0704 73.1948 64.5262 73.9922 65.0684 74.7341C64.7266 75.0759 64.3847 75.4177 64.0428 75.7594C63.8908 76.2151 63.8908 76.6708 64.0428 77.1265C64.8697 78.742 65.6674 80.3749 66.4359 82.0252C65.2906 82.7122 64.0752 83.206 62.7893 83.5063C61.7195 80.4121 60.58 77.3361 59.3707 74.2784C59.4038 74.1025 59.4797 73.9505 59.5986 73.8227C60.3854 73.5434 61.145 73.2016 61.8777 72.7974C62.1056 73.1011 62.3335 73.4051 62.5614 73.7088C62.7055 73.1253 62.9334 72.5935 63.2452 72.1139ZM42.9614 73.4809C43.8653 73.6318 44.7769 73.7077 45.6963 73.7088C45.6295 74.6058 45.7054 75.4792 45.9242 76.329C46.7271 76.0825 47.5629 76.0066 48.4312 76.1012C48.921 76.3637 49.3387 76.7055 49.6847 77.1265C50.1922 79.9206 50.61 82.7309 50.9382 85.5569C50.8657 85.8182 50.7139 86.0083 50.4824 86.1265C49.3453 86.2402 48.2058 86.2783 47.0638 86.2404C46.9895 83.4292 46.8755 80.6192 46.7219 77.8101C46.4915 77.6194 46.2255 77.5435 45.9242 77.5822C45.71 80.3838 45.6341 83.1939 45.6963 86.0126C44.5486 85.9925 43.409 85.8786 42.2777 85.6708C42.0662 85.5824 41.9142 85.4304 41.8219 85.2151C42.2087 81.3039 42.5886 77.3926 42.9614 73.4809ZM55.2684 75.0759C56.5967 74.8474 57.6981 75.2272 58.5731 76.2151C59.613 78.7267 60.5627 81.2711 61.4219 83.848C61.3296 84.0634 61.1776 84.2153 60.9661 84.3037C60.0164 84.5696 59.0669 84.8353 58.1172 85.1012C57.839 84.9253 57.6111 84.6975 57.4335 84.4177C56.2085 85.7109 54.8033 85.9766 53.2173 85.2151C52.5755 84.2112 52.3097 83.11 52.4196 81.9113C52.5256 81.5853 52.7156 81.3196 52.9893 81.1139C54.0726 80.5538 55.0982 79.9081 56.0661 79.1772C56.1098 78.4036 55.92 77.682 55.4963 77.0126C55.0467 76.89 54.8188 77.08 54.8126 77.5822C55.0013 78.261 55.1533 78.9445 55.2684 79.6328C54.2221 79.7017 53.1965 79.8536 52.1917 80.0885C51.2928 77.2548 52.3184 75.5838 55.2684 75.0759Z" fill="#69BD44"/>
<path opacity="0.985" fill-rule="evenodd" clip-rule="evenodd" d="M-0.113281 56.8482C-0.113281 56.7723 -0.113281 56.6962 -0.113281 56.6204C3.00095 50.5872 7.86296 46.6757 14.4728 44.8862C17.7955 44.3501 21.1382 44.1983 24.5007 44.4305C27.5008 44.9368 30.5015 45.4303 33.503 45.9115C36.0852 45.7103 38.668 45.4825 41.2518 45.228C41.8797 45.2337 42.4875 45.3098 43.0751 45.4558C43.2319 45.6454 43.1938 45.7971 42.9611 45.9115C39.9956 47.5486 37.1848 49.4094 34.5286 51.4938C30.6947 53.6827 26.5924 55.0498 22.2216 55.5951C27.5455 56.5238 32.4836 55.5365 37.0356 52.633C39.4805 50.8727 41.9875 49.2019 44.5565 47.6204C46.7296 46.6046 49.0086 46.035 51.3937 45.9115C51.1795 46.6438 50.8376 47.3274 50.3681 47.9621C45.0465 54.3433 38.5511 59.1659 30.8821 62.4305C24.3097 64.4727 17.7764 64.3207 11.2821 61.9748C7.61735 59.9526 3.81889 58.2438 -0.113281 56.8482Z" fill="#69BD44"/>
<path opacity="0.926" fill-rule="evenodd" clip-rule="evenodd" d="M70.7659 73.9368C71.732 74.5025 72.2259 75.338 72.2473 76.4431C72.1529 76.5472 72.039 76.6233 71.9054 76.671C70.8835 75.9981 70.5036 75.0867 70.7659 73.9368Z" fill="#69BD44"/>
<path opacity="0.922" fill-rule="evenodd" clip-rule="evenodd" d="M37.7178 74.8481C37.9751 76.6354 37.9751 78.4582 37.7178 80.3165C36.9917 80.3536 36.3838 80.1258 35.8945 79.633C36.5942 78.0656 37.2018 76.4707 37.7178 74.8481Z" fill="#69BD44"/>
<path opacity="0.9" fill-rule="evenodd" clip-rule="evenodd" d="M56.4061 80.7722C56.5467 80.7975 56.6607 80.8734 56.748 81.0001C56.92 81.7264 57.1101 82.448 57.3177 83.1646C57.1815 83.4611 56.9535 83.6511 56.634 83.7342C55.8361 82.8158 55.7602 81.8285 56.4061 80.7722Z" fill="#69BD44"/>
</g>
<defs>
<clipPath id="clip0_183_12">
<rect width="98" height="90" fill="white"/>
</clipPath>
</defs>
</svg>
