<svg width="337" height="492" viewBox="0 0 337 492" fill="none" xmlns="http://www.w3.org/2000/svg">
<g opacity="0.13">
<path opacity="0.987" fill-rule="evenodd" clip-rule="evenodd" d="M187.448 469.254C185.641 469.631 183.835 470.008 182.028 470.385C109.737 447.631 66.165 398.635 51.308 323.395C46.4111 294.798 44.4664 266 45.4719 237C41.3176 212.687 35.3734 188.805 27.6401 165.357C26.9817 159.214 26.3247 153.07 25.6663 146.927C44.5374 165.853 63.8286 184.435 83.5381 202.673C109.045 229.783 127.545 261.092 139.034 296.598C138.155 253.889 122.864 216.887 93.1601 185.591C73.4345 166.979 54.3192 147.733 35.8135 127.851C27.3083 115.015 20.369 101.391 14.9974 86.9773C14.3454 84.2872 15.1705 82.2308 17.4765 80.8072C55.2769 96.4267 89.0761 118.259 118.874 146.306C149.939 173.989 174.964 206.447 193.949 243.68C208.118 282.884 213.425 323.227 209.867 364.711C203.895 390.626 197.367 416.483 190.285 442.283C188.768 451.257 187.823 460.246 187.448 469.254Z" fill="#E3F3DB"/>
<path opacity="0.987" fill-rule="evenodd" clip-rule="evenodd" d="M307.785 208.729C306.994 209.657 306.203 210.584 305.412 211.512C258.458 228.855 215.893 220.883 177.714 187.595C163.595 174.64 150.937 160.386 139.737 144.834C127.738 133.816 114.978 123.747 101.459 114.627C98.6318 111.685 95.8044 108.742 92.9771 105.8C110.484 108.055 128.072 109.96 145.739 111.516C170.021 115.362 192.341 124.234 212.696 138.132C194.97 116.183 172.024 103.04 143.858 98.7047C126.031 96.9596 108.267 94.6366 90.5641 91.7348C80.9327 88.4699 71.8003 84.16 63.1676 78.8043C61.7395 77.663 61.339 76.2554 61.9678 74.5796C88.0243 67.4543 114.503 65.1915 141.405 67.7919C168.821 69.6901 195.013 76.5237 219.981 88.2935C243.231 103.04 262.313 121.964 277.227 145.067C284.586 161.016 291.63 177.159 298.362 193.497C301.199 198.797 304.339 203.874 307.785 208.729Z" fill="#E3F3DB"/>
</g>
</svg>
