<svg width="330" height="487" viewBox="0 0 330 487" fill="none" xmlns="http://www.w3.org/2000/svg">
<g opacity="0.13">
<path opacity="0.987" fill-rule="evenodd" clip-rule="evenodd" d="M149.457 19.5988C151.269 19.249 153.081 18.8991 154.893 18.5492C226.832 42.3947 269.657 92.0448 283.374 167.501C287.838 196.168 289.347 224.993 287.903 253.974C291.689 278.347 297.271 302.316 304.648 325.879C305.214 332.031 305.778 338.185 306.343 344.336C287.76 325.127 268.753 306.255 249.321 287.721C224.228 260.228 206.204 228.643 195.252 192.967C195.485 235.685 210.215 272.914 239.442 304.656C258.884 323.564 277.706 343.097 295.908 363.257C304.218 376.22 310.951 389.948 316.104 404.441C316.715 407.14 315.859 409.184 313.531 410.573C275.972 394.383 242.507 372.042 213.136 343.547C182.494 315.397 157.962 282.564 139.543 245.048C125.97 205.635 121.274 165.215 125.459 123.79C131.822 97.9687 138.741 72.213 146.212 46.5236C147.864 37.5731 148.946 28.5994 149.457 19.5988Z" fill="#E3F3DB"/>
<path opacity="0.987" fill-rule="evenodd" clip-rule="evenodd" d="M25.1891 278.272C25.9941 277.357 26.799 276.442 27.6039 275.526C74.815 258.895 117.254 267.511 154.925 301.373C168.846 314.54 181.288 328.984 192.251 344.703C204.082 355.901 216.688 366.163 230.068 375.486C232.85 378.47 235.632 381.456 238.415 384.44C220.944 381.921 203.387 379.75 185.745 377.926C161.525 373.713 139.342 364.505 119.199 350.3C136.591 372.516 159.335 386.004 187.433 390.765C205.231 392.779 222.958 395.371 240.615 398.54C250.196 401.951 259.262 406.398 267.813 411.884C269.223 413.047 269.602 414.46 268.948 416.126C242.787 422.856 216.277 424.718 189.418 421.711C162.034 419.398 135.948 412.169 111.161 400.023C88.1368 384.927 69.3428 365.716 54.7801 342.389C47.6638 326.332 40.8643 310.083 34.3801 293.646C31.6243 288.304 28.5613 283.18 25.1891 278.272Z" fill="#E3F3DB"/>
</g>
</svg>
