<svg width="27" height="27" viewBox="0 0 27 27" fill="none" xmlns="http://www.w3.org/2000/svg">
<path opacity="0.983" fill-rule="evenodd" clip-rule="evenodd" d="M1.34557 0.817503C2.40041 0.808718 3.45509 0.817503 4.50963 0.843871C4.85521 0.981022 5.03978 1.23591 5.06334 1.60852C5.19156 2.75007 5.30582 3.89264 5.40612 5.03625C11.5409 5.02746 17.6757 5.03625 23.8104 5.06262C24.6322 5.30694 25.0716 5.86065 25.1288 6.72375C24.4337 10.0846 23.7218 13.442 22.993 16.796C22.6486 17.703 22.007 18.2743 21.0682 18.5099C16.3397 18.5451 11.6112 18.5451 6.88268 18.5099C5.85958 18.2427 5.20041 17.6011 4.90514 16.5851C4.39447 11.8924 3.8935 7.19905 3.40221 2.505C2.71644 2.51379 2.03089 2.505 1.34557 2.47864C0.8719 2.24275 0.704906 1.86482 0.844594 1.34485C0.951239 1.10649 1.11823 0.930708 1.34557 0.817503ZM5.61706 6.72375C11.5409 6.71495 17.4647 6.72375 23.3885 6.75012C22.6811 9.9357 21.9868 13.1261 21.3055 16.3214C21.1425 16.6271 20.8877 16.7941 20.5409 16.8224C16.1639 16.8576 11.787 16.8576 7.41002 16.8224C6.97301 16.772 6.70054 16.5347 6.59264 16.1105C6.25699 12.9823 5.93177 9.85338 5.61706 6.72375Z" fill="white"/>
<path opacity="0.963" fill-rule="evenodd" clip-rule="evenodd" d="M7.88372 20.2235C9.44782 20.0687 10.4585 20.7367 10.9159 22.2274C11.0964 23.7926 10.4372 24.8033 8.93841 25.2596C7.37325 25.44 6.36254 24.7809 5.90618 23.2821C5.7321 21.7125 6.39128 20.693 7.88372 20.2235ZM8.14739 21.9637C9.05785 21.9509 9.36545 22.3728 9.07024 23.2294C8.7406 23.5727 8.36265 23.6342 7.93645 23.4139C7.5931 23.0843 7.53161 22.7063 7.75188 22.2802C7.86337 22.1419 7.9952 22.0365 8.14739 21.9637Z" fill="white"/>
<path opacity="0.963" fill-rule="evenodd" clip-rule="evenodd" d="M18.0087 20.2235C19.5728 20.0687 20.5835 20.7367 21.0409 22.2274C21.2214 23.7926 20.5622 24.8033 19.0634 25.2596C17.4983 25.44 16.4875 24.7809 16.0312 23.2821C15.8571 21.7125 16.5163 20.693 18.0087 20.2235ZM18.2724 21.9637C19.1829 21.9509 19.4905 22.3728 19.1952 23.2294C18.8656 23.5727 18.4877 23.6342 18.0615 23.4139C17.7181 23.0843 17.6566 22.7063 17.8769 22.2802C17.9884 22.1419 18.1202 22.0365 18.2724 21.9637Z" fill="white"/>
</svg>
