<svg width="93" height="36" viewBox="0 0 93 36" fill="none" xmlns="http://www.w3.org/2000/svg">
<g clip-path="url(#clip0_359_164)">
<path d="M8.28597 0.548445L6.19909 4.62862L1.52997 5.28502C0.692662 5.40212 0.357099 6.39751 0.964308 6.96763L4.34231 10.1418L3.54335 14.6256C3.39954 15.4361 4.28478 16.0432 5.02622 15.6642L9.20317 13.5471L13.3801 15.6642C14.1216 16.0401 15.0068 15.4361 14.863 14.6256L14.064 10.1418L17.442 6.96763C18.0492 6.39751 17.7137 5.40212 16.8764 5.28502L12.2073 4.62862L10.1204 0.548445C9.74647 -0.178836 8.66308 -0.188081 8.28597 0.548445Z" fill="#E7E7E7"/>
</g>
<g clip-path="url(#clip1_359_164)">
<path d="M26.6961 0.548445L24.6092 4.62862L19.9401 5.28502C19.1028 5.40212 18.7673 6.39751 19.3745 6.96763L22.7525 10.1418L21.9535 14.6256C21.8097 15.4361 22.6949 16.0432 23.4364 15.6642L27.6133 13.5471L31.7903 15.6642C32.5317 16.0401 33.417 15.4361 33.2732 14.6256L32.4742 10.1418L35.8522 6.96763C36.4594 6.39751 36.1238 5.40212 35.2865 5.28502L30.6174 4.62862L28.5305 0.548445C28.1566 -0.178836 27.0732 -0.188081 26.6961 0.548445Z" fill="#E7E7E7"/>
</g>
<g clip-path="url(#clip2_359_164)">
<path d="M45.1024 0.548445L43.0155 4.62862L38.3464 5.28502C37.5091 5.40212 37.1735 6.39751 37.7807 6.96763L41.1587 10.1418L40.3598 14.6256C40.2159 15.4361 41.1012 16.0432 41.8426 15.6642L46.0196 13.5471L50.1965 15.6642C50.938 16.0401 51.8232 15.4361 51.6794 14.6256L50.8804 10.1418L54.2584 6.96763C54.8657 6.39751 54.5301 5.40212 53.6928 5.28502L49.0237 4.62862L46.9368 0.548445C46.5629 -0.178836 45.4795 -0.188081 45.1024 0.548445Z" fill="#E7E7E7"/>
</g>
<g clip-path="url(#clip3_359_164)">
<path d="M63.5106 0.548445L61.4237 4.62862L56.7546 5.28502C55.9173 5.40212 55.5817 6.39751 56.1889 6.96763L59.5669 10.1418L58.768 14.6256C58.6241 15.4361 59.5094 16.0432 60.2508 15.6642L64.4278 13.5471L68.6047 15.6642C69.3462 16.0401 70.2314 15.4361 70.0876 14.6256L69.2887 10.1418L72.6666 6.96763C73.2739 6.39751 72.9383 5.40212 72.101 5.28502L67.4319 4.62862L65.345 0.548445C64.9711 -0.178836 63.8877 -0.188081 63.5106 0.548445Z" fill="#E7E7E7"/>
</g>
<g clip-path="url(#clip4_359_164)">
<path d="M81.9168 0.548445L79.8299 4.62862L75.1608 5.28502C74.3235 5.40212 73.988 6.39751 74.5952 6.96763L77.9732 10.1418L77.1742 14.6256C77.0304 15.4361 77.9156 16.0432 78.6571 15.6642L82.834 13.5471L87.011 15.6642C87.7524 16.0401 88.6377 15.4361 88.4939 14.6256L87.6949 10.1418L91.0729 6.96763C91.6801 6.39751 91.3445 5.40212 90.5072 5.28502L85.8381 4.62862L83.7512 0.548445C83.3773 -0.178836 82.2939 -0.188081 81.9168 0.548445Z" fill="#E7E7E7"/>
</g>
<g clip-path="url(#clip5_359_164)">
<path d="M8.28597 20.5484L6.19909 24.6286L1.52997 25.285C0.692662 25.4021 0.357099 26.3975 0.964308 26.9676L4.34231 30.1418L3.54335 34.6256C3.39954 35.4361 4.28478 36.0432 5.02622 35.6642L9.20317 33.5471L13.3801 35.6642C14.1216 36.0401 15.0068 35.4361 14.863 34.6256L14.064 30.1418L17.442 26.9676C18.0492 26.3975 17.7137 25.4021 16.8764 25.285L12.2073 24.6286L10.1204 20.5484C9.74647 19.8212 8.66308 19.8119 8.28597 20.5484Z" fill="#69BD44"/>
</g>
<g clip-path="url(#clip6_359_164)">
<path d="M26.6961 20.5484L24.6092 24.6286L19.9401 25.285C19.1028 25.4021 18.7673 26.3975 19.3745 26.9676L22.7525 30.1418L21.9535 34.6256C21.8097 35.4361 22.6949 36.0432 23.4364 35.6642L27.6133 33.5471L31.7903 35.6642C32.5317 36.0401 33.417 35.4361 33.2732 34.6256L32.4742 30.1418L35.8522 26.9676C36.4594 26.3975 36.1238 25.4021 35.2865 25.285L30.6174 24.6286L28.5305 20.5484C28.1566 19.8212 27.0732 19.8119 26.6961 20.5484Z" fill="#69BD44"/>
</g>
<g clip-path="url(#clip7_359_164)">
<path d="M45.1024 20.5484L43.0155 24.6286L38.3464 25.285C37.5091 25.4021 37.1735 26.3975 37.7807 26.9676L41.1587 30.1418L40.3598 34.6256C40.2159 35.4361 41.1012 36.0432 41.8426 35.6642L46.0196 33.5471L50.1965 35.6642C50.938 36.0401 51.8232 35.4361 51.6794 34.6256L50.8804 30.1418L54.2584 26.9676C54.8657 26.3975 54.5301 25.4021 53.6928 25.285L49.0237 24.6286L46.9368 20.5484C46.5629 19.8212 45.4795 19.8119 45.1024 20.5484Z" fill="#69BD44"/>
</g>
<g clip-path="url(#clip8_359_164)">
<path d="M63.5106 20.5484L61.4237 24.6286L56.7546 25.285C55.9173 25.4021 55.5817 26.3975 56.1889 26.9676L59.5669 30.1418L58.768 34.6256C58.6241 35.4361 59.5094 36.0432 60.2508 35.6642L64.4278 33.5471L68.6047 35.6642C69.3462 36.0401 70.2314 35.4361 70.0876 34.6256L69.2887 30.1418L72.6666 26.9676C73.2739 26.3975 72.9383 25.4021 72.101 25.285L67.4319 24.6286L65.345 20.5484C64.9711 19.8212 63.8877 19.8119 63.5106 20.5484Z" fill="#69BD44"/>
</g>
<g clip-path="url(#clip9_359_164)">
<path d="M81.9168 20.5484L79.8299 24.6286L75.1608 25.285C74.3235 25.4021 73.988 26.3975 74.5952 26.9676L77.9732 30.1418L77.1742 34.6256C77.0304 35.4361 77.9156 36.0432 78.6571 35.6642L82.834 33.5471L87.011 35.6642C87.7524 36.0401 88.6377 35.4361 88.4939 34.6256L87.6949 30.1418L91.0729 26.9676C91.6801 26.3975 91.3445 25.4021 90.5072 25.285L85.8381 24.6286L83.7512 20.5484C83.3773 19.8212 82.2939 19.8119 81.9168 20.5484Z" fill="#69BD44"/>
</g>
<defs>
<clipPath id="clip0_359_164">
<rect width="18.408" height="15.7783" fill="white"/>
</clipPath>
<clipPath id="clip1_359_164">
<rect width="18.408" height="15.7783" fill="white" transform="translate(18.4102)"/>
</clipPath>
<clipPath id="clip2_359_164">
<rect width="18.408" height="15.7783" fill="white" transform="translate(36.8164)"/>
</clipPath>
<clipPath id="clip3_359_164">
<rect width="18.408" height="15.7783" fill="white" transform="translate(55.2246)"/>
</clipPath>
<clipPath id="clip4_359_164">
<rect width="18.408" height="15.7783" fill="white" transform="translate(73.6309)"/>
</clipPath>
<clipPath id="clip5_359_164">
<rect width="18.408" height="15.7783" fill="white" transform="translate(0 20)"/>
</clipPath>
<clipPath id="clip6_359_164">
<rect width="18.408" height="15.7783" fill="white" transform="translate(18.4102 20)"/>
</clipPath>
<clipPath id="clip7_359_164">
<rect width="18.408" height="15.7783" fill="white" transform="translate(36.8164 20)"/>
</clipPath>
<clipPath id="clip8_359_164">
<rect width="18.408" height="15.7783" fill="white" transform="translate(55.2246 20)"/>
</clipPath>
<clipPath id="clip9_359_164">
<rect width="18.408" height="15.7783" fill="white" transform="translate(73.6309 20)"/>
</clipPath>
</defs>
</svg>
