<svg width="234" height="168" viewBox="0 0 234 168" fill="none" xmlns="http://www.w3.org/2000/svg">
<path opacity="0.04" d="M2.12084 157.412C12.0181 147.06 19.7946 137.412 25.4501 128.471C31.1057 119.53 33.9335 112.236 33.9335 106.589C33.9335 103.295 32.7553 100.236 30.3988 97.4125C28.5136 94.589 25.4501 91.5301 21.2085 88.236C14.6103 83.0595 9.42598 77.6478 5.65559 72.0007C1.8852 66.3537 0 58.8242 0 49.4125C0 34.8242 4.47732 23.0595 13.432 14.1184C22.3867 4.70662 33.6979 0.000732422 47.3656 0.000732422C61.9758 0.000732422 73.7583 4.70662 82.713 14.1184C92.139 23.0595 96.8519 34.8242 96.8519 49.4125C96.8519 67.7654 89.0755 88.0007 73.5226 110.118C58.4411 131.765 38.1752 151.06 12.7251 168.001L2.12084 157.412ZM139.269 157.412C149.166 147.06 156.943 137.412 162.598 128.471C168.254 119.53 171.082 112.236 171.082 106.589C171.082 103.295 169.903 100.236 167.547 97.4125C165.662 94.589 162.598 91.5301 158.356 88.236C151.758 83.0595 146.574 77.6478 142.804 72.0007C139.033 66.3537 137.148 58.8242 137.148 49.4125C137.148 34.8242 141.625 23.0595 150.58 14.1184C159.535 4.70662 170.846 0.000732422 184.514 0.000732422C199.124 0.000732422 210.906 4.70662 219.861 14.1184C229.287 23.0595 234 34.8242 234 49.4125C234 67.7654 226.224 88.0007 210.671 110.118C195.589 131.765 175.323 151.06 149.873 168.001L139.269 157.412Z" fill="#071600"/>
</svg>
