<svg width="18" height="18" viewBox="0 0 18 18" fill="none" xmlns="http://www.w3.org/2000/svg">
<g clip-path="url(#clip0_207_426)">
<path opacity="0.962" fill-rule="evenodd" clip-rule="evenodd" d="M17.9824 5.6075C17.9824 6.01766 17.9824 6.4278 17.9824 6.83796C17.8639 7.65619 17.6003 8.42963 17.1914 9.15828C16.7769 9.83071 16.3081 10.4635 15.7852 11.0567C14.8268 12.027 13.8365 12.9586 12.8145 13.8516C11.666 14.836 10.5176 15.8204 9.36914 16.8048C9.11134 17.0157 8.8535 17.0157 8.5957 16.8048C6.8978 15.3531 5.2103 13.8882 3.5332 12.4102C2.69956 11.6473 1.9437 10.8211 1.26562 9.93171C0.855327 9.35737 0.527203 8.73626 0.28125 8.06843C0.152825 7.66034 0.0532157 7.25017 -0.0175781 6.83796C-0.0175781 6.4278 -0.0175781 6.01766 -0.0175781 5.6075C0.173028 3.88368 0.99334 2.55359 2.44336 1.61726C4.01745 0.776001 5.57606 0.799439 7.11914 1.68757C7.89525 2.24686 8.51632 2.94413 8.98242 3.77937C9.54193 2.71011 10.3622 1.90738 11.4434 1.37117C13.4574 0.654508 15.2093 1.0588 16.6992 2.58406C17.4265 3.46452 17.8543 4.47234 17.9824 5.6075ZM4.6582 2.09187C5.80785 2.11301 6.73949 2.57005 7.45312 3.46296C7.92584 4.08006 8.28911 4.75974 8.54297 5.50203C8.83593 5.78328 9.12892 5.78328 9.42188 5.50203C9.67574 4.75974 10.039 4.08006 10.5117 3.46296C11.7907 2.0119 13.2965 1.72479 15.0293 2.60164C16.275 3.46971 16.8961 4.6709 16.8926 6.20515C16.8894 7.08782 16.6609 7.90812 16.207 8.66609C15.5244 9.7245 14.7099 10.6796 13.7637 11.5313C12.1958 12.9411 10.6021 14.3181 8.98242 15.6622C7.52548 14.4456 6.08407 13.2093 4.6582 11.9532C3.81677 11.1939 3.03746 10.3794 2.32031 9.50984C1.89035 8.95497 1.55051 8.34561 1.30078 7.68171C0.804621 6.07001 1.07415 4.60519 2.10938 3.28718C2.80273 2.5508 3.65235 2.15236 4.6582 2.09187Z" fill="#69BD44"/>
</g>
<defs>
<clipPath id="clip0_207_426">
<rect width="18" height="18" fill="white"/>
</clipPath>
</defs>
</svg>
